<svg xmlns="http://www.w3.org/2000/svg" xmlns:xlink="http://www.w3.org/1999/xlink" contentStyleType="text/css" height="451px" preserveAspectRatio="none" style="width:405px;height:451px;background:#FFFFFF;" version="1.1" viewBox="0 0 405 451" width="405px" zoomAndPan="magnify"><defs/><g><!--class RepositorioLocal--><g id="elem_RepositorioLocal"><rect codeLine="3" fill="#F1F1F1" height="26.2969" id="RepositorioLocal" rx="2.5" ry="2.5" style="stroke:#181818;stroke-width:0.5;" width="121.7734" x="89" y="7"/><text fill="#000000" font-family="sans-serif" font-size="14" lengthAdjust="spacing" textLength="115.7734" x="92" y="24.9951">RepositorioLocal</text></g><!--class RepositorioRemoto--><g id="elem_RepositorioRemoto"><rect codeLine="4" fill="#F1F1F1" height="26.2969" id="RepositorioRemoto" rx="2.5" ry="2.5" style="stroke:#181818;stroke-width:0.5;" width="139.8408" x="7" y="110"/><text fill="#000000" font-family="sans-serif" font-size="14" lengthAdjust="spacing" textLength="133.8408" x="10" y="127.9951">RepositorioRemoto</text></g><!--class RamaLocal--><g id="elem_RamaLocal"><rect codeLine="5" fill="#F1F1F1" height="26.2969" id="RamaLocal" rx="2.5" ry="2.5" style="stroke:#181818;stroke-width:0.5;" width="83.0547" x="182.5" y="110"/><text fill="#000000" font-family="sans-serif" font-size="14" lengthAdjust="spacing" textLength="77.0547" x="185.5" y="127.9951">RamaLocal</text></g><!--class RamaRemota--><g id="elem_RamaRemota"><rect codeLine="6" fill="#F1F1F1" height="26.2969" id="RamaRemota" rx="2.5" ry="2.5" style="stroke:#181818;stroke-width:0.5;" width="101.1357" x="74.5" y="213"/><text fill="#000000" font-family="sans-serif" font-size="14" lengthAdjust="spacing" textLength="95.1357" x="77.5" y="230.9951">RamaRemota</text></g><!--class Commit--><g id="elem_Commit"><rect codeLine="7" fill="#F1F1F1" height="26.2969" id="Commit" rx="2.5" ry="2.5" style="stroke:#181818;stroke-width:0.5;" width="60.9951" x="215.5" y="316"/><text fill="#000000" font-family="sans-serif" font-size="14" lengthAdjust="spacing" textLength="54.9951" x="218.5" y="333.9951">Commit</text></g><!--class Archivo--><g id="elem_Archivo"><rect codeLine="8" fill="#F1F1F1" height="26.2969" id="Archivo" rx="2.5" ry="2.5" style="stroke:#181818;stroke-width:0.5;" width="58.6436" x="149.5" y="419"/><text fill="#000000" font-family="sans-serif" font-size="14" lengthAdjust="spacing" textLength="52.6436" x="152.5" y="436.9951">Archivo</text></g><!--class Usuario--><g id="elem_Usuario"><rect codeLine="9" fill="#F1F1F1" height="26.2969" id="Usuario" rx="2.5" ry="2.5" style="stroke:#181818;stroke-width:0.5;" width="59.2041" x="339.5" y="213"/><text fill="#000000" font-family="sans-serif" font-size="14" lengthAdjust="spacing" textLength="53.2041" x="342.5" y="230.9951">Usuario</text></g><!--class ValidacionCambios--><g id="elem_ValidacionCambios"><rect codeLine="10" fill="#F1F1F1" height="26.2969" id="ValidacionCambios" rx="2.5" ry="2.5" style="stroke:#181818;stroke-width:0.5;" width="139.0547" x="243.5" y="419"/><text fill="#000000" font-family="sans-serif" font-size="14" lengthAdjust="spacing" textLength="133.0547" x="246.5" y="436.9951">ValidacionCambios</text></g><!--link RepositorioLocal to RamaLocal--><g id="link_RepositorioLocal_RamaLocal"><path codeLine="12" d="M159.07,33.38 C173.35,52.87 197.3546,85.6295 211.5346,104.9895 " fill="none" id="RepositorioLocal-to-RamaLocal" style="stroke:#181818;stroke-width:1;"/><polygon fill="#181818" points="215.08,109.83,212.989,100.2057,212.1255,105.7963,206.535,104.9328,215.08,109.83" style="stroke:#181818;stroke-width:1;"/><text fill="#000000" font-family="sans-serif" font-size="13" lengthAdjust="spacing" textLength="56.2847" x="193" y="76.0669">contiene</text></g><!--link RepositorioRemoto to RamaRemota--><g id="link_RepositorioRemoto_RamaRemota"><path codeLine="13" d="M73.1,136.41 C69.92,148.82 67,168.16 74,183 C79.97,195.66 86.8263,202.4789 97.6163,209.6189 " fill="none" id="RepositorioRemoto-to-RamaRemota" style="stroke:#181818;stroke-width:1;"/><polygon fill="#181818" points="102.62,212.93,97.3218,204.6276,98.4503,210.1708,92.9071,211.2992,102.62,212.93" style="stroke:#181818;stroke-width:1;"/><text fill="#000000" font-family="sans-serif" font-size="13" lengthAdjust="spacing" textLength="56.2847" x="75" y="179.0669">contiene</text></g><!--link RepositorioLocal to RepositorioRemoto--><g id="link_RepositorioLocal_RepositorioRemoto"><path codeLine="14" d="M134.42,33 C125.03,40.8 113.33,51.61 105,63 C94.16,77.83 87.9178,91.8887 83.2678,104.3487 " fill="none" id="RepositorioLocal-to-RepositorioRemoto" style="stroke:#181818;stroke-width:1;"/><polygon fill="#181818" points="81.17,109.97,88.0643,102.9366,82.9182,105.2856,80.5692,100.1395,81.17,109.97" style="stroke:#181818;stroke-width:1;"/><text fill="#000000" font-family="sans-serif" font-size="13" lengthAdjust="spacing" textLength="63.6479" x="106" y="76.0669">conecta a</text></g><!--link RamaLocal to RamaRemota--><g id="link_RamaLocal_RamaRemota"><path codeLine="15" d="M207.29,136.01 C196.69,143.98 182.96,154.97 172,166 C157.23,180.87 146.0763,195.3312 137.1463,207.7312 " fill="none" id="RamaLocal-to-RamaRemota" style="stroke:#181818;stroke-width:1;"/><polygon fill="#181818" points="133.64,212.6,142.1454,207.6343,136.562,208.5426,135.6536,202.9592,133.64,212.6" style="stroke:#181818;stroke-width:1;"/><text fill="#000000" font-family="sans-serif" font-size="13" lengthAdjust="spacing" textLength="46.9727" x="173" y="179.0669">sigue a</text></g><!--link RamaLocal to Commit--><g id="link_RamaLocal_Commit"><path codeLine="16" d="M225.31,136.15 C229.22,172.43 240.1457,273.7447 244.0557,309.9447 " fill="none" id="RamaLocal-to-Commit" style="stroke:#181818;stroke-width:1;"/><polygon fill="#181818" points="244.7,315.91,247.7104,306.5325,244.1631,310.9389,239.7567,307.3916,244.7,315.91" style="stroke:#181818;stroke-width:1;"/><text fill="#000000" font-family="sans-serif" font-size="13" lengthAdjust="spacing" textLength="56.2847" x="237" y="230.5669">contiene</text></g><!--link RamaRemota to Commit--><g id="link_RamaRemota_Commit"><path codeLine="17" d="M130.21,239.22 C136.26,252.21 147.32,272.67 162,286 C177.33,299.92 192.5686,308.0835 209.6386,315.0835 " fill="none" id="RamaRemota-to-Commit" style="stroke:#181818;stroke-width:1;"/><polygon fill="#181818" points="215.19,317.36,208.3806,310.2444,210.5639,315.4629,205.3453,317.6462,215.19,317.36" style="stroke:#181818;stroke-width:1;"/><text fill="#000000" font-family="sans-serif" font-size="13" lengthAdjust="spacing" textLength="56.2847" x="163" y="282.0669">contiene</text></g><!--link Commit to Archivo--><g id="link_Commit_Archivo"><path codeLine="18" d="M235.7,342.15 C228.93,350.35 220.06,361.55 213,372 C202.41,387.67 194.5953,401.5068 188.1153,413.6468 " fill="none" id="Commit-to-Archivo" style="stroke:#181818;stroke-width:1;"/><polygon fill="#181818" points="185.29,418.94,193.0568,412.8838,187.6444,414.529,185.9992,409.1167,185.29,418.94" style="stroke:#181818;stroke-width:1;"/><text fill="#000000" font-family="sans-serif" font-size="13" lengthAdjust="spacing" textLength="55.7832" x="214" y="385.0669">modifica</text></g><!--link Usuario to Commit--><g id="link_Usuario_Commit"><path codeLine="19" d="M353.92,239.38 C330.18,258.87 289.0265,292.6617 265.4565,312.0217 " fill="none" id="Usuario-to-Commit" style="stroke:#181818;stroke-width:1;"/><polygon fill="#181818" points="260.82,315.83,270.3136,313.2085,264.6837,312.6564,265.2358,307.0266,260.82,315.83" style="stroke:#181818;stroke-width:1;"/><text fill="#000000" font-family="sans-serif" font-size="13" lengthAdjust="spacing" textLength="54.9834" x="315" y="282.0669">autor de</text></g><!--link Commit to ValidacionCambios--><g id="link_Commit_ValidacionCambios"><path codeLine="20" d="M254.1,342.12 C259.7,350.51 267.31,361.92 274,372 C284.73,388.16 293.7651,401.8423 301.6451,413.7823 " fill="none" id="Commit-to-ValidacionCambios" style="stroke:#181818;stroke-width:1;"/><polygon fill="#181818" points="304.95,418.79,303.3311,409.0751,302.1959,414.6169,296.6541,413.4817,304.95,418.79" style="stroke:#181818;stroke-width:1;"/><text fill="#000000" font-family="sans-serif" font-size="13" lengthAdjust="spacing" textLength="97.6016" x="285" y="385.0669">valida cambios</text></g><!--SRC=[TP1B3eCm34JtEKKkq0jqKQbYsnLIkpV6BPOmHYGWzVPDqr0-4KjFtemdRhWcIzBxjnMIYWPdcg-4F61B1bjmpfRKgsEl0-jD4TfSBadKwwo3m8OBSmGW2OMAi4_3TS26fzbxToE4l3GzeEKQaBKhG2fMPyo-YpsTBij6UxQedMVgo6Jr8hfgSm2lOhE4w20CNZ3Bqhd2FzRnQwGCIV_Uh5rS1qHIuciwLNWMhVd922RTQ-U6CPIszSQTtJ9mKzGi_eGF]--></g></svg>