<svg xmlns="http://www.w3.org/2000/svg" xmlns:xlink="http://www.w3.org/1999/xlink" contentStyleType="text/css" height="620px" preserveAspectRatio="none" style="width:638px;height:620px;background:#FFFFFF;" version="1.1" viewBox="0 0 638 620" width="638px" zoomAndPan="magnify"><defs/><g><!--class SistemaControlVersiones--><g id="elem_SistemaControlVersiones"><rect codeLine="3" fill="#F1F1F1" height="172.6719" id="SistemaControlVersiones" rx="2.5" ry="2.5" style="stroke:#181818;stroke-width:0.5;" width="514.9199" x="7" y="7"/><text fill="#000000" font-family="sans-serif" font-size="14" lengthAdjust="spacing" textLength="175.7793" x="176.5703" y="24.9951">SistemaControlVersiones</text><line style="stroke:#181818;stroke-width:0.5;" x1="8" x2="520.9199" y1="33.2969" y2="33.2969"/><ellipse cx="18" cy="46.9453" fill="none" rx="3" ry="3" style="stroke:#038048;stroke-width:1;"/><text fill="#000000" font-family="sans-serif" font-size="14" lengthAdjust="spacing" textLength="71.2305" x="27" y="50.292">raiz: Nodo</text><line style="stroke:#181818;stroke-width:0.5;" x1="8" x2="520.9199" y1="57.5938" y2="57.5938"/><ellipse cx="18" cy="71.2422" fill="#84BE84" rx="3" ry="3" style="stroke:#038048;stroke-width:1;"/><text fill="#000000" font-family="sans-serif" font-size="14" lengthAdjust="spacing" textLength="321.5283" x="27" y="74.5889">SistemaControlVersiones(nombreRaiz: String)</text><ellipse cx="18" cy="87.5391" fill="#84BE84" rx="3" ry="3" style="stroke:#038048;stroke-width:1;"/><text fill="#000000" font-family="sans-serif" font-size="14" lengthAdjust="spacing" textLength="403.6621" x="27" y="90.8857">crearNuevaRama(nombre: String, padre: String): boolean</text><ellipse cx="18" cy="103.8359" fill="#84BE84" rx="3" ry="3" style="stroke:#038048;stroke-width:1;"/><text fill="#000000" font-family="sans-serif" font-size="14" lengthAdjust="spacing" textLength="488.9199" x="27" y="107.1826">hacerCommit(archivo: String, mensaje: String, rama: String): boolean</text><ellipse cx="18" cy="120.1328" fill="#84BE84" rx="3" ry="3" style="stroke:#038048;stroke-width:1;"/><text fill="#000000" font-family="sans-serif" font-size="14" lengthAdjust="spacing" textLength="141.4697" x="27" y="123.4795">mostrarArbol(): void</text><ellipse cx="18" cy="136.4297" fill="#84BE84" rx="3" ry="3" style="stroke:#038048;stroke-width:1;"/><text fill="#000000" font-family="sans-serif" font-size="14" lengthAdjust="spacing" textLength="254.584" x="27" y="139.7764">mostrarCommits(rama: String): void</text><ellipse cx="18" cy="152.7266" fill="#84BE84" rx="3" ry="3" style="stroke:#038048;stroke-width:1;"/><text fill="#000000" font-family="sans-serif" font-size="14" lengthAdjust="spacing" textLength="319.5186" x="27" y="156.0732">eliminarRama(nombreRama: String): boolean</text><ellipse cx="18" cy="169.0234" fill="#84BE84" rx="3" ry="3" style="stroke:#038048;stroke-width:1;"/><text fill="#000000" font-family="sans-serif" font-size="14" lengthAdjust="spacing" textLength="245.4375" x="27" y="172.3701">buscarNodo(nombre: String): Nodo</text></g><!--class Nodo--><g id="elem_Nodo"><rect codeLine="14" fill="#F1F1F1" height="188.9688" id="Nodo" rx="2.5" ry="2.5" style="stroke:#181818;stroke-width:0.5;" width="315.9805" x="106.47" y="256.67"/><text fill="#000000" font-family="sans-serif" font-size="14" lengthAdjust="spacing" textLength="36.4902" x="246.2151" y="274.6651">Nodo</text><line style="stroke:#181818;stroke-width:0.5;" x1="107.47" x2="421.4505" y1="282.9669" y2="282.9669"/><ellipse cx="117.47" cy="296.6153" fill="none" rx="3" ry="3" style="stroke:#038048;stroke-width:1;"/><text fill="#000000" font-family="sans-serif" font-size="14" lengthAdjust="spacing" textLength="105.2803" x="126.47" y="299.962">nombre: String</text><ellipse cx="117.47" cy="312.9122" fill="none" rx="3" ry="3" style="stroke:#038048;stroke-width:1;"/><text fill="#000000" font-family="sans-serif" font-size="14" lengthAdjust="spacing" textLength="122.083" x="126.47" y="316.2589">commits: String[]</text><ellipse cx="117.47" cy="329.2091" fill="none" rx="3" ry="3" style="stroke:#038048;stroke-width:1;"/><text fill="#000000" font-family="sans-serif" font-size="14" lengthAdjust="spacing" textLength="121.0918" x="126.47" y="332.5557">numCommits: int</text><ellipse cx="117.47" cy="345.5059" fill="none" rx="3" ry="3" style="stroke:#038048;stroke-width:1;"/><text fill="#000000" font-family="sans-serif" font-size="14" lengthAdjust="spacing" textLength="119.0684" x="126.47" y="348.8526">primerHijo: Nodo</text><ellipse cx="117.47" cy="361.8028" fill="none" rx="3" ry="3" style="stroke:#038048;stroke-width:1;"/><text fill="#000000" font-family="sans-serif" font-size="14" lengthAdjust="spacing" textLength="174.6309" x="126.47" y="365.1495">siguienteHermano: Nodo</text><line style="stroke:#181818;stroke-width:0.5;" x1="107.47" x2="421.4505" y1="372.4513" y2="372.4513"/><ellipse cx="117.47" cy="386.0997" fill="#84BE84" rx="3" ry="3" style="stroke:#038048;stroke-width:1;"/><text fill="#000000" font-family="sans-serif" font-size="14" lengthAdjust="spacing" textLength="152.6943" x="126.47" y="389.4464">Nodo(nombre: String)</text><ellipse cx="117.47" cy="402.3966" fill="#84BE84" rx="3" ry="3" style="stroke:#038048;stroke-width:1;"/><text fill="#000000" font-family="sans-serif" font-size="14" lengthAdjust="spacing" textLength="202.5215" x="126.47" y="405.7432">agregarHijo(hijo: Nodo): void</text><ellipse cx="117.47" cy="418.6934" fill="#84BE84" rx="3" ry="3" style="stroke:#038048;stroke-width:1;"/><text fill="#000000" font-family="sans-serif" font-size="14" lengthAdjust="spacing" textLength="289.9805" x="126.47" y="422.0401">agregarCommit(commit: String): boolean</text><ellipse cx="117.47" cy="434.9903" fill="#84BE84" rx="3" ry="3" style="stroke:#038048;stroke-width:1;"/><text fill="#000000" font-family="sans-serif" font-size="14" lengthAdjust="spacing" textLength="257.4551" x="126.47" y="438.337">eliminarCommit(indice: int): boolean</text></g><!--class Commit--><g id="elem_Commit"><rect codeLine="26" fill="#F1F1F1" height="91.1875" id="Commit" rx="2.5" ry="2.5" style="stroke:#181818;stroke-width:0.5;" width="313.8613" x="107.53" y="522.64"/><text fill="#000000" font-family="sans-serif" font-size="14" lengthAdjust="spacing" textLength="54.9951" x="236.9631" y="540.6351">Commit</text><line style="stroke:#181818;stroke-width:0.5;" x1="108.53" x2="420.3913" y1="548.9369" y2="548.9369"/><ellipse cx="118.53" cy="562.5853" fill="none" rx="3" ry="3" style="stroke:#038048;stroke-width:1;"/><text fill="#000000" font-family="sans-serif" font-size="14" lengthAdjust="spacing" textLength="102.5938" x="127.53" y="565.932">archivo: String</text><ellipse cx="118.53" cy="578.8822" fill="none" rx="3" ry="3" style="stroke:#038048;stroke-width:1;"/><text fill="#000000" font-family="sans-serif" font-size="14" lengthAdjust="spacing" textLength="110.4482" x="127.53" y="582.2289">mensaje: String</text><line style="stroke:#181818;stroke-width:0.5;" x1="108.53" x2="420.3913" y1="589.5306" y2="589.5306"/><ellipse cx="118.53" cy="603.1791" fill="#84BE84" rx="3" ry="3" style="stroke:#038048;stroke-width:1;"/><text fill="#000000" font-family="sans-serif" font-size="14" lengthAdjust="spacing" textLength="287.8613" x="127.53" y="606.5257">Commit(archivo: String, mensaje: String)</text></g><!--link SistemaControlVersiones to Nodo--><g id="link_SistemaControlVersiones_Nodo"><path codeLine="32" d="M264.46,179.88 C264.46,204.43 264.46,225.32 264.46,250.34 " fill="none" id="SistemaControlVersiones-to-Nodo" style="stroke:#181818;stroke-width:1;"/><polygon fill="#181818" points="264.46,256.34,268.46,247.34,264.46,251.34,260.46,247.34,264.46,256.34" style="stroke:#181818;stroke-width:1;"/><text fill="#000000" font-family="sans-serif" font-size="13" lengthAdjust="spacing" textLength="38.9746" x="265.46" y="222.7369">posee</text><text fill="#000000" font-family="sans-serif" font-size="13" lengthAdjust="spacing" textLength="8.271" x="256.1641" y="245.5785">1</text></g><!--link Nodo to Commit--><g id="link_Nodo_Commit"><path codeLine="33" d="M264.46,445.87 C264.46,472.36 264.46,493.99 264.46,516.18 " fill="none" id="Nodo-to-Commit" style="stroke:#181818;stroke-width:1;"/><polygon fill="#181818" points="264.46,522.18,268.46,513.18,264.46,517.18,260.46,513.18,264.46,522.18" style="stroke:#181818;stroke-width:1;"/><text fill="#000000" font-family="sans-serif" font-size="13" lengthAdjust="spacing" textLength="56.2847" x="265.46" y="488.7069">contiene</text><text fill="#000000" font-family="sans-serif" font-size="13" lengthAdjust="spacing" textLength="8.271" x="256.1641" y="465.7679">1</text><text fill="#000000" font-family="sans-serif" font-size="13" lengthAdjust="spacing" textLength="6.5" x="258.0732" y="511.7252">*</text></g><!--link Nodo to Nodo--><g id="link_Nodo_Nodo"><path codeLine="34" d="M422.71,340.16 C443.6,342.04 457.45,345.7 457.45,351.16 C457.45,356.61 449.5761,359.745 428.6861,361.615 " fill="none" id="Nodo-to-Nodo" style="stroke:#181818;stroke-width:1;"/><polygon fill="#181818" points="422.71,362.15,432.0308,365.3316,427.6901,361.7042,431.3175,357.3635,422.71,362.15" style="stroke:#181818;stroke-width:1;"/><text fill="#000000" font-family="sans-serif" font-size="13" lengthAdjust="spacing" textLength="30.1895" x="463.45" y="355.7269">hijos</text><text fill="#000000" font-family="sans-serif" font-size="13" lengthAdjust="spacing" textLength="8.271" x="430.5755" y="336.3343">1</text><text fill="#000000" font-family="sans-serif" font-size="13" lengthAdjust="spacing" textLength="6.5" x="430.5326" y="359.3894">*</text></g><!--link Nodo to Nodo--><g id="link_Nodo_Nodo"><path codeLine="35" d="M422.92,326.41 C466.24,327.71 499.45,335.96 499.45,351.16 C499.45,366.35 472.2373,374.4186 428.9173,375.7286 " fill="none" id="Nodo-to-Nodo-1" style="stroke:#181818;stroke-width:1;"/><polygon fill="#181818" points="422.92,375.91,432.0368,379.6361,427.9177,375.7589,431.795,371.6398,422.92,375.91" style="stroke:#181818;stroke-width:1;"/><text fill="#000000" font-family="sans-serif" font-size="13" lengthAdjust="spacing" textLength="119.7612" x="505.45" y="355.7269">siguienteHermano</text></g><!--SRC=[ZLCzRuCm4Dtv5LOcQ9kXAqEbAakd38dKfUfmc1DSX7tHsMHerVzUFcm2AAdATlVUVRrdQYfHQHBTO9Be1fnJHt8U3UpOUk7c7SKHMtJgEr7TzwW4w2jNUouv9EuKf9PD8NWOw4SlPAiiL6X1a7sB5pY0WK2Cf2TrXl8QPhagc1i46ufhq2WxDePy2g9hkl2rrA1rS9hracx0tLQ6dHUGLocuIJlqmbGkeN6EIrTjPaHio905cLro-6jcqJhT7T_9jxex2wB-H2FwQ59zoOqwZjl5xCTd9BTc5o6oFcJFGWRbZKwyiCzHrH9QZsye1kmIlBLdWA0Ih63ebzPJqwKuWHFS6jUzgqnKCh39bgHnE616dTGPMPC-gvSGNLm-Xv3zv-F9-c7t_eRjzaLjdZUZIRawiqDCXg3F3kZ39YwPTqvPtubyWn8Qz0gw4UsHa5rxymi0]--></g></svg>