<svg xmlns="http://www.w3.org/2000/svg" xmlns:xlink="http://www.w3.org/1999/xlink" contentStyleType="text/css" height="974px" preserveAspectRatio="none" style="width:725px;height:974px;background:#FFFFFF;" version="1.1" viewBox="0 0 725 974" width="725px" zoomAndPan="magnify"><defs/><g><!--class Documento--><g id="elem_Documento"><rect codeLine="1" fill="#F1F1F1" height="308.75" id="Documento" rx="2.5" ry="2.5" style="stroke:#181818;stroke-width:0.5;" width="345.5049" x="7" y="436.27"/><ellipse cx="134.9551" cy="452.27" fill="#ADD1B2" rx="11" ry="11" style="stroke:#181818;stroke-width:1;"/><path d="M137.9238,457.9106 Q137.3457,458.2075 136.7051,458.3481 Q136.0645,458.5044 135.3613,458.5044 Q132.8613,458.5044 131.5332,456.8638 Q130.2207,455.2075 130.2207,452.0825 Q130.2207,448.9575 131.5332,447.3013 Q132.8613,445.645 135.3613,445.645 Q136.0645,445.645 136.7051,445.8013 Q137.3613,445.9575 137.9238,446.2544 L137.9238,448.9731 Q137.2988,448.395 136.7051,448.1294 Q136.1113,447.8481 135.4863,447.8481 Q134.1426,447.8481 133.4551,448.9263 Q132.7676,449.9888 132.7676,452.0825 Q132.7676,454.1763 133.4551,455.2544 Q134.1426,456.3169 135.4863,456.3169 Q136.1113,456.3169 136.7051,456.0513 Q137.2988,455.77 137.9238,455.1919 L137.9238,457.9106 Z " fill="#000000"/><text fill="#000000" font-family="sans-serif" font-size="14" lengthAdjust="spacing" textLength="81.0947" x="155.4551" y="457.1167">Documento</text><line style="stroke:#181818;stroke-width:0.5;" x1="8" x2="351.5049" y1="468.27" y2="468.27"/><rect fill="none" height="6" style="stroke:#C82930;stroke-width:1;" width="6" x="15" y="478.9184"/><text fill="#000000" font-family="sans-serif" font-size="14" lengthAdjust="spacing" textLength="98.2939" x="27" y="485.2651">String[] lineas</text><rect fill="none" height="6" style="stroke:#C82930;stroke-width:1;" width="6" x="15" y="495.2153"/><text fill="#000000" font-family="sans-serif" font-size="14" lengthAdjust="spacing" textLength="100.0645" x="27" y="501.562">int lineaActiva</text><line style="stroke:#181818;stroke-width:0.5;" x1="8" x2="351.5049" y1="508.8638" y2="508.8638"/><ellipse cx="18" cy="522.5122" fill="#84BE84" rx="3" ry="3" style="stroke:#038048;stroke-width:1;"/><text fill="#000000" font-family="sans-serif" font-size="14" lengthAdjust="spacing" textLength="247.167" x="27" y="525.8589">Documento(String[] lineasIniciales)</text><ellipse cx="18" cy="538.8091" fill="#84BE84" rx="3" ry="3" style="stroke:#038048;stroke-width:1;"/><text fill="#000000" font-family="sans-serif" font-size="14" lengthAdjust="spacing" textLength="104.3438" x="27" y="542.1557">void imprimir()</text><ellipse cx="18" cy="555.1059" fill="#84BE84" rx="3" ry="3" style="stroke:#038048;stroke-width:1;"/><text fill="#000000" font-family="sans-serif" font-size="14" lengthAdjust="spacing" textLength="302.0117" x="27" y="558.4526">void establecerLineaActiva(int indiceLinea)</text><ellipse cx="18" cy="571.4028" fill="#84BE84" rx="3" ry="3" style="stroke:#038048;stroke-width:1;"/><text fill="#000000" font-family="sans-serif" font-size="14" lengthAdjust="spacing" textLength="284.9424" x="27" y="574.7495">void editarLinea(String nuevoContenido)</text><ellipse cx="18" cy="587.6997" fill="#84BE84" rx="3" ry="3" style="stroke:#038048;stroke-width:1;"/><text fill="#000000" font-family="sans-serif" font-size="14" lengthAdjust="spacing" textLength="319.5049" x="27" y="591.0464">void intercambiarLineas(int linea1, int linea2)</text><ellipse cx="18" cy="603.9966" fill="#84BE84" rx="3" ry="3" style="stroke:#038048;stroke-width:1;"/><text fill="#000000" font-family="sans-serif" font-size="14" lengthAdjust="spacing" textLength="139.8838" x="27" y="607.3432">void eliminarLinea()</text><ellipse cx="18" cy="620.2934" fill="#84BE84" rx="3" ry="3" style="stroke:#038048;stroke-width:1;"/><text fill="#000000" font-family="sans-serif" font-size="14" lengthAdjust="spacing" textLength="211.7842" x="27" y="623.6401">int obtenerIndiceLineaActiva()</text><ellipse cx="18" cy="636.5903" fill="#84BE84" rx="3" ry="3" style="stroke:#038048;stroke-width:1;"/><text fill="#000000" font-family="sans-serif" font-size="14" lengthAdjust="spacing" textLength="264.7559" x="27" y="639.937">String obtenerContenidoLineaActiva()</text><ellipse cx="18" cy="652.8872" fill="#84BE84" rx="3" ry="3" style="stroke:#038048;stroke-width:1;"/><text fill="#000000" font-family="sans-serif" font-size="14" lengthAdjust="spacing" textLength="167.9248" x="27" y="656.2339">String[] obtenerLineas()</text><ellipse cx="18" cy="669.1841" fill="#84BE84" rx="3" ry="3" style="stroke:#038048;stroke-width:1;"/><text fill="#000000" font-family="sans-serif" font-size="14" lengthAdjust="spacing" textLength="261.7754" x="27" y="672.5307">void establecerLineas(String[] lineas)</text><rect fill="#F24D5C" height="6" style="stroke:#C82930;stroke-width:1;" width="6" x="15" y="682.4809"/><text fill="#000000" font-family="sans-serif" font-size="14" lengthAdjust="spacing" textLength="270.7168" x="27" y="688.8276">boolean esLineaValida(int indiceLinea)</text><rect fill="#F24D5C" height="6" style="stroke:#C82930;stroke-width:1;" width="6" x="15" y="698.7778"/><text fill="#000000" font-family="sans-serif" font-size="14" lengthAdjust="spacing" textLength="230.3779" x="27" y="705.1245">String separador(int indiceLinea)</text><rect fill="#F24D5C" height="6" style="stroke:#C82930;stroke-width:1;" width="6" x="15" y="715.0747"/><text fill="#000000" font-family="sans-serif" font-size="14" lengthAdjust="spacing" textLength="213.582" x="27" y="721.4214">void imprimirLineaHorizontal()</text><rect fill="#F24D5C" height="6" style="stroke:#C82930;stroke-width:1;" width="6" x="15" y="731.3716"/><text fill="#000000" font-family="sans-serif" font-size="14" lengthAdjust="spacing" textLength="149.8506" x="27" y="737.7182">void limpiarPantalla()</text></g><!--class Historial--><g id="elem_Historial"><rect codeLine="20" fill="#F1F1F1" height="178.375" id="Historial" rx="2.5" ry="2.5" style="stroke:#181818;stroke-width:0.5;" width="330.6846" x="387.41" y="501.46"/><ellipse cx="519.5623" cy="517.46" fill="#ADD1B2" rx="11" ry="11" style="stroke:#181818;stroke-width:1;"/><path d="M522.5311,523.1006 Q521.953,523.3975 521.3123,523.5381 Q520.6717,523.6944 519.9686,523.6944 Q517.4686,523.6944 516.1405,522.0538 Q514.828,520.3975 514.828,517.2725 Q514.828,514.1475 516.1405,512.4913 Q517.4686,510.835 519.9686,510.835 Q520.6717,510.835 521.3123,510.9913 Q521.9686,511.1475 522.5311,511.4444 L522.5311,514.1631 Q521.9061,513.585 521.3123,513.3194 Q520.7186,513.0381 520.0936,513.0381 Q518.7498,513.0381 518.0623,514.1163 Q517.3748,515.1788 517.3748,517.2725 Q517.3748,519.3663 518.0623,520.4444 Q518.7498,521.5069 520.0936,521.5069 Q520.7186,521.5069 521.3123,521.2413 Q521.9061,520.96 522.5311,520.3819 L522.5311,523.1006 Z " fill="#000000"/><text fill="#000000" font-family="sans-serif" font-size="14" lengthAdjust="spacing" textLength="57.8799" x="540.0623" y="522.3067">Historial</text><line style="stroke:#181818;stroke-width:0.5;" x1="388.41" x2="717.0946" y1="533.46" y2="533.46"/><rect fill="none" height="6" style="stroke:#C82930;stroke-width:1;" width="6" x="395.41" y="544.1084"/><text fill="#000000" font-family="sans-serif" font-size="14" lengthAdjust="spacing" textLength="224.7383" x="407.41" y="550.4551">EstadoDocumento estadoActual</text><rect fill="none" height="6" style="stroke:#C82930;stroke-width:1;" width="6" x="395.41" y="560.4053"/><text fill="#000000" font-family="sans-serif" font-size="14" lengthAdjust="spacing" textLength="217.2051" x="407.41" y="566.752">EstadoDocumento estadoUndo</text><rect fill="none" height="6" style="stroke:#C82930;stroke-width:1;" width="6" x="395.41" y="576.7022"/><text fill="#000000" font-family="sans-serif" font-size="14" lengthAdjust="spacing" textLength="216.4258" x="407.41" y="583.0489">EstadoDocumento estadoRedo</text><line style="stroke:#181818;stroke-width:0.5;" x1="388.41" x2="717.0946" y1="590.3506" y2="590.3506"/><ellipse cx="398.41" cy="603.9991" fill="#84BE84" rx="3" ry="3" style="stroke:#038048;stroke-width:1;"/><text fill="#000000" font-family="sans-serif" font-size="14" lengthAdjust="spacing" textLength="233.5498" x="407.41" y="607.3457">Historial(Documento documento)</text><ellipse cx="398.41" cy="620.2959" fill="#84BE84" rx="3" ry="3" style="stroke:#038048;stroke-width:1;"/><text fill="#000000" font-family="sans-serif" font-size="14" lengthAdjust="spacing" textLength="265.0635" x="407.41" y="623.6426">void guardar(Documento documento)</text><ellipse cx="398.41" cy="636.5928" fill="#84BE84" rx="3" ry="3" style="stroke:#038048;stroke-width:1;"/><text fill="#000000" font-family="sans-serif" font-size="14" lengthAdjust="spacing" textLength="274.0596" x="407.41" y="639.9395">void deshacer(Documento documento)</text><ellipse cx="398.41" cy="652.8897" fill="#84BE84" rx="3" ry="3" style="stroke:#038048;stroke-width:1;"/><text fill="#000000" font-family="sans-serif" font-size="14" lengthAdjust="spacing" textLength="263.6348" x="407.41" y="656.2364">void rehacer(Documento documento)</text><rect fill="#F24D5C" height="6" style="stroke:#C82930;stroke-width:1;" width="6" x="395.41" y="666.1866"/><text fill="#000000" font-family="sans-serif" font-size="14" lengthAdjust="spacing" textLength="304.6846" x="407.41" y="672.5332">void aplicarEstado(Documento documento)</text></g><!--class EstadoDocumento--><g id="elem_EstadoDocumento"><rect codeLine="31" fill="#F1F1F1" height="145.7813" id="EstadoDocumento" rx="2.5" ry="2.5" style="stroke:#181818;stroke-width:0.5;" width="418.6973" x="156.4" y="822.02"/><ellipse cx="297.1212" cy="838.02" fill="#ADD1B2" rx="11" ry="11" style="stroke:#181818;stroke-width:1;"/><path d="M300.0899,843.6606 Q299.5118,843.9575 298.8712,844.0981 Q298.2306,844.2544 297.5274,844.2544 Q295.0274,844.2544 293.6993,842.6138 Q292.3868,840.9575 292.3868,837.8325 Q292.3868,834.7075 293.6993,833.0513 Q295.0274,831.395 297.5274,831.395 Q298.2306,831.395 298.8712,831.5513 Q299.5274,831.7075 300.0899,832.0044 L300.0899,834.7231 Q299.4649,834.145 298.8712,833.8794 Q298.2774,833.5981 297.6524,833.5981 Q296.3087,833.5981 295.6212,834.6763 Q294.9337,835.7388 294.9337,837.8325 Q294.9337,839.9263 295.6212,841.0044 Q296.3087,842.0669 297.6524,842.0669 Q298.2774,842.0669 298.8712,841.8013 Q299.4649,841.52 300.0899,840.9419 L300.0899,843.6606 Z " fill="#000000"/><text fill="#000000" font-family="sans-serif" font-size="14" lengthAdjust="spacing" textLength="128.7549" x="317.6212" y="842.8667">EstadoDocumento</text><line style="stroke:#181818;stroke-width:0.5;" x1="157.4" x2="574.0973" y1="854.02" y2="854.02"/><rect fill="none" height="6" style="stroke:#C82930;stroke-width:1;" width="6" x="164.4" y="864.6684"/><text fill="#000000" font-family="sans-serif" font-size="14" lengthAdjust="spacing" textLength="98.2939" x="176.4" y="871.0151">String[] lineas</text><rect fill="none" height="6" style="stroke:#C82930;stroke-width:1;" width="6" x="164.4" y="880.9653"/><text fill="#000000" font-family="sans-serif" font-size="14" lengthAdjust="spacing" textLength="145.8242" x="176.4" y="887.312">int indiceLineaActiva</text><line style="stroke:#181818;stroke-width:0.5;" x1="157.4" x2="574.0973" y1="894.6138" y2="894.6138"/><ellipse cx="167.4" cy="908.2622" fill="#84BE84" rx="3" ry="3" style="stroke:#038048;stroke-width:1;"/><text fill="#000000" font-family="sans-serif" font-size="14" lengthAdjust="spacing" textLength="392.6973" x="176.4" y="911.6089">EstadoDocumento(String[] lineas, int indiceLineaActiva)</text><ellipse cx="167.4" cy="924.5591" fill="#84BE84" rx="3" ry="3" style="stroke:#038048;stroke-width:1;"/><text fill="#000000" font-family="sans-serif" font-size="14" lengthAdjust="spacing" textLength="320.3115" x="176.4" y="927.9057">EstadoDocumento(EstadoDocumento estado)</text><ellipse cx="167.4" cy="940.8559" fill="#84BE84" rx="3" ry="3" style="stroke:#038048;stroke-width:1;"/><text fill="#000000" font-family="sans-serif" font-size="14" lengthAdjust="spacing" textLength="167.9248" x="176.4" y="944.2026">String[] obtenerLineas()</text><ellipse cx="167.4" cy="957.1528" fill="#84BE84" rx="3" ry="3" style="stroke:#038048;stroke-width:1;"/><text fill="#000000" font-family="sans-serif" font-size="14" lengthAdjust="spacing" textLength="169.6953" x="176.4" y="960.4995">int obtenerLineaActiva()</text></g><!--class EditorDocumento--><g id="elem_EditorDocumento"><rect codeLine="40" fill="#F1F1F1" height="210.9688" id="EditorDocumento" rx="2.5" ry="2.5" style="stroke:#181818;stroke-width:0.5;" width="266.7002" x="232.4" y="148.3"/><ellipse cx="300.2364" cy="164.3" fill="#ADD1B2" rx="11" ry="11" style="stroke:#181818;stroke-width:1;"/><path d="M303.2052,169.9406 Q302.6271,170.2375 301.9864,170.3781 Q301.3458,170.5344 300.6427,170.5344 Q298.1427,170.5344 296.8146,168.8937 Q295.5021,167.2375 295.5021,164.1125 Q295.5021,160.9875 296.8146,159.3312 Q298.1427,157.675 300.6427,157.675 Q301.3458,157.675 301.9864,157.8312 Q302.6427,157.9875 303.2052,158.2844 L303.2052,161.0031 Q302.5802,160.425 301.9864,160.1594 Q301.3927,159.8781 300.7677,159.8781 Q299.4239,159.8781 298.7364,160.9562 Q298.0489,162.0187 298.0489,164.1125 Q298.0489,166.2062 298.7364,167.2844 Q299.4239,168.3469 300.7677,168.3469 Q301.3927,168.3469 301.9864,168.0812 Q302.5802,167.8 303.2052,167.2219 L303.2052,169.9406 Z " fill="#000000"/><text fill="#000000" font-family="sans-serif" font-size="14" lengthAdjust="spacing" textLength="122.5273" x="320.7364" y="169.1467">EditorDocumento</text><line style="stroke:#181818;stroke-width:0.5;" x1="233.4" x2="498.1002" y1="180.3" y2="180.3"/><rect fill="none" height="6" style="stroke:#C82930;stroke-width:1;" width="6" x="240.4" y="190.9484"/><text fill="#000000" font-family="sans-serif" font-size="14" lengthAdjust="spacing" textLength="164.7461" x="252.4" y="197.2951">Documento documento</text><rect fill="none" height="6" style="stroke:#C82930;stroke-width:1;" width="6" x="240.4" y="207.2453"/><text fill="#000000" font-family="sans-serif" font-size="14" lengthAdjust="spacing" textLength="118.5557" x="252.4" y="213.592">Historial historial</text><rect fill="none" height="6" style="stroke:#C82930;stroke-width:1;" width="6" x="240.4" y="223.5422"/><text fill="#000000" font-family="sans-serif" font-size="14" lengthAdjust="spacing" textLength="116.5049" x="252.4" y="229.8889">Scanner entrada</text><rect fill="none" height="6" style="stroke:#C82930;stroke-width:1;" width="6" x="240.4" y="239.8391"/><text fill="#000000" font-family="sans-serif" font-size="14" lengthAdjust="spacing" textLength="138.2705" x="252.4" y="246.1857">String portapapeles</text><line style="stroke:#181818;stroke-width:0.5;" x1="233.4" x2="498.1002" y1="253.4875" y2="253.4875"/><ellipse cx="243.4" cy="267.1359" fill="#84BE84" rx="3" ry="3" style="stroke:#038048;stroke-width:1;"/><text fill="#000000" font-family="sans-serif" font-size="14" lengthAdjust="spacing" textLength="133.4512" x="252.4" y="270.4826">EditorDocumento()</text><ellipse cx="243.4" cy="283.4328" fill="#84BE84" rx="3" ry="3" style="stroke:#038048;stroke-width:1;"/><text fill="#000000" font-family="sans-serif" font-size="14" lengthAdjust="spacing" textLength="102.5117" x="252.4" y="286.7795">void ejecutar()</text><rect fill="#F24D5C" height="6" style="stroke:#C82930;stroke-width:1;" width="6" x="240.4" y="296.7297"/><text fill="#000000" font-family="sans-serif" font-size="14" lengthAdjust="spacing" textLength="194.7012" x="252.4" y="303.0764">boolean procesarAcciones()</text><rect fill="#F24D5C" height="6" style="stroke:#C82930;stroke-width:1;" width="6" x="240.4" y="313.0266"/><text fill="#000000" font-family="sans-serif" font-size="14" lengthAdjust="spacing" textLength="142.5566" x="252.4" y="319.3732">char pedirCaracter()</text><rect fill="#F24D5C" height="6" style="stroke:#C82930;stroke-width:1;" width="6" x="240.4" y="329.3234"/><text fill="#000000" font-family="sans-serif" font-size="14" lengthAdjust="spacing" textLength="221.5322" x="252.4" y="335.6701">int pedirEntero(String mensaje)</text><rect fill="#F24D5C" height="6" style="stroke:#C82930;stroke-width:1;" width="6" x="240.4" y="345.6203"/><text fill="#000000" font-family="sans-serif" font-size="14" lengthAdjust="spacing" textLength="240.7002" x="252.4" y="351.967">String pedirString(String mensaje)</text></g><!--class Endlin--><g id="elem_Endlin"><rect codeLine="53" fill="#F1F1F1" height="64.2969" id="Endlin" rx="2.5" ry="2.5" style="stroke:#181818;stroke-width:0.5;" width="236.54" x="247.48" y="7"/><ellipse cx="339.8711" cy="23" fill="#ADD1B2" rx="11" ry="11" style="stroke:#181818;stroke-width:1;"/><path d="M342.8399,28.6406 Q342.2617,28.9375 341.6211,29.0781 Q340.9805,29.2344 340.2774,29.2344 Q337.7774,29.2344 336.4492,27.5938 Q335.1367,25.9375 335.1367,22.8125 Q335.1367,19.6875 336.4492,18.0313 Q337.7774,16.375 340.2774,16.375 Q340.9805,16.375 341.6211,16.5313 Q342.2774,16.6875 342.8399,16.9844 L342.8399,19.7031 Q342.2149,19.125 341.6211,18.8594 Q341.0274,18.5781 340.4024,18.5781 Q339.0586,18.5781 338.3711,19.6563 Q337.6836,20.7188 337.6836,22.8125 Q337.6836,24.9063 338.3711,25.9844 Q339.0586,27.0469 340.4024,27.0469 Q341.0274,27.0469 341.6211,26.7813 Q342.2149,26.5 342.8399,25.9219 L342.8399,28.6406 Z " fill="#000000"/><text fill="#000000" font-family="sans-serif" font-size="14" lengthAdjust="spacing" textLength="43.2578" x="360.3711" y="27.8467">Endlin</text><line style="stroke:#181818;stroke-width:0.5;" x1="248.48" x2="483.02" y1="39" y2="39"/><line style="stroke:#181818;stroke-width:0.5;" x1="248.48" x2="483.02" y1="47" y2="47"/><ellipse cx="258.48" cy="60.6484" fill="#84BE84" rx="3" ry="3" style="stroke:#038048;stroke-width:1;"/><text fill="#000000" font-family="sans-serif" font-size="14" lengthAdjust="spacing" textLength="210.54" x="267.48" y="63.9951">static void main(String[] args)</text></g><!--reverse link Documento to EstadoDocumento--><g id="link_Documento_EstadoDocumento"><path codeLine="57" d="M280.6779,755.6507 C297.0979,782.3407 307.17,798.7 321.4,821.84 " fill="none" id="Documento-backto-EstadoDocumento" style="stroke:#181818;stroke-width:1;"/><polygon fill="#181818" points="274.39,745.43,274.127,752.6363,280.6779,755.6507,280.9408,748.4444,274.39,745.43" style="stroke:#181818;stroke-width:1;"/><polygon fill="#000000" points="308.37,787.845,306.1335,778.6011,301.1272,781.6812,308.37,787.845" style="stroke:#000000;stroke-width:1;"/><text fill="#000000" font-family="sans-serif" font-size="13" lengthAdjust="spacing" textLength="55.8911" x="314.75" y="788.0869">gestiona</text><text fill="#000000" font-family="sans-serif" font-size="13" lengthAdjust="spacing" textLength="8.271" x="270.5032" y="764.8534">1</text><text fill="#000000" font-family="sans-serif" font-size="13" lengthAdjust="spacing" textLength="6.5" x="310.7637" y="810.9823">*</text></g><!--reverse link Historial to EstadoDocumento--><g id="link_Historial_EstadoDocumento"><path codeLine="58" d="M491.597,690.4952 C463.797,735.4352 436.76,779.13 410.53,821.53 " fill="none" id="Historial-backto-EstadoDocumento" style="stroke:#181818;stroke-width:1;"/><polygon fill="#181818" points="497.91,680.29,491.3518,683.2883,491.597,690.4952,498.1553,687.4969,497.91,680.29" style="stroke:#181818;stroke-width:1;"/><polygon fill="#000000" points="439.1194,787.8385,446.3775,781.6927,441.3789,778.6002,439.1194,787.8385" style="stroke:#000000;stroke-width:1;"/><text fill="#000000" font-family="sans-serif" font-size="13" lengthAdjust="spacing" textLength="63.5591" x="450.75" y="788.0869">almacena</text><text fill="#000000" font-family="sans-serif" font-size="13" lengthAdjust="spacing" textLength="8.271" x="485.4153" y="699.7995">1</text><text fill="#000000" font-family="sans-serif" font-size="13" lengthAdjust="spacing" textLength="6.5" x="408.5361" y="810.8943">*</text></g><!--reverse link EditorDocumento to Documento--><g id="link_EditorDocumento_Documento"><path codeLine="59" d="M301.8401,369.8487 C288.3501,394.1187 279.55,409.97 265.17,435.87 " fill="none" id="EditorDocumento-backto-Documento" style="stroke:#181818;stroke-width:1;"/><polygon fill="#181818" points="307.67,359.36,301.2588,362.661,301.8401,369.8487,308.2513,366.5476,307.67,359.36" style="stroke:#181818;stroke-width:1;"/><polygon fill="#000000" points="292.3222,402.2074,299.2833,395.7272,294.1449,392.8732,292.3222,402.2074" style="stroke:#000000;stroke-width:1;"/><text fill="#000000" font-family="sans-serif" font-size="13" lengthAdjust="spacing" textLength="32.9253" x="303.75" y="402.3369">edita</text><text fill="#000000" font-family="sans-serif" font-size="13" lengthAdjust="spacing" textLength="8.271" x="295.3145" y="379.3822">1</text><text fill="#000000" font-family="sans-serif" font-size="13" lengthAdjust="spacing" textLength="8.271" x="261.1202" y="425.0799">1</text></g><!--reverse link EditorDocumento to Historial--><g id="link_EditorDocumento_Historial"><path codeLine="60" d="M430.0012,369.8368 C455.4012,415.3168 478.99,457.56 503.29,501.07 " fill="none" id="EditorDocumento-backto-Historial" style="stroke:#181818;stroke-width:1;"/><polygon fill="#181818" points="424.15,359.36,423.5833,366.5488,430.0012,369.8368,430.5679,362.648,424.15,359.36" style="stroke:#181818;stroke-width:1;"/><polygon fill="#000000" points="455.1879,402.2018,453.3436,392.8718,448.2118,395.7377,455.1879,402.2018" style="stroke:#000000;stroke-width:1;"/><text fill="#000000" font-family="sans-serif" font-size="13" lengthAdjust="spacing" textLength="34.874" x="461.75" y="402.3369">sigue</text><text fill="#000000" font-family="sans-serif" font-size="13" lengthAdjust="spacing" textLength="8.271" x="419.9845" y="379.3822">1</text><text fill="#000000" font-family="sans-serif" font-size="13" lengthAdjust="spacing" textLength="8.271" x="491.0405" y="490.4063">1</text></g><!--link Endlin to EditorDocumento--><g id="link_Endlin_EditorDocumento"><path codeLine="62" d="M365.75,71.53 C365.75,92.09 365.75,114.26 365.75,142.27 " fill="none" id="Endlin-to-EditorDocumento" style="stroke:#181818;stroke-width:1;"/><polygon fill="#181818" points="365.75,148.27,369.75,139.27,365.75,143.27,361.75,139.27,365.75,148.27" style="stroke:#181818;stroke-width:1;"/><polygon fill="#000000" points="370.75,114.8664,373.6889,105.8213,367.8111,105.8213,370.75,114.8664" style="stroke:#000000;stroke-width:1;"/><text fill="#000000" font-family="sans-serif" font-size="13" lengthAdjust="spacing" textLength="48.0581" x="379.75" y="114.3669">ejecuta</text><text fill="#000000" font-family="sans-serif" font-size="13" lengthAdjust="spacing" textLength="8.271" x="356.9892" y="91.4617">1</text><text fill="#000000" font-family="sans-serif" font-size="13" lengthAdjust="spacing" textLength="8.271" x="357.4783" y="137.3952">1</text></g><!--SRC=[ZPHDRzim38Rl_XL2JavJ7xfZ3W6Aha0Bx31is2x33en4E2naoP3i73RiluzMPAjMFjnSx8WFJV8bAQd1U_7Pohv1qrdnjn3ygyJtpf6fV_qMcWo2ZwTakjF1e-pe2E5qaxpBpElLa2JGwDUHF5fIWfhMKKEkd9sYxs2lKQBxaWAKGq0oYYI6qxc7eWvET0miJ8z7-sHDXuQKdKVbGoUXsLFqyULKpSDzgkpJF8RcJCqOPJGDiDrp47IlARcOyWZ5b28t9NKTPTaY7FExfO_FjLx75ksjrGY6-S3z14tgYevZbuN75Xmewwvnixu5oujrz8Th0btE8DQhPOM_mc3IGud_YaA68NiXtx4Nw6d8dhacPTFmOVZFulIWRo8_ZB8tWMyOWKqAMoP8ZMypYUiUd0Ato2dq1-16B88E5xWe6hIQ9BXJAPVfISMytkM5fNn4OuhPb_A1kh_ilBxYVRaF7vpmTmirtuzKDY-xTUTbNn0hMjAu7SQtKIe9XYC9XddgORuBhNKTjD0YNrjZgVFOsLw-eUpv7Yhp1MoTbUZ1FKf9rg2V07a09rg-lTmJRvtaQsao3Je4o_DmMuqj4HpMmnjcMnl0q_iPc7GpYjiPvTe8Raf7yfHv0sHIqy7LFlWbHLSFAt5NLM9rjpeRkwsekSDS68XTaQI-xGAwuNq8Bda_9qT-ldS9b_m2dy9lXQUwH-QBMFXWhwfTUERVs8xD4xl_]--></g></svg>