<svg xmlns="http://www.w3.org/2000/svg" xmlns:xlink="http://www.w3.org/1999/xlink" contentStyleType="text/css" height="1009px" preserveAspectRatio="none" style="width:1102px;height:1009px;background:#FFFFFF;" version="1.1" viewBox="0 0 1102 1009" width="1102px" zoomAndPan="magnify"><defs/><g><!--class Repositorio--><g id="elem_Repositorio"><rect codeLine="2" fill="#F1F1F1" height="145.7813" id="Repositorio" rx="2.5" ry="2.5" style="stroke:#181818;stroke-width:0.5;" width="323.9648" x="690.92" y="163.89"/><ellipse cx="809.0313" cy="179.89" fill="#ADD1B2" rx="11" ry="11" style="stroke:#181818;stroke-width:1;"/><path d="M812.0001,185.5306 Q811.422,185.8275 810.7813,185.9681 Q810.1407,186.1244 809.4376,186.1244 Q806.9376,186.1244 805.6095,184.4838 Q804.297,182.8275 804.297,179.7025 Q804.297,176.5775 805.6095,174.9213 Q806.9376,173.265 809.4376,173.265 Q810.1407,173.265 810.7813,173.4213 Q811.4376,173.5775 812.0001,173.8744 L812.0001,176.5931 Q811.3751,176.015 810.7813,175.7494 Q810.1876,175.4681 809.5626,175.4681 Q808.2188,175.4681 807.5313,176.5463 Q806.8438,177.6088 806.8438,179.7025 Q806.8438,181.7963 807.5313,182.8744 Q808.2188,183.9369 809.5626,183.9369 Q810.1876,183.9369 810.7813,183.6713 Q811.3751,183.39 812.0001,182.8119 L812.0001,185.5306 Z " fill="#000000"/><text fill="#000000" font-family="sans-serif" font-size="14" lengthAdjust="spacing" textLength="79.2422" x="829.5313" y="184.7367">Repositorio</text><line style="stroke:#181818;stroke-width:0.5;" x1="691.92" x2="1013.8848" y1="195.89" y2="195.89"/><rect fill="none" height="6" style="stroke:#C82930;stroke-width:1;" width="6" x="698.92" y="206.5384"/><text fill="#000000" font-family="sans-serif" font-size="14" lengthAdjust="spacing" textLength="63.7246" x="710.92" y="212.8851">id: String</text><rect fill="none" height="6" style="stroke:#C82930;stroke-width:1;" width="6" x="698.92" y="222.8353"/><text fill="#000000" font-family="sans-serif" font-size="14" lengthAdjust="spacing" textLength="105.2803" x="710.92" y="229.182">nombre: String</text><rect fill="none" height="6" style="stroke:#C82930;stroke-width:1;" width="6" x="698.92" y="239.1322"/><text fill="#000000" font-family="sans-serif" font-size="14" lengthAdjust="spacing" textLength="130.9971" x="710.92" y="245.4789">descripcion: String</text><rect fill="none" height="6" style="stroke:#C82930;stroke-width:1;" width="6" x="698.92" y="255.4291"/><text fill="#000000" font-family="sans-serif" font-size="14" lengthAdjust="spacing" textLength="169.6748" x="710.92" y="261.7757">arbolRamas: NodoRama</text><line style="stroke:#181818;stroke-width:0.5;" x1="691.92" x2="1013.8848" y1="269.0775" y2="269.0775"/><ellipse cx="701.92" cy="282.7259" fill="#84BE84" rx="3" ry="3" style="stroke:#038048;stroke-width:1;"/><text fill="#000000" font-family="sans-serif" font-size="14" lengthAdjust="spacing" textLength="297.9648" x="710.92" y="286.0726">agregarRama(nombre: String): NodoRama</text><ellipse cx="701.92" cy="299.0228" fill="#84BE84" rx="3" ry="3" style="stroke:#038048;stroke-width:1;"/><text fill="#000000" font-family="sans-serif" font-size="14" lengthAdjust="spacing" textLength="252.6494" x="710.92" y="302.3695">eliminarRama(nombre: String): void</text></g><!--class NodoRama--><g id="elem_NodoRama"><rect codeLine="12" fill="#F1F1F1" height="96.8906" id="NodoRama" rx="2.5" ry="2.5" style="stroke:#181818;stroke-width:0.5;" width="214.5146" x="745.65" y="377.82"/><ellipse cx="810.1505" cy="393.82" fill="#ADD1B2" rx="11" ry="11" style="stroke:#181818;stroke-width:1;"/><path d="M813.1192,399.4606 Q812.5411,399.7575 811.9005,399.8981 Q811.2599,400.0544 810.5567,400.0544 Q808.0567,400.0544 806.7286,398.4137 Q805.4161,396.7575 805.4161,393.6325 Q805.4161,390.5075 806.7286,388.8512 Q808.0567,387.195 810.5567,387.195 Q811.2599,387.195 811.9005,387.3512 Q812.5567,387.5075 813.1192,387.8044 L813.1192,390.5231 Q812.4942,389.945 811.9005,389.6794 Q811.3067,389.3981 810.6817,389.3981 Q809.338,389.3981 808.6505,390.4762 Q807.963,391.5387 807.963,393.6325 Q807.963,395.7262 808.6505,396.8044 Q809.338,397.8669 810.6817,397.8669 Q811.3067,397.8669 811.9005,397.6012 Q812.4942,397.32 813.1192,396.7419 L813.1192,399.4606 Z " fill="#000000"/><text fill="#000000" font-family="sans-serif" font-size="14" lengthAdjust="spacing" textLength="77.0137" x="830.6505" y="398.6667">NodoRama</text><line style="stroke:#181818;stroke-width:0.5;" x1="746.65" x2="959.1646" y1="409.82" y2="409.82"/><rect fill="none" height="6" style="stroke:#C82930;stroke-width:1;" width="6" x="753.65" y="420.4684"/><text fill="#000000" font-family="sans-serif" font-size="14" lengthAdjust="spacing" textLength="105.2803" x="765.65" y="426.8151">nombre: String</text><rect fill="none" height="6" style="stroke:#C82930;stroke-width:1;" width="6" x="753.65" y="436.7653"/><text fill="#000000" font-family="sans-serif" font-size="14" lengthAdjust="spacing" textLength="166.626" x="765.65" y="443.112">hijos: List&lt;NodoRama&gt;</text><rect fill="none" height="6" style="stroke:#C82930;stroke-width:1;" width="6" x="753.65" y="453.0622"/><text fill="#000000" font-family="sans-serif" font-size="14" lengthAdjust="spacing" textLength="188.5146" x="765.65" y="459.4089">raizCommits: NodoCommit</text><line style="stroke:#181818;stroke-width:0.5;" x1="746.65" x2="959.1646" y1="466.7106" y2="466.7106"/></g><!--class NodoCommit--><g id="elem_NodoCommit"><rect codeLine="19" fill="#F1F1F1" height="162.0781" id="NodoCommit" rx="2.5" ry="2.5" style="stroke:#181818;stroke-width:0.5;" width="311.2158" x="450.3" y="542.86"/><ellipse cx="555.9152" cy="558.86" fill="#ADD1B2" rx="11" ry="11" style="stroke:#181818;stroke-width:1;"/><path d="M558.884,564.5006 Q558.3059,564.7975 557.6652,564.9381 Q557.0246,565.0944 556.3215,565.0944 Q553.8215,565.0944 552.4934,563.4538 Q551.1809,561.7975 551.1809,558.6725 Q551.1809,555.5475 552.4934,553.8913 Q553.8215,552.235 556.3215,552.235 Q557.0246,552.235 557.6652,552.3913 Q558.3215,552.5475 558.884,552.8444 L558.884,555.5631 Q558.259,554.985 557.6652,554.7194 Q557.0715,554.4381 556.4465,554.4381 Q555.1027,554.4381 554.4152,555.5163 Q553.7277,556.5788 553.7277,558.6725 Q553.7277,560.7663 554.4152,561.8444 Q555.1027,562.9069 556.4465,562.9069 Q557.0715,562.9069 557.6652,562.6413 Q558.259,562.36 558.884,561.7819 L558.884,564.5006 Z " fill="#000000"/><text fill="#000000" font-family="sans-serif" font-size="14" lengthAdjust="spacing" textLength="91.4854" x="576.4152" y="563.7067">NodoCommit</text><line style="stroke:#181818;stroke-width:0.5;" x1="451.3" x2="760.5158" y1="574.86" y2="574.86"/><rect fill="none" height="6" style="stroke:#C82930;stroke-width:1;" width="6" x="458.3" y="585.5084"/><text fill="#000000" font-family="sans-serif" font-size="14" lengthAdjust="spacing" textLength="63.7246" x="470.3" y="591.8551">id: String</text><rect fill="none" height="6" style="stroke:#C82930;stroke-width:1;" width="6" x="458.3" y="601.8053"/><text fill="#000000" font-family="sans-serif" font-size="14" lengthAdjust="spacing" textLength="110.4482" x="470.3" y="608.152">mensaje: String</text><rect fill="none" height="6" style="stroke:#C82930;stroke-width:1;" width="6" x="458.3" y="618.1022"/><text fill="#000000" font-family="sans-serif" font-size="14" lengthAdjust="spacing" textLength="88.2109" x="470.3" y="624.4489">autor: String</text><rect fill="none" height="6" style="stroke:#C82930;stroke-width:1;" width="6" x="458.3" y="634.3991"/><text fill="#000000" font-family="sans-serif" font-size="14" lengthAdjust="spacing" textLength="81.3203" x="470.3" y="640.7457">fecha: Date</text><rect fill="none" height="6" style="stroke:#C82930;stroke-width:1;" width="6" x="458.3" y="650.6959"/><text fill="#000000" font-family="sans-serif" font-size="14" lengthAdjust="spacing" textLength="168.9844" x="470.3" y="657.0426">cambios: List&lt;Cambio&gt;</text><rect fill="none" height="6" style="stroke:#C82930;stroke-width:1;" width="6" x="458.3" y="666.9928"/><text fill="#000000" font-family="sans-serif" font-size="14" lengthAdjust="spacing" textLength="181.0977" x="470.3" y="673.3395">hijos: List&lt;NodoCommit&gt;</text><line style="stroke:#181818;stroke-width:0.5;" x1="451.3" x2="760.5158" y1="680.6413" y2="680.6413"/><ellipse cx="461.3" cy="694.2897" fill="#84BE84" rx="3" ry="3" style="stroke:#038048;stroke-width:1;"/><text fill="#000000" font-family="sans-serif" font-size="14" lengthAdjust="spacing" textLength="285.2158" x="470.3" y="697.6364">agregarHijo(commit: NodoCommit): void</text></g><!--class Cambio--><g id="elem_Cambio"><rect codeLine="29" fill="#F1F1F1" height="96.8906" id="Cambio" rx="2.5" ry="2.5" style="stroke:#181818;stroke-width:0.5;" width="146.4014" x="532.7" y="764.94"/><ellipse cx="575.1803" cy="780.94" fill="#ADD1B2" rx="11" ry="11" style="stroke:#181818;stroke-width:1;"/><path d="M578.1491,786.5806 Q577.5709,786.8775 576.9303,787.0181 Q576.2897,787.1744 575.5866,787.1744 Q573.0866,787.1744 571.7584,785.5337 Q570.4459,783.8775 570.4459,780.7525 Q570.4459,777.6275 571.7584,775.9712 Q573.0866,774.315 575.5866,774.315 Q576.2897,774.315 576.9303,774.4712 Q577.5866,774.6275 578.1491,774.9244 L578.1491,777.6431 Q577.5241,777.065 576.9303,776.7994 Q576.3366,776.5181 575.7116,776.5181 Q574.3678,776.5181 573.6803,777.5962 Q572.9928,778.6587 572.9928,780.7525 Q572.9928,782.8462 573.6803,783.9244 Q574.3678,784.9869 575.7116,784.9869 Q576.3366,784.9869 576.9303,784.7212 Q577.5241,784.44 578.1491,783.8619 L578.1491,786.5806 Z " fill="#000000"/><text fill="#000000" font-family="sans-serif" font-size="14" lengthAdjust="spacing" textLength="53.334" x="595.2871" y="785.7867">Cambio</text><line style="stroke:#181818;stroke-width:0.5;" x1="533.7" x2="678.1014" y1="796.94" y2="796.94"/><rect fill="none" height="6" style="stroke:#C82930;stroke-width:1;" width="6" x="540.7" y="807.5884"/><text fill="#000000" font-family="sans-serif" font-size="14" lengthAdjust="spacing" textLength="102.5938" x="552.7" y="813.9351">archivo: String</text><rect fill="none" height="6" style="stroke:#C82930;stroke-width:1;" width="6" x="540.7" y="823.8853"/><text fill="#000000" font-family="sans-serif" font-size="14" lengthAdjust="spacing" textLength="77.7793" x="552.7" y="830.232">tipo: String</text><rect fill="none" height="6" style="stroke:#C82930;stroke-width:1;" width="6" x="540.7" y="840.1822"/><text fill="#000000" font-family="sans-serif" font-size="14" lengthAdjust="spacing" textLength="120.4014" x="552.7" y="846.5289">contenido: String</text><line style="stroke:#181818;stroke-width:0.5;" x1="533.7" x2="678.1014" y1="853.8306" y2="853.8306"/></g><!--class ArchivoFinal--><g id="elem_ArchivoFinal"><rect codeLine="35" fill="#F1F1F1" height="80.5938" id="ArchivoFinal" rx="2.5" ry="2.5" style="stroke:#181818;stroke-width:0.5;" width="143.8994" x="533.96" y="921.83"/><ellipse cx="560.6473" cy="937.83" fill="#ADD1B2" rx="11" ry="11" style="stroke:#181818;stroke-width:1;"/><path d="M563.616,943.4706 Q563.0379,943.7675 562.3973,943.9081 Q561.7566,944.0644 561.0535,944.0644 Q558.5535,944.0644 557.2254,942.4237 Q555.9129,940.7675 555.9129,937.6425 Q555.9129,934.5175 557.2254,932.8612 Q558.5535,931.205 561.0535,931.205 Q561.7566,931.205 562.3973,931.3612 Q563.0535,931.5175 563.616,931.8144 L563.616,934.5331 Q562.991,933.955 562.3973,933.6894 Q561.8035,933.4081 561.1785,933.4081 Q559.8348,933.4081 559.1473,934.4862 Q558.4598,935.5487 558.4598,937.6425 Q558.4598,939.7362 559.1473,940.8144 Q559.8348,941.8769 561.1785,941.8769 Q561.8035,941.8769 562.3973,941.6112 Q562.991,941.33 563.616,940.7519 L563.616,943.4706 Z " fill="#000000"/><text fill="#000000" font-family="sans-serif" font-size="14" lengthAdjust="spacing" textLength="85.9277" x="577.2444" y="942.6767">ArchivoFinal</text><line style="stroke:#181818;stroke-width:0.5;" x1="534.96" x2="676.8594" y1="953.83" y2="953.83"/><rect fill="none" height="6" style="stroke:#C82930;stroke-width:1;" width="6" x="541.96" y="964.4784"/><text fill="#000000" font-family="sans-serif" font-size="14" lengthAdjust="spacing" textLength="105.2803" x="553.96" y="970.8251">nombre: String</text><rect fill="none" height="6" style="stroke:#C82930;stroke-width:1;" width="6" x="541.96" y="980.7753"/><text fill="#000000" font-family="sans-serif" font-size="14" lengthAdjust="spacing" textLength="117.8994" x="553.96" y="987.122">ubicacion: String</text><line style="stroke:#181818;stroke-width:0.5;" x1="534.96" x2="676.8594" y1="994.4237" y2="994.4237"/></g><!--class Usuario--><g id="elem_Usuario"><rect codeLine="41" fill="#F1F1F1" height="113.1875" id="Usuario" rx="2.5" ry="2.5" style="stroke:#181818;stroke-width:0.5;" width="703.8105" x="7" y="369.67"/><ellipse cx="328.0532" cy="385.67" fill="#ADD1B2" rx="11" ry="11" style="stroke:#181818;stroke-width:1;"/><path d="M331.022,391.3106 Q330.4438,391.6075 329.8032,391.7481 Q329.1626,391.9044 328.4595,391.9044 Q325.9595,391.9044 324.6313,390.2637 Q323.3188,388.6075 323.3188,385.4825 Q323.3188,382.3575 324.6313,380.7012 Q325.9595,379.045 328.4595,379.045 Q329.1626,379.045 329.8032,379.2012 Q330.4595,379.3575 331.022,379.6544 L331.022,382.3731 Q330.397,381.795 329.8032,381.5294 Q329.2095,381.2481 328.5845,381.2481 Q327.2407,381.2481 326.5532,382.3262 Q325.8657,383.3887 325.8657,385.4825 Q325.8657,387.5762 326.5532,388.6544 Q327.2407,389.7169 328.5845,389.7169 Q329.2095,389.7169 329.8032,389.4512 Q330.397,389.17 331.022,388.5919 L331.022,391.3106 Z " fill="#000000"/><text fill="#000000" font-family="sans-serif" font-size="14" lengthAdjust="spacing" textLength="53.2041" x="348.5532" y="390.5167">Usuario</text><line style="stroke:#181818;stroke-width:0.5;" x1="8" x2="709.8105" y1="401.67" y2="401.67"/><rect fill="none" height="6" style="stroke:#C82930;stroke-width:1;" width="6" x="15" y="412.3184"/><text fill="#000000" font-family="sans-serif" font-size="14" lengthAdjust="spacing" textLength="63.7246" x="27" y="418.6651">id: String</text><rect fill="none" height="6" style="stroke:#C82930;stroke-width:1;" width="6" x="15" y="428.6153"/><text fill="#000000" font-family="sans-serif" font-size="14" lengthAdjust="spacing" textLength="105.2803" x="27" y="434.962">nombre: String</text><rect fill="none" height="6" style="stroke:#C82930;stroke-width:1;" width="6" x="15" y="444.9122"/><text fill="#000000" font-family="sans-serif" font-size="14" lengthAdjust="spacing" textLength="89.5576" x="27" y="451.2589">email: String</text><line style="stroke:#181818;stroke-width:0.5;" x1="8" x2="709.8105" y1="458.5606" y2="458.5606"/><ellipse cx="18" cy="472.2091" fill="#84BE84" rx="3" ry="3" style="stroke:#038048;stroke-width:1;"/><text fill="#000000" font-family="sans-serif" font-size="14" lengthAdjust="spacing" textLength="677.8105" x="27" y="475.5557">realizarCommit(mensaje: String, cambios: List&lt;Cambio&gt;, nodoRama: NodoRama): NodoCommit</text></g><!--class SistemaControlVersiones--><g id="elem_SistemaControlVersiones"><rect codeLine="48" fill="#F1F1F1" height="96.8906" id="SistemaControlVersiones" rx="2.5" ry="2.5" style="stroke:#181818;stroke-width:0.5;" width="486.1543" x="609.83" y="7"/><ellipse cx="760.7675" cy="23" fill="#ADD1B2" rx="11" ry="11" style="stroke:#181818;stroke-width:1;"/><path d="M763.7363,28.6406 Q763.1581,28.9375 762.5175,29.0781 Q761.8769,29.2344 761.1738,29.2344 Q758.6738,29.2344 757.3456,27.5938 Q756.0331,25.9375 756.0331,22.8125 Q756.0331,19.6875 757.3456,18.0313 Q758.6738,16.375 761.1738,16.375 Q761.8769,16.375 762.5175,16.5313 Q763.1738,16.6875 763.7363,16.9844 L763.7363,19.7031 Q763.1113,19.125 762.5175,18.8594 Q761.9238,18.5781 761.2988,18.5781 Q759.955,18.5781 759.2675,19.6563 Q758.58,20.7188 758.58,22.8125 Q758.58,24.9063 759.2675,25.9844 Q759.955,27.0469 761.2988,27.0469 Q761.9238,27.0469 762.5175,26.7813 Q763.1113,26.5 763.7363,25.9219 L763.7363,28.6406 Z " fill="#000000"/><text fill="#000000" font-family="sans-serif" font-size="14" lengthAdjust="spacing" textLength="175.7793" x="781.2675" y="27.8467">SistemaControlVersiones</text><line style="stroke:#181818;stroke-width:0.5;" x1="610.83" x2="1094.9843" y1="39" y2="39"/><rect fill="none" height="6" style="stroke:#C82930;stroke-width:1;" width="6" x="617.83" y="49.6484"/><text fill="#000000" font-family="sans-serif" font-size="14" lengthAdjust="spacing" textLength="218.9072" x="629.83" y="55.9951">repositorios: List&lt;Repositorio&gt;</text><line style="stroke:#181818;stroke-width:0.5;" x1="610.83" x2="1094.9843" y1="63.2969" y2="63.2969"/><ellipse cx="620.83" cy="76.9453" fill="#84BE84" rx="3" ry="3" style="stroke:#038048;stroke-width:1;"/><text fill="#000000" font-family="sans-serif" font-size="14" lengthAdjust="spacing" textLength="460.1543" x="629.83" y="80.292">crearRepositorio(nombre: String, descripcion: String): Repositorio</text><ellipse cx="620.83" cy="93.2422" fill="#84BE84" rx="3" ry="3" style="stroke:#038048;stroke-width:1;"/><text fill="#000000" font-family="sans-serif" font-size="14" lengthAdjust="spacing" textLength="268.7002" x="629.83" y="96.5889">listarRepositorios(): List&lt;Repositorio&gt;</text></g><!--link Repositorio to NodoRama--><g id="link_Repositorio_NodoRama"><path codeLine="55" d="M852.91,310 C852.91,332.59 852.91,350.94 852.91,371.42 " fill="none" id="Repositorio-to-NodoRama" style="stroke:#181818;stroke-width:1;"/><polygon fill="#181818" points="852.91,377.42,856.91,368.42,852.91,372.42,848.91,368.42,852.91,377.42" style="stroke:#181818;stroke-width:1;"/></g><!--link NodoRama to NodoCommit--><g id="link_NodoRama_NodoCommit"><path codeLine="56" d="M792.48,475.12 C766.92,495.37 741.1234,515.7947 712.2734,538.6447 " fill="none" id="NodoRama-to-NodoCommit" style="stroke:#181818;stroke-width:1;"/><polygon fill="#181818" points="707.57,542.37,717.1087,539.9177,711.4895,539.2656,712.1417,533.6465,707.57,542.37" style="stroke:#181818;stroke-width:1;"/></g><!--link NodoCommit to Cambio--><g id="link_NodoCommit_Cambio"><path codeLine="57" d="M605.91,705.22 C605.91,725.4 605.91,740.42 605.91,758.45 " fill="none" id="NodoCommit-to-Cambio" style="stroke:#181818;stroke-width:1;"/><polygon fill="#181818" points="605.91,764.45,609.91,755.45,605.91,759.45,601.91,755.45,605.91,764.45" style="stroke:#181818;stroke-width:1;"/></g><!--link Cambio to ArchivoFinal--><g id="link_Cambio_ArchivoFinal"><path codeLine="58" d="M605.91,862.02 C605.91,881.27 605.91,897.22 605.91,915.57 " fill="none" id="Cambio-to-ArchivoFinal" style="stroke:#181818;stroke-width:1;"/><polygon fill="#181818" points="605.91,921.57,609.91,912.57,605.91,916.57,601.91,912.57,605.91,921.57" style="stroke:#181818;stroke-width:1;"/></g><!--link Usuario to NodoCommit--><g id="link_Usuario_NodoCommit"><path codeLine="59" d="M429.69,483.32 C452.92,501.73 474.5167,518.8345 499.5767,538.6845 " fill="none" id="Usuario-to-NodoCommit" style="stroke:#181818;stroke-width:1;"/><polygon fill="#181818" points="504.28,542.41,499.7087,533.6863,500.3606,539.3054,494.7414,539.9573,504.28,542.41" style="stroke:#181818;stroke-width:1;"/></g><!--link SistemaControlVersiones to Repositorio--><g id="link_SistemaControlVersiones_Repositorio"><path codeLine="60" d="M852.91,104.03 C852.91,122.29 852.91,137.57 852.91,157.63 " fill="none" id="SistemaControlVersiones-to-Repositorio" style="stroke:#181818;stroke-width:1;"/><polygon fill="#181818" points="852.91,163.63,856.91,154.63,852.91,158.63,848.91,154.63,852.91,163.63" style="stroke:#181818;stroke-width:1;"/></g><!--SRC=[bLHBRW8n3Dtd5Dan2BW0gf0gKDL5rGMetPkC0QDyHid0WggdwX5wiNh8V5EerDdCp7DiFp_R6SaLxiYIekylAtEKIaF08AfNa6iiNA3IUNBoGqX-PfBokToKdko-1gmpMuy9c6DGdWf5pYOMy5kdrs0WpEMhortrUJLD9Emzxi5NI3QCElvr5ZKPilSEdntbGdoAkex6jotY9kS37HsJUg5GFZGUYzhcWIvBPmoLDUtua-I8u7sf3De0npGld5ZX1DkXEi1Shg346b5WjjJoMrx_5dUOHnwBeQpFV2XJLqk_X4Qjjf0OkYq2l3hGsINyIYfII3bRegMymzkGZp764pTC_zs3qvOK3AQcY_8MJl3_IKG3f0VOH7e4JHVmKO4iQSlqjjPJZX-7eXl6yM0OMgORTkEyIrR4E_sEFd1565hcljkh9ablrPg-AQRfUtWovjDRIyQ4UXvr8Cq91f52DhwLblcFs5r3l0sGsJSNWWna2aqxxauEGVGlXjbiqIrdksaDMalJsuxA4YKLzQXLI7z4HDFf9CWzMQjZFKO_]--></g></svg>