<svg xmlns="http://www.w3.org/2000/svg" xmlns:xlink="http://www.w3.org/1999/xlink" contentStyleType="text/css" height="877px" preserveAspectRatio="none" style="width:2406px;height:877px;background:#FFFFFF;" version="1.1" viewBox="0 0 2406 877" width="2406px" zoomAndPan="magnify"><defs/><g><!--class User--><g id="elem_User"><rect codeLine="2" fill="#F1F1F1" height="129.4844" id="User" rx="2.5" ry="2.5" style="stroke:#181818;stroke-width:0.5;" width="617.3564" x="1528.25" y="7"/><ellipse cx="1816.7231" cy="23" fill="#ADD1B2" rx="11" ry="11" style="stroke:#181818;stroke-width:1;"/><path d="M1819.6919,28.6406 Q1819.1138,28.9375 1818.4731,29.0781 Q1817.8325,29.2344 1817.1294,29.2344 Q1814.6294,29.2344 1813.3013,27.5938 Q1811.9888,25.9375 1811.9888,22.8125 Q1811.9888,19.6875 1813.3013,18.0313 Q1814.6294,16.375 1817.1294,16.375 Q1817.8325,16.375 1818.4731,16.5313 Q1819.1294,16.6875 1819.6919,16.9844 L1819.6919,19.7031 Q1819.0669,19.125 1818.4731,18.8594 Q1817.8794,18.5781 1817.2544,18.5781 Q1815.9106,18.5781 1815.2231,19.6563 Q1814.5356,20.7188 1814.5356,22.8125 Q1814.5356,24.9063 1815.2231,25.9844 Q1815.9106,27.0469 1817.2544,27.0469 Q1817.8794,27.0469 1818.4731,26.7813 Q1819.0669,26.5 1819.6919,25.9219 L1819.6919,28.6406 Z " fill="#000000"/><text fill="#000000" font-family="sans-serif" font-size="14" lengthAdjust="spacing" textLength="31.9102" x="1837.2231" y="27.8467">User</text><line style="stroke:#181818;stroke-width:0.5;" x1="1529.25" x2="2144.6064" y1="39" y2="39"/><ellipse cx="1539.25" cy="52.6484" fill="none" rx="3" ry="3" style="stroke:#038048;stroke-width:1;"/><text fill="#000000" font-family="sans-serif" font-size="14" lengthAdjust="spacing" textLength="121.1875" x="1548.25" y="55.9951">username: String</text><ellipse cx="1539.25" cy="68.9453" fill="none" rx="3" ry="3" style="stroke:#038048;stroke-width:1;"/><text fill="#000000" font-family="sans-serif" font-size="14" lengthAdjust="spacing" textLength="89.5576" x="1548.25" y="72.292">email: String</text><line style="stroke:#181818;stroke-width:0.5;" x1="1529.25" x2="2144.6064" y1="79.5938" y2="79.5938"/><ellipse cx="1539.25" cy="93.2422" fill="#84BE84" rx="3" ry="3" style="stroke:#038048;stroke-width:1;"/><text fill="#000000" font-family="sans-serif" font-size="14" lengthAdjust="spacing" textLength="305.6348" x="1548.25" y="96.5889">createRepository(name: String): Repository</text><ellipse cx="1539.25" cy="109.5391" fill="#84BE84" rx="3" ry="3" style="stroke:#038048;stroke-width:1;"/><text fill="#000000" font-family="sans-serif" font-size="14" lengthAdjust="spacing" textLength="480.1357" x="1548.25" y="112.8857">submitPullRequest(repo: Repository, pullRequest: PullRequest): void</text><ellipse cx="1539.25" cy="125.8359" fill="#84BE84" rx="3" ry="3" style="stroke:#038048;stroke-width:1;"/><text fill="#000000" font-family="sans-serif" font-size="14" lengthAdjust="spacing" textLength="591.3564" x="1548.25" y="129.1826">syncWithRemoteRepo(repo: Repository): void  ' Sincroniza con el repositorio remoto</text></g><!--class Repository--><g id="elem_Repository"><rect codeLine="10" fill="#F1F1F1" height="243.5625" id="Repository" rx="2.5" ry="2.5" style="stroke:#181818;stroke-width:0.5;" width="695.3613" x="844.25" y="213.49"/><ellipse cx="1150.1445" cy="229.49" fill="#ADD1B2" rx="11" ry="11" style="stroke:#181818;stroke-width:1;"/><path d="M1153.1133,235.1306 Q1152.5352,235.4275 1151.8945,235.5681 Q1151.2539,235.7244 1150.5508,235.7244 Q1148.0508,235.7244 1146.7227,234.0838 Q1145.4102,232.4275 1145.4102,229.3025 Q1145.4102,226.1775 1146.7227,224.5213 Q1148.0508,222.865 1150.5508,222.865 Q1151.2539,222.865 1151.8945,223.0213 Q1152.5508,223.1775 1153.1133,223.4744 L1153.1133,226.1931 Q1152.4883,225.615 1151.8945,225.3494 Q1151.3008,225.0681 1150.6758,225.0681 Q1149.332,225.0681 1148.6445,226.1463 Q1147.957,227.2088 1147.957,229.3025 Q1147.957,231.3963 1148.6445,232.4744 Q1149.332,233.5369 1150.6758,233.5369 Q1151.3008,233.5369 1151.8945,233.2713 Q1152.4883,232.99 1153.1133,232.4119 L1153.1133,235.1306 Z " fill="#000000"/><text fill="#000000" font-family="sans-serif" font-size="14" lengthAdjust="spacing" textLength="75.0723" x="1170.6445" y="234.3367">Repository</text><line style="stroke:#181818;stroke-width:0.5;" x1="845.25" x2="1538.6113" y1="245.49" y2="245.49"/><ellipse cx="855.25" cy="259.1384" fill="none" rx="3" ry="3" style="stroke:#038048;stroke-width:1;"/><text fill="#000000" font-family="sans-serif" font-size="14" lengthAdjust="spacing" textLength="90.6514" x="864.25" y="262.4851">name: String</text><ellipse cx="855.25" cy="275.4353" fill="none" rx="3" ry="3" style="stroke:#038048;stroke-width:1;"/><text fill="#000000" font-family="sans-serif" font-size="14" lengthAdjust="spacing" textLength="128.7891" x="864.25" y="278.782">description: String</text><ellipse cx="855.25" cy="291.7322" fill="none" rx="3" ry="3" style="stroke:#038048;stroke-width:1;"/><text fill="#000000" font-family="sans-serif" font-size="14" lengthAdjust="spacing" textLength="123.0811" x="864.25" y="295.0789">isVisible: Boolean</text><ellipse cx="855.25" cy="308.0291" fill="none" rx="3" ry="3" style="stroke:#038048;stroke-width:1;"/><text fill="#000000" font-family="sans-serif" font-size="14" lengthAdjust="spacing" textLength="311.8691" x="864.25" y="311.3757">status: Status  ' Referencia a la clase Estado</text><line style="stroke:#181818;stroke-width:0.5;" x1="845.25" x2="1538.6113" y1="318.6775" y2="318.6775"/><ellipse cx="855.25" cy="332.3259" fill="#84BE84" rx="3" ry="3" style="stroke:#038048;stroke-width:1;"/><text fill="#000000" font-family="sans-serif" font-size="14" lengthAdjust="spacing" textLength="254.2559" x="864.25" y="335.6726">createBranch(name: String): Branch</text><ellipse cx="855.25" cy="348.6228" fill="#84BE84" rx="3" ry="3" style="stroke:#038048;stroke-width:1;"/><text fill="#000000" font-family="sans-serif" font-size="14" lengthAdjust="spacing" textLength="389.4297" x="864.25" y="351.9695">commitChange(branch: Branch, commit: Commit): void</text><ellipse cx="855.25" cy="364.9197" fill="#84BE84" rx="3" ry="3" style="stroke:#038048;stroke-width:1;"/><text fill="#000000" font-family="sans-serif" font-size="14" lengthAdjust="spacing" textLength="415.666" x="864.25" y="368.2664">mergeBranches(base: Branch, target: Branch): PullRequest</text><ellipse cx="855.25" cy="381.2166" fill="#84BE84" rx="3" ry="3" style="stroke:#038048;stroke-width:1;"/><text fill="#000000" font-family="sans-serif" font-size="14" lengthAdjust="spacing" textLength="155.4492" x="864.25" y="384.5632">addFile(file: File): void</text><ellipse cx="855.25" cy="397.5134" fill="#84BE84" rx="3" ry="3" style="stroke:#038048;stroke-width:1;"/><text fill="#000000" font-family="sans-serif" font-size="14" lengthAdjust="spacing" textLength="182.5674" x="864.25" y="400.8601">removeFile(file: File): void</text><ellipse cx="855.25" cy="413.8103" fill="#84BE84" rx="3" ry="3" style="stroke:#038048;stroke-width:1;"/><text fill="#000000" font-family="sans-serif" font-size="14" lengthAdjust="spacing" textLength="355.667" x="864.25" y="417.157">changeStatus(): void  ' Invoca el cambio de estado</text><ellipse cx="855.25" cy="430.1072" fill="#84BE84" rx="3" ry="3" style="stroke:#038048;stroke-width:1;"/><text fill="#000000" font-family="sans-serif" font-size="14" lengthAdjust="spacing" textLength="656.9063" x="864.25" y="433.4539">pushToRemote(remoteRepo: RemoteRepository): void  ' Enviar cambios al repositorio remoto</text><ellipse cx="855.25" cy="446.4041" fill="#84BE84" rx="3" ry="3" style="stroke:#038048;stroke-width:1;"/><text fill="#000000" font-family="sans-serif" font-size="14" lengthAdjust="spacing" textLength="669.3613" x="864.25" y="449.7507">pullFromRemote(remoteRepo: RemoteRepository): void  ' Traer cambios del repositorio remoto</text></g><!--class Status--><g id="elem_Status"><rect codeLine="25" fill="#F1F1F1" height="96.8906" id="Status" rx="2.5" ry="2.5" style="stroke:#181818;stroke-width:0.5;" width="543.4258" x="293.22" y="558.5"/><ellipse cx="538.3772" cy="574.5" fill="#ADD1B2" rx="11" ry="11" style="stroke:#181818;stroke-width:1;"/><path d="M541.346,580.1406 Q540.7679,580.4375 540.1272,580.5781 Q539.4866,580.7344 538.7835,580.7344 Q536.2835,580.7344 534.9554,579.0938 Q533.6429,577.4375 533.6429,574.3125 Q533.6429,571.1875 534.9554,569.5313 Q536.2835,567.875 538.7835,567.875 Q539.4866,567.875 540.1272,568.0313 Q540.7835,568.1875 541.346,568.4844 L541.346,571.2031 Q540.721,570.625 540.1272,570.3594 Q539.5335,570.0781 538.9085,570.0781 Q537.5647,570.0781 536.8772,571.1563 Q536.1897,572.2188 536.1897,574.3125 Q536.1897,576.4063 536.8772,577.4844 Q537.5647,578.5469 538.9085,578.5469 Q539.5335,578.5469 540.1272,578.2813 Q540.721,578 541.346,577.4219 L541.346,580.1406 Z " fill="#000000"/><text fill="#000000" font-family="sans-serif" font-size="14" lengthAdjust="spacing" textLength="44.6113" x="558.8772" y="579.3467">Status</text><line style="stroke:#181818;stroke-width:0.5;" x1="294.22" x2="835.6458" y1="590.5" y2="590.5"/><ellipse cx="304.22" cy="604.1484" fill="none" rx="3" ry="3" style="stroke:#038048;stroke-width:1;"/><text fill="#000000" font-family="sans-serif" font-size="14" lengthAdjust="spacing" textLength="90.6514" x="313.22" y="607.4951">name: String</text><ellipse cx="304.22" cy="620.4453" fill="none" rx="3" ry="3" style="stroke:#038048;stroke-width:1;"/><text fill="#000000" font-family="sans-serif" font-size="14" lengthAdjust="spacing" textLength="128.7891" x="313.22" y="623.792">description: String</text><line style="stroke:#181818;stroke-width:0.5;" x1="294.22" x2="835.6458" y1="631.0938" y2="631.0938"/><ellipse cx="304.22" cy="644.7422" fill="#84BE84" rx="3" ry="3" style="stroke:#038048;stroke-width:1;"/><text fill="#000000" font-family="sans-serif" font-size="14" lengthAdjust="spacing" textLength="517.4258" x="313.22" y="648.0889">changeStatus(repo: Repository): void  ' Actualiza el estado del repositorio</text></g><!--class Branch--><g id="elem_Branch"><rect codeLine="31" fill="#F1F1F1" height="113.1875" id="Branch" rx="2.5" ry="2.5" style="stroke:#181818;stroke-width:0.5;" width="386.2471" x="871.81" y="550.35"/><ellipse cx="1035.9921" cy="566.35" fill="#ADD1B2" rx="11" ry="11" style="stroke:#181818;stroke-width:1;"/><path d="M1038.9609,571.9906 Q1038.3828,572.2875 1037.7421,572.4281 Q1037.1015,572.5844 1036.3984,572.5844 Q1033.8984,572.5844 1032.5703,570.9437 Q1031.2578,569.2875 1031.2578,566.1625 Q1031.2578,563.0375 1032.5703,561.3812 Q1033.8984,559.725 1036.3984,559.725 Q1037.1015,559.725 1037.7421,559.8812 Q1038.3984,560.0375 1038.9609,560.3344 L1038.9609,563.0531 Q1038.3359,562.475 1037.7421,562.2094 Q1037.1484,561.9281 1036.5234,561.9281 Q1035.1796,561.9281 1034.4921,563.0062 Q1033.8046,564.0687 1033.8046,566.1625 Q1033.8046,568.2562 1034.4921,569.3344 Q1035.1796,570.3969 1036.5234,570.3969 Q1037.1484,570.3969 1037.7421,570.1312 Q1038.3359,569.85 1038.9609,569.2719 L1038.9609,571.9906 Z " fill="#000000"/><text fill="#000000" font-family="sans-serif" font-size="14" lengthAdjust="spacing" textLength="49.3828" x="1056.4921" y="571.1967">Branch</text><line style="stroke:#181818;stroke-width:0.5;" x1="872.81" x2="1257.0571" y1="582.35" y2="582.35"/><ellipse cx="882.81" cy="595.9984" fill="none" rx="3" ry="3" style="stroke:#038048;stroke-width:1;"/><text fill="#000000" font-family="sans-serif" font-size="14" lengthAdjust="spacing" textLength="90.6514" x="891.81" y="599.3451">name: String</text><ellipse cx="882.81" cy="612.2953" fill="none" rx="3" ry="3" style="stroke:#038048;stroke-width:1;"/><text fill="#000000" font-family="sans-serif" font-size="14" lengthAdjust="spacing" textLength="172.3066" x="891.81" y="615.642">commits: List&lt;Commit&gt;</text><ellipse cx="882.81" cy="628.5922" fill="none" rx="3" ry="3" style="stroke:#038048;stroke-width:1;"/><text fill="#000000" font-family="sans-serif" font-size="14" lengthAdjust="spacing" textLength="360.2471" x="891.81" y="631.9389">files: List&lt;Archivo&gt;  ' Archivos asociados a la rama</text><line style="stroke:#181818;stroke-width:0.5;" x1="872.81" x2="1257.0571" y1="639.2406" y2="639.2406"/><ellipse cx="882.81" cy="652.8891" fill="#84BE84" rx="3" ry="3" style="stroke:#038048;stroke-width:1;"/><text fill="#000000" font-family="sans-serif" font-size="14" lengthAdjust="spacing" textLength="248.1445" x="891.81" y="656.2357">addCommit(commit: Commit): void</text></g><!--class Commit--><g id="elem_Commit"><rect codeLine="38" fill="#F1F1F1" height="113.1875" id="Commit" rx="2.5" ry="2.5" style="stroke:#181818;stroke-width:0.5;" width="145.7383" x="1652.06" y="756.83"/><ellipse cx="1693.4944" cy="772.83" fill="#ADD1B2" rx="11" ry="11" style="stroke:#181818;stroke-width:1;"/><path d="M1696.4632,778.4706 Q1695.885,778.7675 1695.2444,778.9081 Q1694.6038,779.0644 1693.9007,779.0644 Q1691.4007,779.0644 1690.0725,777.4237 Q1688.76,775.7675 1688.76,772.6425 Q1688.76,769.5175 1690.0725,767.8612 Q1691.4007,766.205 1693.9007,766.205 Q1694.6038,766.205 1695.2444,766.3612 Q1695.9007,766.5175 1696.4632,766.8144 L1696.4632,769.5331 Q1695.8382,768.955 1695.2444,768.6894 Q1694.6507,768.4081 1694.0257,768.4081 Q1692.6819,768.4081 1691.9944,769.4862 Q1691.3069,770.5487 1691.3069,772.6425 Q1691.3069,774.7362 1691.9944,775.8144 Q1692.6819,776.8769 1694.0257,776.8769 Q1694.6507,776.8769 1695.2444,776.6112 Q1695.8382,776.33 1696.4632,775.7519 L1696.4632,778.4706 Z " fill="#000000"/><text fill="#000000" font-family="sans-serif" font-size="14" lengthAdjust="spacing" textLength="54.9951" x="1713.3687" y="777.6767">Commit</text><line style="stroke:#181818;stroke-width:0.5;" x1="1653.06" x2="1796.7983" y1="788.83" y2="788.83"/><ellipse cx="1663.06" cy="802.4784" fill="none" rx="3" ry="3" style="stroke:#038048;stroke-width:1;"/><text fill="#000000" font-family="sans-serif" font-size="14" lengthAdjust="spacing" textLength="63.7246" x="1672.06" y="805.8251">id: String</text><ellipse cx="1663.06" cy="818.7753" fill="none" rx="3" ry="3" style="stroke:#038048;stroke-width:1;"/><text fill="#000000" font-family="sans-serif" font-size="14" lengthAdjust="spacing" textLength="113.8662" x="1672.06" y="822.122">message: String</text><ellipse cx="1663.06" cy="835.0722" fill="none" rx="3" ry="3" style="stroke:#038048;stroke-width:1;"/><text fill="#000000" font-family="sans-serif" font-size="14" lengthAdjust="spacing" textLength="119.7383" x="1672.06" y="838.4189">timeStamp: Date</text><ellipse cx="1663.06" cy="851.3691" fill="none" rx="3" ry="3" style="stroke:#038048;stroke-width:1;"/><text fill="#000000" font-family="sans-serif" font-size="14" lengthAdjust="spacing" textLength="87.2129" x="1672.06" y="854.7157">author: User</text><line style="stroke:#181818;stroke-width:0.5;" x1="1653.06" x2="1796.7983" y1="862.0175" y2="862.0175"/></g><!--class PullRequest--><g id="elem_PullRequest"><rect codeLine="45" fill="#F1F1F1" height="145.7813" id="PullRequest" rx="2.5" ry="2.5" style="stroke:#181818;stroke-width:0.5;" width="183.2813" x="1424.29" y="534.05"/><ellipse cx="1470.3847" cy="550.05" fill="#ADD1B2" rx="11" ry="11" style="stroke:#181818;stroke-width:1;"/><path d="M1473.3535,555.6906 Q1472.7754,555.9875 1472.1347,556.1281 Q1471.4941,556.2844 1470.791,556.2844 Q1468.291,556.2844 1466.9629,554.6438 Q1465.6504,552.9875 1465.6504,549.8625 Q1465.6504,546.7375 1466.9629,545.0813 Q1468.291,543.425 1470.791,543.425 Q1471.4941,543.425 1472.1347,543.5813 Q1472.791,543.7375 1473.3535,544.0344 L1473.3535,546.7531 Q1472.7285,546.175 1472.1347,545.9094 Q1471.541,545.6281 1470.916,545.6281 Q1469.5722,545.6281 1468.8847,546.7063 Q1468.1972,547.7688 1468.1972,549.8625 Q1468.1972,551.9563 1468.8847,553.0344 Q1469.5722,554.0969 1470.916,554.0969 Q1471.541,554.0969 1472.1347,553.8313 Q1472.7285,553.55 1473.3535,552.9719 L1473.3535,555.6906 Z " fill="#000000"/><text fill="#000000" font-family="sans-serif" font-size="14" lengthAdjust="spacing" textLength="82.5918" x="1490.8847" y="554.8967">PullRequest</text><line style="stroke:#181818;stroke-width:0.5;" x1="1425.29" x2="1606.5713" y1="566.05" y2="566.05"/><ellipse cx="1435.29" cy="579.6984" fill="none" rx="3" ry="3" style="stroke:#038048;stroke-width:1;"/><text fill="#000000" font-family="sans-serif" font-size="14" lengthAdjust="spacing" textLength="63.7246" x="1444.29" y="583.0451">id: String</text><ellipse cx="1435.29" cy="595.9953" fill="none" rx="3" ry="3" style="stroke:#038048;stroke-width:1;"/><text fill="#000000" font-family="sans-serif" font-size="14" lengthAdjust="spacing" textLength="78.3193" x="1444.29" y="599.342">title: String</text><ellipse cx="1435.29" cy="612.2922" fill="none" rx="3" ry="3" style="stroke:#038048;stroke-width:1;"/><text fill="#000000" font-family="sans-serif" font-size="14" lengthAdjust="spacing" textLength="128.7891" x="1444.29" y="615.6389">description: String</text><ellipse cx="1435.29" cy="628.5891" fill="none" rx="3" ry="3" style="stroke:#038048;stroke-width:1;"/><text fill="#000000" font-family="sans-serif" font-size="14" lengthAdjust="spacing" textLength="93.9668" x="1444.29" y="631.9357">status: String</text><ellipse cx="1435.29" cy="644.8859" fill="none" rx="3" ry="3" style="stroke:#038048;stroke-width:1;"/><text fill="#000000" font-family="sans-serif" font-size="14" lengthAdjust="spacing" textLength="157.2813" x="1444.29" y="648.2326">reviewers: List&lt;User&gt;</text><line style="stroke:#181818;stroke-width:0.5;" x1="1425.29" x2="1606.5713" y1="655.5344" y2="655.5344"/><ellipse cx="1435.29" cy="669.1828" fill="#84BE84" rx="3" ry="3" style="stroke:#038048;stroke-width:1;"/><text fill="#000000" font-family="sans-serif" font-size="14" lengthAdjust="spacing" textLength="95.2246" x="1444.29" y="672.5295">merge(): void</text></g><!--class File--><g id="elem_File"><rect codeLine="54" fill="#F1F1F1" height="80.5938" id="File" rx="2.5" ry="2.5" style="stroke:#181818;stroke-width:0.5;" width="130.5488" x="999.65" y="773.13"/><ellipse cx="1048.4518" cy="789.13" fill="#ADD1B2" rx="11" ry="11" style="stroke:#181818;stroke-width:1;"/><path d="M1051.4205,794.7706 Q1050.8424,795.0675 1050.2018,795.2081 Q1049.5611,795.3644 1048.858,795.3644 Q1046.358,795.3644 1045.0299,793.7238 Q1043.7174,792.0675 1043.7174,788.9425 Q1043.7174,785.8175 1045.0299,784.1613 Q1046.358,782.505 1048.858,782.505 Q1049.5611,782.505 1050.2018,782.6613 Q1050.858,782.8175 1051.4205,783.1144 L1051.4205,785.8331 Q1050.7955,785.255 1050.2018,784.9894 Q1049.608,784.7081 1048.983,784.7081 Q1047.6393,784.7081 1046.9518,785.7863 Q1046.2643,786.8488 1046.2643,788.9425 Q1046.2643,791.0363 1046.9518,792.1144 Q1047.6393,793.1769 1048.983,793.1769 Q1049.608,793.1769 1050.2018,792.9113 Q1050.7955,792.63 1051.4205,792.0519 L1051.4205,794.7706 Z " fill="#000000"/><text fill="#000000" font-family="sans-serif" font-size="14" lengthAdjust="spacing" textLength="24.4453" x="1068.9518" y="793.9767">File</text><line style="stroke:#181818;stroke-width:0.5;" x1="1000.65" x2="1129.1988" y1="805.13" y2="805.13"/><ellipse cx="1010.65" cy="818.7784" fill="none" rx="3" ry="3" style="stroke:#038048;stroke-width:1;"/><text fill="#000000" font-family="sans-serif" font-size="14" lengthAdjust="spacing" textLength="90.6514" x="1019.65" y="822.1251">name: String</text><ellipse cx="1010.65" cy="835.0753" fill="none" rx="3" ry="3" style="stroke:#038048;stroke-width:1;"/><text fill="#000000" font-family="sans-serif" font-size="14" lengthAdjust="spacing" textLength="104.5488" x="1019.65" y="838.422">content: String</text><line style="stroke:#181818;stroke-width:0.5;" x1="1000.65" x2="1129.1988" y1="845.7238" y2="845.7238"/></g><!--class RemoteRepository--><g id="elem_RemoteRepository"><rect codeLine="59" fill="#F1F1F1" height="129.4844" id="RemoteRepository" rx="2.5" ry="2.5" style="stroke:#181818;stroke-width:0.5;" width="591.5166" x="1642.17" y="542.2"/><ellipse cx="1868.8189" cy="558.2" fill="#ADD1B2" rx="11" ry="11" style="stroke:#181818;stroke-width:1;"/><path d="M1871.7877,563.8406 Q1871.2096,564.1375 1870.5689,564.2781 Q1869.9283,564.4344 1869.2252,564.4344 Q1866.7252,564.4344 1865.3971,562.7938 Q1864.0846,561.1375 1864.0846,558.0125 Q1864.0846,554.8875 1865.3971,553.2313 Q1866.7252,551.575 1869.2252,551.575 Q1869.9283,551.575 1870.5689,551.7313 Q1871.2252,551.8875 1871.7877,552.1844 L1871.7877,554.9031 Q1871.1627,554.325 1870.5689,554.0594 Q1869.9752,553.7781 1869.3502,553.7781 Q1868.0064,553.7781 1867.3189,554.8563 Q1866.6314,555.9188 1866.6314,558.0125 Q1866.6314,560.1063 1867.3189,561.1844 Q1868.0064,562.2469 1869.3502,562.2469 Q1869.9752,562.2469 1870.5689,561.9813 Q1871.1627,561.7 1871.7877,561.1219 L1871.7877,563.8406 Z " fill="#000000"/><text fill="#000000" font-family="sans-serif" font-size="14" lengthAdjust="spacing" textLength="129.7188" x="1889.3189" y="563.0467">RemoteRepository</text><line style="stroke:#181818;stroke-width:0.5;" x1="1643.17" x2="2232.6866" y1="574.2" y2="574.2"/><ellipse cx="1653.17" cy="587.8484" fill="none" rx="3" ry="3" style="stroke:#038048;stroke-width:1;"/><text fill="#000000" font-family="sans-serif" font-size="14" lengthAdjust="spacing" textLength="69.4668" x="1662.17" y="591.1951">url: String</text><ellipse cx="1653.17" cy="604.1453" fill="none" rx="3" ry="3" style="stroke:#038048;stroke-width:1;"/><text fill="#000000" font-family="sans-serif" font-size="14" lengthAdjust="spacing" textLength="90.6514" x="1662.17" y="607.492">name: String</text><line style="stroke:#181818;stroke-width:0.5;" x1="1643.17" x2="2232.6866" y1="614.7938" y2="614.7938"/><ellipse cx="1653.17" cy="628.4422" fill="#84BE84" rx="3" ry="3" style="stroke:#038048;stroke-width:1;"/><text fill="#000000" font-family="sans-serif" font-size="14" lengthAdjust="spacing" textLength="381.7871" x="1662.17" y="631.7889">sync(): void  ' Sincronizaci&#243;n con el repositorio remoto</text><ellipse cx="1653.17" cy="644.7391" fill="#84BE84" rx="3" ry="3" style="stroke:#038048;stroke-width:1;"/><text fill="#000000" font-family="sans-serif" font-size="14" lengthAdjust="spacing" textLength="565.5166" x="1662.17" y="648.0857">pushChanges(repo: Repository): void  ' Enviar cambios desde el repositorio local</text><ellipse cx="1653.17" cy="661.0359" fill="#84BE84" rx="3" ry="3" style="stroke:#038048;stroke-width:1;"/><text fill="#000000" font-family="sans-serif" font-size="14" lengthAdjust="spacing" textLength="503.3779" x="1662.17" y="664.3826">pullChanges(repo: Repository): void  ' Traer cambios al repositorio local</text></g><!--link User to Repository--><g id="link_User_Repository"><path codeLine="68" d="M1671.18,136.98 C1646.26,146.78 1620.89,156.85 1596.93,166.49 C1559.86,181.4 1520.96,197.26 1482.55,213.04 " fill="none" id="User-Repository" style="stroke:#181818;stroke-width:1;"/><text fill="#000000" font-family="sans-serif" font-size="13" lengthAdjust="spacing" textLength="33.5981" x="1597.93" y="179.5569">owns</text><text fill="#000000" font-family="sans-serif" font-size="13" lengthAdjust="spacing" textLength="8.271" x="1645.6887" y="156.5548">1</text><text fill="#000000" font-family="sans-serif" font-size="13" lengthAdjust="spacing" textLength="8.2393" x="1491.1271" y="202.6106">n</text></g><!--link Repository to Branch--><g id="link_Repository_Branch"><path codeLine="69" d="M1134.93,457.3 C1119.7,489.65 1103.96,523.06 1091.28,550 " fill="none" id="Repository-Branch" style="stroke:#181818;stroke-width:1;"/><text fill="#000000" font-family="sans-serif" font-size="13" lengthAdjust="spacing" textLength="55.0278" x="1121.93" y="500.1169">contains</text><text fill="#000000" font-family="sans-serif" font-size="13" lengthAdjust="spacing" textLength="8.271" x="1123.221" y="477.2641">1</text><text fill="#000000" font-family="sans-serif" font-size="13" lengthAdjust="spacing" textLength="8.2393" x="1086.0181" y="539.2209">n</text></g><!--link Branch to Commit--><g id="link_Branch_Commit"><path codeLine="70" d="M1235.05,663.97 C1251.89,669.38 1268.73,674.75 1284.93,679.83 C1413.57,720.23 1564.12,765.07 1651.59,790.89 " fill="none" id="Branch-Commit" style="stroke:#181818;stroke-width:1;"/><text fill="#000000" font-family="sans-serif" font-size="13" lengthAdjust="spacing" textLength="22.9785" x="1430.93" y="722.8969">has</text><text fill="#000000" font-family="sans-serif" font-size="13" lengthAdjust="spacing" textLength="8.271" x="1246.2729" y="683.5054">1</text><text fill="#000000" font-family="sans-serif" font-size="13" lengthAdjust="spacing" textLength="8.2393" x="1635.6267" y="784.8665">n</text></g><!--link Branch to File--><g id="link_Branch_File"><path codeLine="71" d="M1064.93,663.82 C1064.93,698.35 1064.93,741.83 1064.93,772.82 " fill="none" id="Branch-File" style="stroke:#181818;stroke-width:1;"/><text fill="#000000" font-family="sans-serif" font-size="13" lengthAdjust="spacing" textLength="55.0278" x="1065.93" y="722.8969">contains</text><text fill="#000000" font-family="sans-serif" font-size="13" lengthAdjust="spacing" textLength="8.271" x="1056.4586" y="683.7408">1</text><text fill="#000000" font-family="sans-serif" font-size="13" lengthAdjust="spacing" textLength="8.2393" x="1056.2882" y="761.9302">n</text></g><!--link Commit to User--><g id="link_Commit_User"><path codeLine="72" d="M1798.23,804.9 C1929.36,789.77 2195.58,750.87 2250.93,679.83 C2399.03,489.77 2103.24,249.7 1937.94,136.87 " fill="none" id="Commit-User" style="stroke:#181818;stroke-width:1;"/><text fill="#000000" font-family="sans-serif" font-size="13" lengthAdjust="spacing" textLength="79.168" x="2280.93" y="500.1169">authored by</text><text fill="#000000" font-family="sans-serif" font-size="13" lengthAdjust="spacing" textLength="8.271" x="1805.8526" y="800.3961">1</text><text fill="#000000" font-family="sans-serif" font-size="13" lengthAdjust="spacing" textLength="8.271" x="1939.9583" y="156.4335">1</text></g><!--link Repository to PullRequest--><g id="link_Repository_PullRequest"><path codeLine="73" d="M1337.34,457.3 C1368.63,483.35 1400.76,510.08 1428.98,533.57 " fill="none" id="Repository-PullRequest" style="stroke:#181818;stroke-width:1;"/><text fill="#000000" font-family="sans-serif" font-size="13" lengthAdjust="spacing" textLength="59.8584" x="1393.93" y="500.1169">manages</text><text fill="#000000" font-family="sans-serif" font-size="13" lengthAdjust="spacing" textLength="8.271" x="1337.9654" y="477.2641">1</text><text fill="#000000" font-family="sans-serif" font-size="13" lengthAdjust="spacing" textLength="8.2393" x="1412.3227" y="522.9352">n</text></g><!--link PullRequest to User--><g id="link_PullRequest_User"><path codeLine="74" d="M1607.89,535.3 C1618.02,525.43 1627.64,514.92 1635.93,504.05 C1659.79,472.77 1759.44,249.21 1808.87,136.86 " fill="none" id="PullRequest-User" style="stroke:#181818;stroke-width:1;"/><text fill="#000000" font-family="sans-serif" font-size="13" lengthAdjust="spacing" textLength="79.606" x="1773.93" y="339.8369">reviewed by</text><text fill="#000000" font-family="sans-serif" font-size="13" lengthAdjust="spacing" textLength="8.2393" x="1615.5463" y="526.0657">n</text><text fill="#000000" font-family="sans-serif" font-size="13" lengthAdjust="spacing" textLength="8.2393" x="1797.5763" y="156.4225">n</text></g><!--link Repository to Status--><g id="link_Repository_Status"><path codeLine="75" d="M851.42,457.46 C828.09,467.1 805.07,477 782.93,487.05 C736.51,508.13 686.46,535.1 646.04,558.02 " fill="none" id="Repository-Status" style="stroke:#181818;stroke-width:1;"/><text fill="#000000" font-family="sans-serif" font-size="13" lengthAdjust="spacing" textLength="22.9785" x="783.93" y="500.1169">has</text><text fill="#000000" font-family="sans-serif" font-size="13" lengthAdjust="spacing" textLength="8.271" x="827.8155" y="475.4064">1</text><text fill="#000000" font-family="sans-serif" font-size="13" lengthAdjust="spacing" textLength="8.271" x="648.4195" y="547.5137">1</text></g><!--link Repository to Status--><g id="link_Repository_Status"><path codeLine="78" d="M918.58,457.52 C882.43,473.29 845.82,489.14 810.93,504.05 C769.06,521.94 728.536,538.8604 687.696,555.7204 " fill="none" id="Repository-to-Status" style="stroke:#181818;stroke-width:1;"/><polygon fill="#181818" points="682.15,558.01,691.9953,558.273,686.7717,556.102,688.9426,550.8783,682.15,558.01" style="stroke:#181818;stroke-width:1;"/><text fill="#000000" font-family="sans-serif" font-size="13" lengthAdjust="spacing" textLength="99.4106" x="843.93" y="500.1169">changeStatus()</text><text fill="#000000" font-family="sans-serif" font-size="13" lengthAdjust="spacing" textLength="8.271" x="894.5535" y="477.0918">1</text></g><!--link Repository to File--><g id="link_Repository_File"><path codeLine="76" d="M1277.84,457.51 C1324.49,539.54 1362.25,647.06 1305.93,726.83 C1266.49,782.69 1187.29,802.32 1130.44,809.09 " fill="none" id="Repository-File" style="stroke:#181818;stroke-width:1;"/><text fill="#000000" font-family="sans-serif" font-size="13" lengthAdjust="spacing" textLength="59.8584" x="1335.93" y="611.5069">manages</text><text fill="#000000" font-family="sans-serif" font-size="13" lengthAdjust="spacing" textLength="8.271" x="1274.5832" y="477.0813">1</text><text fill="#000000" font-family="sans-serif" font-size="13" lengthAdjust="spacing" textLength="8.2393" x="1138.0564" y="804.8695">n</text></g><!--link File to Repository--><g id="link_File_Repository"><path codeLine="79" d="M999.24,813.1 C766.47,813.34 6,794.61 218.93,534.05 C297.74,437.61 591.6126,387.6545 837.8626,361.8845 " fill="none" id="File-to-Repository" style="stroke:#181818;stroke-width:1;"/><polygon fill="#181818" points="843.83,361.26,834.4626,358.2185,838.8572,361.7804,835.2952,366.175,843.83,361.26" style="stroke:#181818;stroke-width:1;"/><text fill="#000000" font-family="sans-serif" font-size="13" lengthAdjust="spacing" textLength="55.4404" x="219.93" y="611.5069">modifies</text><text fill="#000000" font-family="sans-serif" font-size="13" lengthAdjust="spacing" textLength="8.271" x="983.1984" y="809.2696">1</text></g><!--link Repository to RemoteRepository--><g id="link_Repository_RemoteRepository"><path codeLine="77" d="M1527.29,457.5 C1607.69,486.56 1690.46,516.48 1760.43,541.78 " fill="none" id="Repository-RemoteRepository" style="stroke:#181818;stroke-width:1;"/><text fill="#000000" font-family="sans-serif" font-size="13" lengthAdjust="spacing" textLength="68.3389" x="1654.93" y="500.1169">syncs with</text><text fill="#000000" font-family="sans-serif" font-size="13" lengthAdjust="spacing" textLength="8.271" x="1538.4545" y="477.0707">1</text><text fill="#000000" font-family="sans-serif" font-size="13" lengthAdjust="spacing" textLength="8.271" x="1733.727" y="531.3605">1</text></g><!--link User to RemoteRepository--><g id="link_User_RemoteRepository"><path codeLine="80" d="M1849.06,136.8 C1868.48,239.31 1905.2131,433.2349 1924.6531,535.8449 " fill="none" id="User-to-RemoteRepository" style="stroke:#181818;stroke-width:1;"/><polygon fill="#181818" points="1925.77,541.74,1928.0248,532.1527,1924.8393,536.8274,1920.1646,533.6419,1925.77,541.74" style="stroke:#181818;stroke-width:1;"/><text fill="#000000" font-family="sans-serif" font-size="13" lengthAdjust="spacing" textLength="68.3389" x="1909.93" y="339.8369">syncs with</text><text fill="#000000" font-family="sans-serif" font-size="13" lengthAdjust="spacing" textLength="8.271" x="1841.9126" y="156.3563">1</text></g><!--SRC=[bLNBRjim4BphAnQ-H46JGwz2OI1Fe40FXPEsvxMqiGbGf4fI3jAYNzLFw8zrAL8MPSbEuelevMYud9rTdS4jbH8DbkBVNmKLWKJWW2LeZ52bQ53wLKr6PpvkuPib0xypuD-7bjSAQohWmJ5y4w9Kev3ZK6a87QseqLOuRLxozAtp0eQTWBVjkXRkQolbYdwsP5rk697YBg0PTWj8e4otqwAAH2-g_27STaMr3WbCc28Uu0mU-Cf6A_6BHT0AI8BfOKBpcZbqzYUBIWmKlHvJBIgofH6D4rgDDuJzBgnOIyPVQoq9LKpOeMkjn_gdJsf5JsI8Qu60Gtdk65ZfLDrhWwhS7YeReX6dQrRrPejgG_cws-W15n0s2xZfdYCHkVgRI4ysN_FnmsiEUS_r_yz7bGXlOrNT2qdva_2NzSiHkLTrHwSGPPTm42HFglLPxNI9laebrcik4DkN4bcQrcuVTQXyRlO6yBNlrnC7tAcTG1C9BU2i0oAxbFT6r-_ZVpH80ttrYiEY2Txlhf5a9mn_LReMfVSxPnAqEqngo2QK-7WsmK7itI_2ka_1HykmvIlRRroPSYjsUjcT7zOijDLiyCgllCSDrhXtJs3Avmswpow4- -n4DSwj9cjnSv2muxd66jLD0RVSGF70rcsrARevDx0dhZvsX1DElhK-GvSFCKCxGSzaUfry0ika0VF9bNsddAY6SgJSFfYChR4xzyFS70pjAQUVfldil0pVZ-D3Sz-GOVgSDEL13xA8lh77j98xNmwD-0RMSUVX71rBvCUjvDjeHJRhFdMBZmkul8I5MgG3lm3zh6oMH19SR9J2w-5GC2v64aoqQm5RdDlsfKq98hn7yADBhe1WLwfW_N8aczIw1TIek0zibaOzAe8ZQ_JYCLP-nD4Kyfy_EDwXFt6UP-B60hpBB3ppLtlwpZ8UpDAClWfPTrYF6T7LkX9FObpEvUbp_mC0]--></g></svg>