<?xml version="1.0" encoding="us-ascii" standalone="no"?><svg xmlns="http://www.w3.org/2000/svg" xmlns:xlink="http://www.w3.org/1999/xlink" contentStyleType="text/css" height="1229px" preserveAspectRatio="none" style="width:660px;height:1229px;background:#FFFFFF;" version="1.1" viewBox="0 0 660 1229" width="660px" zoomAndPan="magnify"><defs/><g><text fill="#000000" font-family="sans-serif" font-size="14" font-weight="bold" lengthAdjust="spacing" textLength="313" x="166.75" y="24.5332">Sistema de Gesti&#243;n de Repositorios y Ramas</text><!--class Repositorio--><g id="elem_Repositorio"><rect codeLine="5" fill="#F1F1F1" height="100.8281" id="Repositorio" rx="2.5" ry="2.5" style="stroke:#181818;stroke-width:0.5;" width="308" x="74" y="45.6094"/><ellipse cx="187.75" cy="61.6094" fill="#ADD1B2" rx="11" ry="11" style="stroke:#181818;stroke-width:1.0;"/><path d="M190.5156,57.4844 Q190.6719,57.2656 190.8594,57.1563 Q191.0469,57.0469 191.2656,57.0469 Q191.6406,57.0469 191.875,57.3125 Q192.1094,57.5625 192.1094,58.1719 L192.1094,59.625 Q192.1094,60.2344 191.875,60.5 Q191.6406,60.7656 191.2656,60.7656 Q190.9219,60.7656 190.7188,60.5625 Q190.5156,60.375 190.4063,59.8594 Q190.3594,59.5 190.1719,59.3125 Q189.8438,58.9375 189.2344,58.7188 Q188.625,58.5 188,58.5 Q187.2344,58.5 186.5938,58.8281 Q185.9688,59.1563 185.4688,59.9063 Q184.9844,60.6563 184.9844,61.6875 L184.9844,62.7813 Q184.9844,64.0156 185.875,64.8438 Q186.7656,65.6563 188.3594,65.6563 Q189.2969,65.6563 189.9531,65.4063 Q190.3438,65.25 190.7656,64.8125 Q191.0313,64.5469 191.1719,64.4688 Q191.3281,64.3906 191.5313,64.3906 Q191.8594,64.3906 192.1094,64.6563 Q192.375,64.9063 192.375,65.25 Q192.375,65.5938 192.0313,66 Q191.5313,66.5781 190.7344,66.9063 Q189.6563,67.3594 188.3594,67.3594 Q186.8438,67.3594 185.6406,66.7344 Q184.6563,66.2344 183.9688,65.1719 Q183.2813,64.0938 183.2813,62.8125 L183.2813,61.6563 Q183.2813,60.3281 183.8906,59.1875 Q184.5156,58.0313 185.6094,57.4219 Q186.7031,56.7969 187.9375,56.7969 Q188.6719,56.7969 189.3125,56.9688 Q189.9688,57.125 190.5156,57.4844 Z " fill="#000000"/><text fill="#000000" font-family="sans-serif" font-size="14" lengthAdjust="spacing" textLength="72" x="208.25" y="67.3379">Repositorio</text><line style="stroke:#181818;stroke-width:0.5;" x1="75" x2="381" y1="77.6094" y2="77.6094"/><ellipse cx="85" cy="91.9141" fill="none" rx="3" ry="3" style="stroke:#038048;stroke-width:1.0;"/><text fill="#000000" font-family="sans-serif" font-size="14" lengthAdjust="spacing" textLength="93" x="94" y="96.1426">nombre: String</text><line style="stroke:#181818;stroke-width:0.5;" x1="75" x2="381" y1="103.2188" y2="103.2188"/><ellipse cx="85" cy="117.5234" fill="#84BE84" rx="3" ry="3" style="stroke:#038048;stroke-width:1.0;"/><text fill="#000000" font-family="sans-serif" font-size="14" lengthAdjust="spacing" textLength="173" x="94" y="121.752">crearRama(nombre: String)</text><ellipse cx="85" cy="135.1328" fill="#84BE84" rx="3" ry="3" style="stroke:#038048;stroke-width:1.0;"/><text fill="#000000" font-family="sans-serif" font-size="14" lengthAdjust="spacing" textLength="282" x="94" y="139.3613">fusionarRama(origen: Rama, destino: Rama)</text></g><!--class Rama--><g id="elem_Rama"><rect codeLine="11" fill="#F1F1F1" height="100.8281" id="Rama" rx="2.5" ry="2.5" style="stroke:#181818;stroke-width:0.5;" width="384" x="7" y="609.6094"/><ellipse cx="176.25" cy="625.6094" fill="#ADD1B2" rx="11" ry="11" style="stroke:#181818;stroke-width:1.0;"/><path d="M179.0156,621.4844 Q179.1719,621.2656 179.3594,621.1563 Q179.5469,621.0469 179.7656,621.0469 Q180.1406,621.0469 180.375,621.3125 Q180.6094,621.5625 180.6094,622.1719 L180.6094,623.625 Q180.6094,624.2344 180.375,624.5 Q180.1406,624.7656 179.7656,624.7656 Q179.4219,624.7656 179.2188,624.5625 Q179.0156,624.375 178.9063,623.8594 Q178.8594,623.5 178.6719,623.3125 Q178.3438,622.9375 177.7344,622.7188 Q177.125,622.5 176.5,622.5 Q175.7344,622.5 175.0938,622.8281 Q174.4688,623.1563 173.9688,623.9063 Q173.4844,624.6563 173.4844,625.6875 L173.4844,626.7813 Q173.4844,628.0156 174.375,628.8438 Q175.2656,629.6563 176.8594,629.6563 Q177.7969,629.6563 178.4531,629.4063 Q178.8438,629.25 179.2656,628.8125 Q179.5313,628.5469 179.6719,628.4688 Q179.8281,628.3906 180.0313,628.3906 Q180.3594,628.3906 180.6094,628.6563 Q180.875,628.9063 180.875,629.25 Q180.875,629.5938 180.5313,630 Q180.0313,630.5781 179.2344,630.9063 Q178.1563,631.3594 176.8594,631.3594 Q175.3438,631.3594 174.1406,630.7344 Q173.1563,630.2344 172.4688,629.1719 Q171.7813,628.0938 171.7813,626.8125 L171.7813,625.6563 Q171.7813,624.3281 172.3906,623.1875 Q173.0156,622.0313 174.1094,621.4219 Q175.2031,620.7969 176.4375,620.7969 Q177.1719,620.7969 177.8125,620.9688 Q178.4688,621.125 179.0156,621.4844 Z " fill="#000000"/><text fill="#000000" font-family="sans-serif" font-size="14" lengthAdjust="spacing" textLength="37" x="196.75" y="631.3379">Rama</text><line style="stroke:#181818;stroke-width:0.5;" x1="8" x2="390" y1="641.6094" y2="641.6094"/><ellipse cx="18" cy="655.9141" fill="none" rx="3" ry="3" style="stroke:#038048;stroke-width:1.0;"/><text fill="#000000" font-family="sans-serif" font-size="14" lengthAdjust="spacing" textLength="93" x="27" y="660.1426">nombre: String</text><ellipse cx="18" cy="673.5234" fill="none" rx="3" ry="3" style="stroke:#038048;stroke-width:1.0;"/><text fill="#000000" font-family="sans-serif" font-size="14" lengthAdjust="spacing" textLength="144" x="27" y="677.752">commits: List&lt;Commit&gt;</text><line style="stroke:#181818;stroke-width:0.5;" x1="8" x2="390" y1="684.8281" y2="684.8281"/><ellipse cx="18" cy="699.1328" fill="#84BE84" rx="3" ry="3" style="stroke:#038048;stroke-width:1.0;"/><text fill="#000000" font-family="sans-serif" font-size="14" lengthAdjust="spacing" textLength="358" x="27" y="703.3613">agregarCommit(mensaje: String, cambios: List&lt;Archivo&gt;)</text></g><!--class Commit--><g id="elem_Commit"><rect codeLine="17" fill="#F1F1F1" height="110.4375" id="Commit" rx="2.5" ry="2.5" style="stroke:#181818;stroke-width:0.5;" width="243" x="77.5" y="788.6094"/><ellipse cx="171.25" cy="804.6094" fill="#ADD1B2" rx="11" ry="11" style="stroke:#181818;stroke-width:1.0;"/><path d="M174.0156,800.4844 Q174.1719,800.2656 174.3594,800.1563 Q174.5469,800.0469 174.7656,800.0469 Q175.1406,800.0469 175.375,800.3125 Q175.6094,800.5625 175.6094,801.1719 L175.6094,802.625 Q175.6094,803.2344 175.375,803.5 Q175.1406,803.7656 174.7656,803.7656 Q174.4219,803.7656 174.2188,803.5625 Q174.0156,803.375 173.9063,802.8594 Q173.8594,802.5 173.6719,802.3125 Q173.3438,801.9375 172.7344,801.7188 Q172.125,801.5 171.5,801.5 Q170.7344,801.5 170.0938,801.8281 Q169.4688,802.1563 168.9688,802.9063 Q168.4844,803.6563 168.4844,804.6875 L168.4844,805.7813 Q168.4844,807.0156 169.375,807.8438 Q170.2656,808.6563 171.8594,808.6563 Q172.7969,808.6563 173.4531,808.4063 Q173.8438,808.25 174.2656,807.8125 Q174.5313,807.5469 174.6719,807.4688 Q174.8281,807.3906 175.0313,807.3906 Q175.3594,807.3906 175.6094,807.6563 Q175.875,807.9063 175.875,808.25 Q175.875,808.5938 175.5313,809 Q175.0313,809.5781 174.2344,809.9063 Q173.1563,810.3594 171.8594,810.3594 Q170.3438,810.3594 169.1406,809.7344 Q168.1563,809.2344 167.4688,808.1719 Q166.7813,807.0938 166.7813,805.8125 L166.7813,804.6563 Q166.7813,803.3281 167.3906,802.1875 Q168.0156,801.0313 169.1094,800.4219 Q170.2031,799.7969 171.4375,799.7969 Q172.1719,799.7969 172.8125,799.9688 Q173.4688,800.125 174.0156,800.4844 Z " fill="#000000"/><text fill="#000000" font-family="sans-serif" font-size="14" lengthAdjust="spacing" textLength="47" x="191.75" y="810.3379">Commit</text><line style="stroke:#181818;stroke-width:0.5;" x1="78.5" x2="319.5" y1="820.6094" y2="820.6094"/><ellipse cx="88.5" cy="834.9141" fill="none" rx="3" ry="3" style="stroke:#038048;stroke-width:1.0;"/><text fill="#000000" font-family="sans-serif" font-size="14" lengthAdjust="spacing" textLength="56" x="97.5" y="839.1426">id: String</text><ellipse cx="88.5" cy="852.5234" fill="none" rx="3" ry="3" style="stroke:#038048;stroke-width:1.0;"/><text fill="#000000" font-family="sans-serif" font-size="14" lengthAdjust="spacing" textLength="98" x="97.5" y="856.752">mensaje: String</text><ellipse cx="88.5" cy="870.1328" fill="none" rx="3" ry="3" style="stroke:#038048;stroke-width:1.0;"/><text fill="#000000" font-family="sans-serif" font-size="14" lengthAdjust="spacing" textLength="89" x="97.5" y="874.3613">autor: Usuario</text><ellipse cx="88.5" cy="887.7422" fill="none" rx="3" ry="3" style="stroke:#038048;stroke-width:1.0;"/><text fill="#000000" font-family="sans-serif" font-size="14" lengthAdjust="spacing" textLength="217" x="97.5" y="891.9707">archivosCambiados: List&lt;Archivo&gt;</text></g><!--class Archivo--><g id="elem_Archivo"><rect codeLine="24" fill="#F1F1F1" height="75.2188" id="Archivo" rx="2.5" ry="2.5" style="stroke:#181818;stroke-width:0.5;" width="168" x="115" y="976.6094"/><ellipse cx="171.25" cy="992.6094" fill="#ADD1B2" rx="11" ry="11" style="stroke:#181818;stroke-width:1.0;"/><path d="M174.0156,988.4844 Q174.1719,988.2656 174.3594,988.1563 Q174.5469,988.0469 174.7656,988.0469 Q175.1406,988.0469 175.375,988.3125 Q175.6094,988.5625 175.6094,989.1719 L175.6094,990.625 Q175.6094,991.2344 175.375,991.5 Q175.1406,991.7656 174.7656,991.7656 Q174.4219,991.7656 174.2188,991.5625 Q174.0156,991.375 173.9063,990.8594 Q173.8594,990.5 173.6719,990.3125 Q173.3438,989.9375 172.7344,989.7188 Q172.125,989.5 171.5,989.5 Q170.7344,989.5 170.0938,989.8281 Q169.4688,990.1563 168.9688,990.9063 Q168.4844,991.6563 168.4844,992.6875 L168.4844,993.7813 Q168.4844,995.0156 169.375,995.8438 Q170.2656,996.6563 171.8594,996.6563 Q172.7969,996.6563 173.4531,996.4063 Q173.8438,996.25 174.2656,995.8125 Q174.5313,995.5469 174.6719,995.4688 Q174.8281,995.3906 175.0313,995.3906 Q175.3594,995.3906 175.6094,995.6563 Q175.875,995.9063 175.875,996.25 Q175.875,996.5938 175.5313,997 Q175.0313,997.5781 174.2344,997.9063 Q173.1563,998.3594 171.8594,998.3594 Q170.3438,998.3594 169.1406,997.7344 Q168.1563,997.2344 167.4688,996.1719 Q166.7813,995.0938 166.7813,993.8125 L166.7813,992.6563 Q166.7813,991.3281 167.3906,990.1875 Q168.0156,989.0313 169.1094,988.4219 Q170.2031,987.7969 171.4375,987.7969 Q172.1719,987.7969 172.8125,987.9688 Q173.4688,988.125 174.0156,988.4844 Z " fill="#000000"/><text fill="#000000" font-family="sans-serif" font-size="14" lengthAdjust="spacing" textLength="47" x="191.75" y="998.3379">Archivo</text><line style="stroke:#181818;stroke-width:0.5;" x1="116" x2="282" y1="1008.6094" y2="1008.6094"/><ellipse cx="126" cy="1022.9141" fill="none" rx="3" ry="3" style="stroke:#038048;stroke-width:1.0;"/><text fill="#000000" font-family="sans-serif" font-size="14" lengthAdjust="spacing" textLength="93" x="135" y="1027.1426">nombre: String</text><ellipse cx="126" cy="1040.5234" fill="none" rx="3" ry="3" style="stroke:#038048;stroke-width:1.0;"/><text fill="#000000" font-family="sans-serif" font-size="14" lengthAdjust="spacing" textLength="142" x="135" y="1044.752">estado: EstadoArchivo</text></g><!--class Usuario--><g id="elem_Usuario"><rect codeLine="29" fill="#F1F1F1" height="100.8281" id="Usuario" rx="2.5" ry="2.5" style="stroke:#181818;stroke-width:0.5;" width="401" x="252.5" y="224.6094"/><ellipse cx="424.75" cy="240.6094" fill="#ADD1B2" rx="11" ry="11" style="stroke:#181818;stroke-width:1.0;"/><path d="M427.5156,236.4844 Q427.6719,236.2656 427.8594,236.1563 Q428.0469,236.0469 428.2656,236.0469 Q428.6406,236.0469 428.875,236.3125 Q429.1094,236.5625 429.1094,237.1719 L429.1094,238.625 Q429.1094,239.2344 428.875,239.5 Q428.6406,239.7656 428.2656,239.7656 Q427.9219,239.7656 427.7188,239.5625 Q427.5156,239.375 427.4063,238.8594 Q427.3594,238.5 427.1719,238.3125 Q426.8438,237.9375 426.2344,237.7188 Q425.625,237.5 425,237.5 Q424.2344,237.5 423.5938,237.8281 Q422.9688,238.1563 422.4688,238.9063 Q421.9844,239.6563 421.9844,240.6875 L421.9844,241.7813 Q421.9844,243.0156 422.875,243.8438 Q423.7656,244.6563 425.3594,244.6563 Q426.2969,244.6563 426.9531,244.4063 Q427.3438,244.25 427.7656,243.8125 Q428.0313,243.5469 428.1719,243.4688 Q428.3281,243.3906 428.5313,243.3906 Q428.8594,243.3906 429.1094,243.6563 Q429.375,243.9063 429.375,244.25 Q429.375,244.5938 429.0313,245 Q428.5313,245.5781 427.7344,245.9063 Q426.6563,246.3594 425.3594,246.3594 Q423.8438,246.3594 422.6406,245.7344 Q421.6563,245.2344 420.9688,244.1719 Q420.2813,243.0938 420.2813,241.8125 L420.2813,240.6563 Q420.2813,239.3281 420.8906,238.1875 Q421.5156,237.0313 422.6094,236.4219 Q423.7031,235.7969 424.9375,235.7969 Q425.6719,235.7969 426.3125,235.9688 Q426.9688,236.125 427.5156,236.4844 Z " fill="#000000"/><text fill="#000000" font-family="sans-serif" font-size="14" lengthAdjust="spacing" textLength="48" x="445.25" y="246.3379">Usuario</text><line style="stroke:#181818;stroke-width:0.5;" x1="253.5" x2="652.5" y1="256.6094" y2="256.6094"/><ellipse cx="263.5" cy="270.9141" fill="none" rx="3" ry="3" style="stroke:#038048;stroke-width:1.0;"/><text fill="#000000" font-family="sans-serif" font-size="14" lengthAdjust="spacing" textLength="93" x="272.5" y="275.1426">nombre: String</text><ellipse cx="263.5" cy="288.5234" fill="none" rx="3" ry="3" style="stroke:#038048;stroke-width:1.0;"/><text fill="#000000" font-family="sans-serif" font-size="14" lengthAdjust="spacing" textLength="78" x="272.5" y="292.752">email: String</text><line style="stroke:#181818;stroke-width:0.5;" x1="253.5" x2="652.5" y1="299.8281" y2="299.8281"/><ellipse cx="263.5" cy="314.1328" fill="#84BE84" rx="3" ry="3" style="stroke:#038048;stroke-width:1.0;"/><text fill="#000000" font-family="sans-serif" font-size="14" lengthAdjust="spacing" textLength="375" x="272.5" y="318.3613">hacerPullRequest(ramaOrigen: Rama, ramaDestino: Rama)</text></g><!--class PullRequest--><g id="elem_PullRequest"><rect codeLine="35" fill="#F1F1F1" height="128.0469" id="PullRequest" rx="2.5" ry="2.5" style="stroke:#181818;stroke-width:0.5;" width="197" x="354.5" y="403.6094"/><ellipse cx="410.75" cy="419.6094" fill="#ADD1B2" rx="11" ry="11" style="stroke:#181818;stroke-width:1.0;"/><path d="M413.5156,415.4844 Q413.6719,415.2656 413.8594,415.1563 Q414.0469,415.0469 414.2656,415.0469 Q414.6406,415.0469 414.875,415.3125 Q415.1094,415.5625 415.1094,416.1719 L415.1094,417.625 Q415.1094,418.2344 414.875,418.5 Q414.6406,418.7656 414.2656,418.7656 Q413.9219,418.7656 413.7188,418.5625 Q413.5156,418.375 413.4063,417.8594 Q413.3594,417.5 413.1719,417.3125 Q412.8438,416.9375 412.2344,416.7188 Q411.625,416.5 411,416.5 Q410.2344,416.5 409.5938,416.8281 Q408.9688,417.1563 408.4688,417.9063 Q407.9844,418.6563 407.9844,419.6875 L407.9844,420.7813 Q407.9844,422.0156 408.875,422.8438 Q409.7656,423.6563 411.3594,423.6563 Q412.2969,423.6563 412.9531,423.4063 Q413.3438,423.25 413.7656,422.8125 Q414.0313,422.5469 414.1719,422.4688 Q414.3281,422.3906 414.5313,422.3906 Q414.8594,422.3906 415.1094,422.6563 Q415.375,422.9063 415.375,423.25 Q415.375,423.5938 415.0313,424 Q414.5313,424.5781 413.7344,424.9063 Q412.6563,425.3594 411.3594,425.3594 Q409.8438,425.3594 408.6406,424.7344 Q407.6563,424.2344 406.9688,423.1719 Q406.2813,422.0938 406.2813,420.8125 L406.2813,419.6563 Q406.2813,418.3281 406.8906,417.1875 Q407.5156,416.0313 408.6094,415.4219 Q409.7031,414.7969 410.9375,414.7969 Q411.6719,414.7969 412.3125,414.9688 Q412.9688,415.125 413.5156,415.4844 Z " fill="#000000"/><text fill="#000000" font-family="sans-serif" font-size="14" lengthAdjust="spacing" textLength="76" x="431.25" y="425.3379">PullRequest</text><line style="stroke:#181818;stroke-width:0.5;" x1="355.5" x2="550.5" y1="435.6094" y2="435.6094"/><ellipse cx="365.5" cy="449.9141" fill="none" rx="3" ry="3" style="stroke:#038048;stroke-width:1.0;"/><text fill="#000000" font-family="sans-serif" font-size="14" lengthAdjust="spacing" textLength="56" x="374.5" y="454.1426">id: String</text><ellipse cx="365.5" cy="467.5234" fill="none" rx="3" ry="3" style="stroke:#038048;stroke-width:1.0;"/><text fill="#000000" font-family="sans-serif" font-size="14" lengthAdjust="spacing" textLength="171" x="374.5" y="471.752">estado: EstadoPullRequest</text><ellipse cx="365.5" cy="485.1328" fill="none" rx="3" ry="3" style="stroke:#038048;stroke-width:1.0;"/><text fill="#000000" font-family="sans-serif" font-size="14" lengthAdjust="spacing" textLength="120" x="374.5" y="489.3613">ramaOrigen: Rama</text><ellipse cx="365.5" cy="502.7422" fill="none" rx="3" ry="3" style="stroke:#038048;stroke-width:1.0;"/><text fill="#000000" font-family="sans-serif" font-size="14" lengthAdjust="spacing" textLength="125" x="374.5" y="506.9707">ramaDestino: Rama</text><ellipse cx="365.5" cy="520.3516" fill="none" rx="3" ry="3" style="stroke:#038048;stroke-width:1.0;"/><text fill="#000000" font-family="sans-serif" font-size="14" lengthAdjust="spacing" textLength="89" x="374.5" y="524.5801">autor: Usuario</text></g><!--class EstadoArchivo--><g id="elem_EstadoArchivo"><rect codeLine="43" fill="#F1F1F1" height="92.8281" id="EstadoArchivo" rx="2.5" ry="2.5" style="stroke:#181818;stroke-width:0.5;" width="123" x="137.5" y="1129.6094"/><ellipse cx="152.5" cy="1145.6094" fill="#EB937F" rx="11" ry="11" style="stroke:#181818;stroke-width:1.0;"/><path d="M151.3594,1146.4063 L151.3594,1148.9063 L155.6875,1148.9063 L155.6875,1147.9844 Q155.6875,1147.375 155.9219,1147.1094 Q156.1719,1146.8438 156.5469,1146.8438 Q156.9219,1146.8438 157.1563,1147.1094 Q157.3906,1147.375 157.3906,1147.9844 L157.3906,1150.6094 L149.3906,1150.6094 Q148.7656,1150.6094 148.5,1150.375 Q148.25,1150.1406 148.25,1149.75 Q148.25,1149.375 148.5156,1149.1406 Q148.7813,1148.9063 149.3906,1148.9063 L149.6563,1148.9063 L149.6563,1142.25 L149.3906,1142.25 Q148.7656,1142.25 148.5,1142.0156 Q148.25,1141.7813 148.25,1141.3906 Q148.25,1141.0156 148.5,1140.7813 Q148.7656,1140.5469 149.3906,1140.5469 L157.0156,1140.5469 L157.0156,1143.1406 Q157.0156,1143.75 156.7813,1144.0156 Q156.5625,1144.2656 156.1719,1144.2656 Q155.7969,1144.2656 155.5625,1144.0156 Q155.3281,1143.75 155.3281,1143.1406 L155.3281,1142.25 L151.3594,1142.25 L151.3594,1144.7031 L152.8438,1144.7031 Q152.8438,1144.0469 152.9688,1143.8594 Q153.2344,1143.4531 153.7031,1143.4531 Q154.0781,1143.4531 154.3125,1143.7188 Q154.5469,1143.9688 154.5469,1144.5781 L154.5469,1146.5469 Q154.5469,1147.0938 154.4219,1147.2813 Q154.1563,1147.6719 153.7031,1147.6719 Q153.2344,1147.6719 152.9688,1147.2656 Q152.8438,1147.0781 152.8438,1146.4063 L151.3594,1146.4063 Z " fill="#000000"/><text fill="#000000" font-family="sans-serif" font-size="14" lengthAdjust="spacing" textLength="91" x="166.5" y="1151.3379">EstadoArchivo</text><line style="stroke:#181818;stroke-width:0.5;" x1="138.5" x2="259.5" y1="1161.6094" y2="1161.6094"/><text fill="#000000" font-family="sans-serif" font-size="14" lengthAdjust="spacing" textLength="40" x="143.5" y="1180.1426">Nuevo</text><text fill="#000000" font-family="sans-serif" font-size="14" lengthAdjust="spacing" textLength="68" x="143.5" y="1197.752">Modificado</text><text fill="#000000" font-family="sans-serif" font-size="14" lengthAdjust="spacing" textLength="61" x="143.5" y="1215.3613">Eliminado</text></g><!--class EstadoPullRequest--><g id="elem_EstadoPullRequest"><rect codeLine="49" fill="#F1F1F1" height="92.8281" id="EstadoPullRequest" rx="2.5" ry="2.5" style="stroke:#181818;stroke-width:0.5;" width="152" x="426" y="613.6094"/><ellipse cx="441" cy="629.6094" fill="#EB937F" rx="11" ry="11" style="stroke:#181818;stroke-width:1.0;"/><path d="M439.8594,630.4063 L439.8594,632.9063 L444.1875,632.9063 L444.1875,631.9844 Q444.1875,631.375 444.4219,631.1094 Q444.6719,630.8438 445.0469,630.8438 Q445.4219,630.8438 445.6563,631.1094 Q445.8906,631.375 445.8906,631.9844 L445.8906,634.6094 L437.8906,634.6094 Q437.2656,634.6094 437,634.375 Q436.75,634.1406 436.75,633.75 Q436.75,633.375 437.0156,633.1406 Q437.2813,632.9063 437.8906,632.9063 L438.1563,632.9063 L438.1563,626.25 L437.8906,626.25 Q437.2656,626.25 437,626.0156 Q436.75,625.7813 436.75,625.3906 Q436.75,625.0156 437,624.7813 Q437.2656,624.5469 437.8906,624.5469 L445.5156,624.5469 L445.5156,627.1406 Q445.5156,627.75 445.2813,628.0156 Q445.0625,628.2656 444.6719,628.2656 Q444.2969,628.2656 444.0625,628.0156 Q443.8281,627.75 443.8281,627.1406 L443.8281,626.25 L439.8594,626.25 L439.8594,628.7031 L441.3438,628.7031 Q441.3438,628.0469 441.4688,627.8594 Q441.7344,627.4531 442.2031,627.4531 Q442.5781,627.4531 442.8125,627.7188 Q443.0469,627.9688 443.0469,628.5781 L443.0469,630.5469 Q443.0469,631.0938 442.9219,631.2813 Q442.6563,631.6719 442.2031,631.6719 Q441.7344,631.6719 441.4688,631.2656 Q441.3438,631.0781 441.3438,630.4063 L439.8594,630.4063 Z " fill="#000000"/><text fill="#000000" font-family="sans-serif" font-size="14" lengthAdjust="spacing" textLength="120" x="455" y="635.3379">EstadoPullRequest</text><line style="stroke:#181818;stroke-width:0.5;" x1="427" x2="577" y1="645.6094" y2="645.6094"/><text fill="#000000" font-family="sans-serif" font-size="14" lengthAdjust="spacing" textLength="45" x="432" y="664.1426">Abierto</text><text fill="#000000" font-family="sans-serif" font-size="14" lengthAdjust="spacing" textLength="62" x="432" y="681.752">Aprobado</text><text fill="#000000" font-family="sans-serif" font-size="14" lengthAdjust="spacing" textLength="71" x="432" y="699.3613">Rechazado</text></g><!--link Repositorio to Rama--><g id="link_Repositorio_Rama"><path codeLine="55" d="M225.43,146.9794 C219.92,253.6294 207.3793,496.8074 201.8793,603.3574 " fill="none" id="Repositorio-to-Rama" style="stroke:#181818;stroke-width:1.0;"/><polygon fill="#181818" points="201.57,609.3494,206.0286,600.5675,201.8278,604.356,198.0393,600.1551,201.57,609.3494" style="stroke:#181818;stroke-width:1.0;"/><text fill="#000000" font-family="sans-serif" font-size="13" lengthAdjust="spacing" textLength="49" x="216" y="370.1045">contiene</text><text fill="#000000" font-family="sans-serif" font-size="13" lengthAdjust="spacing" textLength="7" x="217.6523" y="168.0507">1</text><text fill="#000000" font-family="sans-serif" font-size="13" lengthAdjust="spacing" textLength="5" x="196.5798" y="598.6182">*</text></g><!--link Rama to Commit--><g id="link_Rama_Commit"><path codeLine="56" d="M199,710.7094 C199,734.7394 199,757.6594 199,782.2894 " fill="none" id="Rama-to-Commit" style="stroke:#181818;stroke-width:1.0;"/><polygon fill="#181818" points="199,788.2894,203,779.2894,199,783.2894,195,779.2894,199,788.2894" style="stroke:#181818;stroke-width:1.0;"/><text fill="#000000" font-family="sans-serif" font-size="13" lengthAdjust="spacing" textLength="45" x="200" y="755.1045">historial</text><text fill="#000000" font-family="sans-serif" font-size="13" lengthAdjust="spacing" textLength="7" x="191.5297" y="732.114">1</text><text fill="#000000" font-family="sans-serif" font-size="13" lengthAdjust="spacing" textLength="5" x="193.6797" y="777.6661">*</text></g><!--link Commit to Archivo--><g id="link_Commit_Archivo"><path codeLine="57" d="M199,898.8494 C199,924.2494 199,947.8294 199,970.5394 " fill="none" id="Commit-to-Archivo" style="stroke:#181818;stroke-width:1.0;"/><polygon fill="#181818" points="199,976.5394,203,967.5394,199,971.5394,195,967.5394,199,976.5394" style="stroke:#181818;stroke-width:1.0;"/><text fill="#000000" font-family="sans-serif" font-size="13" lengthAdjust="spacing" textLength="48" x="200" y="943.1045">modifica</text><text fill="#000000" font-family="sans-serif" font-size="13" lengthAdjust="spacing" textLength="7" x="191.5516" y="920.4416">1</text><text fill="#000000" font-family="sans-serif" font-size="13" lengthAdjust="spacing" textLength="5" x="193.5391" y="965.6448">*</text></g><!--link Archivo to EstadoArchivo--><g id="link_Archivo_EstadoArchivo"><path codeLine="58" d="M199,1051.8194 C199,1074.8794 199,1098.8194 199,1123.4194 " fill="none" id="Archivo-to-EstadoArchivo" style="stroke:#181818;stroke-width:1.0;"/><polygon fill="#181818" points="199,1129.4194,203,1120.4194,199,1124.4194,195,1120.4194,199,1129.4194" style="stroke:#181818;stroke-width:1.0;"/><text fill="#000000" font-family="sans-serif" font-size="13" lengthAdjust="spacing" textLength="28" x="200" y="1096.1045">tiene</text></g><!--link Repositorio to Usuario--><g id="link_Repositorio_Usuario"><path codeLine="59" d="M290.97,146.6494 C321.92,170.9894 354.3843,196.5296 385.3243,220.8696 " fill="none" id="Repositorio-to-Usuario" style="stroke:#181818;stroke-width:1.0;"/><polygon fill="#181818" points="390.04,224.5794,385.4396,215.8709,386.1103,221.4879,380.4933,222.1585,390.04,224.5794" style="stroke:#181818;stroke-width:1.0;"/><text fill="#000000" font-family="sans-serif" font-size="13" lengthAdjust="spacing" textLength="49" x="349" y="191.1045">gestiona</text><text fill="#000000" font-family="sans-serif" font-size="13" lengthAdjust="spacing" textLength="7" x="373.6941" y="213.8805">1</text></g><!--link Usuario to PullRequest--><g id="link_Usuario_PullRequest"><path codeLine="60" d="M453,325.6594 C453,349.3694 453,372.0194 453,397.2794 " fill="none" id="Usuario-to-PullRequest" style="stroke:#181818;stroke-width:1.0;"/><polygon fill="#181818" points="453,403.2794,457,394.2794,453,398.2794,449,394.2794,453,403.2794" style="stroke:#181818;stroke-width:1.0;"/><text fill="#000000" font-family="sans-serif" font-size="13" lengthAdjust="spacing" textLength="25" x="454" y="370.1045">crea</text></g><!--link PullRequest to Rama--><g id="link_PullRequest_Rama"><path codeLine="61" d="M368.77,531.7794 C335.13,557.0094 301.7396,582.0489 270.1196,605.7689 " fill="none" id="PullRequest-to-Rama" style="stroke:#181818;stroke-width:1.0;"/><polygon fill="#181818" points="265.32,609.3694,274.9198,607.1684,269.3197,606.369,270.1191,600.7689,265.32,609.3694" style="stroke:#181818;stroke-width:1.0;"/><text fill="#000000" font-family="sans-serif" font-size="13" lengthAdjust="spacing" textLength="46" x="327" y="576.1045">conecta</text><text fill="#000000" font-family="sans-serif" font-size="13" lengthAdjust="spacing" textLength="7" x="352.1745" y="553.1847">1</text><text fill="#000000" font-family="sans-serif" font-size="13" lengthAdjust="spacing" textLength="7" x="267.1541" y="598.641">1</text></g><!--link PullRequest to EstadoPullRequest--><g id="link_PullRequest_EstadoPullRequest"><path codeLine="62" d="M469.25,531.7794 C476.13,558.5294 482.4946,583.2987 488.7946,607.7787 " fill="none" id="PullRequest-to-EstadoPullRequest" style="stroke:#181818;stroke-width:1.0;"/><polygon fill="#181818" points="490.29,613.5894,491.9207,603.8765,489.0438,608.7472,484.1731,605.8703,490.29,613.5894" style="stroke:#181818;stroke-width:1.0;"/><text fill="#000000" font-family="sans-serif" font-size="13" lengthAdjust="spacing" textLength="71" x="481" y="576.1045">tiene estado</text></g><!--SRC=[XLDBJiCm4Dtx5AEkogUBRYrKgGB4Xf-AE82J3icWs2wsWmI8Kt44BiOaSLgx_Bf9vysyzsR6Tarh1DIRy08QTO7E2n4eD0Xtv0Dg1Po_G1_eyyDq_rUuiPw2TMGzlC1AQSMKib7Ufpbu4y2_8p1M5mubt0L7fefWwL2vZZhDqmSn_z1wiYQMi5o5HlPMnzm2zsBi41w8zwqtX_-OMgqfU0cNFDd9QHyjOavL3Ylb1d2gqNZrkEKVGwbqmVD6wjALDJtRHU8-4BV-jDxptbCSNLlUbOHxtofUsGWEwlwqyrJhRwuxquZyFJMlYqKadFVVIDbfHEz_DBIYPW-hLOdkjcsQ5JwrR39rV00tsL5roDalnvKmVzzQtdj2YVbzomJEV7zUD_U2fjNvPc8proq-3mToPTVqG2LNzE5vGvfC5-Nqx_Ci2q8N1jPousmnIgomhDLhb4YVp6G-WTbi0PF3oN2T9TzP4mWDYZvE2-ADar3pvM2wQaI4qgfnAWawpY56g2l9HvSGlPAUUY4M7E-9XAhRB3zECK9TIJg-x9-tIA5jI_DqCYn3NhPhATVhsugtGNm1]--></g></svg>