<svg xmlns="http://www.w3.org/2000/svg" xmlns:xlink="http://www.w3.org/1999/xlink" contentStyleType="text/css" height="675px" preserveAspectRatio="none" style="width:933px;height:675px;background:#FFFFFF;" version="1.1" viewBox="0 0 933 675" width="933px" zoomAndPan="magnify"><defs/><g><g id="elem_RepositorioLocal"><rect fill="#F1F1F1" height="60.8906" style="stroke:#181818;stroke-width:0.5;" width="321.3945" x="527" y="7"/><text fill="#000000" font-family="sans-serif" font-size="14" lengthAdjust="spacing" textLength="115.7734" x="629.8105" y="21.9951">RepositorioLocal</text><line style="stroke:#181818;stroke-width:0.5;" x1="528" x2="847.3945" y1="27.2969" y2="27.2969"/><text fill="#000000" font-family="sans-serif" font-size="14" lengthAdjust="spacing" textLength="125.9521" x="533" y="44.292">nombre = "EDA1"</text><text fill="#000000" font-family="sans-serif" font-size="14" lengthAdjust="spacing" textLength="309.3945" x="533" y="60.5889">urlRemoto = "https://repositorioRemoto.git"</text></g><g id="elem_RepositorioRemoto"><rect fill="#F1F1F1" height="60.8906" style="stroke:#181818;stroke-width:0.5;" width="226.5254" x="700" y="145"/><text fill="#000000" font-family="sans-serif" font-size="14" lengthAdjust="spacing" textLength="133.8408" x="746.3423" y="159.9951">RepositorioRemoto</text><line style="stroke:#181818;stroke-width:0.5;" x1="701" x2="925.5254" y1="165.2969" y2="165.2969"/><text fill="#000000" font-family="sans-serif" font-size="14" lengthAdjust="spacing" textLength="125.9521" x="706" y="182.292">nombre = "EDA1"</text><text fill="#000000" font-family="sans-serif" font-size="14" lengthAdjust="spacing" textLength="214.5254" x="706" y="198.5889">ubicacion = "Servidor Central"</text></g><g id="elem_RamaLocal"><rect fill="#F1F1F1" height="60.8906" style="stroke:#181818;stroke-width:0.5;" width="206.585" x="458" y="145"/><text fill="#000000" font-family="sans-serif" font-size="14" lengthAdjust="spacing" textLength="77.0547" x="522.7651" y="159.9951">RamaLocal</text><line style="stroke:#181818;stroke-width:0.5;" x1="459" x2="663.585" y1="165.2969" y2="165.2969"/><text fill="#000000" font-family="sans-serif" font-size="14" lengthAdjust="spacing" textLength="122.8213" x="464" y="182.292">nombre = "main"</text><text fill="#000000" font-family="sans-serif" font-size="14" lengthAdjust="spacing" textLength="194.585" x="464" y="198.5889">punteroCommit = Commit1</text></g><g id="elem_RamaRemota"><rect fill="#F1F1F1" height="60.8906" style="stroke:#181818;stroke-width:0.5;" width="206.585" x="710" y="283"/><text fill="#000000" font-family="sans-serif" font-size="14" lengthAdjust="spacing" textLength="95.1357" x="765.7246" y="297.9951">RamaRemota</text><line style="stroke:#181818;stroke-width:0.5;" x1="711" x2="915.585" y1="303.2969" y2="303.2969"/><text fill="#000000" font-family="sans-serif" font-size="14" lengthAdjust="spacing" textLength="167.3984" x="716" y="320.292">nombre = "origin/main"</text><text fill="#000000" font-family="sans-serif" font-size="14" lengthAdjust="spacing" textLength="194.585" x="716" y="336.5889">punteroCommit = Commit2</text></g><g id="elem_Commit1"><rect fill="#F1F1F1" height="109.7813" style="stroke:#181818;stroke-width:0.5;" width="317.7578" x="237.5" y="421"/><text fill="#000000" font-family="sans-serif" font-size="14" lengthAdjust="spacing" textLength="63.9023" x="364.4277" y="435.9951">Commit1</text><line style="stroke:#181818;stroke-width:0.5;" x1="238.5" x2="554.2578" y1="441.2969" y2="441.2969"/><text fill="#000000" font-family="sans-serif" font-size="14" lengthAdjust="spacing" textLength="137.4434" x="243.5" y="458.292">idUnico = "123abc"</text><text fill="#000000" font-family="sans-serif" font-size="14" lengthAdjust="spacing" textLength="239.5313" x="243.5" y="474.5889">mensaje = "Primer Commit Local"</text><text fill="#000000" font-family="sans-serif" font-size="14" lengthAdjust="spacing" textLength="120.0049" x="243.5" y="490.8857">autor = Usuario1</text><text fill="#000000" font-family="sans-serif" font-size="14" lengthAdjust="spacing" textLength="190.3877" x="243.5" y="507.1826">timestamp = "2024-11-24"</text><text fill="#000000" font-family="sans-serif" font-size="14" lengthAdjust="spacing" textLength="305.7578" x="243.5" y="523.4795">archivosModificados = [Archivo1, Archivo2]</text></g><g id="elem_Commit2"><rect fill="#F1F1F1" height="109.7813" style="stroke:#181818;stroke-width:0.5;" width="247.3066" x="591" y="421"/><text fill="#000000" font-family="sans-serif" font-size="14" lengthAdjust="spacing" textLength="63.9023" x="682.7021" y="435.9951">Commit2</text><line style="stroke:#181818;stroke-width:0.5;" x1="592" x2="837.3066" y1="441.2969" y2="441.2969"/><text fill="#000000" font-family="sans-serif" font-size="14" lengthAdjust="spacing" textLength="134.709" x="597" y="458.292">idUnico = "456def"</text><text fill="#000000" font-family="sans-serif" font-size="14" lengthAdjust="spacing" textLength="228.9902" x="597" y="474.5889">mensaje = "Commit en Remoto"</text><text fill="#000000" font-family="sans-serif" font-size="14" lengthAdjust="spacing" textLength="120.0049" x="597" y="490.8857">autor = Usuario1</text><text fill="#000000" font-family="sans-serif" font-size="14" lengthAdjust="spacing" textLength="190.3877" x="597" y="507.1826">timestamp = "2024-11-23"</text><text fill="#000000" font-family="sans-serif" font-size="14" lengthAdjust="spacing" textLength="235.3066" x="597" y="523.4795">archivosModificados = [Archivo1]</text></g><g id="elem_Archivo1"><rect fill="#F1F1F1" height="60.8906" style="stroke:#181818;stroke-width:0.5;" width="243.7314" x="572.5" y="608"/><text fill="#000000" font-family="sans-serif" font-size="14" lengthAdjust="spacing" textLength="61.5508" x="663.5903" y="622.9951">Archivo1</text><line style="stroke:#181818;stroke-width:0.5;" x1="573.5" x2="815.2314" y1="628.2969" y2="628.2969"/><text fill="#000000" font-family="sans-serif" font-size="14" lengthAdjust="spacing" textLength="162.7295" x="578.5" y="645.292">nombre = "index.html"</text><text fill="#000000" font-family="sans-serif" font-size="14" lengthAdjust="spacing" textLength="231.7314" x="578.5" y="661.5889">contenido = "&lt;html&gt;...&lt;/html&gt;"</text></g><g id="elem_Archivo2"><rect fill="#F1F1F1" height="60.8906" style="stroke:#181818;stroke-width:0.5;" width="253.165" x="7" y="608"/><text fill="#000000" font-family="sans-serif" font-size="14" lengthAdjust="spacing" textLength="61.5508" x="102.8071" y="622.9951">Archivo2</text><line style="stroke:#181818;stroke-width:0.5;" x1="8" x2="259.165" y1="628.2969" y2="628.2969"/><text fill="#000000" font-family="sans-serif" font-size="14" lengthAdjust="spacing" textLength="148.1484" x="13" y="645.292">nombre = "style.css"</text><text fill="#000000" font-family="sans-serif" font-size="14" lengthAdjust="spacing" textLength="241.165" x="13" y="661.5889">contenido = "body { margin: 0; }"</text></g><g id="elem_Usuario1"><rect fill="#F1F1F1" height="60.8906" style="stroke:#181818;stroke-width:0.5;" width="245.2285" x="430" y="283"/><text fill="#000000" font-family="sans-serif" font-size="14" lengthAdjust="spacing" textLength="62.1113" x="521.5586" y="297.9951">Usuario1</text><line style="stroke:#181818;stroke-width:0.5;" x1="431" x2="674.2285" y1="303.2969" y2="303.2969"/><text fill="#000000" font-family="sans-serif" font-size="14" lengthAdjust="spacing" textLength="188.1318" x="436" y="320.292">nombre = "Diego Jimenez"</text><text fill="#000000" font-family="sans-serif" font-size="14" lengthAdjust="spacing" textLength="233.2285" x="436" y="336.5889">correo = "diego.jimenez@me.es"</text></g><g id="elem_ValidacionCambios"><rect fill="#F1F1F1" height="60.8906" style="stroke:#181818;stroke-width:0.5;" width="216.1211" x="295.5" y="608"/><text fill="#000000" font-family="sans-serif" font-size="14" lengthAdjust="spacing" textLength="133.0547" x="337.0332" y="622.9951">ValidacionCambios</text><line style="stroke:#181818;stroke-width:0.5;" x1="296.5" x2="510.6211" y1="628.2969" y2="628.2969"/><text fill="#000000" font-family="sans-serif" font-size="14" lengthAdjust="spacing" textLength="204.1211" x="301.5" y="645.292">numArchivosModificados = 2</text><text fill="#000000" font-family="sans-serif" font-size="14" lengthAdjust="spacing" textLength="108.6572" x="301.5" y="661.5889">esValido = true</text></g><!--link RepositorioLocal to RamaLocal--><g id="link_RepositorioLocal_RamaLocal"><path codeLine="51" d="M660.16,68.01 C639.17,90.67 614.3881,117.419 593.2981,140.179 " fill="none" id="RepositorioLocal-to-RamaLocal" style="stroke:#181818;stroke-width:1;"/><polygon fill="#181818" points="589.22,144.58,598.2712,140.6972,592.6184,140.9125,592.4031,135.2597,589.22,144.58" style="stroke:#181818;stroke-width:1;"/><text fill="#000000" font-family="sans-serif" font-size="13" lengthAdjust="spacing" textLength="56.2847" x="632.5" y="111.0669">contiene</text></g><!--link RepositorioRemoto to RamaRemota--><g id="link_RepositorioRemoto_RamaRemota"><path codeLine="52" d="M813.5,206.01 C813.5,228.67 813.5,253.82 813.5,276.58 " fill="none" id="RepositorioRemoto-to-RamaRemota" style="stroke:#181818;stroke-width:1;"/><polygon fill="#181818" points="813.5,282.58,817.5,273.58,813.5,277.58,809.5,273.58,813.5,282.58" style="stroke:#181818;stroke-width:1;"/><text fill="#000000" font-family="sans-serif" font-size="13" lengthAdjust="spacing" textLength="56.2847" x="814.5" y="249.0669">contiene</text></g><!--link RepositorioLocal to RepositorioRemoto--><g id="link_RepositorioLocal_RepositorioRemoto"><path codeLine="53" d="M714.84,68.01 C735.83,90.67 760.6119,117.419 781.7019,140.179 " fill="none" id="RepositorioLocal-to-RepositorioRemoto" style="stroke:#181818;stroke-width:1;"/><polygon fill="#181818" points="785.78,144.58,782.5969,135.2597,782.3816,140.9125,776.7288,140.6972,785.78,144.58" style="stroke:#181818;stroke-width:1;"/><text fill="#000000" font-family="sans-serif" font-size="13" lengthAdjust="spacing" textLength="63.6479" x="758.5" y="111.0669">conecta a</text></g><!--link RamaLocal to RamaRemota--><g id="link_RamaLocal_RamaRemota"><path codeLine="54" d="M616.18,206.01 C658.3,228.74 711.0096,257.1909 753.2096,279.9609 " fill="none" id="RamaLocal-to-RamaRemota" style="stroke:#181818;stroke-width:1;"/><polygon fill="#181818" points="758.49,282.81,752.4689,275.016,754.0897,280.4357,748.67,282.0565,758.49,282.81" style="stroke:#181818;stroke-width:1;"/><text fill="#000000" font-family="sans-serif" font-size="13" lengthAdjust="spacing" textLength="46.9727" x="703.5" y="249.0669">sigue a</text></g><!--link RamaLocal to Commit1--><g id="link_RamaLocal_Commit1"><path codeLine="55" d="M457.82,204.32 C418.38,220.5 377.44,245.39 354.5,283 C328.91,324.94 342.8187,375.0336 362.1387,415.5736 " fill="none" id="RamaLocal-to-Commit1" style="stroke:#181818;stroke-width:1;"/><polygon fill="#181818" points="364.72,420.99,364.459,411.1446,362.5689,416.4764,357.2372,414.5863,364.72,420.99" style="stroke:#181818;stroke-width:1;"/><text fill="#000000" font-family="sans-serif" font-size="13" lengthAdjust="spacing" textLength="56.2847" x="355.5" y="318.0669">contiene</text></g><!--link RamaRemota to Commit2--><g id="link_RamaRemota_Commit2"><path codeLine="56" d="M795.11,344.31 C781.86,365.8 766.7498,390.2833 750.9598,415.8833 " fill="none" id="RamaRemota-to-Commit2" style="stroke:#181818;stroke-width:1;"/><polygon fill="#181818" points="747.81,420.99,755.9392,415.4298,750.4348,416.7344,749.1302,411.23,747.81,420.99" style="stroke:#181818;stroke-width:1;"/><text fill="#000000" font-family="sans-serif" font-size="13" lengthAdjust="spacing" textLength="56.2847" x="776.5" y="387.0669">contiene</text></g><!--link Commit1 to Archivo1--><g id="link_Commit1_Archivo1"><path codeLine="57" d="M496.97,531.11 C544.62,556.78 594.4278,583.5942 634.2978,605.0742 " fill="none" id="Commit1-to-Archivo1" style="stroke:#181818;stroke-width:1;"/><polygon fill="#181818" points="639.58,607.92,633.5539,600.1299,635.1782,605.5485,629.7595,607.1728,639.58,607.92" style="stroke:#181818;stroke-width:1;"/><text fill="#000000" font-family="sans-serif" font-size="13" lengthAdjust="spacing" textLength="55.7832" x="582.5" y="574.0669">modifica</text></g><!--link Commit1 to Archivo2--><g id="link_Commit1_Archivo2"><path codeLine="58" d="M307.83,531.11 C265.77,556.78 222.2813,583.3139 187.0913,604.7939 " fill="none" id="Commit1-to-Archivo2" style="stroke:#181818;stroke-width:1;"/><polygon fill="#181818" points="181.97,607.92,191.736,606.6451,186.2378,605.315,187.5679,599.8167,181.97,607.92" style="stroke:#181818;stroke-width:1;"/><text fill="#000000" font-family="sans-serif" font-size="13" lengthAdjust="spacing" textLength="55.7832" x="258.5" y="574.0669">modifica</text></g><!--link Commit2 to Archivo1--><g id="link_Commit2_Archivo1"><path codeLine="59" d="M707.73,531.34 C704.56,556.8 701.6432,580.2062 698.9732,601.5962 " fill="none" id="Commit2-to-Archivo1" style="stroke:#181818;stroke-width:1;"/><polygon fill="#181818" points="698.23,607.55,703.314,599.1148,698.8493,602.5885,695.3756,598.1239,698.23,607.55" style="stroke:#181818;stroke-width:1;"/><text fill="#000000" font-family="sans-serif" font-size="13" lengthAdjust="spacing" textLength="55.7832" x="704.5" y="574.0669">modifica</text></g><!--link Usuario1 to Commit1--><g id="link_Usuario1_Commit1"><path codeLine="60" d="M523.52,344.31 C502.64,365.8 478.0508,391.0864 453.1808,416.6864 " fill="none" id="Usuario1-to-Commit1" style="stroke:#181818;stroke-width:1;"/><polygon fill="#181818" points="449,420.99,458.1403,417.3219,452.484,417.4037,452.4022,411.7474,449,420.99" style="stroke:#181818;stroke-width:1;"/><text fill="#000000" font-family="sans-serif" font-size="13" lengthAdjust="spacing" textLength="54.9834" x="494.5" y="387.0669">autor de</text></g><!--link Usuario1 to Commit2--><g id="link_Usuario1_Commit2"><path codeLine="61" d="M582.59,344.31 C604.28,365.8 629.8884,391.1664 655.7184,416.7664 " fill="none" id="Usuario1-to-Commit2" style="stroke:#181818;stroke-width:1;"/><polygon fill="#181818" points="659.98,420.99,656.4034,411.8135,656.4287,417.4703,650.7719,417.4956,659.98,420.99" style="stroke:#181818;stroke-width:1;"/><text fill="#000000" font-family="sans-serif" font-size="13" lengthAdjust="spacing" textLength="54.9834" x="629.5" y="387.0669">autor de</text></g><!--link Commit1 to ValidacionCambios--><g id="link_Commit1_ValidacionCambios"><path codeLine="62" d="M398.87,531.34 C399.98,556.8 400.9994,580.1657 401.9294,601.5557 " fill="none" id="Commit1-to-ValidacionCambios" style="stroke:#181818;stroke-width:1;"/><polygon fill="#181818" points="402.19,607.55,405.7953,598.3847,401.9728,602.5547,397.8028,598.7322,402.19,607.55" style="stroke:#181818;stroke-width:1;"/><text fill="#000000" font-family="sans-serif" font-size="13" lengthAdjust="spacing" textLength="97.6016" x="402.5" y="574.0669">valida cambios</text></g><!--SRC=[bPF1RjGm48RlUGfhpsosSHSEeQrORRaWa51HkI0EZZtTp2gs8zjPiLHzTnmdsJLre92JDVFFDx_7cHe5492jEn89iW9ZixeFSJIyWIpJrHwu8tVGQejE6zGVDMSDUSo8_vIMbG5oJHRlRpV58iGwqzo1r4xtuTgvrfQhbJdN3ybyXswHFStmn-A_DAYGCuvQzU4lO0uej25RKCwm9cOooURDIePgOBMTSc3qLak9pgU6G_4x93XY2SMRtQ5QlGIZPzX87qaexXNoCAQ2NhAA3nG9oh9zwF3Pe0Gpbf5mbq73EZyghxYt7VCZAqBGUR5rJBPzARsWwsLHBEbwh32yneEsdxJ01py_eQsNVTiCuU8L6K_q-tExDBMxVlr6m4DYT_G9YWnl-DzUB__9Q-Hm2YLlWqh0ZxnsSXmOr_vfbFzH-kHL7x_9y_ng5KwB14WJe7N71d9kxGolqk987ebanlyF9RbuIvuYv7Jl17cBiDFaWv-4WfyJrXW8JD4dy_sGV2SX1ninlx86HTY1BPCL-lcCy4vkPeT7GnfiAEmREDE1vsN9OY-NDz7cbE6cw4rawOhsqdX1viKHDY642dyXHbXsRZfPE64jxZf89ATrYlkUoo89ZILJLSYVVg2Io75WimAQ2kYV2QSdVsPpM0K1im8Q2s8FwMENv11YX0-1Nm00]--></g></svg>