<svg xmlns="http://www.w3.org/2000/svg" xmlns:xlink="http://www.w3.org/1999/xlink" contentStyleType="text/css" height="541px" preserveAspectRatio="none" style="width:291px;height:541px;background:#FFFFFF;" version="1.1" viewBox="0 0 291 541" width="291px" zoomAndPan="magnify"><defs/><g><!--class SistemaControlVersiones--><g id="elem_SistemaControlVersiones"><rect codeLine="1" fill="#F1F1F1" height="113.9531" id="SistemaControlVersiones" rx="2.5" ry="2.5" style="stroke:#181818;stroke-width:0.5;" width="226.8467" x="32.32" y="7"/><ellipse cx="58.8442" cy="23" fill="#ADD1B2" rx="11" ry="11" style="stroke:#181818;stroke-width:1;"/><path d="M61.3174,29.1431 Q60.7363,29.4419 60.0971,29.5913 Q59.458,29.7407 58.7524,29.7407 Q56.2456,29.7407 54.9258,28.0889 Q53.6059,26.437 53.6059,23.3159 Q53.6059,20.1865 54.9258,18.5347 Q56.2456,16.8828 58.7524,16.8828 Q59.458,16.8828 60.1054,17.0322 Q60.7529,17.1816 61.3174,17.4805 L61.3174,20.2031 Q60.6865,19.6221 60.093,19.3523 Q59.4995,19.0825 58.8686,19.0825 Q57.5239,19.0825 56.8391,20.1492 Q56.1543,21.2158 56.1543,23.3159 Q56.1543,25.4077 56.8391,26.4744 Q57.5239,27.541 58.8686,27.541 Q59.4995,27.541 60.093,27.2712 Q60.6865,27.0015 61.3174,26.4204 Z " fill="#000000"/><text fill="#000000" font-family="sans-serif" font-size="14" lengthAdjust="spacing" textLength="169.2373" x="75.4052" y="28.291">SistemaControlVersiones</text><line style="stroke:#181818;stroke-width:0.5;" x1="33.32" x2="258.1667" y1="39" y2="39"/><text fill="#000000" font-family="sans-serif" font-size="14" lengthAdjust="spacing" textLength="81.874" x="38.32" y="56.5352">Lista ramas;</text><text fill="#000000" font-family="sans-serif" font-size="14" lengthAdjust="spacing" textLength="135.5908" x="38.32" y="73.0234">String nombreRepo;</text><line style="stroke:#181818;stroke-width:0.5;" x1="33.32" x2="258.1667" y1="79.9766" y2="79.9766"/><text fill="#000000" font-family="sans-serif" font-size="14" lengthAdjust="spacing" textLength="214.8467" x="38.32" y="97.5117">cambiarNombre(String nombre)</text><text fill="#000000" font-family="sans-serif" font-size="14" lengthAdjust="spacing" textLength="183.7432" x="38.32" y="114">nuevaRama(String nombre)</text></g><!--class Lista--><g id="elem_Lista"><rect codeLine="7" fill="#F1F1F1" height="113.9531" id="Lista" rx="2.5" ry="2.5" style="stroke:#181818;stroke-width:0.5;" width="226.8467" x="32.32" y="180.95"/><ellipse cx="125.6852" cy="196.95" fill="#ADD1B2" rx="11" ry="11" style="stroke:#181818;stroke-width:1;"/><path d="M128.1584,203.0931 Q127.5773,203.3919 126.9382,203.5413 Q126.299,203.6907 125.5934,203.6907 Q123.0866,203.6907 121.7668,202.0389 Q120.447,200.387 120.447,197.2659 Q120.447,194.1365 121.7668,192.4847 Q123.0866,190.8328 125.5934,190.8328 Q126.299,190.8328 126.9465,190.9822 Q127.5939,191.1316 128.1584,191.4305 L128.1584,194.1531 Q127.5275,193.5721 126.934,193.3023 Q126.3405,193.0325 125.7096,193.0325 Q124.3649,193.0325 123.6801,194.0992 Q122.9953,195.1658 122.9953,197.2659 Q122.9953,199.3577 123.6801,200.4244 Q124.3649,201.491 125.7096,201.491 Q126.3405,201.491 126.934,201.2212 Q127.5275,200.9515 128.1584,200.3704 Z " fill="#000000"/><text fill="#000000" font-family="sans-serif" font-size="14" lengthAdjust="spacing" textLength="31.6162" x="146.1852" y="202.241">Lista</text><line style="stroke:#181818;stroke-width:0.5;" x1="33.32" x2="258.1667" y1="212.95" y2="212.95"/><text fill="#000000" font-family="sans-serif" font-size="14" lengthAdjust="spacing" textLength="138.9131" x="38.32" y="230.4852">String nombreRama;</text><text fill="#000000" font-family="sans-serif" font-size="14" lengthAdjust="spacing" textLength="109.8877" x="38.32" y="246.9734">Arbol versiones;</text><line style="stroke:#181818;stroke-width:0.5;" x1="33.32" x2="258.1667" y1="253.9266" y2="253.9266"/><text fill="#000000" font-family="sans-serif" font-size="14" lengthAdjust="spacing" textLength="214.8467" x="38.32" y="271.4617">cambiarNombre(String nombre)</text><text fill="#000000" font-family="sans-serif" font-size="14" lengthAdjust="spacing" textLength="100.4131" x="38.32" y="287.95">nuevaVersion()</text></g><!--class Arbol--><g id="elem_Arbol"><rect codeLine="13" fill="#F1F1F1" height="179.9063" id="Arbol" rx="2.5" ry="2.5" style="stroke:#181818;stroke-width:0.5;" width="277.4941" x="7" y="354.9"/><ellipse cx="123.0742" cy="370.9" fill="#ADD1B2" rx="11" ry="11" style="stroke:#181818;stroke-width:1;"/><path d="M125.5474,377.0431 Q124.9663,377.3419 124.3271,377.4913 Q123.688,377.6407 122.9824,377.6407 Q120.4756,377.6407 119.1558,375.9889 Q117.8359,374.337 117.8359,371.2159 Q117.8359,368.0865 119.1558,366.4347 Q120.4756,364.7828 122.9824,364.7828 Q123.688,364.7828 124.3354,364.9322 Q124.9829,365.0816 125.5474,365.3805 L125.5474,368.1031 Q124.9165,367.5221 124.323,367.2523 Q123.7295,366.9825 123.0986,366.9825 Q121.7539,366.9825 121.0691,368.0492 Q120.3843,369.1158 120.3843,371.2159 Q120.3843,373.3077 121.0691,374.3744 Q121.7539,375.441 123.0986,375.441 Q123.7295,375.441 124.323,375.1712 Q124.9165,374.9015 125.5474,374.3204 Z " fill="#000000"/><text fill="#000000" font-family="sans-serif" font-size="14" lengthAdjust="spacing" textLength="36.8457" x="143.5742" y="376.191">Arbol</text><line style="stroke:#181818;stroke-width:0.5;" x1="8" x2="283.4941" y1="386.9" y2="386.9"/><text fill="#000000" font-family="sans-serif" font-size="14" lengthAdjust="spacing" textLength="101.5273" x="13" y="404.4352">String nombre;</text><text fill="#000000" font-family="sans-serif" font-size="14" lengthAdjust="spacing" textLength="126.8408" x="13" y="420.9234">String descripcion;</text><text fill="#000000" font-family="sans-serif" font-size="14" lengthAdjust="spacing" textLength="143.3223" x="13" y="437.4117">Int cantidadArchivos;</text><line style="stroke:#181818;stroke-width:0.5;" x1="8" x2="283.4941" y1="444.3648" y2="444.3648"/><text fill="#000000" font-family="sans-serif" font-size="14" lengthAdjust="spacing" textLength="214.8467" x="13" y="461.9">cambiarNombre(String nombre)</text><text fill="#000000" font-family="sans-serif" font-size="14" lengthAdjust="spacing" textLength="265.4941" x="13" y="478.3883">cambiarDescripcion(String descripcion)</text><text fill="#000000" font-family="sans-serif" font-size="14" lengthAdjust="spacing" textLength="102.9834" x="13" y="494.8766">anadirArchivo()</text><text fill="#000000" font-family="sans-serif" font-size="14" lengthAdjust="spacing" textLength="115.4043" x="13" y="511.3648">eliminarArchivo()</text><text fill="#000000" font-family="sans-serif" font-size="14" lengthAdjust="spacing" textLength="60.2998" x="13" y="527.8531">commit()</text></g><!--link SistemaControlVersiones to Lista--><g id="link_SistemaControlVersiones_Lista"><path codeLine="23" d="M145.75,121.28 C145.75,140.28 145.75,155.49 145.75,174.5 " fill="none" id="SistemaControlVersiones-to-Lista" style="stroke:#181818;stroke-width:1;"/><polygon fill="#181818" points="145.75,180.5,149.75,171.5,145.75,175.5,141.75,171.5,145.75,180.5" style="stroke:#181818;stroke-width:1;"/></g><!--link Lista to Arbol--><g id="link_Lista_Arbol"><path codeLine="24" d="M145.75,295.2 C145.75,313.56 145.75,328.43 145.75,348.61 " fill="none" id="Lista-to-Arbol" style="stroke:#181818;stroke-width:1;"/><polygon fill="#181818" points="145.75,354.61,149.75,345.61,145.75,349.61,141.75,345.61,145.75,354.61" style="stroke:#181818;stroke-width:1;"/></g><!--SRC=[ZP712i8m38RlUueUvs5F80X3Bu9usC1xrXODhEb8wox3TxVj9dCEOSVyIVwlVoDRS4xKwBmsSBJasROtpGujQJTaGbn22mI30RSFPUqPwIx8cePrfJiRHGccGU1h4lF5o2wqwQbxg8B3R-kLoOHFZ67b7ZQYUycDRKN_UTHMu9GYdp79Q8NvIgMqauoT36jHFPCF9FAeG9Ki7zZRBVIfVPhDyhL_70G2XJmvvr7HBHeaM6ZI6eC-nVXp9b4KX_4Fi_5QiKvXtm00]--></g></svg>