<svg xmlns="http://www.w3.org/2000/svg" xmlns:xlink="http://www.w3.org/1999/xlink" contentStyleType="text/css" height="459px" preserveAspectRatio="none" style="width:240px;height:459px;background:#FFFFFF;" version="1.1" viewBox="0 0 240 459" width="240px" zoomAndPan="magnify"><defs/><g><!--class SistemaControlVersiones--><g id="elem_SistemaControlVersiones"><rect codeLine="1" fill="#F1F1F1" height="113.9531" id="SistemaControlVersiones" rx="2.5" ry="2.5" style="stroke:#181818;stroke-width:0.5;" width="226.8467" x="7" y="7"/><ellipse cx="33.5242" cy="23" fill="#ADD1B2" rx="11" ry="11" style="stroke:#181818;stroke-width:1;"/><path d="M35.9974,29.1431 Q35.4163,29.4419 34.7771,29.5913 Q34.138,29.7407 33.4324,29.7407 Q30.9256,29.7407 29.6058,28.0889 Q28.2859,26.437 28.2859,23.3159 Q28.2859,20.1865 29.6058,18.5347 Q30.9256,16.8828 33.4324,16.8828 Q34.138,16.8828 34.7854,17.0322 Q35.4329,17.1816 35.9974,17.4805 L35.9974,20.2031 Q35.3665,19.6221 34.773,19.3523 Q34.1795,19.0825 33.5486,19.0825 Q32.2039,19.0825 31.5191,20.1492 Q30.8343,21.2158 30.8343,23.3159 Q30.8343,25.4077 31.5191,26.4744 Q32.2039,27.541 33.5486,27.541 Q34.1795,27.541 34.773,27.2712 Q35.3665,27.0015 35.9974,26.4204 Z " fill="#000000"/><text fill="#000000" font-family="sans-serif" font-size="14" lengthAdjust="spacing" textLength="169.2373" x="50.0852" y="28.291">SistemaControlVersiones</text><line style="stroke:#181818;stroke-width:0.5;" x1="8" x2="232.8467" y1="39" y2="39"/><text fill="#000000" font-family="sans-serif" font-size="14" lengthAdjust="spacing" textLength="102.8262" x="13" y="56.5352">Lista&lt;Ramas&gt;;</text><text fill="#000000" font-family="sans-serif" font-size="14" lengthAdjust="spacing" textLength="135.5908" x="13" y="73.0234">String nombreRepo;</text><line style="stroke:#181818;stroke-width:0.5;" x1="8" x2="232.8467" y1="79.9766" y2="79.9766"/><text fill="#000000" font-family="sans-serif" font-size="14" lengthAdjust="spacing" textLength="214.8467" x="13" y="97.5117">cambiarNombre(String nombre)</text><text fill="#000000" font-family="sans-serif" font-size="14" lengthAdjust="spacing" textLength="183.7432" x="13" y="114">nuevaRama(String nombre)</text></g><!--class Rama--><g id="elem_Rama"><rect codeLine="7" fill="#F1F1F1" height="113.9531" id="Rama" rx="2.5" ry="2.5" style="stroke:#181818;stroke-width:0.5;" width="226.8467" x="7" y="180.95"/><ellipse cx="97.4805" cy="196.95" fill="#ADD1B2" rx="11" ry="11" style="stroke:#181818;stroke-width:1;"/><path d="M99.9536,203.0931 Q99.3726,203.3919 98.7334,203.5413 Q98.0942,203.6907 97.3887,203.6907 Q94.8818,203.6907 93.562,202.0389 Q92.2422,200.387 92.2422,197.2659 Q92.2422,194.1365 93.562,192.4847 Q94.8818,190.8328 97.3887,190.8328 Q98.0942,190.8328 98.7417,190.9822 Q99.3892,191.1316 99.9536,191.4305 L99.9536,194.1531 Q99.3228,193.5721 98.7292,193.3023 Q98.1357,193.0325 97.5049,193.0325 Q96.1602,193.0325 95.4753,194.0992 Q94.7905,195.1658 94.7905,197.2659 Q94.7905,199.3577 95.4753,200.4244 Q96.1602,201.491 97.5049,201.491 Q98.1357,201.491 98.7292,201.2212 Q99.3228,200.9515 99.9536,200.3704 Z " fill="#000000"/><text fill="#000000" font-family="sans-serif" font-size="14" lengthAdjust="spacing" textLength="37.3857" x="117.9805" y="202.241">Rama</text><line style="stroke:#181818;stroke-width:0.5;" x1="8" x2="232.8467" y1="212.95" y2="212.95"/><text fill="#000000" font-family="sans-serif" font-size="14" lengthAdjust="spacing" textLength="138.9131" x="13" y="230.4852">String nombreRama;</text><text fill="#000000" font-family="sans-serif" font-size="14" lengthAdjust="spacing" textLength="180.626" x="13" y="246.9734">versiones Lista&lt;Commit&gt;;</text><line style="stroke:#181818;stroke-width:0.5;" x1="8" x2="232.8467" y1="253.9266" y2="253.9266"/><text fill="#000000" font-family="sans-serif" font-size="14" lengthAdjust="spacing" textLength="214.8467" x="13" y="271.4617">cambiarNombre(String nombre)</text><text fill="#000000" font-family="sans-serif" font-size="14" lengthAdjust="spacing" textLength="100.4131" x="13" y="287.95">nuevaVersion()</text></g><!--class Commit--><g id="elem_Commit"><rect codeLine="13" fill="#F1F1F1" height="97.4648" id="Commit" rx="2.5" ry="2.5" style="stroke:#181818;stroke-width:0.5;" width="138.8408" x="51" y="354.91"/><ellipse cx="89.9089" cy="370.91" fill="#ADD1B2" rx="11" ry="11" style="stroke:#181818;stroke-width:1;"/><path d="M92.382,377.0531 Q91.801,377.3519 91.1618,377.5013 Q90.5227,377.6507 89.8171,377.6507 Q87.3103,377.6507 85.9904,375.9989 Q84.6706,374.347 84.6706,371.2259 Q84.6706,368.0965 85.9904,366.4447 Q87.3103,364.7928 89.8171,364.7928 Q90.5227,364.7928 91.1701,364.9422 Q91.8176,365.0916 92.382,365.3905 L92.382,368.1131 Q91.7512,367.5321 91.1577,367.2623 Q90.5642,366.9925 89.9333,366.9925 Q88.5886,366.9925 87.9038,368.0592 Q87.2189,369.1258 87.2189,371.2259 Q87.2189,373.3177 87.9038,374.3844 Q88.5886,375.451 89.9333,375.451 Q90.5642,375.451 91.1577,375.1812 Q91.7512,374.9115 92.382,374.3304 Z " fill="#000000"/><text fill="#000000" font-family="sans-serif" font-size="14" lengthAdjust="spacing" textLength="53.71" x="109.222" y="376.201">Commit</text><line style="stroke:#181818;stroke-width:0.5;" x1="52" x2="188.8408" y1="386.91" y2="386.91"/><text fill="#000000" font-family="sans-serif" font-size="14" lengthAdjust="spacing" textLength="101.5273" x="57" y="404.4452">String nombre;</text><text fill="#000000" font-family="sans-serif" font-size="14" lengthAdjust="spacing" textLength="126.8408" x="57" y="420.9334">String descripcion;</text><text fill="#000000" font-family="sans-serif" font-size="14" lengthAdjust="spacing" textLength="114.2832" x="57" y="437.4217">archivos String[];</text><line style="stroke:#181818;stroke-width:0.5;" x1="52" x2="188.8408" y1="444.3748" y2="444.3748"/></g><!--link SistemaControlVersiones to Rama--><g id="link_SistemaControlVersiones_Rama"><path codeLine="18" d="M120.42,121.28 C120.42,140.28 120.42,155.49 120.42,174.5 " fill="none" id="SistemaControlVersiones-to-Rama" style="stroke:#181818;stroke-width:1;"/><polygon fill="#181818" points="120.42,180.5,124.42,171.5,120.42,175.5,116.42,171.5,120.42,180.5" style="stroke:#181818;stroke-width:1;"/></g><!--link Rama to Commit--><g id="link_Rama_Commit"><path codeLine="19" d="M120.42,295.27 C120.42,314.6 120.42,330.04 120.42,348.64 " fill="none" id="Rama-to-Commit" style="stroke:#181818;stroke-width:1;"/><polygon fill="#181818" points="120.42,354.64,124.42,345.64,120.42,349.64,116.42,345.64,120.42,354.64" style="stroke:#181818;stroke-width:1;"/></g><!--SRC=[ZP2z3i8m38JtFaN6ClG9YhfqHGojn88Ot121fIQkxD2bujr9qY9-AYIMIBvBxlD5zo2YMXHlBDJaF5D_C2n8piYKARKB5cmRi21L6URMCxgBScGxDeqPA8eQR8V0-oJc7rSsmNOtCqAC-BRkcKxyw4shy236yF6vph9BJTQYh_xbBcto5sqEMF7UsfsDQCP1XtTH1TPN74aM-tWgGzQFFrD5KQK-MJpIDFCU]--></g></svg>