<svg xmlns="http://www.w3.org/2000/svg" xmlns:xlink="http://www.w3.org/1999/xlink" contentStyleType="text/css" height="343px" preserveAspectRatio="none" style="width:676px;height:343px;background:#FFFFFF;" version="1.1" viewBox="0 0 676 343" width="676px" zoomAndPan="magnify"><defs/><g><!--class SistemaControlVersiones--><g id="elem_SistemaControlVersiones"><rect codeLine="1" fill="#F1F1F1" height="113.9531" id="SistemaControlVersiones" rx="2.5" ry="2.5" style="stroke:#181818;stroke-width:0.5;" width="226.8467" x="7" y="7"/><ellipse cx="33.5242" cy="23" fill="#ADD1B2" rx="11" ry="11" style="stroke:#181818;stroke-width:1;"/><path d="M35.9974,29.1431 Q35.4163,29.4419 34.7771,29.5913 Q34.138,29.7407 33.4324,29.7407 Q30.9256,29.7407 29.6058,28.0889 Q28.2859,26.437 28.2859,23.3159 Q28.2859,20.1865 29.6058,18.5347 Q30.9256,16.8828 33.4324,16.8828 Q34.138,16.8828 34.7854,17.0322 Q35.4329,17.1816 35.9974,17.4805 L35.9974,20.2031 Q35.3665,19.6221 34.773,19.3523 Q34.1795,19.0825 33.5486,19.0825 Q32.2039,19.0825 31.5191,20.1492 Q30.8343,21.2158 30.8343,23.3159 Q30.8343,25.4077 31.5191,26.4744 Q32.2039,27.541 33.5486,27.541 Q34.1795,27.541 34.773,27.2712 Q35.3665,27.0015 35.9974,26.4204 Z " fill="#000000"/><text fill="#000000" font-family="sans-serif" font-size="14" lengthAdjust="spacing" textLength="169.2373" x="50.0852" y="28.291">SistemaControlVersiones</text><line style="stroke:#181818;stroke-width:0.5;" x1="8" x2="232.8467" y1="39" y2="39"/><text fill="#000000" font-family="sans-serif" font-size="14" lengthAdjust="spacing" textLength="102.8262" x="13" y="56.5352">Lista&lt;Ramas&gt;;</text><text fill="#000000" font-family="sans-serif" font-size="14" lengthAdjust="spacing" textLength="135.5908" x="13" y="73.0234">String nombreRepo;</text><line style="stroke:#181818;stroke-width:0.5;" x1="8" x2="232.8467" y1="79.9766" y2="79.9766"/><text fill="#000000" font-family="sans-serif" font-size="14" lengthAdjust="spacing" textLength="214.8467" x="13" y="97.5117">cambiarNombre(String nombre)</text><text fill="#000000" font-family="sans-serif" font-size="14" lengthAdjust="spacing" textLength="183.7432" x="13" y="114">nuevaRama(String nombre)</text></g><!--class Rama--><g id="elem_Rama"><rect codeLine="7" fill="#F1F1F1" height="113.9531" id="Rama" rx="2.5" ry="2.5" style="stroke:#181818;stroke-width:0.5;" width="226.8467" x="269" y="7"/><ellipse cx="359.4805" cy="23" fill="#ADD1B2" rx="11" ry="11" style="stroke:#181818;stroke-width:1;"/><path d="M361.9536,29.1431 Q361.3726,29.4419 360.7334,29.5913 Q360.0942,29.7407 359.3887,29.7407 Q356.8818,29.7407 355.562,28.0889 Q354.2422,26.437 354.2422,23.3159 Q354.2422,20.1865 355.562,18.5347 Q356.8818,16.8828 359.3887,16.8828 Q360.0942,16.8828 360.7417,17.0322 Q361.3892,17.1816 361.9536,17.4805 L361.9536,20.2031 Q361.3228,19.6221 360.7292,19.3523 Q360.1357,19.0825 359.5049,19.0825 Q358.1602,19.0825 357.4753,20.1492 Q356.7905,21.2158 356.7905,23.3159 Q356.7905,25.4077 357.4753,26.4744 Q358.1602,27.541 359.5049,27.541 Q360.1357,27.541 360.7292,27.2712 Q361.3228,27.0015 361.9536,26.4204 Z " fill="#000000"/><text fill="#000000" font-family="sans-serif" font-size="14" lengthAdjust="spacing" textLength="37.3857" x="379.9805" y="28.291">Rama</text><line style="stroke:#181818;stroke-width:0.5;" x1="270" x2="494.8467" y1="39" y2="39"/><text fill="#000000" font-family="sans-serif" font-size="14" lengthAdjust="spacing" textLength="138.9131" x="275" y="56.5352">String nombreRama;</text><text fill="#000000" font-family="sans-serif" font-size="14" lengthAdjust="spacing" textLength="180.626" x="275" y="73.0234">versiones Lista&lt;Commit&gt;;</text><line style="stroke:#181818;stroke-width:0.5;" x1="270" x2="494.8467" y1="79.9766" y2="79.9766"/><text fill="#000000" font-family="sans-serif" font-size="14" lengthAdjust="spacing" textLength="214.8467" x="275" y="97.5117">cambiarNombre(String nombre)</text><text fill="#000000" font-family="sans-serif" font-size="14" lengthAdjust="spacing" textLength="100.4131" x="275" y="114">nuevaVersion()</text></g><!--class Commit--><g id="elem_Commit"><rect codeLine="13" fill="#F1F1F1" height="97.4648" id="Commit" rx="2.5" ry="2.5" style="stroke:#181818;stroke-width:0.5;" width="138.8408" x="531" y="15.24"/><ellipse cx="569.9089" cy="31.24" fill="#ADD1B2" rx="11" ry="11" style="stroke:#181818;stroke-width:1;"/><path d="M572.382,37.3831 Q571.801,37.6819 571.1618,37.8313 Q570.5227,37.9807 569.8171,37.9807 Q567.3103,37.9807 565.9904,36.3289 Q564.6706,34.677 564.6706,31.5559 Q564.6706,28.4265 565.9904,26.7747 Q567.3103,25.1228 569.8171,25.1228 Q570.5227,25.1228 571.1701,25.2722 Q571.8176,25.4216 572.382,25.7205 L572.382,28.4431 Q571.7512,27.8621 571.1577,27.5923 Q570.5642,27.3225 569.9333,27.3225 Q568.5886,27.3225 567.9038,28.3892 Q567.2189,29.4558 567.2189,31.5559 Q567.2189,33.6477 567.9038,34.7144 Q568.5886,35.781 569.9333,35.781 Q570.5642,35.781 571.1577,35.5112 Q571.7512,35.2415 572.382,34.6604 Z " fill="#000000"/><text fill="#000000" font-family="sans-serif" font-size="14" lengthAdjust="spacing" textLength="53.71" x="589.222" y="36.531">Commit</text><line style="stroke:#181818;stroke-width:0.5;" x1="532" x2="668.8408" y1="47.24" y2="47.24"/><text fill="#000000" font-family="sans-serif" font-size="14" lengthAdjust="spacing" textLength="101.5273" x="537" y="64.7752">String nombre;</text><text fill="#000000" font-family="sans-serif" font-size="14" lengthAdjust="spacing" textLength="126.8408" x="537" y="81.2634">String descripcion;</text><text fill="#000000" font-family="sans-serif" font-size="14" lengthAdjust="spacing" textLength="114.2832" x="537" y="97.7517">archivos String[];</text><line style="stroke:#181818;stroke-width:0.5;" x1="532" x2="668.8408" y1="104.7048" y2="104.7048"/></g><!--class Lista--><g id="elem_Lista"><rect fill="#F1F1F1" height="48" id="Lista" rx="2.5" ry="2.5" style="stroke:#181818;stroke-width:0.5;" width="63.6162" x="88.62" y="180.95"/><ellipse cx="103.62" cy="196.95" fill="#ADD1B2" rx="11" ry="11" style="stroke:#181818;stroke-width:1;"/><path d="M106.0931,203.0931 Q105.5121,203.3919 104.8729,203.5413 Q104.2338,203.6907 103.5282,203.6907 Q101.0214,203.6907 99.7015,202.0389 Q98.3817,200.387 98.3817,197.2659 Q98.3817,194.1365 99.7015,192.4847 Q101.0214,190.8328 103.5282,190.8328 Q104.2338,190.8328 104.8812,190.9822 Q105.5287,191.1316 106.0931,191.4305 L106.0931,194.1531 Q105.4623,193.5721 104.8688,193.3023 Q104.2753,193.0325 103.6444,193.0325 Q102.2997,193.0325 101.6149,194.0992 Q100.9301,195.1658 100.9301,197.2659 Q100.9301,199.3577 101.6149,200.4244 Q102.2997,201.491 103.6444,201.491 Q104.2753,201.491 104.8688,201.2212 Q105.4623,200.9515 106.0931,200.3704 Z " fill="#000000"/><text fill="#000000" font-family="sans-serif" font-size="14" lengthAdjust="spacing" textLength="31.6162" x="117.62" y="202.241">Lista</text><line style="stroke:#181818;stroke-width:0.5;" x1="89.62" x2="151.2362" y1="212.95" y2="212.95"/><line style="stroke:#181818;stroke-width:0.5;" x1="89.62" x2="151.2362" y1="220.95" y2="220.95"/></g><!--class Arbol--><g id="elem_Arbol"><rect fill="#F1F1F1" height="48" id="Arbol" rx="2.5" ry="2.5" style="stroke:#181818;stroke-width:0.5;" width="68.8457" x="86" y="288.95"/><ellipse cx="101" cy="304.95" fill="#ADD1B2" rx="11" ry="11" style="stroke:#181818;stroke-width:1;"/><path d="M103.4731,311.0931 Q102.8921,311.3919 102.2529,311.5413 Q101.6138,311.6907 100.9082,311.6907 Q98.4014,311.6907 97.0815,310.0389 Q95.7617,308.387 95.7617,305.2659 Q95.7617,302.1365 97.0815,300.4847 Q98.4014,298.8328 100.9082,298.8328 Q101.6138,298.8328 102.2612,298.9822 Q102.9087,299.1316 103.4731,299.4305 L103.4731,302.1531 Q102.8423,301.5721 102.2488,301.3023 Q101.6553,301.0325 101.0244,301.0325 Q99.6797,301.0325 98.9949,302.0992 Q98.3101,303.1658 98.3101,305.2659 Q98.3101,307.3577 98.9949,308.4244 Q99.6797,309.491 101.0244,309.491 Q101.6553,309.491 102.2488,309.2212 Q102.8423,308.9515 103.4731,308.3704 Z " fill="#000000"/><text fill="#000000" font-family="sans-serif" font-size="14" lengthAdjust="spacing" textLength="36.8457" x="115" y="310.241">Arbol</text><line style="stroke:#181818;stroke-width:0.5;" x1="87" x2="153.8457" y1="320.95" y2="320.95"/><line style="stroke:#181818;stroke-width:0.5;" x1="87" x2="153.8457" y1="328.95" y2="328.95"/></g><!--link SistemaControlVersiones to Lista--><g id="link_SistemaControlVersiones_Lista"><path codeLine="18" d="M120.42,121.1 C120.42,141.89 120.42,158.34 120.42,174.62 " fill="none" id="SistemaControlVersiones-to-Lista" style="stroke:#181818;stroke-width:1;"/><polygon fill="#181818" points="120.42,180.62,124.42,171.62,120.42,175.62,116.42,171.62,120.42,180.62" style="stroke:#181818;stroke-width:1;"/></g><!--link Lista to Arbol--><g id="link_Lista_Arbol"><path codeLine="19" d="M120.42,229.21 C120.42,246.89 120.42,265.08 120.42,282.74 " fill="none" id="Lista-to-Arbol" style="stroke:#181818;stroke-width:1;"/><polygon fill="#181818" points="120.42,288.74,124.42,279.74,120.42,283.74,116.42,279.74,120.42,288.74" style="stroke:#181818;stroke-width:1;"/></g><!--SRC=[ZP3D2i8m48JlVOeSzT0dg1IaL_7GWXVni8sB1ffisOsz5D_T9AtuKmGlWPqlcPcDxa14DKOyMgZ8UQRkW2o67CgOARKB23OrM92o27FZsRYBScHRnXfxYg86snhWVH9N7rVM0RiR3X0jlj4zqoa_id5X7iHeFZphp5qgijRuyj_SUPlLAsqoMEIzRNT6qMnw7Tv55LXVpK0ou-Ef25u__apbUJaLpTAPvYstr3q0]--></g></svg>