<svg xmlns="http://www.w3.org/2000/svg" xmlns:xlink="http://www.w3.org/1999/xlink" contentStyleType="text/css" height="1099px" preserveAspectRatio="none" style="width:528px;height:1099px;background:#FFFFFF;" version="1.1" viewBox="0 0 528 1099" width="528px" zoomAndPan="magnify"><defs/><g><!--class ControlDeVersiones--><g id="elem_ControlDeVersiones"><rect codeLine="1" fill="#F1F1F1" height="64.2969" id="ControlDeVersiones" rx="2.5" ry="2.5" style="stroke:#181818;stroke-width:0.5;" width="202.8184" x="138.58" y="7"/><ellipse cx="167.9958" cy="23" fill="#ADD1B2" rx="11" ry="11" style="stroke:#181818;stroke-width:1;"/><path d="M170.9646,28.6406 Q170.3864,28.9375 169.7458,29.0781 Q169.1052,29.2344 168.4021,29.2344 Q165.9021,29.2344 164.5739,27.5938 Q163.2614,25.9375 163.2614,22.8125 Q163.2614,19.6875 164.5739,18.0313 Q165.9021,16.375 168.4021,16.375 Q169.1052,16.375 169.7458,16.5313 Q170.4021,16.6875 170.9646,16.9844 L170.9646,19.7031 Q170.3396,19.125 169.7458,18.8594 Q169.1521,18.5781 168.5271,18.5781 Q167.1833,18.5781 166.4958,19.6563 Q165.8083,20.7188 165.8083,22.8125 Q165.8083,24.9063 166.4958,25.9844 Q167.1833,27.0469 168.5271,27.0469 Q169.1521,27.0469 169.7458,26.7813 Q170.3396,26.5 170.9646,25.9219 L170.9646,28.6406 Z " fill="#000000"/><text fill="#000000" font-family="sans-serif" font-size="14" lengthAdjust="spacing" textLength="138.7832" x="185.1993" y="27.8467">ControlDeVersiones</text><line style="stroke:#181818;stroke-width:0.5;" x1="139.58" x2="340.3984" y1="39" y2="39"/><line style="stroke:#181818;stroke-width:0.5;" x1="139.58" x2="340.3984" y1="47" y2="47"/><ellipse cx="149.58" cy="60.6484" fill="#84BE84" rx="3" ry="3" style="stroke:#038048;stroke-width:1;"/><text fill="#000000" font-family="sans-serif" font-size="14" lengthAdjust="spacing" textLength="176.8184" x="158.58" y="63.9951">main(String[] args) : void</text></g><!--class Estado--><g id="elem_Estado"><rect codeLine="5" fill="#F1F1F1" height="96.8906" id="Estado" rx="2.5" ry="2.5" style="stroke:#181818;stroke-width:0.5;" width="193.665" x="328.15" y="979.61"/><ellipse cx="396.9024" cy="995.61" fill="#ADD1B2" rx="11" ry="11" style="stroke:#181818;stroke-width:1;"/><path d="M399.8712,1001.2506 Q399.2931,1001.5475 398.6524,1001.6881 Q398.0118,1001.8444 397.3087,1001.8444 Q394.8087,1001.8444 393.4806,1000.2037 Q392.1681,998.5475 392.1681,995.4225 Q392.1681,992.2975 393.4806,990.6412 Q394.8087,988.985 397.3087,988.985 Q398.0118,988.985 398.6524,989.1412 Q399.3087,989.2975 399.8712,989.5944 L399.8712,992.3131 Q399.2462,991.735 398.6524,991.4694 Q398.0587,991.1881 397.4337,991.1881 Q396.0899,991.1881 395.4024,992.2662 Q394.7149,993.3287 394.7149,995.4225 Q394.7149,997.5162 395.4024,998.5944 Q396.0899,999.6569 397.4337,999.6569 Q398.0587,999.6569 398.6524,999.3912 Q399.2462,999.11 399.8712,998.5319 L399.8712,1001.2506 Z " fill="#000000"/><text fill="#000000" font-family="sans-serif" font-size="14" lengthAdjust="spacing" textLength="47.6602" x="417.4024" y="1000.4567">Estado</text><line style="stroke:#181818;stroke-width:0.5;" x1="329.15" x2="520.815" y1="1011.61" y2="1011.61"/><rect fill="none" height="6" style="stroke:#C82930;stroke-width:1;" width="6" x="336.15" y="1022.2584"/><text fill="#000000" font-family="sans-serif" font-size="14" lengthAdjust="spacing" textLength="118.248" x="348.15" y="1028.6051">numberFiles : int</text><line style="stroke:#181818;stroke-width:0.5;" x1="329.15" x2="520.815" y1="1035.9069" y2="1035.9069"/><ellipse cx="339.15" cy="1049.5553" fill="#84BE84" rx="3" ry="3" style="stroke:#038048;stroke-width:1;"/><text fill="#000000" font-family="sans-serif" font-size="14" lengthAdjust="spacing" textLength="167.665" x="348.15" y="1052.902">Estado(int numberFiles)</text><ellipse cx="339.15" cy="1065.8522" fill="#84BE84" rx="3" ry="3" style="stroke:#038048;stroke-width:1;"/><text fill="#000000" font-family="sans-serif" font-size="14" lengthAdjust="spacing" textLength="153.7607" x="348.15" y="1069.1989">getNumberFiles() : int</text></g><!--class Interfaz--><g id="elem_Interfaz"><rect codeLine="11" fill="#F1F1F1" height="113.1875" id="Interfaz" rx="2.5" ry="2.5" style="stroke:#181818;stroke-width:0.5;" width="166.2598" x="156.86" y="148.3"/><ellipse cx="208.8815" cy="164.3" fill="#ADD1B2" rx="11" ry="11" style="stroke:#181818;stroke-width:1;"/><path d="M211.8502,169.9406 Q211.2721,170.2375 210.6315,170.3781 Q209.9909,170.5344 209.2877,170.5344 Q206.7877,170.5344 205.4596,168.8937 Q204.1471,167.2375 204.1471,164.1125 Q204.1471,160.9875 205.4596,159.3312 Q206.7877,157.675 209.2877,157.675 Q209.9909,157.675 210.6315,157.8312 Q211.2877,157.9875 211.8502,158.2844 L211.8502,161.0031 Q211.2252,160.425 210.6315,160.1594 Q210.0377,159.8781 209.4127,159.8781 Q208.069,159.8781 207.3815,160.9562 Q206.694,162.0187 206.694,164.1125 Q206.694,166.2062 207.3815,167.2844 Q208.069,168.3469 209.4127,168.3469 Q210.0377,168.3469 210.6315,168.0812 Q211.2252,167.8 211.8502,167.2219 L211.8502,169.9406 Z " fill="#000000"/><text fill="#000000" font-family="sans-serif" font-size="14" lengthAdjust="spacing" textLength="53.7168" x="229.3815" y="169.1467">Interfaz</text><line style="stroke:#181818;stroke-width:0.5;" x1="157.86" x2="322.1198" y1="180.3" y2="180.3"/><rect fill="none" height="6" style="stroke:#C82930;stroke-width:1;" width="6" x="164.86" y="190.9484"/><text fill="#000000" font-family="sans-serif" font-size="14" lengthAdjust="spacing" textLength="73.623" x="176.86" y="197.2951">tree : Tree</text><line style="stroke:#181818;stroke-width:0.5;" x1="157.86" x2="322.1198" y1="204.5969" y2="204.5969"/><ellipse cx="167.86" cy="218.2453" fill="#84BE84" rx="3" ry="3" style="stroke:#038048;stroke-width:1;"/><text fill="#000000" font-family="sans-serif" font-size="14" lengthAdjust="spacing" textLength="129.0967" x="176.86" y="221.592">Interfaz(Tree tree)</text><ellipse cx="167.86" cy="234.5422" fill="#84BE84" rx="3" ry="3" style="stroke:#038048;stroke-width:1;"/><text fill="#000000" font-family="sans-serif" font-size="14" lengthAdjust="spacing" textLength="109.2451" x="176.86" y="237.8889">mostrar() : void</text><rect fill="#F24D5C" height="6" style="stroke:#C82930;stroke-width:1;" width="6" x="164.86" y="247.8391"/><text fill="#000000" font-family="sans-serif" font-size="14" lengthAdjust="spacing" textLength="140.2598" x="176.86" y="254.1857">cleanScreen() : void</text></g><!--class Lista--><g id="elem_Lista"><rect codeLine="18" fill="#F1F1F1" height="129.4844" id="Lista" rx="2.5" ry="2.5" style="stroke:#181818;stroke-width:0.5;" width="285.9707" x="7" y="963.32"/><ellipse cx="129.2095" cy="979.32" fill="#ADD1B2" rx="11" ry="11" style="stroke:#181818;stroke-width:1;"/><path d="M132.1782,984.9606 Q131.6001,985.2575 130.9595,985.3981 Q130.3188,985.5544 129.6157,985.5544 Q127.1157,985.5544 125.7876,983.9137 Q124.4751,982.2575 124.4751,979.1325 Q124.4751,976.0075 125.7876,974.3512 Q127.1157,972.695 129.6157,972.695 Q130.3188,972.695 130.9595,972.8512 Q131.6157,973.0075 132.1782,973.3044 L132.1782,976.0231 Q131.5532,975.445 130.9595,975.1794 Q130.3657,974.8981 129.7407,974.8981 Q128.397,974.8981 127.7095,975.9762 Q127.022,977.0387 127.022,979.1325 Q127.022,981.2262 127.7095,982.3044 Q128.397,983.3669 129.7407,983.3669 Q130.3657,983.3669 130.9595,983.1012 Q131.5532,982.82 132.1782,982.2419 L132.1782,984.9606 Z " fill="#000000"/><text fill="#000000" font-family="sans-serif" font-size="14" lengthAdjust="spacing" textLength="33.0518" x="149.7095" y="984.1667">Lista</text><line style="stroke:#181818;stroke-width:0.5;" x1="8" x2="291.9707" y1="995.32" y2="995.32"/><rect fill="none" height="6" style="stroke:#C82930;stroke-width:1;" width="6" x="15" y="1005.9684"/><text fill="#000000" font-family="sans-serif" font-size="14" lengthAdjust="spacing" textLength="105.2598" x="27" y="1012.3151">primero : Node</text><line style="stroke:#181818;stroke-width:0.5;" x1="8" x2="291.9707" y1="1019.6169" y2="1019.6169"/><ellipse cx="18" cy="1033.2653" fill="#84BE84" rx="3" ry="3" style="stroke:#038048;stroke-width:1;"/><text fill="#000000" font-family="sans-serif" font-size="14" lengthAdjust="spacing" textLength="43.9756" x="27" y="1036.612">Lista()</text><ellipse cx="18" cy="1049.5622" fill="#84BE84" rx="3" ry="3" style="stroke:#038048;stroke-width:1;"/><text fill="#000000" font-family="sans-serif" font-size="14" lengthAdjust="spacing" textLength="259.9707" x="27" y="1052.9089">insertar(int value, Node padre) : void</text><ellipse cx="18" cy="1065.8591" fill="#84BE84" rx="3" ry="3" style="stroke:#038048;stroke-width:1;"/><text fill="#000000" font-family="sans-serif" font-size="14" lengthAdjust="spacing" textLength="129.7871" x="27" y="1069.2057">getUltimo() : Node</text><ellipse cx="18" cy="1082.1559" fill="#84BE84" rx="3" ry="3" style="stroke:#038048;stroke-width:1;"/><text fill="#000000" font-family="sans-serif" font-size="14" lengthAdjust="spacing" textLength="138.7285" x="27" y="1085.5026">getPrimero() : Node</text></g><!--class Node--><g id="elem_Node"><rect codeLine="26" fill="#F1F1F1" height="243.5625" id="Node" rx="2.5" ry="2.5" style="stroke:#181818;stroke-width:0.5;" width="444.7354" x="17.62" y="642.75"/><ellipse cx="217.4686" cy="658.75" fill="#ADD1B2" rx="11" ry="11" style="stroke:#181818;stroke-width:1;"/><path d="M220.4374,664.3906 Q219.8593,664.6875 219.2186,664.8281 Q218.578,664.9844 217.8749,664.9844 Q215.3749,664.9844 214.0468,663.3438 Q212.7343,661.6875 212.7343,658.5625 Q212.7343,655.4375 214.0468,653.7813 Q215.3749,652.125 217.8749,652.125 Q218.578,652.125 219.2186,652.2813 Q219.8749,652.4375 220.4374,652.7344 L220.4374,655.4531 Q219.8124,654.875 219.2186,654.6094 Q218.6249,654.3281 217.9999,654.3281 Q216.6561,654.3281 215.9686,655.4063 Q215.2811,656.4688 215.2811,658.5625 Q215.2811,660.6563 215.9686,661.7344 Q216.6561,662.7969 217.9999,662.7969 Q218.6249,662.7969 219.2186,662.5313 Q219.8124,662.25 220.4374,661.6719 L220.4374,664.3906 Z " fill="#000000"/><text fill="#000000" font-family="sans-serif" font-size="14" lengthAdjust="spacing" textLength="36.5381" x="237.9686" y="663.5967">Node</text><line style="stroke:#181818;stroke-width:0.5;" x1="18.62" x2="461.3554" y1="674.75" y2="674.75"/><rect fill="none" height="6" style="stroke:#C82930;stroke-width:1;" width="6" x="25.62" y="685.3984"/><text fill="#000000" font-family="sans-serif" font-size="14" lengthAdjust="spacing" textLength="90.877" x="37.62" y="691.7451">padre : Node</text><rect fill="none" height="6" style="stroke:#C82930;stroke-width:1;" width="6" x="25.62" y="701.6953"/><text fill="#000000" font-family="sans-serif" font-size="14" lengthAdjust="spacing" textLength="75.8105" x="37.62" y="708.042">lista : Lista</text><rect fill="none" height="6" style="stroke:#C82930;stroke-width:1;" width="6" x="25.62" y="717.9922"/><text fill="#000000" font-family="sans-serif" font-size="14" lengthAdjust="spacing" textLength="114.5771" x="37.62" y="724.3389">siguiente : Node</text><rect fill="none" height="6" style="stroke:#C82930;stroke-width:1;" width="6" x="25.62" y="734.2891"/><text fill="#000000" font-family="sans-serif" font-size="14" lengthAdjust="spacing" textLength="105.6768" x="37.62" y="740.6357">anterior : Node</text><line style="stroke:#181818;stroke-width:0.5;" x1="18.62" x2="461.3554" y1="747.9375" y2="747.9375"/><ellipse cx="28.62" cy="761.5859" fill="#84BE84" rx="3" ry="3" style="stroke:#038048;stroke-width:1;"/><text fill="#000000" font-family="sans-serif" font-size="14" lengthAdjust="spacing" textLength="418.7354" x="37.62" y="764.9326">Node(int value, Node padre, Node siguiente, Node anterior)</text><ellipse cx="28.62" cy="777.8828" fill="#84BE84" rx="3" ry="3" style="stroke:#038048;stroke-width:1;"/><text fill="#000000" font-family="sans-serif" font-size="14" lengthAdjust="spacing" textLength="121.3994" x="37.62" y="781.2295">mostrar() : String</text><ellipse cx="28.62" cy="794.1797" fill="#84BE84" rx="3" ry="3" style="stroke:#038048;stroke-width:1;"/><text fill="#000000" font-family="sans-serif" font-size="14" lengthAdjust="spacing" textLength="302.8525" x="37.62" y="797.5264">a&#241;adirVersion(int value, Node padre) : void</text><ellipse cx="28.62" cy="810.4766" fill="#84BE84" rx="3" ry="3" style="stroke:#038048;stroke-width:1;"/><text fill="#000000" font-family="sans-serif" font-size="14" lengthAdjust="spacing" textLength="124.3457" x="37.62" y="813.8232">getPadre() : Node</text><ellipse cx="28.62" cy="826.7734" fill="#84BE84" rx="3" ry="3" style="stroke:#038048;stroke-width:1;"/><text fill="#000000" font-family="sans-serif" font-size="14" lengthAdjust="spacing" textLength="150.083" x="37.62" y="830.1201">getSiguiente() : Node</text><ellipse cx="28.62" cy="843.0703" fill="#84BE84" rx="3" ry="3" style="stroke:#038048;stroke-width:1;"/><text fill="#000000" font-family="sans-serif" font-size="14" lengthAdjust="spacing" textLength="113.6338" x="37.62" y="846.417">getLista() : Lista</text><ellipse cx="28.62" cy="859.3672" fill="#84BE84" rx="3" ry="3" style="stroke:#038048;stroke-width:1;"/><text fill="#000000" font-family="sans-serif" font-size="14" lengthAdjust="spacing" textLength="398.542" x="37.62" y="862.7139">setSiguiente(int value, Node padre, Node anterior) : void</text><ellipse cx="28.62" cy="875.6641" fill="#84BE84" rx="3" ry="3" style="stroke:#038048;stroke-width:1;"/><text fill="#000000" font-family="sans-serif" font-size="14" lengthAdjust="spacing" textLength="140.5879" x="37.62" y="879.0107">getAnterior() : Node</text></g><!--class Tree--><g id="elem_Tree"><rect codeLine="41" fill="#F1F1F1" height="227.2656" id="Tree" rx="2.5" ry="2.5" style="stroke:#181818;stroke-width:0.5;" width="462.8984" x="8.54" y="338.49"/><ellipse cx="219.9721" cy="354.49" fill="#ADD1B2" rx="11" ry="11" style="stroke:#181818;stroke-width:1;"/><path d="M222.9409,360.1306 Q222.3628,360.4275 221.7221,360.5681 Q221.0815,360.7244 220.3784,360.7244 Q217.8784,360.7244 216.5503,359.0838 Q215.2378,357.4275 215.2378,354.3025 Q215.2378,351.1775 216.5503,349.5213 Q217.8784,347.865 220.3784,347.865 Q221.0815,347.865 221.7221,348.0213 Q222.3784,348.1775 222.9409,348.4744 L222.9409,351.1931 Q222.3159,350.615 221.7221,350.3494 Q221.1284,350.0681 220.5034,350.0681 Q219.1596,350.0681 218.4721,351.1463 Q217.7846,352.2088 217.7846,354.3025 Q217.7846,356.3963 218.4721,357.4744 Q219.1596,358.5369 220.5034,358.5369 Q221.1284,358.5369 221.7221,358.2713 Q222.3159,357.99 222.9409,357.4119 L222.9409,360.1306 Z " fill="#000000"/><text fill="#000000" font-family="sans-serif" font-size="14" lengthAdjust="spacing" textLength="31.5342" x="240.4721" y="359.3367">Tree</text><line style="stroke:#181818;stroke-width:0.5;" x1="9.54" x2="470.4384" y1="370.49" y2="370.49"/><rect fill="none" height="6" style="stroke:#C82930;stroke-width:1;" width="6" x="16.54" y="381.1384"/><text fill="#000000" font-family="sans-serif" font-size="14" lengthAdjust="spacing" textLength="78.5313" x="28.54" y="387.4851">root : Node</text><rect fill="none" height="6" style="stroke:#C82930;stroke-width:1;" width="6" x="16.54" y="397.4353"/><text fill="#000000" font-family="sans-serif" font-size="14" lengthAdjust="spacing" textLength="145.5371" x="28.54" y="403.782">versionActual : Node</text><line style="stroke:#181818;stroke-width:0.5;" x1="9.54" x2="470.4384" y1="411.0838" y2="411.0838"/><ellipse cx="19.54" cy="424.7322" fill="#84BE84" rx="3" ry="3" style="stroke:#038048;stroke-width:1;"/><text fill="#000000" font-family="sans-serif" font-size="14" lengthAdjust="spacing" textLength="42.458" x="28.54" y="428.0789">Tree()</text><ellipse cx="19.54" cy="441.0291" fill="#84BE84" rx="3" ry="3" style="stroke:#038048;stroke-width:1;"/><text fill="#000000" font-family="sans-serif" font-size="14" lengthAdjust="spacing" textLength="155.0254" x="28.54" y="444.3757">insert(int value) : void</text><ellipse cx="19.54" cy="457.3259" fill="#84BE84" rx="3" ry="3" style="stroke:#038048;stroke-width:1;"/><text fill="#000000" font-family="sans-serif" font-size="14" lengthAdjust="spacing" textLength="87.0625" x="28.54" y="460.6726">print() : void</text><ellipse cx="19.54" cy="473.6228" fill="#84BE84" rx="3" ry="3" style="stroke:#038048;stroke-width:1;"/><text fill="#000000" font-family="sans-serif" font-size="14" lengthAdjust="spacing" textLength="218.0732" x="28.54" y="476.9695">mostrarVersionActual() : String</text><ellipse cx="19.54" cy="489.9197" fill="#84BE84" rx="3" ry="3" style="stroke:#038048;stroke-width:1;"/><text fill="#000000" font-family="sans-serif" font-size="14" lengthAdjust="spacing" textLength="224.0205" x="28.54" y="493.2664">moverseVersionAnterior() : void</text><ellipse cx="19.54" cy="506.2166" fill="#84BE84" rx="3" ry="3" style="stroke:#038048;stroke-width:1;"/><text fill="#000000" font-family="sans-serif" font-size="14" lengthAdjust="spacing" textLength="220.418" x="28.54" y="509.5632">moverseRamaIzquierda() : void</text><ellipse cx="19.54" cy="522.5134" fill="#84BE84" rx="3" ry="3" style="stroke:#038048;stroke-width:1;"/><text fill="#000000" font-family="sans-serif" font-size="14" lengthAdjust="spacing" textLength="214.3682" x="28.54" y="525.8601">moverseRamaDerecha() : void</text><ellipse cx="19.54" cy="538.8103" fill="#84BE84" rx="3" ry="3" style="stroke:#038048;stroke-width:1;"/><text fill="#000000" font-family="sans-serif" font-size="14" lengthAdjust="spacing" textLength="210.1299" x="28.54" y="542.157">moversePrimeraRama() : void</text><rect fill="#F24D5C" height="6" style="stroke:#C82930;stroke-width:1;" width="6" x="16.54" y="552.1072"/><text fill="#000000" font-family="sans-serif" font-size="14" lengthAdjust="spacing" textLength="436.8984" x="28.54" y="558.4539">printRecursive(Node node, String prefix, boolean isLast) : void</text></g><!--link ControlDeVersiones to Interfaz--><g id="link_ControlDeVersiones_Interfaz"><path codeLine="55" d="M239.99,71.72 C239.99,93.28 239.99,116.44 239.99,141.89 " fill="none" id="ControlDeVersiones-to-Interfaz" style="stroke:#181818;stroke-width:1;"/><polygon fill="#181818" points="239.99,147.89,243.99,138.89,239.99,142.89,235.99,138.89,239.99,147.89" style="stroke:#181818;stroke-width:1;"/><text fill="#000000" font-family="sans-serif" font-size="13" lengthAdjust="spacing" textLength="22.9785" x="240.99" y="114.3669">usa</text></g><!--link Interfaz to Tree--><g id="link_Interfaz_Tree"><path codeLine="56" d="M239.99,261.85 C239.99,284.61 239.99,305.77 239.99,332.31 " fill="none" id="Interfaz-to-Tree" style="stroke:#181818;stroke-width:1;"/><polygon fill="#181818" points="239.99,338.31,243.99,329.31,239.99,333.31,235.99,329.31,239.99,338.31" style="stroke:#181818;stroke-width:1;"/><text fill="#000000" font-family="sans-serif" font-size="13" lengthAdjust="spacing" textLength="32.9443" x="240.99" y="304.5569">tiene</text></g><!--link Tree to Node--><g id="link_Tree_Node"><path codeLine="57" d="M239.99,566.06 C239.99,590.85 239.99,611.2 239.99,636.3 " fill="none" id="Tree-to-Node" style="stroke:#181818;stroke-width:1;"/><polygon fill="#181818" points="239.99,642.3,243.99,633.3,239.99,637.3,235.99,633.3,239.99,642.3" style="stroke:#181818;stroke-width:1;"/><text fill="#000000" font-family="sans-serif" font-size="13" lengthAdjust="spacing" textLength="56.2847" x="240.99" y="608.8169">contiene</text></g><!--link Node to Lista--><g id="link_Node_Lista"><path codeLine="58" d="M157.72,886.78 C153.46,896.5 149.8,906.4 146.99,916.32 C142.79,931.12 141.4249,941.4806 141.6449,956.9906 " fill="none" id="Node-to-Lista" style="stroke:#181818;stroke-width:1;"/><polygon fill="#181818" points="141.73,962.99,145.602,953.9342,141.6591,957.9905,137.6028,954.0476,141.73,962.99" style="stroke:#181818;stroke-width:1;"/><text fill="#000000" font-family="sans-serif" font-size="13" lengthAdjust="spacing" textLength="48.4453" x="147.99" y="929.3869">maneja</text></g><!--link Lista to Node--><g id="link_Lista_Node"><path codeLine="59" d="M187.85,962.83 C192.7,953.13 197.27,943.1 200.99,933.32 C206.62,918.5 210.0064,908.4172 214.3464,892.5572 " fill="none" id="Lista-to-Node" style="stroke:#181818;stroke-width:1;"/><polygon fill="#181818" points="215.93,886.77,209.6964,894.3951,214.6103,891.5927,217.4127,896.5066,215.93,886.77" style="stroke:#181818;stroke-width:1;"/><text fill="#000000" font-family="sans-serif" font-size="13" lengthAdjust="spacing" textLength="56.2847" x="206.99" y="929.3869">contiene</text></g><!--link Node to Estado--><g id="link_Node_Estado"><path codeLine="60" d="M325.72,886.73 C348.97,919.6 369.3255,948.3713 387.8055,974.5013 " fill="none" id="Node-to-Estado" style="stroke:#181818;stroke-width:1;"/><polygon fill="#181818" points="391.27,979.4,389.339,969.7423,388.3829,975.3178,382.8074,974.3616,391.27,979.4" style="stroke:#181818;stroke-width:1;"/><text fill="#000000" font-family="sans-serif" font-size="13" lengthAdjust="spacing" textLength="45.7983" x="354.99" y="929.3869">hereda</text></g><!--SRC=[ZLHDJkim4Dxd55wwehr05aW8tfEGAeGei45lCIH3QvJOC7Og1E9GxmnSZF5FtAGD5LaaySmtCzzy7hjgm5fnRhGZqrpWFP9LHgCL7uNWvqIqeBHSEL9w_V1F0AtjJ9HYQrHTV1P55SB_M0UrII4BeRls4UclQZXDAPHsALM4IJOC8RFaNQExsbdbB8Nc8fVQ8Jt1UoxZ2951j_n9ANg8zBRWxvEtnZe2afbxJ54r27fLCL3BmxQMYWddSY-aMYJ3g2jJznK3HFPLbBP8Zilu5hVGT3WFOF42DU6eTkZthd6gDQ7o82SxhcEjdITp2kao9Pzs6BmGJU1SHcB9PjMwKyZQZA7WrLA6njNzxpJ_z9-pfNMVPahgE3V90L__eLQKHkot6brxyuH4gvx6X2_joaY64s67GSSwp1qTa3bBdecD2IFNRmmPuyPYRsFNPvNhe1aJzf5x8xIZjyU1Xr0xkMTCYjyFInpAtnhFeJ_Xeqv6kGBg1bguV7zbiQY68vWB9AmsFo7Y68C7xf-yqCWDLXspsQ8Ckcj-pHDf1k2JUfkBHsFy8HNABi6wuI6TkBGMYzFTFL6ApaAHbzvt6wyCnpE0HLXuQoXUYehp1KTOUySo7QOMD3v34PT78z9DM8eD2rF3Dm00]--></g></svg>