<svg xmlns="http://www.w3.org/2000/svg" xmlns:xlink="http://www.w3.org/1999/xlink" contentStyleType="text/css" height="1529px" preserveAspectRatio="none" style="width:822px;height:1529px;background:#FFFFFF;" version="1.1" viewBox="0 0 822 1529" width="822px" zoomAndPan="magnify"><defs/><g><!--cluster entregas--><g id="cluster_entregas"><path d="M8.5,6 L79.8555,6 A3.75,3.75 0 0 1 82.3555,8.5 L89.3555,28.2969 L789.5,28.2969 A2.5,2.5 0 0 1 792,30.7969 L792,1520.08 A2.5,2.5 0 0 1 789.5,1522.58 L8.5,1522.58 A2.5,2.5 0 0 1 6,1520.08 L6,8.5 A2.5,2.5 0 0 1 8.5,6 " fill="none" style="stroke:#000000;stroke-width:1.5;"/><line style="stroke:#000000;stroke-width:1.5;" x1="6" x2="89.3555" y1="28.2969" y2="28.2969"/><text fill="#000000" font-family="sans-serif" font-size="14" font-weight="bold" lengthAdjust="spacing" textLength="70.3555" x="10" y="20.9951">entregas</text></g><!--cluster lopezMartin--><g id="cluster_lopezMartin"><path d="M32.5,49 L127.3232,49 A3.75,3.75 0 0 1 129.8232,51.5 L136.8232,71.2969 L765.5,71.2969 A2.5,2.5 0 0 1 768,73.7969 L768,1496.08 A2.5,2.5 0 0 1 765.5,1498.58 L32.5,1498.58 A2.5,2.5 0 0 1 30,1496.08 L30,51.5 A2.5,2.5 0 0 1 32.5,49 " fill="none" style="stroke:#000000;stroke-width:1.5;"/><line style="stroke:#000000;stroke-width:1.5;" x1="30" x2="136.8232" y1="71.2969" y2="71.2969"/><text fill="#000000" font-family="sans-serif" font-size="14" font-weight="bold" lengthAdjust="spacing" textLength="93.8232" x="34" y="63.9951">lopezMartin</text></g><!--cluster reto_006--><g id="cluster_reto_006"><path d="M56.5,92 L126.4336,92 A3.75,3.75 0 0 1 128.9336,94.5 L135.9336,114.2969 L741.5,114.2969 A2.5,2.5 0 0 1 744,116.7969 L744,1472.08 A2.5,2.5 0 0 1 741.5,1474.58 L56.5,1474.58 A2.5,2.5 0 0 1 54,1472.08 L54,94.5 A2.5,2.5 0 0 1 56.5,92 " fill="none" style="stroke:#000000;stroke-width:1.5;"/><line style="stroke:#000000;stroke-width:1.5;" x1="54" x2="135.9336" y1="114.2969" y2="114.2969"/><text fill="#000000" font-family="sans-serif" font-size="14" font-weight="bold" lengthAdjust="spacing" textLength="68.9336" x="58" y="106.9951">reto_006</text></g><!--class Edlin--><g id="elem_Edlin"><rect codeLine="3" fill="#F1F1F1" height="64.2969" id="Edlin" rx="2.5" ry="2.5" style="stroke:#181818;stroke-width:0.5;" width="164.291" x="316.85" y="127"/><ellipse cx="377.5531" cy="143" fill="#ADD1B2" rx="11" ry="11" style="stroke:#181818;stroke-width:1;"/><path d="M380.5219,148.6406 Q379.9438,148.9375 379.3031,149.0781 Q378.6625,149.2344 377.9594,149.2344 Q375.4594,149.2344 374.1313,147.5938 Q372.8188,145.9375 372.8188,142.8125 Q372.8188,139.6875 374.1313,138.0313 Q375.4594,136.375 377.9594,136.375 Q378.6625,136.375 379.3031,136.5313 Q379.9594,136.6875 380.5219,136.9844 L380.5219,139.7031 Q379.8969,139.125 379.3031,138.8594 Q378.7094,138.5781 378.0844,138.5781 Q376.7406,138.5781 376.0531,139.6563 Q375.3656,140.7188 375.3656,142.8125 Q375.3656,144.9063 376.0531,145.9844 Q376.7406,147.0469 378.0844,147.0469 Q378.7094,147.0469 379.3031,146.7813 Q379.8969,146.5 380.5219,145.9219 L380.5219,148.6406 Z " fill="#000000"/><text fill="#000000" font-family="sans-serif" font-size="14" lengthAdjust="spacing" textLength="34.3848" x="398.0531" y="147.8467">Edlin</text><line style="stroke:#181818;stroke-width:0.5;" x1="317.85" x2="480.141" y1="159" y2="159"/><line style="stroke:#181818;stroke-width:0.5;" x1="317.85" x2="480.141" y1="167" y2="167"/><ellipse cx="327.85" cy="180.6484" fill="#84BE84" rx="3" ry="3" style="stroke:#038048;stroke-width:1;"/><text fill="#000000" font-family="sans-serif" font-size="14" lengthAdjust="spacing" textLength="138.291" x="336.85" y="183.9951">main(args: String[])</text></g><!--class Documento--><g id="elem_Documento"><rect codeLine="7" fill="#F1F1F1" height="145.7813" id="Documento" rx="2.5" ry="2.5" style="stroke:#181818;stroke-width:0.5;" width="205.4297" x="296.29" y="251.3"/><ellipse cx="354.2075" cy="267.3" fill="#ADD1B2" rx="11" ry="11" style="stroke:#181818;stroke-width:1;"/><path d="M357.1762,272.9406 Q356.5981,273.2375 355.9575,273.3781 Q355.3169,273.5344 354.6137,273.5344 Q352.1137,273.5344 350.7856,271.8937 Q349.4731,270.2375 349.4731,267.1125 Q349.4731,263.9875 350.7856,262.3312 Q352.1137,260.675 354.6137,260.675 Q355.3169,260.675 355.9575,260.8312 Q356.6137,260.9875 357.1762,261.2844 L357.1762,264.0031 Q356.5512,263.425 355.9575,263.1594 Q355.3637,262.8781 354.7387,262.8781 Q353.395,262.8781 352.7075,263.9562 Q352.02,265.0187 352.02,267.1125 Q352.02,269.2062 352.7075,270.2844 Q353.395,271.3469 354.7387,271.3469 Q355.3637,271.3469 355.9575,271.0812 Q356.5512,270.8 357.1762,270.2219 L357.1762,272.9406 Z " fill="#000000"/><text fill="#000000" font-family="sans-serif" font-size="14" lengthAdjust="spacing" textLength="81.0947" x="374.7075" y="272.1467">Documento</text><line style="stroke:#181818;stroke-width:0.5;" x1="297.29" x2="500.7197" y1="283.3" y2="283.3"/><rect fill="none" height="6" style="stroke:#C82930;stroke-width:1;" width="6" x="304.29" y="293.9484"/><text fill="#000000" font-family="sans-serif" font-size="14" lengthAdjust="spacing" textLength="122.8623" x="316.29" y="300.2951">lineasTexto: Lista</text><rect fill="none" height="6" style="stroke:#C82930;stroke-width:1;" width="6" x="304.29" y="310.2453"/><text fill="#000000" font-family="sans-serif" font-size="14" lengthAdjust="spacing" textLength="173.5781" x="316.29" y="316.592">versionesAnteriores: Pila</text><rect fill="none" height="6" style="stroke:#C82930;stroke-width:1;" width="6" x="304.29" y="326.5422"/><text fill="#000000" font-family="sans-serif" font-size="14" lengthAdjust="spacing" textLength="179.4297" x="316.29" y="332.8889">versionesPosteriores: Pila</text><rect fill="none" height="6" style="stroke:#C82930;stroke-width:1;" width="6" x="304.29" y="342.8391"/><text fill="#000000" font-family="sans-serif" font-size="14" lengthAdjust="spacing" textLength="116.3613" x="316.29" y="349.1857">interfaz: Interfaz</text><line style="stroke:#181818;stroke-width:0.5;" x1="297.29" x2="500.7197" y1="356.4875" y2="356.4875"/><ellipse cx="307.29" cy="370.1359" fill="#84BE84" rx="3" ry="3" style="stroke:#038048;stroke-width:1;"/><text fill="#000000" font-family="sans-serif" font-size="14" lengthAdjust="spacing" textLength="92.0186" x="316.29" y="373.4826">Documento()</text><ellipse cx="307.29" cy="386.4328" fill="#84BE84" rx="3" ry="3" style="stroke:#038048;stroke-width:1;"/><text fill="#000000" font-family="sans-serif" font-size="14" lengthAdjust="spacing" textLength="68.4346" x="316.29" y="389.7795">ejecutar()</text></g><!--class Interfaz--><g id="elem_Interfaz"><rect codeLine="16" fill="#F1F1F1" height="145.7813" id="Interfaz" rx="2.5" ry="2.5" style="stroke:#181818;stroke-width:0.5;" width="584.3115" x="106.84" y="457.08"/><ellipse cx="367.8874" cy="473.08" fill="#ADD1B2" rx="11" ry="11" style="stroke:#181818;stroke-width:1;"/><path d="M370.8561,478.7206 Q370.278,479.0175 369.6374,479.1581 Q368.9967,479.3144 368.2936,479.3144 Q365.7936,479.3144 364.4655,477.6737 Q363.153,476.0175 363.153,472.8925 Q363.153,469.7675 364.4655,468.1112 Q365.7936,466.455 368.2936,466.455 Q368.9967,466.455 369.6374,466.6112 Q370.2936,466.7675 370.8561,467.0644 L370.8561,469.7831 Q370.2311,469.205 369.6374,468.9394 Q369.0436,468.6581 368.4186,468.6581 Q367.0749,468.6581 366.3874,469.7362 Q365.6999,470.7987 365.6999,472.8925 Q365.6999,474.9862 366.3874,476.0644 Q367.0749,477.1269 368.4186,477.1269 Q369.0436,477.1269 369.6374,476.8612 Q370.2311,476.58 370.8561,476.0019 L370.8561,478.7206 Z " fill="#000000"/><text fill="#000000" font-family="sans-serif" font-size="14" lengthAdjust="spacing" textLength="53.7168" x="388.3874" y="477.9267">Interfaz</text><line style="stroke:#181818;stroke-width:0.5;" x1="107.84" x2="690.1515" y1="489.08" y2="489.08"/><rect fill="none" height="6" style="stroke:#C82930;stroke-width:1;" width="6" x="114.84" y="499.7284"/><text fill="#000000" font-family="sans-serif" font-size="14" lengthAdjust="spacing" textLength="122.8623" x="126.84" y="506.0751">lineasTexto: Lista</text><rect fill="none" height="6" style="stroke:#C82930;stroke-width:1;" width="6" x="114.84" y="516.0253"/><text fill="#000000" font-family="sans-serif" font-size="14" lengthAdjust="spacing" textLength="142.9873" x="126.84" y="522.372">portapapeles: String</text><rect fill="none" height="6" style="stroke:#C82930;stroke-width:1;" width="6" x="114.84" y="532.3222"/><text fill="#000000" font-family="sans-serif" font-size="14" lengthAdjust="spacing" textLength="173.5781" x="126.84" y="538.6689">versionesAnteriores: Pila</text><rect fill="none" height="6" style="stroke:#C82930;stroke-width:1;" width="6" x="114.84" y="548.6191"/><text fill="#000000" font-family="sans-serif" font-size="14" lengthAdjust="spacing" textLength="179.4297" x="126.84" y="554.9657">versionesPosteriores: Pila</text><line style="stroke:#181818;stroke-width:0.5;" x1="107.84" x2="690.1515" y1="562.2675" y2="562.2675"/><ellipse cx="117.84" cy="575.9159" fill="#84BE84" rx="3" ry="3" style="stroke:#038048;stroke-width:1;"/><text fill="#000000" font-family="sans-serif" font-size="14" lengthAdjust="spacing" textLength="558.3115" x="126.84" y="579.2626">Interfaz(lineasTexto: Lista, versionesAnteriores: Pila, versionesPosteriores: Pila)</text><ellipse cx="117.84" cy="592.2128" fill="#84BE84" rx="3" ry="3" style="stroke:#038048;stroke-width:1;"/><text fill="#000000" font-family="sans-serif" font-size="14" lengthAdjust="spacing" textLength="66.001" x="126.84" y="595.5595">mostrar()</text></g><!--class Lista--><g id="elem_Lista"><rect codeLine="25" fill="#F1F1F1" height="243.5625" id="Lista" rx="2.5" ry="2.5" style="stroke:#181818;stroke-width:0.5;" width="523.7725" x="70.11" y="662.86"/><ellipse cx="311.2204" cy="678.86" fill="#ADD1B2" rx="11" ry="11" style="stroke:#181818;stroke-width:1;"/><path d="M314.1891,684.5006 Q313.611,684.7975 312.9704,684.9381 Q312.3297,685.0944 311.6266,685.0944 Q309.1266,685.0944 307.7985,683.4537 Q306.486,681.7975 306.486,678.6725 Q306.486,675.5475 307.7985,673.8912 Q309.1266,672.235 311.6266,672.235 Q312.3297,672.235 312.9704,672.3912 Q313.6266,672.5475 314.1891,672.8444 L314.1891,675.5631 Q313.5641,674.985 312.9704,674.7194 Q312.3766,674.4381 311.7516,674.4381 Q310.4079,674.4381 309.7204,675.5162 Q309.0329,676.5787 309.0329,678.6725 Q309.0329,680.7662 309.7204,681.8444 Q310.4079,682.9069 311.7516,682.9069 Q312.3766,682.9069 312.9704,682.6412 Q313.5641,682.36 314.1891,681.7819 L314.1891,684.5006 Z " fill="#000000"/><text fill="#000000" font-family="sans-serif" font-size="14" lengthAdjust="spacing" textLength="33.0518" x="331.7204" y="683.7067">Lista</text><line style="stroke:#181818;stroke-width:0.5;" x1="71.11" x2="592.8825" y1="694.86" y2="694.86"/><rect fill="none" height="6" style="stroke:#C82930;stroke-width:1;" width="6" x="78.11" y="705.5084"/><text fill="#000000" font-family="sans-serif" font-size="14" lengthAdjust="spacing" textLength="100.7617" x="90.11" y="711.8551">primero: Nodo</text><rect fill="none" height="6" style="stroke:#C82930;stroke-width:1;" width="6" x="78.11" y="721.8053"/><text fill="#000000" font-family="sans-serif" font-size="14" lengthAdjust="spacing" textLength="123.0195" x="90.11" y="728.152">lineaActiva: Nodo</text><line style="stroke:#181818;stroke-width:0.5;" x1="71.11" x2="592.8825" y1="735.4537" y2="735.4537"/><ellipse cx="81.11" cy="749.1022" fill="#84BE84" rx="3" ry="3" style="stroke:#038048;stroke-width:1;"/><text fill="#000000" font-family="sans-serif" font-size="14" lengthAdjust="spacing" textLength="43.9756" x="90.11" y="752.4489">Lista()</text><ellipse cx="81.11" cy="765.3991" fill="#84BE84" rx="3" ry="3" style="stroke:#038048;stroke-width:1;"/><text fill="#000000" font-family="sans-serif" font-size="14" lengthAdjust="spacing" textLength="43.8184" x="90.11" y="768.7457">print()</text><ellipse cx="81.11" cy="781.6959" fill="#84BE84" rx="3" ry="3" style="stroke:#038048;stroke-width:1;"/><text fill="#000000" font-family="sans-serif" font-size="14" lengthAdjust="spacing" textLength="268.7139" x="90.11" y="785.0426">cambiarLineaActiva(numeroLinea: int)</text><ellipse cx="81.11" cy="797.9928" fill="#84BE84" rx="3" ry="3" style="stroke:#038048;stroke-width:1;"/><text fill="#000000" font-family="sans-serif" font-size="14" lengthAdjust="spacing" textLength="210.2939" x="90.11" y="801.3395">editarLinea(contenido: String)</text><ellipse cx="81.11" cy="814.2897" fill="#84BE84" rx="3" ry="3" style="stroke:#038048;stroke-width:1;"/><text fill="#000000" font-family="sans-serif" font-size="14" lengthAdjust="spacing" textLength="326.4707" x="90.11" y="817.6364">intercambiarLineas(indiceL1: int, indiceL2: int)</text><ellipse cx="81.11" cy="830.5866" fill="#84BE84" rx="3" ry="3" style="stroke:#038048;stroke-width:1;"/><text fill="#000000" font-family="sans-serif" font-size="14" lengthAdjust="spacing" textLength="192.6504" x="90.11" y="833.9332">obtenerLineaActiva(): Nodo</text><ellipse cx="81.11" cy="846.8834" fill="#84BE84" rx="3" ry="3" style="stroke:#038048;stroke-width:1;"/><text fill="#000000" font-family="sans-serif" font-size="14" lengthAdjust="spacing" textLength="135.4951" x="90.11" y="850.2301">borrarLineaActiva()</text><ellipse cx="81.11" cy="863.1803" fill="#84BE84" rx="3" ry="3" style="stroke:#038048;stroke-width:1;"/><text fill="#000000" font-family="sans-serif" font-size="14" lengthAdjust="spacing" textLength="497.7725" x="90.11" y="866.527">deshacerCambios(versionesAnteriores: Pila, versionesPosteriores: Pila)</text><ellipse cx="81.11" cy="879.4772" fill="#84BE84" rx="3" ry="3" style="stroke:#038048;stroke-width:1;"/><text fill="#000000" font-family="sans-serif" font-size="14" lengthAdjust="spacing" textLength="194.6328" x="90.11" y="882.8239">pegar(portapapeles: String)</text><ellipse cx="81.11" cy="895.7741" fill="#84BE84" rx="3" ry="3" style="stroke:#038048;stroke-width:1;"/><text fill="#000000" font-family="sans-serif" font-size="14" lengthAdjust="spacing" textLength="487.3477" x="90.11" y="899.1207">rehacerCambios(versionesPosteriores: Pila, versionesAnteriores: Pila)</text></g><!--class Nodo--><g id="elem_Nodo"><rect codeLine="40" fill="#F1F1F1" height="113.1875" id="Nodo" rx="2.5" ry="2.5" style="stroke:#181818;stroke-width:0.5;" width="234.4141" x="182.79" y="974.57"/><ellipse cx="277.5019" cy="990.57" fill="#ADD1B2" rx="11" ry="11" style="stroke:#181818;stroke-width:1;"/><path d="M280.4707,996.2106 Q279.8925,996.5075 279.2519,996.6481 Q278.6113,996.8044 277.9082,996.8044 Q275.4082,996.8044 274.08,995.1637 Q272.7675,993.5075 272.7675,990.3825 Q272.7675,987.2575 274.08,985.6012 Q275.4082,983.945 277.9082,983.945 Q278.6113,983.945 279.2519,984.1012 Q279.9082,984.2575 280.4707,984.5544 L280.4707,987.2731 Q279.8457,986.695 279.2519,986.4294 Q278.6582,986.1481 278.0332,986.1481 Q276.6894,986.1481 276.0019,987.2262 Q275.3144,988.2887 275.3144,990.3825 Q275.3144,992.4762 276.0019,993.5544 Q276.6894,994.6169 278.0332,994.6169 Q278.6582,994.6169 279.2519,994.3512 Q279.8457,994.07 280.4707,993.4919 L280.4707,996.2106 Z " fill="#000000"/><text fill="#000000" font-family="sans-serif" font-size="14" lengthAdjust="spacing" textLength="36.4902" x="298.0019" y="995.4167">Nodo</text><line style="stroke:#181818;stroke-width:0.5;" x1="183.79" x2="416.2041" y1="1006.57" y2="1006.57"/><rect fill="none" height="6" style="stroke:#C82930;stroke-width:1;" width="6" x="190.79" y="1017.2184"/><text fill="#000000" font-family="sans-serif" font-size="14" lengthAdjust="spacing" textLength="110.0791" x="202.79" y="1023.5651">siguiente: Nodo</text><line style="stroke:#181818;stroke-width:0.5;" x1="183.79" x2="416.2041" y1="1030.8669" y2="1030.8669"/><ellipse cx="193.79" cy="1044.5153" fill="#84BE84" rx="3" ry="3" style="stroke:#038048;stroke-width:1;"/><text fill="#000000" font-family="sans-serif" font-size="14" lengthAdjust="spacing" textLength="116.6826" x="202.79" y="1047.862">Nodo(indice: int)</text><ellipse cx="193.79" cy="1060.8122" fill="#84BE84" rx="3" ry="3" style="stroke:#038048;stroke-width:1;"/><text fill="#000000" font-family="sans-serif" font-size="14" lengthAdjust="spacing" textLength="145.585" x="202.79" y="1064.1589">getSiguiente(): Nodo</text><ellipse cx="193.79" cy="1077.1091" fill="#84BE84" rx="3" ry="3" style="stroke:#038048;stroke-width:1;"/><text fill="#000000" font-family="sans-serif" font-size="14" lengthAdjust="spacing" textLength="208.4141" x="202.79" y="1080.4557">setSiguiente(siguiente: Nodo)</text></g><!--class Pila--><g id="elem_Pila"><rect codeLine="47" fill="#F1F1F1" height="129.4844" id="Pila" rx="2.5" ry="2.5" style="stroke:#181818;stroke-width:0.5;" width="275.0742" x="452.46" y="966.42"/><ellipse cx="573.3467" cy="982.42" fill="#ADD1B2" rx="11" ry="11" style="stroke:#181818;stroke-width:1;"/><path d="M576.3155,988.0606 Q575.7373,988.3575 575.0967,988.4981 Q574.4561,988.6544 573.753,988.6544 Q571.253,988.6544 569.9248,987.0138 Q568.6123,985.3575 568.6123,982.2325 Q568.6123,979.1075 569.9248,977.4513 Q571.253,975.795 573.753,975.795 Q574.4561,975.795 575.0967,975.9513 Q575.753,976.1075 576.3155,976.4044 L576.3155,979.1231 Q575.6905,978.545 575.0967,978.2794 Q574.503,977.9981 573.878,977.9981 Q572.5342,977.9981 571.8467,979.0763 Q571.1592,980.1388 571.1592,982.2325 Q571.1592,984.3263 571.8467,985.4044 Q572.5342,986.4669 573.878,986.4669 Q574.503,986.4669 575.0967,986.2013 Q575.6905,985.92 576.3155,985.3419 L576.3155,988.0606 Z " fill="#000000"/><text fill="#000000" font-family="sans-serif" font-size="14" lengthAdjust="spacing" textLength="24.8008" x="593.8467" y="987.2667">Pila</text><line style="stroke:#181818;stroke-width:0.5;" x1="453.46" x2="726.5342" y1="998.42" y2="998.42"/><rect fill="none" height="6" style="stroke:#C82930;stroke-width:1;" width="6" x="460.46" y="1009.0684"/><text fill="#000000" font-family="sans-serif" font-size="14" lengthAdjust="spacing" textLength="132.0293" x="472.46" y="1015.4151">cima: NodoVersion</text><line style="stroke:#181818;stroke-width:0.5;" x1="453.46" x2="726.5342" y1="1022.7169" y2="1022.7169"/><ellipse cx="463.46" cy="1036.3653" fill="#84BE84" rx="3" ry="3" style="stroke:#038048;stroke-width:1;"/><text fill="#000000" font-family="sans-serif" font-size="14" lengthAdjust="spacing" textLength="35.7246" x="472.46" y="1039.712">Pila()</text><ellipse cx="463.46" cy="1052.6622" fill="#84BE84" rx="3" ry="3" style="stroke:#038048;stroke-width:1;"/><text fill="#000000" font-family="sans-serif" font-size="14" lengthAdjust="spacing" textLength="249.0742" x="472.46" y="1056.0089">apilar(indice: int, contenido: String)</text><ellipse cx="463.46" cy="1068.9591" fill="#84BE84" rx="3" ry="3" style="stroke:#038048;stroke-width:1;"/><text fill="#000000" font-family="sans-serif" font-size="14" lengthAdjust="spacing" textLength="199.8281" x="472.46" y="1072.3057">obtenerCima(): NodoVersion</text><ellipse cx="463.46" cy="1085.2559" fill="#84BE84" rx="3" ry="3" style="stroke:#038048;stroke-width:1;"/><text fill="#000000" font-family="sans-serif" font-size="14" lengthAdjust="spacing" textLength="116.2041" x="472.46" y="1088.6026">reordenarCima()</text></g><!--class NodoVersion--><g id="elem_NodoVersion"><rect codeLine="55" fill="#F1F1F1" height="113.1875" id="NodoVersion" rx="2.5" ry="2.5" style="stroke:#181818;stroke-width:0.5;" width="324.5527" x="269.72" y="1155.91"/><ellipse cx="383.2171" cy="1171.91" fill="#ADD1B2" rx="11" ry="11" style="stroke:#181818;stroke-width:1;"/><path d="M386.1858,1177.5506 Q385.6077,1177.8475 384.9671,1177.9881 Q384.3264,1178.1444 383.6233,1178.1444 Q381.1233,1178.1444 379.7952,1176.5037 Q378.4827,1174.8475 378.4827,1171.7225 Q378.4827,1168.5975 379.7952,1166.9412 Q381.1233,1165.285 383.6233,1165.285 Q384.3264,1165.285 384.9671,1165.4412 Q385.6233,1165.5975 386.1858,1165.8944 L386.1858,1168.6131 Q385.5608,1168.035 384.9671,1167.7694 Q384.3733,1167.4881 383.7483,1167.4881 Q382.4046,1167.4881 381.7171,1168.5662 Q381.0296,1169.6287 381.0296,1171.7225 Q381.0296,1173.8162 381.7171,1174.8944 Q382.4046,1175.9569 383.7483,1175.9569 Q384.3733,1175.9569 384.9671,1175.6912 Q385.5608,1175.41 386.1858,1174.8319 L386.1858,1177.5506 Z " fill="#000000"/><text fill="#000000" font-family="sans-serif" font-size="14" lengthAdjust="spacing" textLength="89.0586" x="403.7171" y="1176.7567">NodoVersion</text><line style="stroke:#181818;stroke-width:0.5;" x1="270.72" x2="593.2727" y1="1187.91" y2="1187.91"/><rect fill="none" height="6" style="stroke:#C82930;stroke-width:1;" width="6" x="277.72" y="1198.5584"/><text fill="#000000" font-family="sans-serif" font-size="14" lengthAdjust="spacing" textLength="162.6475" x="289.72" y="1204.9051">siguiente: NodoVersion</text><line style="stroke:#181818;stroke-width:0.5;" x1="270.72" x2="593.2727" y1="1212.2069" y2="1212.2069"/><ellipse cx="280.72" cy="1225.8553" fill="#84BE84" rx="3" ry="3" style="stroke:#038048;stroke-width:1;"/><text fill="#000000" font-family="sans-serif" font-size="14" lengthAdjust="spacing" textLength="298.5527" x="289.72" y="1229.202">NodoVersion(indice: int, contenido: String)</text><ellipse cx="280.72" cy="1242.1522" fill="#84BE84" rx="3" ry="3" style="stroke:#038048;stroke-width:1;"/><text fill="#000000" font-family="sans-serif" font-size="14" lengthAdjust="spacing" textLength="260.9824" x="289.72" y="1245.4989">setSiguiente(siguiente: NodoVersion)</text><ellipse cx="280.72" cy="1258.4491" fill="#84BE84" rx="3" ry="3" style="stroke:#038048;stroke-width:1;"/><text fill="#000000" font-family="sans-serif" font-size="14" lengthAdjust="spacing" textLength="229.9609" x="289.72" y="1261.7957">obtenerSiguiente(): NodoVersion</text></g><!--class Version--><g id="elem_Version"><rect codeLine="62" fill="#F1F1F1" height="129.4844" id="Version" rx="2.5" ry="2.5" style="stroke:#181818;stroke-width:0.5;" width="325.8174" x="269.09" y="1329.1"/><ellipse cx="401.4645" cy="1345.1" fill="#ADD1B2" rx="11" ry="11" style="stroke:#181818;stroke-width:1;"/><path d="M404.4333,1350.7406 Q403.8551,1351.0375 403.2145,1351.1781 Q402.5739,1351.3344 401.8708,1351.3344 Q399.3708,1351.3344 398.0426,1349.6938 Q396.7301,1348.0375 396.7301,1344.9125 Q396.7301,1341.7875 398.0426,1340.1313 Q399.3708,1338.475 401.8708,1338.475 Q402.5739,1338.475 403.2145,1338.6313 Q403.8708,1338.7875 404.4333,1339.0844 L404.4333,1341.8031 Q403.8083,1341.225 403.2145,1340.9594 Q402.6208,1340.6781 401.9958,1340.6781 Q400.652,1340.6781 399.9645,1341.7563 Q399.277,1342.8188 399.277,1344.9125 Q399.277,1347.0063 399.9645,1348.0844 Q400.652,1349.1469 401.9958,1349.1469 Q402.6208,1349.1469 403.2145,1348.8813 Q403.8083,1348.6 404.4333,1348.0219 L404.4333,1350.7406 Z " fill="#000000"/><text fill="#000000" font-family="sans-serif" font-size="14" lengthAdjust="spacing" textLength="52.5684" x="421.9645" y="1349.9467">Version</text><line style="stroke:#181818;stroke-width:0.5;" x1="270.09" x2="593.9074" y1="1361.1" y2="1361.1"/><rect fill="none" height="6" style="stroke:#C82930;stroke-width:1;" width="6" x="277.09" y="1371.7484"/><text fill="#000000" font-family="sans-serif" font-size="14" lengthAdjust="spacing" textLength="107.0234" x="289.09" y="1378.0951">indiceLinea: int</text><rect fill="none" height="6" style="stroke:#C82930;stroke-width:1;" width="6" x="277.09" y="1388.0453"/><text fill="#000000" font-family="sans-serif" font-size="14" lengthAdjust="spacing" textLength="120.4014" x="289.09" y="1394.392">contenido: String</text><line style="stroke:#181818;stroke-width:0.5;" x1="270.09" x2="593.9074" y1="1401.6938" y2="1401.6938"/><ellipse cx="280.09" cy="1415.3422" fill="#84BE84" rx="3" ry="3" style="stroke:#038048;stroke-width:1;"/><text fill="#000000" font-family="sans-serif" font-size="14" lengthAdjust="spacing" textLength="299.8174" x="289.09" y="1418.6889">Version(indiceLinea: int, contenido: String)</text><ellipse cx="280.09" cy="1431.6391" fill="#84BE84" rx="3" ry="3" style="stroke:#038048;stroke-width:1;"/><text fill="#000000" font-family="sans-serif" font-size="14" lengthAdjust="spacing" textLength="135.2285" x="289.09" y="1434.9857">obtenerIndice(): int</text><ellipse cx="280.09" cy="1447.9359" fill="#84BE84" rx="3" ry="3" style="stroke:#038048;stroke-width:1;"/><text fill="#000000" font-family="sans-serif" font-size="14" lengthAdjust="spacing" textLength="188.2002" x="289.09" y="1451.2826">obtenerContenido(): String</text></g><!--link Edlin to Documento--><g id="link_Edlin_Documento"><path codeLine="70" d="M399,191.59 C399,208.52 399,224.16 399,244.98 " fill="none" id="Edlin-to-Documento" style="stroke:#181818;stroke-width:1;"/><polygon fill="#181818" points="399,250.98,403,241.98,399,245.98,395,241.98,399,250.98" style="stroke:#181818;stroke-width:1;"/></g><!--link Documento to Lista--><g id="link_Documento_Lista"><path codeLine="71" d="M295.83,339.31 C224.55,355.03 134.65,388.05 89,457.08 C53.26,511.12 59.91,544.97 89,602.86 C99.98,624.71 110.8215,640.2548 128.0315,658.1548 " fill="none" id="Documento-to-Lista" style="stroke:#181818;stroke-width:1;"/><polygon fill="#181818" points="132.19,662.48,128.8358,653.2199,128.7246,658.8757,123.0689,658.7645,132.19,662.48" style="stroke:#181818;stroke-width:1;"/></g><!--link Documento to Pila--><g id="link_Documento_Pila"><path codeLine="72" d="M502.17,339.31 C573.45,355.03 663.35,388.05 709,457.08 C815.08,617.49 702.3722,848.7782 634.7822,961.1682 " fill="none" id="Documento-to-Pila" style="stroke:#181818;stroke-width:1;"/><polygon fill="#181818" points="631.69,966.31,639.7562,960.6588,634.2669,962.0252,632.9005,956.5358,631.69,966.31" style="stroke:#181818;stroke-width:1;"/></g><!--link Documento to Interfaz--><g id="link_Documento_Interfaz"><path codeLine="73" d="M399,397.32 C399,416.56 399,431.34 399,450.59 " fill="none" id="Documento-to-Interfaz" style="stroke:#181818;stroke-width:1;"/><polygon fill="#181818" points="399,456.59,403,447.59,399,451.59,395,447.59,399,456.59" style="stroke:#181818;stroke-width:1;"/></g><!--link Interfaz to Lista--><g id="link_Interfaz_Lista"><path codeLine="74" d="M379.89,603.04 C374.94,621.71 371.0086,636.5306 365.5886,656.9606 " fill="none" id="Interfaz-to-Lista" style="stroke:#181818;stroke-width:1;"/><polygon fill="#181818" points="364.05,662.76,370.2241,655.0866,365.3321,657.9272,362.4916,653.0352,364.05,662.76" style="stroke:#181818;stroke-width:1;"/></g><!--link Interfaz to Pila--><g id="link_Interfaz_Pila"><path codeLine="75" d="M557.75,603.33 C579.09,619.84 598.05,639.56 611,662.86 C663.81,757.92 638.86,883.257 615.04,960.407 " fill="none" id="Interfaz-to-Pila" style="stroke:#181818;stroke-width:1;"/><polygon fill="#181818" points="613.27,966.14,619.7471,958.7206,614.745,961.3625,612.1031,956.3605,613.27,966.14" style="stroke:#181818;stroke-width:1;"/></g><!--link Lista to Nodo--><g id="link_Lista_Nodo"><path codeLine="76" d="M316.14,906.83 C313.06,930.37 310.7465,948.0105 308.1165,968.1605 " fill="none" id="Lista-to-Nodo" style="stroke:#181818;stroke-width:1;"/><polygon fill="#181818" points="307.34,974.11,312.4712,965.7034,307.9871,969.1521,304.5385,964.668,307.34,974.11" style="stroke:#181818;stroke-width:1;"/></g><!--link Lista to Pila--><g id="link_Lista_Pila"><path codeLine="77" d="M459.87,906.83 C481.53,927.37 498.885,943.8128 518.195,962.1128 " fill="none" id="Lista-to-Pila" style="stroke:#181818;stroke-width:1;"/><polygon fill="#181818" points="522.55,966.24,518.769,957.1458,518.9208,962.8007,513.266,962.9525,522.55,966.24" style="stroke:#181818;stroke-width:1;"/></g><!--link NodoVersion to Version--><g id="link_NodoVersion_Version"><path codeLine="78" d="M432,1269.26 C432,1288.08 432,1303.23 432,1322.65 " fill="none" id="NodoVersion-to-Version" style="stroke:#181818;stroke-width:1;"/><polygon fill="#181818" points="432,1328.65,436,1319.65,432,1323.65,428,1319.65,432,1328.65" style="stroke:#181818;stroke-width:1;"/></g><!--link Pila to NodoVersion--><g id="link_Pila_NodoVersion"><path codeLine="79" d="M533.4,1096.4 C516.4,1115.7 501.8548,1132.2066 485.3648,1150.9366 " fill="none" id="Pila-to-NodoVersion" style="stroke:#181818;stroke-width:1;"/><polygon fill="#181818" points="481.4,1155.44,490.3494,1151.3281,484.704,1151.6872,484.3449,1146.0417,481.4,1155.44" style="stroke:#181818;stroke-width:1;"/></g><!--link Nodo to NodoVersion--><g id="link_Nodo_NodoVersion"><path codeLine="80" d="M341.04,1087.93 C356.86,1109.42 371.3633,1129.1179 387.2033,1150.6379 " fill="none" id="Nodo-to-NodoVersion" style="stroke:#181818;stroke-width:1;"/><polygon fill="#181818" points="390.76,1155.47,388.6463,1145.8506,387.796,1151.4432,382.2035,1150.593,390.76,1155.47" style="stroke:#181818;stroke-width:1;"/></g><!--SRC=[hLLBQnin4BxdLuYSrjWEQGyz-508QGy1fmHIUYcboDhfTXglj8paK5Botol9sjNionZQFHZlFBxlcuTMZLHFiW9n2TeHLD9UxKq3B_UI7Eeh0cU-Nr-_knH_BeH_ue_QIsl5ntAFEfd3iwmbwa9IPJVYqH7gwkktHVI-3bC_67MeFPzXwMkF1j9-Xj_ERCGMhPFPzmnaqMYmDze1eI7m90-udmfvC7Ok1aFs3_co4NVfNrRVQIeMsGY_G1sSf6Aca1Rct3eQGqusie4zT5twtrKkMr75MCbAp78mrmYRTQJsFfflI6JXtMW8Qo3F_ycKPj2a6-NmMGvSomZ1X-0XjEC69UiTIjfcZ48V0akqR8GFvpCiqQNWGXbVjSRIjCrdSN4vEBGjK9UeOFicGgv4UdqxP30x3mezFOjXLJj3r9VC04gmFwK2kWtinXR_EgJ6dsCgffQD1H5CSuw0JopDp1Q4qlaIMAmEwCyM3BiItbANXqsjm3ssQUDsMkuTmC-82dgvA8Lrshqln_8oUWZbyv6DDn0NkXAdLYajnArdQAMFE0WCbQ1bYfflPCeyqSyHDZEUB_fKInFOkCJHYBYMKJaJfQGprHrSDf-XrapUhoqddpMLkvWKz7AwRcOjG0XWlAoMuyMtNh_FzrYqvrij-FANls_lljLzS-z2wgwLFb3FtE4SFxd1r1sHREgY-2O51vzJF1aj07V4Sppbk7Zz2m00]--></g></svg>