<?xml version="1.0" encoding="us-ascii" standalone="no"?><svg xmlns="http://www.w3.org/2000/svg" xmlns:xlink="http://www.w3.org/1999/xlink" contentStyleType="text/css" height="508px" preserveAspectRatio="none" style="width:209px;height:508px;background:#FFFFFF;" version="1.1" viewBox="0 0 209 508" width="209px" zoomAndPan="magnify"><defs/><g><!--entity N2--><g id="elem_N2"><polygon fill="#F1F1F1" points="57,16,67,6,105,6,105,45.0679,95,55.0679,57,55.0679,57,16" style="stroke:#181818;stroke-width:0.5;"/><line style="stroke:#181818;stroke-width:0.5;" x1="95" x2="105" y1="16" y2="6"/><line style="stroke:#181818;stroke-width:0.5;" x1="57" x2="95" y1="16" y2="16"/><line style="stroke:#181818;stroke-width:0.5;" x1="95" x2="95" y1="16" y2="55.0679"/><text fill="#000000" font-family="sans-serif" font-size="14" lengthAdjust="spacing" textLength="8" x="72" y="40.9659">2</text></g><!--entity N1--><g id="elem_N1"><polygon fill="#F1F1F1" points="16,125,26,115,64,115,64,154.0679,54,164.0679,16,164.0679,16,125" style="stroke:#181818;stroke-width:0.5;"/><line style="stroke:#181818;stroke-width:0.5;" x1="54" x2="64" y1="125" y2="115"/><line style="stroke:#181818;stroke-width:0.5;" x1="16" x2="54" y1="125" y2="125"/><line style="stroke:#181818;stroke-width:0.5;" x1="54" x2="54" y1="125" y2="164.0679"/><text fill="#000000" font-family="sans-serif" font-size="14" lengthAdjust="spacing" textLength="8" x="31" y="149.9659">1</text></g><!--entity N5--><g id="elem_N5"><polygon fill="#F1F1F1" points="57,234,67,224,105,224,105,263.0679,95,273.0679,57,273.0679,57,234" style="stroke:#181818;stroke-width:0.5;"/><line style="stroke:#181818;stroke-width:0.5;" x1="95" x2="105" y1="234" y2="224"/><line style="stroke:#181818;stroke-width:0.5;" x1="57" x2="95" y1="234" y2="234"/><line style="stroke:#181818;stroke-width:0.5;" x1="95" x2="95" y1="234" y2="273.0679"/><text fill="#000000" font-family="sans-serif" font-size="14" lengthAdjust="spacing" textLength="8" x="72" y="258.9659">5</text></g><!--entity N7--><g id="elem_N7"><polygon fill="#F1F1F1" points="140,234,150,224,188,224,188,263.0679,178,273.0679,140,273.0679,140,234" style="stroke:#181818;stroke-width:0.5;"/><line style="stroke:#181818;stroke-width:0.5;" x1="178" x2="188" y1="234" y2="224"/><line style="stroke:#181818;stroke-width:0.5;" x1="140" x2="178" y1="234" y2="234"/><line style="stroke:#181818;stroke-width:0.5;" x1="178" x2="178" y1="234" y2="273.0679"/><text fill="#000000" font-family="sans-serif" font-size="14" lengthAdjust="spacing" textLength="8" x="155" y="258.9659">7</text></g><!--entity N6--><g id="elem_N6"><polygon fill="#F1F1F1" points="99,125,109,115,147,115,147,154.0679,137,164.0679,99,164.0679,99,125" style="stroke:#181818;stroke-width:0.5;"/><line style="stroke:#181818;stroke-width:0.5;" x1="137" x2="147" y1="125" y2="115"/><line style="stroke:#181818;stroke-width:0.5;" x1="99" x2="137" y1="125" y2="125"/><line style="stroke:#181818;stroke-width:0.5;" x1="137" x2="137" y1="125" y2="164.0679"/><text fill="#000000" font-family="sans-serif" font-size="14" lengthAdjust="spacing" textLength="8" x="114" y="149.9659">6</text></g><!--entity N3--><g id="elem_N3"><polygon fill="#F1F1F1" points="57,343,67,333,105,333,105,372.0679,95,382.0679,57,382.0679,57,343" style="stroke:#181818;stroke-width:0.5;"/><line style="stroke:#181818;stroke-width:0.5;" x1="95" x2="105" y1="343" y2="333"/><line style="stroke:#181818;stroke-width:0.5;" x1="57" x2="95" y1="343" y2="343"/><line style="stroke:#181818;stroke-width:0.5;" x1="95" x2="95" y1="343" y2="382.0679"/><text fill="#000000" font-family="sans-serif" font-size="14" lengthAdjust="spacing" textLength="8" x="72" y="367.9659">3</text></g><!--entity N9--><g id="elem_N9"><polygon fill="#F1F1F1" points="140,343,150,333,188,333,188,372.0679,178,382.0679,140,382.0679,140,343" style="stroke:#181818;stroke-width:0.5;"/><line style="stroke:#181818;stroke-width:0.5;" x1="178" x2="188" y1="343" y2="333"/><line style="stroke:#181818;stroke-width:0.5;" x1="140" x2="178" y1="343" y2="343"/><line style="stroke:#181818;stroke-width:0.5;" x1="178" x2="178" y1="343" y2="382.0679"/><text fill="#000000" font-family="sans-serif" font-size="14" lengthAdjust="spacing" textLength="8" x="155" y="367.9659">9</text></g><!--entity N10--><g id="elem_N10"><polygon fill="#F1F1F1" points="136,452,146,442,192,442,192,481.0679,182,491.0679,136,491.0679,136,452" style="stroke:#181818;stroke-width:0.5;"/><line style="stroke:#181818;stroke-width:0.5;" x1="182" x2="192" y1="452" y2="442"/><line style="stroke:#181818;stroke-width:0.5;" x1="136" x2="182" y1="452" y2="452"/><line style="stroke:#181818;stroke-width:0.5;" x1="182" x2="182" y1="452" y2="491.0679"/><text fill="#000000" font-family="sans-serif" font-size="14" lengthAdjust="spacing" textLength="16" x="151" y="476.9659">10</text></g><!--link N2 to N6--><g id="link_N2_N6"><path d="M90.32,55.25 C97.28,72.98 106.75,97.1 113.7,114.82 " fill="none" id="N2-N6" style="stroke:#181818;stroke-width:1.0;"/></g><!--link N2 to N1--><g id="link_N2_N1"><path d="M71.9,55.25 C65.11,72.98 55.86,97.1 49.07,114.82 " fill="none" id="N2-N1" style="stroke:#181818;stroke-width:1.0;"/></g><!--link N6 to N5--><g id="link_N6_N5"><path d="M113.68,164.25 C106.72,181.98 97.25,206.1 90.3,223.82 " fill="none" id="N6-N5" style="stroke:#181818;stroke-width:1.0;"/></g><!--link N6 to N7--><g id="link_N6_N7"><path d="M132.1,164.25 C138.89,181.98 148.14,206.1 154.93,223.82 " fill="none" id="N6-N7" style="stroke:#181818;stroke-width:1.0;"/></g><!--link N5 to N3--><g id="link_N5_N3"><path d="M81,273.25 C81,290.98 81,315.1 81,332.82 " fill="none" id="N5-N3" style="stroke:#181818;stroke-width:1.0;"/></g><!--link N7 to N9--><g id="link_N7_N9"><path d="M164,273.25 C164,290.98 164,315.1 164,332.82 " fill="none" id="N7-N9" style="stroke:#181818;stroke-width:1.0;"/></g><!--link N9 to N10--><g id="link_N9_N10"><path d="M164,382.25 C164,399.98 164,424.1 164,441.82 " fill="none" id="N9-N10" style="stroke:#181818;stroke-width:1.0;"/></g><!--SRC=[JSuz2e0m50FWlQS8xeN-q9PUujr1q5K7xmzgKoLZlY4901pdjcD92zOBbXn-YgGeL4W5OetMX2gf2cLI5kgahfDXRWOtr1Ay_ufcu1-h8nGDlF2yUmENh8t03Uii2Eu6]--></g></svg>