<?xml version="1.0" encoding="us-ascii" standalone="no"?><svg xmlns="http://www.w3.org/2000/svg" xmlns:xlink="http://www.w3.org/1999/xlink" contentStyleType="text/css" height="508px" preserveAspectRatio="none" style="width:209px;height:508px;background:#FFFFFF;" version="1.1" viewBox="0 0 209 508" width="209px" zoomAndPan="magnify"><defs/><g><!--entity I1--><g id="elem_I1"><polygon fill="#F1F1F1" points="102,16,112,6,150,6,150,45.0679,140,55.0679,102,55.0679,102,16" style="stroke:#181818;stroke-width:0.5;"/><line style="stroke:#181818;stroke-width:0.5;" x1="140" x2="150" y1="16" y2="6"/><line style="stroke:#181818;stroke-width:0.5;" x1="102" x2="140" y1="16" y2="16"/><line style="stroke:#181818;stroke-width:0.5;" x1="140" x2="140" y1="16" y2="55.0679"/><text fill="#000000" font-family="sans-serif" font-size="14" lengthAdjust="spacing" textLength="8" x="117" y="40.9659">2</text></g><!--entity I5--><g id="elem_I5"><polygon fill="#F1F1F1" points="20,234,30,224,68,224,68,263.0679,58,273.0679,20,273.0679,20,234" style="stroke:#181818;stroke-width:0.5;"/><line style="stroke:#181818;stroke-width:0.5;" x1="58" x2="68" y1="234" y2="224"/><line style="stroke:#181818;stroke-width:0.5;" x1="20" x2="58" y1="234" y2="234"/><line style="stroke:#181818;stroke-width:0.5;" x1="58" x2="58" y1="234" y2="273.0679"/><text fill="#000000" font-family="sans-serif" font-size="14" lengthAdjust="spacing" textLength="8" x="35" y="258.9659">7</text></g><!--entity I2--><g id="elem_I2"><polygon fill="#F1F1F1" points="61,125,71,115,109,115,109,154.0679,99,164.0679,61,164.0679,61,125" style="stroke:#181818;stroke-width:0.5;"/><line style="stroke:#181818;stroke-width:0.5;" x1="99" x2="109" y1="125" y2="115"/><line style="stroke:#181818;stroke-width:0.5;" x1="61" x2="99" y1="125" y2="125"/><line style="stroke:#181818;stroke-width:0.5;" x1="99" x2="99" y1="125" y2="164.0679"/><text fill="#000000" font-family="sans-serif" font-size="14" lengthAdjust="spacing" textLength="8" x="76" y="149.9659">6</text></g><!--entity I4--><g id="elem_I4"><polygon fill="#F1F1F1" points="103,234,113,224,151,224,151,263.0679,141,273.0679,103,273.0679,103,234" style="stroke:#181818;stroke-width:0.5;"/><line style="stroke:#181818;stroke-width:0.5;" x1="141" x2="151" y1="234" y2="224"/><line style="stroke:#181818;stroke-width:0.5;" x1="103" x2="141" y1="234" y2="234"/><line style="stroke:#181818;stroke-width:0.5;" x1="141" x2="141" y1="234" y2="273.0679"/><text fill="#000000" font-family="sans-serif" font-size="14" lengthAdjust="spacing" textLength="8" x="118" y="258.9659">5</text></g><!--entity I6--><g id="elem_I6"><polygon fill="#F1F1F1" points="103,343,113,333,151,333,151,372.0679,141,382.0679,103,382.0679,103,343" style="stroke:#181818;stroke-width:0.5;"/><line style="stroke:#181818;stroke-width:0.5;" x1="141" x2="151" y1="343" y2="333"/><line style="stroke:#181818;stroke-width:0.5;" x1="103" x2="141" y1="343" y2="343"/><line style="stroke:#181818;stroke-width:0.5;" x1="141" x2="141" y1="343" y2="382.0679"/><text fill="#000000" font-family="sans-serif" font-size="14" lengthAdjust="spacing" textLength="8" x="118" y="367.9659">3</text></g><!--entity I3--><g id="elem_I3"><polygon fill="#F1F1F1" points="144,125,154,115,192,115,192,154.0679,182,164.0679,144,164.0679,144,125" style="stroke:#181818;stroke-width:0.5;"/><line style="stroke:#181818;stroke-width:0.5;" x1="182" x2="192" y1="125" y2="115"/><line style="stroke:#181818;stroke-width:0.5;" x1="144" x2="182" y1="125" y2="125"/><line style="stroke:#181818;stroke-width:0.5;" x1="182" x2="182" y1="125" y2="164.0679"/><text fill="#000000" font-family="sans-serif" font-size="14" lengthAdjust="spacing" textLength="8" x="159" y="149.9659">1</text></g><!--entity I7--><g id="elem_I7"><polygon fill="#F1F1F1" points="20,343,30,333,68,333,68,372.0679,58,382.0679,20,382.0679,20,343" style="stroke:#181818;stroke-width:0.5;"/><line style="stroke:#181818;stroke-width:0.5;" x1="58" x2="68" y1="343" y2="333"/><line style="stroke:#181818;stroke-width:0.5;" x1="20" x2="58" y1="343" y2="343"/><line style="stroke:#181818;stroke-width:0.5;" x1="58" x2="58" y1="343" y2="382.0679"/><text fill="#000000" font-family="sans-serif" font-size="14" lengthAdjust="spacing" textLength="8" x="35" y="367.9659">9</text></g><!--entity I8--><g id="elem_I8"><polygon fill="#F1F1F1" points="16,452,26,442,72,442,72,481.0679,62,491.0679,16,491.0679,16,452" style="stroke:#181818;stroke-width:0.5;"/><line style="stroke:#181818;stroke-width:0.5;" x1="62" x2="72" y1="452" y2="442"/><line style="stroke:#181818;stroke-width:0.5;" x1="16" x2="62" y1="452" y2="452"/><line style="stroke:#181818;stroke-width:0.5;" x1="62" x2="62" y1="452" y2="491.0679"/><text fill="#000000" font-family="sans-serif" font-size="14" lengthAdjust="spacing" textLength="16" x="31" y="476.9659">10</text></g><!--link I1 to I3--><g id="link_I1_I3"><path d="M135.32,55.25 C142.28,72.98 151.75,97.1 158.7,114.82 " fill="none" id="I1-I3" style="stroke:#181818;stroke-width:1.0;"/></g><!--link I1 to I2--><g id="link_I1_I2"><path d="M116.9,55.25 C110.11,72.98 100.86,97.1 94.07,114.82 " fill="none" id="I1-I2" style="stroke:#181818;stroke-width:1.0;"/></g><!--link I2 to I4--><g id="link_I2_I4"><path d="M94.32,164.25 C101.28,181.98 110.75,206.1 117.7,223.82 " fill="none" id="I2-I4" style="stroke:#181818;stroke-width:1.0;"/></g><!--link I2 to I5--><g id="link_I2_I5"><path d="M75.9,164.25 C69.11,181.98 59.86,206.1 53.07,223.82 " fill="none" id="I2-I5" style="stroke:#181818;stroke-width:1.0;"/></g><!--link I4 to I6--><g id="link_I4_I6"><path d="M127,273.25 C127,290.98 127,315.1 127,332.82 " fill="none" id="I4-I6" style="stroke:#181818;stroke-width:1.0;"/></g><!--link I5 to I7--><g id="link_I5_I7"><path d="M44,273.25 C44,290.98 44,315.1 44,332.82 " fill="none" id="I5-I7" style="stroke:#181818;stroke-width:1.0;"/></g><!--link I7 to I8--><g id="link_I7_I8"><path d="M44,382.25 C44,399.98 44,424.1 44,441.82 " fill="none" id="I7-I8" style="stroke:#181818;stroke-width:1.0;"/></g><!--SRC=[JSux2e0m48JXFgSOqWVCOvDuX3s6eAqMtX-47PKj_uyi4m0uh_r0B17R3Sq1FmsIEEgauaX8pL4bTKUPL1sjfE5VBRGP33KZfU_e3KvhiMW- -4zj5jnMiU243eiP7W00]--></g></svg>