<?xml version="1.0" encoding="us-ascii" standalone="no"?><svg xmlns="http://www.w3.org/2000/svg" xmlns:xlink="http://www.w3.org/1999/xlink" contentStyleType="text/css" height="862px" preserveAspectRatio="none" style="width:520px;height:862px;background:#FFFFFF;" version="1.1" viewBox="0 0 520 862" width="520px" zoomAndPan="magnify"><defs/><g><!--class Repositorio--><g id="elem_Repositorio"><rect codeLine="19" fill="#F1F1F1" height="100.8281" id="Repositorio" rx="2.5" ry="2.5" style="stroke:#181818;stroke-width:0.5;" width="154" x="170.4" y="7"/><ellipse cx="207.9" cy="23" fill="#ADD1B2" rx="11" ry="11" style="stroke:#181818;stroke-width:1.0;"/><path d="M210.6656,18.875 Q210.8219,18.6563 211.0094,18.5469 Q211.1969,18.4375 211.4156,18.4375 Q211.7906,18.4375 212.025,18.7031 Q212.2594,18.9531 212.2594,19.5625 L212.2594,21.0156 Q212.2594,21.625 212.025,21.8906 Q211.7906,22.1563 211.4156,22.1563 Q211.0719,22.1563 210.8688,21.9531 Q210.6656,21.7656 210.5563,21.25 Q210.5094,20.8906 210.3219,20.7031 Q209.9938,20.3281 209.3844,20.1094 Q208.775,19.8906 208.15,19.8906 Q207.3844,19.8906 206.7438,20.2188 Q206.1188,20.5469 205.6188,21.2969 Q205.1344,22.0469 205.1344,23.0781 L205.1344,24.1719 Q205.1344,25.4063 206.025,26.2344 Q206.9156,27.0469 208.5094,27.0469 Q209.4469,27.0469 210.1031,26.7969 Q210.4938,26.6406 210.9156,26.2031 Q211.1813,25.9375 211.3219,25.8594 Q211.4781,25.7813 211.6813,25.7813 Q212.0094,25.7813 212.2594,26.0469 Q212.525,26.2969 212.525,26.6406 Q212.525,26.9844 212.1813,27.3906 Q211.6813,27.9688 210.8844,28.2969 Q209.8063,28.75 208.5094,28.75 Q206.9938,28.75 205.7906,28.125 Q204.8063,27.625 204.1188,26.5625 Q203.4313,25.4844 203.4313,24.2031 L203.4313,23.0469 Q203.4313,21.7188 204.0406,20.5781 Q204.6656,19.4219 205.7594,18.8125 Q206.8531,18.1875 208.0875,18.1875 Q208.8219,18.1875 209.4625,18.3594 Q210.1188,18.5156 210.6656,18.875 Z " fill="#000000"/><text fill="#000000" font-family="sans-serif" font-size="14" lengthAdjust="spacing" textLength="72" x="226.9" y="28.7285">Repositorio</text><line style="stroke:#181818;stroke-width:0.5;" x1="171.4" x2="323.4" y1="39" y2="39"/><ellipse cx="181.4" cy="53.3047" fill="none" rx="3" ry="3" style="stroke:#038048;stroke-width:1.0;"/><text fill="#000000" font-family="sans-serif" font-size="14" lengthAdjust="spacing" textLength="98" x="190.4" y="57.5332">Nombre : String</text><ellipse cx="181.4" cy="70.9141" fill="none" rx="3" ry="3" style="stroke:#038048;stroke-width:1.0;"/><text fill="#000000" font-family="sans-serif" font-size="14" lengthAdjust="spacing" textLength="119" x="190.4" y="75.1426">Descripci&#243;n: String</text><ellipse cx="181.4" cy="88.5234" fill="none" rx="3" ry="3" style="stroke:#038048;stroke-width:1.0;"/><text fill="#000000" font-family="sans-serif" font-size="14" lengthAdjust="spacing" textLength="128" x="190.4" y="92.752">Acceso: TipoAcceso</text><line style="stroke:#181818;stroke-width:0.5;" x1="171.4" x2="323.4" y1="99.8281" y2="99.8281"/></g><!--class Usuario--><g id="elem_Usuario"><rect codeLine="34" fill="#F1F1F1" height="83.2188" id="Usuario" rx="2.5" ry="2.5" style="stroke:#181818;stroke-width:0.5;" width="120" x="130.4" y="503"/><ellipse cx="163.4" cy="519" fill="#ADD1B2" rx="11" ry="11" style="stroke:#181818;stroke-width:1.0;"/><path d="M166.1656,514.875 Q166.3219,514.6563 166.5094,514.5469 Q166.6969,514.4375 166.9156,514.4375 Q167.2906,514.4375 167.525,514.7031 Q167.7594,514.9531 167.7594,515.5625 L167.7594,517.0156 Q167.7594,517.625 167.525,517.8906 Q167.2906,518.1563 166.9156,518.1563 Q166.5719,518.1563 166.3688,517.9531 Q166.1656,517.7656 166.0563,517.25 Q166.0094,516.8906 165.8219,516.7031 Q165.4938,516.3281 164.8844,516.1094 Q164.275,515.8906 163.65,515.8906 Q162.8844,515.8906 162.2438,516.2188 Q161.6188,516.5469 161.1188,517.2969 Q160.6344,518.0469 160.6344,519.0781 L160.6344,520.1719 Q160.6344,521.4063 161.525,522.2344 Q162.4156,523.0469 164.0094,523.0469 Q164.9469,523.0469 165.6031,522.7969 Q165.9938,522.6406 166.4156,522.2031 Q166.6813,521.9375 166.8219,521.8594 Q166.9781,521.7813 167.1813,521.7813 Q167.5094,521.7813 167.7594,522.0469 Q168.025,522.2969 168.025,522.6406 Q168.025,522.9844 167.6813,523.3906 Q167.1813,523.9688 166.3844,524.2969 Q165.3063,524.75 164.0094,524.75 Q162.4938,524.75 161.2906,524.125 Q160.3063,523.625 159.6188,522.5625 Q158.9313,521.4844 158.9313,520.2031 L158.9313,519.0469 Q158.9313,517.7188 159.5406,516.5781 Q160.1656,515.4219 161.2594,514.8125 Q162.3531,514.1875 163.5875,514.1875 Q164.3219,514.1875 164.9625,514.3594 Q165.6188,514.5156 166.1656,514.875 Z " fill="#000000"/><text fill="#000000" font-family="sans-serif" font-size="14" lengthAdjust="spacing" textLength="48" x="181.4" y="524.7285">Usuario</text><line style="stroke:#181818;stroke-width:0.5;" x1="131.4" x2="249.4" y1="535" y2="535"/><ellipse cx="141.4" cy="549.3047" fill="none" rx="3" ry="3" style="stroke:#038048;stroke-width:1.0;"/><text fill="#000000" font-family="sans-serif" font-size="14" lengthAdjust="spacing" textLength="94" x="150.4" y="553.5332">Nombre: String</text><ellipse cx="141.4" cy="566.9141" fill="none" rx="3" ry="3" style="stroke:#038048;stroke-width:1.0;"/><text fill="#000000" font-family="sans-serif" font-size="14" lengthAdjust="spacing" textLength="89" x="150.4" y="571.1426">Correo: String</text><line style="stroke:#181818;stroke-width:0.5;" x1="131.4" x2="249.4" y1="578.2188" y2="578.2188"/></g><!--class Rama--><g id="elem_Rama"><rect codeLine="44" fill="#F1F1F1" height="48" id="Rama" rx="2.5" ry="2.5" style="stroke:#181818;stroke-width:0.5;" width="69" x="444.9" y="186"/><ellipse cx="459.9" cy="202" fill="#ADD1B2" rx="11" ry="11" style="stroke:#181818;stroke-width:1.0;"/><path d="M462.6656,197.875 Q462.8219,197.6563 463.0094,197.5469 Q463.1969,197.4375 463.4156,197.4375 Q463.7906,197.4375 464.025,197.7031 Q464.2594,197.9531 464.2594,198.5625 L464.2594,200.0156 Q464.2594,200.625 464.025,200.8906 Q463.7906,201.1563 463.4156,201.1563 Q463.0719,201.1563 462.8688,200.9531 Q462.6656,200.7656 462.5563,200.25 Q462.5094,199.8906 462.3219,199.7031 Q461.9938,199.3281 461.3844,199.1094 Q460.775,198.8906 460.15,198.8906 Q459.3844,198.8906 458.7438,199.2188 Q458.1188,199.5469 457.6188,200.2969 Q457.1344,201.0469 457.1344,202.0781 L457.1344,203.1719 Q457.1344,204.4063 458.025,205.2344 Q458.9156,206.0469 460.5094,206.0469 Q461.4469,206.0469 462.1031,205.7969 Q462.4938,205.6406 462.9156,205.2031 Q463.1813,204.9375 463.3219,204.8594 Q463.4781,204.7813 463.6813,204.7813 Q464.0094,204.7813 464.2594,205.0469 Q464.525,205.2969 464.525,205.6406 Q464.525,205.9844 464.1813,206.3906 Q463.6813,206.9688 462.8844,207.2969 Q461.8063,207.75 460.5094,207.75 Q458.9938,207.75 457.7906,207.125 Q456.8063,206.625 456.1188,205.5625 Q455.4313,204.4844 455.4313,203.2031 L455.4313,202.0469 Q455.4313,200.7188 456.0406,199.5781 Q456.6656,198.4219 457.7594,197.8125 Q458.8531,197.1875 460.0875,197.1875 Q460.8219,197.1875 461.4625,197.3594 Q462.1188,197.5156 462.6656,197.875 Z " fill="#000000"/><text fill="#000000" font-family="sans-serif" font-size="14" lengthAdjust="spacing" textLength="37" x="473.9" y="207.7285">Rama</text><line style="stroke:#181818;stroke-width:0.5;" x1="445.9" x2="512.9" y1="218" y2="218"/><line style="stroke:#181818;stroke-width:0.5;" x1="445.9" x2="512.9" y1="226" y2="226"/></g><!--class RepositorioRemoto--><g id="elem_RepositorioRemoto"><rect codeLine="45" fill="#F1F1F1" height="48" id="RepositorioRemoto" rx="2.5" ry="2.5" style="stroke:#181818;stroke-width:0.5;" width="153" x="256.9" y="186"/><ellipse cx="271.9" cy="202" fill="#ADD1B2" rx="11" ry="11" style="stroke:#181818;stroke-width:1.0;"/><path d="M274.6656,197.875 Q274.8219,197.6563 275.0094,197.5469 Q275.1969,197.4375 275.4156,197.4375 Q275.7906,197.4375 276.025,197.7031 Q276.2594,197.9531 276.2594,198.5625 L276.2594,200.0156 Q276.2594,200.625 276.025,200.8906 Q275.7906,201.1563 275.4156,201.1563 Q275.0719,201.1563 274.8688,200.9531 Q274.6656,200.7656 274.5563,200.25 Q274.5094,199.8906 274.3219,199.7031 Q273.9938,199.3281 273.3844,199.1094 Q272.775,198.8906 272.15,198.8906 Q271.3844,198.8906 270.7438,199.2188 Q270.1188,199.5469 269.6188,200.2969 Q269.1344,201.0469 269.1344,202.0781 L269.1344,203.1719 Q269.1344,204.4063 270.025,205.2344 Q270.9156,206.0469 272.5094,206.0469 Q273.4469,206.0469 274.1031,205.7969 Q274.4938,205.6406 274.9156,205.2031 Q275.1813,204.9375 275.3219,204.8594 Q275.4781,204.7813 275.6813,204.7813 Q276.0094,204.7813 276.2594,205.0469 Q276.525,205.2969 276.525,205.6406 Q276.525,205.9844 276.1813,206.3906 Q275.6813,206.9688 274.8844,207.2969 Q273.8063,207.75 272.5094,207.75 Q270.9938,207.75 269.7906,207.125 Q268.8063,206.625 268.1188,205.5625 Q267.4313,204.4844 267.4313,203.2031 L267.4313,202.0469 Q267.4313,200.7188 268.0406,199.5781 Q268.6656,198.4219 269.7594,197.8125 Q270.8531,197.1875 272.0875,197.1875 Q272.8219,197.1875 273.4625,197.3594 Q274.1188,197.5156 274.6656,197.875 Z " fill="#000000"/><text fill="#000000" font-family="sans-serif" font-size="14" lengthAdjust="spacing" textLength="121" x="285.9" y="207.7285">RepositorioRemoto</text><line style="stroke:#181818;stroke-width:0.5;" x1="257.9" x2="408.9" y1="218" y2="218"/><line style="stroke:#181818;stroke-width:0.5;" x1="257.9" x2="408.9" y1="226" y2="226"/></g><!--class Incidencia--><g id="elem_Incidencia"><rect codeLine="39" fill="#F1F1F1" height="83.2188" id="Incidencia" rx="2.5" ry="2.5" style="stroke:#181818;stroke-width:0.5;" width="185" x="110.9" y="264"/><ellipse cx="167.65" cy="280" fill="#ADD1B2" rx="11" ry="11" style="stroke:#181818;stroke-width:1.0;"/><path d="M170.4156,275.875 Q170.5719,275.6563 170.7594,275.5469 Q170.9469,275.4375 171.1656,275.4375 Q171.5406,275.4375 171.775,275.7031 Q172.0094,275.9531 172.0094,276.5625 L172.0094,278.0156 Q172.0094,278.625 171.775,278.8906 Q171.5406,279.1563 171.1656,279.1563 Q170.8219,279.1563 170.6188,278.9531 Q170.4156,278.7656 170.3063,278.25 Q170.2594,277.8906 170.0719,277.7031 Q169.7438,277.3281 169.1344,277.1094 Q168.525,276.8906 167.9,276.8906 Q167.1344,276.8906 166.4938,277.2188 Q165.8688,277.5469 165.3688,278.2969 Q164.8844,279.0469 164.8844,280.0781 L164.8844,281.1719 Q164.8844,282.4063 165.775,283.2344 Q166.6656,284.0469 168.2594,284.0469 Q169.1969,284.0469 169.8531,283.7969 Q170.2438,283.6406 170.6656,283.2031 Q170.9313,282.9375 171.0719,282.8594 Q171.2281,282.7813 171.4313,282.7813 Q171.7594,282.7813 172.0094,283.0469 Q172.275,283.2969 172.275,283.6406 Q172.275,283.9844 171.9313,284.3906 Q171.4313,284.9688 170.6344,285.2969 Q169.5563,285.75 168.2594,285.75 Q166.7438,285.75 165.5406,285.125 Q164.5563,284.625 163.8688,283.5625 Q163.1813,282.4844 163.1813,281.2031 L163.1813,280.0469 Q163.1813,278.7188 163.7906,277.5781 Q164.4156,276.4219 165.5094,275.8125 Q166.6031,275.1875 167.8375,275.1875 Q168.5719,275.1875 169.2125,275.3594 Q169.8688,275.5156 170.4156,275.875 Z " fill="#000000"/><text fill="#000000" font-family="sans-serif" font-size="14" lengthAdjust="spacing" textLength="63" x="188.15" y="285.7285">Incidencia</text><line style="stroke:#181818;stroke-width:0.5;" x1="111.9" x2="294.9" y1="296" y2="296"/><ellipse cx="121.9" cy="310.3047" fill="none" rx="3" ry="3" style="stroke:#038048;stroke-width:1.0;"/><text fill="#000000" font-family="sans-serif" font-size="14" lengthAdjust="spacing" textLength="119" x="130.9" y="314.5332">Descripci&#243;n: String</text><ellipse cx="121.9" cy="327.9141" fill="none" rx="3" ry="3" style="stroke:#038048;stroke-width:1.0;"/><text fill="#000000" font-family="sans-serif" font-size="14" lengthAdjust="spacing" textLength="159" x="130.9" y="332.1426">Estado: EstadoIncidencia</text><line style="stroke:#181818;stroke-width:0.5;" x1="111.9" x2="294.9" y1="339.2188" y2="339.2188"/></g><!--class Commit--><g id="elem_Commit"><rect codeLine="29" fill="#F1F1F1" height="83.2188" id="Commit" rx="2.5" ry="2.5" style="stroke:#181818;stroke-width:0.5;" width="175" x="338.9" y="503"/><ellipse cx="398.65" cy="519" fill="#ADD1B2" rx="11" ry="11" style="stroke:#181818;stroke-width:1.0;"/><path d="M401.4156,514.875 Q401.5719,514.6563 401.7594,514.5469 Q401.9469,514.4375 402.1656,514.4375 Q402.5406,514.4375 402.775,514.7031 Q403.0094,514.9531 403.0094,515.5625 L403.0094,517.0156 Q403.0094,517.625 402.775,517.8906 Q402.5406,518.1563 402.1656,518.1563 Q401.8219,518.1563 401.6188,517.9531 Q401.4156,517.7656 401.3063,517.25 Q401.2594,516.8906 401.0719,516.7031 Q400.7438,516.3281 400.1344,516.1094 Q399.525,515.8906 398.9,515.8906 Q398.1344,515.8906 397.4938,516.2188 Q396.8688,516.5469 396.3688,517.2969 Q395.8844,518.0469 395.8844,519.0781 L395.8844,520.1719 Q395.8844,521.4063 396.775,522.2344 Q397.6656,523.0469 399.2594,523.0469 Q400.1969,523.0469 400.8531,522.7969 Q401.2438,522.6406 401.6656,522.2031 Q401.9313,521.9375 402.0719,521.8594 Q402.2281,521.7813 402.4313,521.7813 Q402.7594,521.7813 403.0094,522.0469 Q403.275,522.2969 403.275,522.6406 Q403.275,522.9844 402.9313,523.3906 Q402.4313,523.9688 401.6344,524.2969 Q400.5563,524.75 399.2594,524.75 Q397.7438,524.75 396.5406,524.125 Q395.5563,523.625 394.8688,522.5625 Q394.1813,521.4844 394.1813,520.2031 L394.1813,519.0469 Q394.1813,517.7188 394.7906,516.5781 Q395.4156,515.4219 396.5094,514.8125 Q397.6031,514.1875 398.8375,514.1875 Q399.5719,514.1875 400.2125,514.3594 Q400.8688,514.5156 401.4156,514.875 Z " fill="#000000"/><text fill="#000000" font-family="sans-serif" font-size="14" lengthAdjust="spacing" textLength="47" x="419.15" y="524.7285">Commit</text><line style="stroke:#181818;stroke-width:0.5;" x1="339.9" x2="512.9" y1="535" y2="535"/><ellipse cx="349.9" cy="549.3047" fill="none" rx="3" ry="3" style="stroke:#038048;stroke-width:1.0;"/><text fill="#000000" font-family="sans-serif" font-size="14" lengthAdjust="spacing" textLength="89" x="358.9" y="553.5332">Asunto: String</text><ellipse cx="349.9" cy="566.9141" fill="none" rx="3" ry="3" style="stroke:#038048;stroke-width:1.0;"/><text fill="#000000" font-family="sans-serif" font-size="14" lengthAdjust="spacing" textLength="149" x="358.9" y="571.1426">Estado: EstadoSolicitud</text><line style="stroke:#181818;stroke-width:0.5;" x1="339.9" x2="512.9" y1="578.2188" y2="578.2188"/></g><!--class PullRequest--><g id="elem_PullRequest"><rect codeLine="46" fill="#F1F1F1" height="48" id="PullRequest" rx="2.5" ry="2.5" style="stroke:#181818;stroke-width:0.5;" width="108" x="301.4" y="377"/><ellipse cx="316.4" cy="393" fill="#ADD1B2" rx="11" ry="11" style="stroke:#181818;stroke-width:1.0;"/><path d="M319.1656,388.875 Q319.3219,388.6563 319.5094,388.5469 Q319.6969,388.4375 319.9156,388.4375 Q320.2906,388.4375 320.525,388.7031 Q320.7594,388.9531 320.7594,389.5625 L320.7594,391.0156 Q320.7594,391.625 320.525,391.8906 Q320.2906,392.1563 319.9156,392.1563 Q319.5719,392.1563 319.3688,391.9531 Q319.1656,391.7656 319.0563,391.25 Q319.0094,390.8906 318.8219,390.7031 Q318.4938,390.3281 317.8844,390.1094 Q317.275,389.8906 316.65,389.8906 Q315.8844,389.8906 315.2438,390.2188 Q314.6188,390.5469 314.1188,391.2969 Q313.6344,392.0469 313.6344,393.0781 L313.6344,394.1719 Q313.6344,395.4063 314.525,396.2344 Q315.4156,397.0469 317.0094,397.0469 Q317.9469,397.0469 318.6031,396.7969 Q318.9938,396.6406 319.4156,396.2031 Q319.6813,395.9375 319.8219,395.8594 Q319.9781,395.7813 320.1813,395.7813 Q320.5094,395.7813 320.7594,396.0469 Q321.025,396.2969 321.025,396.6406 Q321.025,396.9844 320.6813,397.3906 Q320.1813,397.9688 319.3844,398.2969 Q318.3063,398.75 317.0094,398.75 Q315.4938,398.75 314.2906,398.125 Q313.3063,397.625 312.6188,396.5625 Q311.9313,395.4844 311.9313,394.2031 L311.9313,393.0469 Q311.9313,391.7188 312.5406,390.5781 Q313.1656,389.4219 314.2594,388.8125 Q315.3531,388.1875 316.5875,388.1875 Q317.3219,388.1875 317.9625,388.3594 Q318.6188,388.5156 319.1656,388.875 Z " fill="#000000"/><text fill="#000000" font-family="sans-serif" font-size="14" lengthAdjust="spacing" textLength="76" x="330.4" y="398.7285">PullRequest</text><line style="stroke:#181818;stroke-width:0.5;" x1="302.4" x2="408.4" y1="409" y2="409"/><line style="stroke:#181818;stroke-width:0.5;" x1="302.4" x2="408.4" y1="417" y2="417"/></g><!--class Cambios--><g id="elem_Cambios"><rect fill="#F1F1F1" height="48" id="Cambios" rx="2.5" ry="2.5" style="stroke:#181818;stroke-width:0.5;" width="87" x="382.9" y="664"/><ellipse cx="397.9" cy="680" fill="#ADD1B2" rx="11" ry="11" style="stroke:#181818;stroke-width:1.0;"/><path d="M400.6656,675.875 Q400.8219,675.6563 401.0094,675.5469 Q401.1969,675.4375 401.4156,675.4375 Q401.7906,675.4375 402.025,675.7031 Q402.2594,675.9531 402.2594,676.5625 L402.2594,678.0156 Q402.2594,678.625 402.025,678.8906 Q401.7906,679.1563 401.4156,679.1563 Q401.0719,679.1563 400.8688,678.9531 Q400.6656,678.7656 400.5563,678.25 Q400.5094,677.8906 400.3219,677.7031 Q399.9938,677.3281 399.3844,677.1094 Q398.775,676.8906 398.15,676.8906 Q397.3844,676.8906 396.7438,677.2188 Q396.1188,677.5469 395.6188,678.2969 Q395.1344,679.0469 395.1344,680.0781 L395.1344,681.1719 Q395.1344,682.4063 396.025,683.2344 Q396.9156,684.0469 398.5094,684.0469 Q399.4469,684.0469 400.1031,683.7969 Q400.4938,683.6406 400.9156,683.2031 Q401.1813,682.9375 401.3219,682.8594 Q401.4781,682.7813 401.6813,682.7813 Q402.0094,682.7813 402.2594,683.0469 Q402.525,683.2969 402.525,683.6406 Q402.525,683.9844 402.1813,684.3906 Q401.6813,684.9688 400.8844,685.2969 Q399.8063,685.75 398.5094,685.75 Q396.9938,685.75 395.7906,685.125 Q394.8063,684.625 394.1188,683.5625 Q393.4313,682.4844 393.4313,681.2031 L393.4313,680.0469 Q393.4313,678.7188 394.0406,677.5781 Q394.6656,676.4219 395.7594,675.8125 Q396.8531,675.1875 398.0875,675.1875 Q398.8219,675.1875 399.4625,675.3594 Q400.1188,675.5156 400.6656,675.875 Z " fill="#000000"/><text fill="#000000" font-family="sans-serif" font-size="14" lengthAdjust="spacing" textLength="55" x="411.9" y="685.7285">Cambios</text><line style="stroke:#181818;stroke-width:0.5;" x1="383.9" x2="468.9" y1="696" y2="696"/><line style="stroke:#181818;stroke-width:0.5;" x1="383.9" x2="468.9" y1="704" y2="704"/></g><!--class Version--><g id="elem_Version"><rect codeLine="25" fill="#F1F1F1" height="65.6094" id="Version" rx="2.5" ry="2.5" style="stroke:#181818;stroke-width:0.5;" width="115" x="368.9" y="790"/><ellipse cx="399.65" cy="806" fill="#ADD1B2" rx="11" ry="11" style="stroke:#181818;stroke-width:1.0;"/><path d="M402.4156,801.875 Q402.5719,801.6563 402.7594,801.5469 Q402.9469,801.4375 403.1656,801.4375 Q403.5406,801.4375 403.775,801.7031 Q404.0094,801.9531 404.0094,802.5625 L404.0094,804.0156 Q404.0094,804.625 403.775,804.8906 Q403.5406,805.1563 403.1656,805.1563 Q402.8219,805.1563 402.6188,804.9531 Q402.4156,804.7656 402.3063,804.25 Q402.2594,803.8906 402.0719,803.7031 Q401.7438,803.3281 401.1344,803.1094 Q400.525,802.8906 399.9,802.8906 Q399.1344,802.8906 398.4938,803.2188 Q397.8688,803.5469 397.3688,804.2969 Q396.8844,805.0469 396.8844,806.0781 L396.8844,807.1719 Q396.8844,808.4063 397.775,809.2344 Q398.6656,810.0469 400.2594,810.0469 Q401.1969,810.0469 401.8531,809.7969 Q402.2438,809.6406 402.6656,809.2031 Q402.9313,808.9375 403.0719,808.8594 Q403.2281,808.7813 403.4313,808.7813 Q403.7594,808.7813 404.0094,809.0469 Q404.275,809.2969 404.275,809.6406 Q404.275,809.9844 403.9313,810.3906 Q403.4313,810.9688 402.6344,811.2969 Q401.5563,811.75 400.2594,811.75 Q398.7438,811.75 397.5406,811.125 Q396.5563,810.625 395.8688,809.5625 Q395.1813,808.4844 395.1813,807.2031 L395.1813,806.0469 Q395.1813,804.7188 395.7906,803.5781 Q396.4156,802.4219 397.5094,801.8125 Q398.6031,801.1875 399.8375,801.1875 Q400.5719,801.1875 401.2125,801.3594 Q401.8688,801.5156 402.4156,801.875 Z " fill="#000000"/><text fill="#000000" font-family="sans-serif" font-size="14" lengthAdjust="spacing" textLength="48" x="417.15" y="811.7285">Version</text><line style="stroke:#181818;stroke-width:0.5;" x1="369.9" x2="482.9" y1="822" y2="822"/><ellipse cx="379.9" cy="836.3047" fill="none" rx="3" ry="3" style="stroke:#038048;stroke-width:1.0;"/><text fill="#000000" font-family="sans-serif" font-size="14" lengthAdjust="spacing" textLength="89" x="388.9" y="840.5332">Estado: String</text><line style="stroke:#181818;stroke-width:0.5;" x1="369.9" x2="482.9" y1="847.6094" y2="847.6094"/></g><!--link Repositorio to Usuario--><g id="link_Repositorio_Usuario"><path codeLine="1" d="M174.08,108.07 C126.68,144.84 69.02,199.62 42.4,264 C6,352.03 82.5819,444.975 138.5119,498.415 " fill="none" id="Repositorio-to-Usuario" style="stroke:#181818;stroke-width:1.0;"/><polygon fill="#181818" points="142.85,502.56,139.1062,493.4505,139.2349,499.1059,133.5795,499.2346,142.85,502.56" style="stroke:#181818;stroke-width:1.0;"/><text fill="#000000" font-family="sans-serif" font-size="13" lengthAdjust="spacing" textLength="49" x="43.4" y="310.9951">gestiona</text><text fill="#000000" font-family="sans-serif" font-size="13" lengthAdjust="spacing" textLength="5" x="129.8733" y="492.1065">*</text></g><!--link Repositorio to Rama--><g id="link_Repositorio_Rama"><path codeLine="2" d="M324.01,108.2 C364.79,134.65 407.9164,162.6246 439.6864,183.2346 " fill="none" id="Repositorio-to-Rama" style="stroke:#181818;stroke-width:1.0;"/><polygon fill="#181818" points="444.72,186.5,439.3466,178.2461,440.5253,183.7788,434.9927,184.9576,444.72,186.5" style="stroke:#181818;stroke-width:1.0;"/><text fill="#000000" font-family="sans-serif" font-size="13" lengthAdjust="spacing" textLength="5" x="432.0516" y="177.5345">*</text></g><!--link Repositorio to RepositorioRemoto--><g id="link_Repositorio_RepositorioRemoto"><path codeLine="3" d="M275.8,108.2 C290.77,134.4 305.4426,160.0809 317.2226,180.6909 " fill="none" id="Repositorio-to-RepositorioRemoto" style="stroke:#181818;stroke-width:1.0;"/><polygon fill="#181818" points="320.2,185.9,319.2067,176.1014,317.7189,181.559,312.2612,180.0712,320.2,185.9" style="stroke:#181818;stroke-width:1.0;"/><text fill="#000000" font-family="sans-serif" font-size="13" lengthAdjust="spacing" textLength="49" x="302.4" y="152.4951">contiene</text><text fill="#000000" font-family="sans-serif" font-size="13" lengthAdjust="spacing" textLength="7" x="308.9206" y="175.2145">1</text></g><!--link Repositorio to Incidencia--><g id="link_Repositorio_Incidencia"><path codeLine="4" d="M238.5,108.28 C230.31,154.05 219.3761,215.1737 211.7461,257.8437 " fill="none" id="Repositorio-to-Incidencia" style="stroke:#181818;stroke-width:1.0;"/><polygon fill="#181818" points="210.69,263.75,216.2117,255.5946,211.5701,258.8281,208.3367,254.1864,210.69,263.75" style="stroke:#181818;stroke-width:1.0;"/><text fill="#000000" font-family="sans-serif" font-size="13" lengthAdjust="spacing" textLength="46" x="234.4" y="152.4951">controla</text><text fill="#000000" font-family="sans-serif" font-size="13" lengthAdjust="spacing" textLength="5" x="206.4833" y="253.0163">*</text></g><!--link Rama to Commit--><g id="link_Rama_Commit"><path codeLine="6" d="M476.55,234.21 C470.82,280.02 457.09,385.22 441.4,473 C439.66,482.73 438.8124,487.3 436.7424,497.08 " fill="none" id="Rama-to-Commit" style="stroke:#181818;stroke-width:1.0;"/><polygon fill="#181818" points="435.5,502.95,441.2769,494.9733,436.5353,498.0584,433.4503,493.3168,435.5,502.95" style="stroke:#181818;stroke-width:1.0;"/><text fill="#000000" font-family="sans-serif" font-size="13" lengthAdjust="spacing" textLength="28" x="457.4" y="406.4951">tiene</text><text fill="#000000" font-family="sans-serif" font-size="13" lengthAdjust="spacing" textLength="5" x="431.5931" y="492.2494">*</text></g><!--link Rama to PullRequest--><g id="link_Rama_PullRequest"><path codeLine="7" d="M444.66,232.15 C432.57,240.83 419.73,251.74 410.4,264 C403.25,273.4 379.6956,334.9716 366.0956,371.2616 " fill="none" id="Rama-to-PullRequest" style="stroke:#181818;stroke-width:1.0;"/><polygon fill="#181818" points="363.99,376.88,370.8939,369.8561,365.7446,372.198,363.4027,367.0487,363.99,376.88" style="stroke:#181818;stroke-width:1.0;"/><text fill="#000000" font-family="sans-serif" font-size="13" lengthAdjust="spacing" textLength="41" x="411.4" y="310.9951">incluye</text><text fill="#000000" font-family="sans-serif" font-size="13" lengthAdjust="spacing" textLength="5" x="360.5506" y="366.1894">*</text></g><!--link Commit to Cambios--><g id="link_Commit_Cambios"><path codeLine="9" d="M426.4,586.05 C426.4,611.2 426.4,636.62 426.4,657.67 " fill="none" id="Commit-to-Cambios" style="stroke:#181818;stroke-width:1.0;"/><polygon fill="#181818" points="426.4,663.67,430.4,654.67,426.4,658.67,422.4,654.67,426.4,663.67" style="stroke:#181818;stroke-width:1.0;"/><text fill="#000000" font-family="sans-serif" font-size="13" lengthAdjust="spacing" textLength="53" x="427.4" y="630.4951">introduce</text><text fill="#000000" font-family="sans-serif" font-size="13" lengthAdjust="spacing" textLength="5" x="420.7906" y="653.3275">*</text></g><!--link Cambios to Version--><g id="link_Cambios_Version"><path codeLine="10" d="M426.4,712.17 C426.4,733.6 426.4,759.67 426.4,783.63 " fill="none" id="Cambios-to-Version" style="stroke:#181818;stroke-width:1.0;"/><polygon fill="#181818" points="426.4,789.63,430.4,780.63,426.4,784.63,422.4,780.63,426.4,789.63" style="stroke:#181818;stroke-width:1.0;"/><text fill="#000000" font-family="sans-serif" font-size="13" lengthAdjust="spacing" textLength="57" x="427.4" y="756.4951">pertenece</text><text fill="#000000" font-family="sans-serif" font-size="13" lengthAdjust="spacing" textLength="7" x="418.7109" y="779.0535">1</text></g><!--link PullRequest to Usuario--><g id="link_PullRequest_Usuario"><path codeLine="12" d="M328.52,425.05 C304.05,446.04 271.9039,473.6033 242.4939,498.8333 " fill="none" id="PullRequest-to-Usuario" style="stroke:#181818;stroke-width:1.0;"/><polygon fill="#181818" points="237.94,502.74,247.3753,499.9159,241.7349,499.4844,242.1664,493.8441,237.94,502.74" style="stroke:#181818;stroke-width:1.0;"/><text fill="#000000" font-family="sans-serif" font-size="13" lengthAdjust="spacing" textLength="59" x="294.4" y="469.4951">creadoPor</text><text fill="#000000" font-family="sans-serif" font-size="13" lengthAdjust="spacing" textLength="7" x="238.2341" y="492.0046">1</text></g><!--link PullRequest to Commit--><g id="link_PullRequest_Commit"><path codeLine="13" d="M366.97,425.05 C377.5,446.04 390.5991,472.1473 403.2591,497.3773 " fill="none" id="PullRequest-to-Commit" style="stroke:#181818;stroke-width:1.0;"/><polygon fill="#181818" points="405.95,502.74,405.4888,492.9019,403.7076,498.2711,398.3384,496.4899,405.95,502.74" style="stroke:#181818;stroke-width:1.0;"/><text fill="#000000" font-family="sans-serif" font-size="13" lengthAdjust="spacing" textLength="41" x="391.4" y="469.4951">incluye</text><text fill="#000000" font-family="sans-serif" font-size="13" lengthAdjust="spacing" textLength="5" x="397.1489" y="492.0046">*</text></g><!--link Incidencia to Usuario--><g id="link_Incidencia_Usuario"><path codeLine="15" d="M201.17,347.24 C198.78,390.78 195.3379,453.409 192.9579,496.899 " fill="none" id="Incidencia-to-Usuario" style="stroke:#181818;stroke-width:1.0;"/><polygon fill="#181818" points="192.63,502.89,197.1158,494.122,192.9032,497.8975,189.1278,493.6849,192.63,502.89" style="stroke:#181818;stroke-width:1.0;"/><text fill="#000000" font-family="sans-serif" font-size="13" lengthAdjust="spacing" textLength="74" x="200.4" y="406.4951">reportadaPor</text><text fill="#000000" font-family="sans-serif" font-size="13" lengthAdjust="spacing" textLength="7" x="185.4197" y="492.1795">1</text></g><!--link RepositorioRemoto to PullRequest--><g id="link_RepositorioRemoto_PullRequest"><path codeLine="17" d="M330.65,234.37 C328.07,261.68 325.65,308.1 333.4,347 C335.43,357.16 336.9936,362.3314 341.0436,371.4014 " fill="none" id="RepositorioRemoto-to-PullRequest" style="stroke:#181818;stroke-width:1.0;"/><polygon fill="#181818" points="343.49,376.88,343.4729,367.0312,341.4514,372.3145,336.1681,370.293,343.49,376.88" style="stroke:#181818;stroke-width:1.0;"/><text fill="#000000" font-family="sans-serif" font-size="13" lengthAdjust="spacing" textLength="35" x="334.4" y="310.9951">recibe</text><text fill="#000000" font-family="sans-serif" font-size="13" lengthAdjust="spacing" textLength="5" x="334.7974" y="366.1894">*</text></g><!--SRC=[VPA_JiGm3CRtF4Lq8-W6rXkGJWS32phrW3rDhPEbDYvECg0JJyKZy6AuVzAcQiNIDlRdd-qlBQ0bZu4OIU_tZtftjzFlFfhkVD1Ny0796LLio0hJR2GU93772cWeT2HBBY0us2IzE8iLoCECIgRQADKrc3GdQXeCaXynUUuSwxg0poZJYW2ThUCNA3MMJ0JJb4Y-LqY7AbfGAPP6_m3sih1eMk0WZKIZSdmIpXvP1bFHcNYjoyUUfigMNSDOtE5WAjFnrDh8xOqPB9Q2jhNnFhTVtvJMz_gLcf91X9V0wAvzx0cyPMmj_lwuHU9eBNWww3TiQVXMtmcTx1cmprucfQbuKeqx3wAZZoxGeaEg6zuNgj5YYDKCI7xaqoy89sA6ZSwPjxV_jrpECDVDhFxtNZawtCCOpsxX3m00]--></g></svg>