<?xml version="1.0" encoding="us-ascii" standalone="no"?><svg xmlns="http://www.w3.org/2000/svg" xmlns:xlink="http://www.w3.org/1999/xlink" contentStyleType="text/css" height="652px" preserveAspectRatio="none" style="width:289px;height:652px;background:#FFFFFF;" version="1.1" viewBox="0 0 289 652" width="289px" zoomAndPan="magnify"><defs/><g><!--class Biblioteca--><g id="elem_Biblioteca"><rect codeLine="1" fill="#F1F1F1" height="48" id="Biblioteca" rx="2.5" ry="2.5" style="stroke:#181818;stroke-width:0.5;" width="93" x="97.5" y="7"/><ellipse cx="112.5" cy="23" fill="#ADD1B2" rx="11" ry="11" style="stroke:#181818;stroke-width:1.0;"/><path d="M115.2656,18.875 Q115.4219,18.6563 115.6094,18.5469 Q115.7969,18.4375 116.0156,18.4375 Q116.3906,18.4375 116.625,18.6953 Q116.8594,18.9531 116.8594,19.5625 L116.8594,21.0156 Q116.8594,21.625 116.625,21.8906 Q116.3906,22.1563 116.0156,22.1563 Q115.6719,22.1563 115.4688,21.9531 Q115.2656,21.7656 115.1563,21.25 Q115.1094,20.8906 114.9219,20.7031 Q114.5938,20.3281 113.9844,20.1094 Q113.375,19.8906 112.75,19.8906 Q111.9844,19.8906 111.3516,20.2188 Q110.7188,20.5469 110.2266,21.2969 Q109.7344,22.0469 109.7344,23.0781 L109.7344,24.1719 Q109.7344,25.4063 110.625,26.2266 Q111.5156,27.0469 113.1094,27.0469 Q114.0469,27.0469 114.7031,26.7969 Q115.0938,26.6406 115.5156,26.2031 Q115.7813,25.9375 115.9297,25.8594 Q116.0781,25.7813 116.2813,25.7813 Q116.6094,25.7813 116.8672,26.0391 Q117.125,26.2969 117.125,26.6406 Q117.125,26.9844 116.7813,27.3906 Q116.2813,27.9688 115.4844,28.2969 Q114.4063,28.75 113.1094,28.75 Q111.5938,28.75 110.3906,28.125 Q109.4063,27.625 108.7188,26.5547 Q108.0313,25.4844 108.0313,24.2031 L108.0313,23.0469 Q108.0313,21.7188 108.6484,20.5703 Q109.2656,19.4219 110.3594,18.8047 Q111.4531,18.1875 112.6875,18.1875 Q113.4219,18.1875 114.0703,18.3516 Q114.7188,18.5156 115.2656,18.875 Z " fill="#000000"/><text fill="#000000" font-family="sans-serif" font-size="14" lengthAdjust="spacing" textLength="61" x="126.5" y="28.7285">Biblioteca</text><line style="stroke:#181818;stroke-width:0.5;" x1="98.5" x2="189.5" y1="39" y2="39"/><line style="stroke:#181818;stroke-width:0.5;" x1="98.5" x2="189.5" y1="47" y2="47"/></g><!--class Libro--><g id="elem_Libro"><rect codeLine="4" fill="#F1F1F1" height="100.8281" id="Libro" rx="2.5" ry="2.5" style="stroke:#181818;stroke-width:0.5;" width="106" x="91" y="419"/><ellipse cx="124.9" cy="435" fill="#ADD1B2" rx="11" ry="11" style="stroke:#181818;stroke-width:1.0;"/><path d="M127.6656,430.875 Q127.8219,430.6563 128.0094,430.5469 Q128.1969,430.4375 128.4156,430.4375 Q128.7906,430.4375 129.025,430.6953 Q129.2594,430.9531 129.2594,431.5625 L129.2594,433.0156 Q129.2594,433.625 129.025,433.8906 Q128.7906,434.1563 128.4156,434.1563 Q128.0719,434.1563 127.8688,433.9531 Q127.6656,433.7656 127.5563,433.25 Q127.5094,432.8906 127.3219,432.7031 Q126.9938,432.3281 126.3844,432.1094 Q125.775,431.8906 125.15,431.8906 Q124.3844,431.8906 123.7516,432.2188 Q123.1188,432.5469 122.6266,433.2969 Q122.1344,434.0469 122.1344,435.0781 L122.1344,436.1719 Q122.1344,437.4063 123.025,438.2266 Q123.9156,439.0469 125.5094,439.0469 Q126.4469,439.0469 127.1031,438.7969 Q127.4938,438.6406 127.9156,438.2031 Q128.1813,437.9375 128.3297,437.8594 Q128.4781,437.7813 128.6813,437.7813 Q129.0094,437.7813 129.2672,438.0391 Q129.525,438.2969 129.525,438.6406 Q129.525,438.9844 129.1813,439.3906 Q128.6813,439.9688 127.8844,440.2969 Q126.8063,440.75 125.5094,440.75 Q123.9938,440.75 122.7906,440.125 Q121.8063,439.625 121.1188,438.5547 Q120.4313,437.4844 120.4313,436.2031 L120.4313,435.0469 Q120.4313,433.7188 121.0484,432.5703 Q121.6656,431.4219 122.7594,430.8047 Q123.8531,430.1875 125.0875,430.1875 Q125.8219,430.1875 126.4703,430.3516 Q127.1188,430.5156 127.6656,430.875 Z " fill="#000000"/><text fill="#000000" font-family="sans-serif" font-size="14" lengthAdjust="spacing" textLength="32" x="143.1" y="440.7285">Libro</text><line style="stroke:#181818;stroke-width:0.5;" x1="92" x2="196" y1="451" y2="451"/><ellipse cx="102" cy="465.3047" fill="none" rx="3" ry="3" style="stroke:#038048;stroke-width:1.0;"/><text fill="#000000" font-family="sans-serif" font-size="14" lengthAdjust="spacing" textLength="80" x="111" y="469.5332">T&#237;tulo: String</text><ellipse cx="102" cy="482.9141" fill="none" rx="3" ry="3" style="stroke:#038048;stroke-width:1.0;"/><text fill="#000000" font-family="sans-serif" font-size="14" lengthAdjust="spacing" textLength="75" x="111" y="487.1426">ISBN: String</text><ellipse cx="102" cy="500.5234" fill="none" rx="3" ry="3" style="stroke:#038048;stroke-width:1.0;"/><text fill="#000000" font-family="sans-serif" font-size="14" lengthAdjust="spacing" textLength="77" x="111" y="504.752">A&#241;o: Integer</text><line style="stroke:#181818;stroke-width:0.5;" x1="92" x2="196" y1="511.8281" y2="511.8281"/></g><!--class Usuario--><g id="elem_Usuario"><rect codeLine="10" fill="#F1F1F1" height="100.8281" id="Usuario" rx="2.5" ry="2.5" style="stroke:#181818;stroke-width:0.5;" width="140" x="136" y="115"/><ellipse cx="178" cy="131" fill="#ADD1B2" rx="11" ry="11" style="stroke:#181818;stroke-width:1.0;"/><path d="M180.7656,126.875 Q180.9219,126.6563 181.1094,126.5469 Q181.2969,126.4375 181.5156,126.4375 Q181.8906,126.4375 182.125,126.6953 Q182.3594,126.9531 182.3594,127.5625 L182.3594,129.0156 Q182.3594,129.625 182.125,129.8906 Q181.8906,130.1563 181.5156,130.1563 Q181.1719,130.1563 180.9688,129.9531 Q180.7656,129.7656 180.6563,129.25 Q180.6094,128.8906 180.4219,128.7031 Q180.0938,128.3281 179.4844,128.1094 Q178.875,127.8906 178.25,127.8906 Q177.4844,127.8906 176.8516,128.2188 Q176.2188,128.5469 175.7266,129.2969 Q175.2344,130.0469 175.2344,131.0781 L175.2344,132.1719 Q175.2344,133.4063 176.125,134.2266 Q177.0156,135.0469 178.6094,135.0469 Q179.5469,135.0469 180.2031,134.7969 Q180.5938,134.6406 181.0156,134.2031 Q181.2813,133.9375 181.4297,133.8594 Q181.5781,133.7813 181.7813,133.7813 Q182.1094,133.7813 182.3672,134.0391 Q182.625,134.2969 182.625,134.6406 Q182.625,134.9844 182.2813,135.3906 Q181.7813,135.9688 180.9844,136.2969 Q179.9063,136.75 178.6094,136.75 Q177.0938,136.75 175.8906,136.125 Q174.9063,135.625 174.2188,134.5547 Q173.5313,133.4844 173.5313,132.2031 L173.5313,131.0469 Q173.5313,129.7188 174.1484,128.5703 Q174.7656,127.4219 175.8594,126.8047 Q176.9531,126.1875 178.1875,126.1875 Q178.9219,126.1875 179.5703,126.3516 Q180.2188,126.5156 180.7656,126.875 Z " fill="#000000"/><text fill="#000000" font-family="sans-serif" font-size="14" lengthAdjust="spacing" textLength="48" x="198" y="136.7285">Usuario</text><line style="stroke:#181818;stroke-width:0.5;" x1="137" x2="275" y1="147" y2="147"/><ellipse cx="147" cy="161.3047" fill="none" rx="3" ry="3" style="stroke:#038048;stroke-width:1.0;"/><text fill="#000000" font-family="sans-serif" font-size="14" lengthAdjust="spacing" textLength="94" x="156" y="165.5332">Nombre: String</text><ellipse cx="147" cy="178.9141" fill="none" rx="3" ry="3" style="stroke:#038048;stroke-width:1.0;"/><text fill="#000000" font-family="sans-serif" font-size="14" lengthAdjust="spacing" textLength="65" x="156" y="183.1426">ID: Integer</text><ellipse cx="147" cy="196.5234" fill="none" rx="3" ry="3" style="stroke:#038048;stroke-width:1.0;"/><text fill="#000000" font-family="sans-serif" font-size="14" lengthAdjust="spacing" textLength="114" x="156" y="200.752">Membres&#237;a: String</text><line style="stroke:#181818;stroke-width:0.5;" x1="137" x2="275" y1="207.8281" y2="207.8281"/></g><!--class Autor--><g id="elem_Autor"><rect codeLine="16" fill="#F1F1F1" height="65.6094" id="Autor" rx="2.5" ry="2.5" style="stroke:#181818;stroke-width:0.5;" width="120" x="7" y="580"/><ellipse cx="46.3" cy="596" fill="#ADD1B2" rx="11" ry="11" style="stroke:#181818;stroke-width:1.0;"/><path d="M49.0656,591.875 Q49.2219,591.6563 49.4094,591.5469 Q49.5969,591.4375 49.8156,591.4375 Q50.1906,591.4375 50.425,591.6953 Q50.6594,591.9531 50.6594,592.5625 L50.6594,594.0156 Q50.6594,594.625 50.425,594.8906 Q50.1906,595.1563 49.8156,595.1563 Q49.4719,595.1563 49.2688,594.9531 Q49.0656,594.7656 48.9563,594.25 Q48.9094,593.8906 48.7219,593.7031 Q48.3938,593.3281 47.7844,593.1094 Q47.175,592.8906 46.55,592.8906 Q45.7844,592.8906 45.1516,593.2188 Q44.5188,593.5469 44.0266,594.2969 Q43.5344,595.0469 43.5344,596.0781 L43.5344,597.1719 Q43.5344,598.4063 44.425,599.2266 Q45.3156,600.0469 46.9094,600.0469 Q47.8469,600.0469 48.5031,599.7969 Q48.8938,599.6406 49.3156,599.2031 Q49.5813,598.9375 49.7297,598.8594 Q49.8781,598.7813 50.0813,598.7813 Q50.4094,598.7813 50.6672,599.0391 Q50.925,599.2969 50.925,599.6406 Q50.925,599.9844 50.5813,600.3906 Q50.0813,600.9688 49.2844,601.2969 Q48.2063,601.75 46.9094,601.75 Q45.3938,601.75 44.1906,601.125 Q43.2063,600.625 42.5188,599.5547 Q41.8313,598.4844 41.8313,597.2031 L41.8313,596.0469 Q41.8313,594.7188 42.4484,593.5703 Q43.0656,592.4219 44.1594,591.8047 Q45.2531,591.1875 46.4875,591.1875 Q47.2219,591.1875 47.8703,591.3516 Q48.5188,591.5156 49.0656,591.875 Z " fill="#000000"/><text fill="#000000" font-family="sans-serif" font-size="14" lengthAdjust="spacing" textLength="34" x="65.7" y="601.7285">Autor</text><line style="stroke:#181818;stroke-width:0.5;" x1="8" x2="126" y1="612" y2="612"/><ellipse cx="18" cy="626.3047" fill="none" rx="3" ry="3" style="stroke:#038048;stroke-width:1.0;"/><text fill="#000000" font-family="sans-serif" font-size="14" lengthAdjust="spacing" textLength="94" x="27" y="630.5332">Nombre: String</text><line style="stroke:#181818;stroke-width:0.5;" x1="8" x2="126" y1="637.6094" y2="637.6094"/></g><!--class Pr?stamo--><g id="elem_Pr&#233;stamo"><rect codeLine="20" fill="#F1F1F1" height="83.2188" id="Pr&#233;stamo" rx="2.5" ry="2.5" style="stroke:#181818;stroke-width:0.5;" width="136" x="138" y="276"/><ellipse cx="172.8" cy="292" fill="#ADD1B2" rx="11" ry="11" style="stroke:#181818;stroke-width:1.0;"/><path d="M175.5656,287.875 Q175.7219,287.6563 175.9094,287.5469 Q176.0969,287.4375 176.3156,287.4375 Q176.6906,287.4375 176.925,287.6953 Q177.1594,287.9531 177.1594,288.5625 L177.1594,290.0156 Q177.1594,290.625 176.925,290.8906 Q176.6906,291.1563 176.3156,291.1563 Q175.9719,291.1563 175.7688,290.9531 Q175.5656,290.7656 175.4563,290.25 Q175.4094,289.8906 175.2219,289.7031 Q174.8938,289.3281 174.2844,289.1094 Q173.675,288.8906 173.05,288.8906 Q172.2844,288.8906 171.6516,289.2188 Q171.0188,289.5469 170.5266,290.2969 Q170.0344,291.0469 170.0344,292.0781 L170.0344,293.1719 Q170.0344,294.4063 170.925,295.2266 Q171.8156,296.0469 173.4094,296.0469 Q174.3469,296.0469 175.0031,295.7969 Q175.3938,295.6406 175.8156,295.2031 Q176.0813,294.9375 176.2297,294.8594 Q176.3781,294.7813 176.5813,294.7813 Q176.9094,294.7813 177.1672,295.0391 Q177.425,295.2969 177.425,295.6406 Q177.425,295.9844 177.0813,296.3906 Q176.5813,296.9688 175.7844,297.2969 Q174.7063,297.75 173.4094,297.75 Q171.8938,297.75 170.6906,297.125 Q169.7063,296.625 169.0188,295.5547 Q168.3313,294.4844 168.3313,293.2031 L168.3313,292.0469 Q168.3313,290.7188 168.9484,289.5703 Q169.5656,288.4219 170.6594,287.8047 Q171.7531,287.1875 172.9875,287.1875 Q173.7219,287.1875 174.3703,287.3516 Q175.0188,287.5156 175.5656,287.875 Z " fill="#000000"/><text fill="#000000" font-family="sans-serif" font-size="14" lengthAdjust="spacing" textLength="60" x="191.2" y="297.7285">Pr&#233;stamo</text><line style="stroke:#181818;stroke-width:0.5;" x1="139" x2="273" y1="308" y2="308"/><ellipse cx="149" cy="322.3047" fill="none" rx="3" ry="3" style="stroke:#038048;stroke-width:1.0;"/><text fill="#000000" font-family="sans-serif" font-size="14" lengthAdjust="spacing" textLength="110" x="158" y="326.5332">FechaInicio: Date</text><ellipse cx="149" cy="339.9141" fill="none" rx="3" ry="3" style="stroke:#038048;stroke-width:1.0;"/><text fill="#000000" font-family="sans-serif" font-size="14" lengthAdjust="spacing" textLength="98" x="158" y="344.1426">FechaFin: Date</text><line style="stroke:#181818;stroke-width:0.5;" x1="139" x2="273" y1="351.2188" y2="351.2188"/></g><!--class Categor?a--><g id="elem_Categor&#237;a"><rect codeLine="25" fill="#F1F1F1" height="65.6094" id="Categor&#237;a" rx="2.5" ry="2.5" style="stroke:#181818;stroke-width:0.5;" width="120" x="162" y="580"/><ellipse cx="188.7" cy="596" fill="#ADD1B2" rx="11" ry="11" style="stroke:#181818;stroke-width:1.0;"/><path d="M191.4656,591.875 Q191.6219,591.6563 191.8094,591.5469 Q191.9969,591.4375 192.2156,591.4375 Q192.5906,591.4375 192.825,591.6953 Q193.0594,591.9531 193.0594,592.5625 L193.0594,594.0156 Q193.0594,594.625 192.825,594.8906 Q192.5906,595.1563 192.2156,595.1563 Q191.8719,595.1563 191.6688,594.9531 Q191.4656,594.7656 191.3563,594.25 Q191.3094,593.8906 191.1219,593.7031 Q190.7938,593.3281 190.1844,593.1094 Q189.575,592.8906 188.95,592.8906 Q188.1844,592.8906 187.5516,593.2188 Q186.9188,593.5469 186.4266,594.2969 Q185.9344,595.0469 185.9344,596.0781 L185.9344,597.1719 Q185.9344,598.4063 186.825,599.2266 Q187.7156,600.0469 189.3094,600.0469 Q190.2469,600.0469 190.9031,599.7969 Q191.2938,599.6406 191.7156,599.2031 Q191.9813,598.9375 192.1297,598.8594 Q192.2781,598.7813 192.4813,598.7813 Q192.8094,598.7813 193.0672,599.0391 Q193.325,599.2969 193.325,599.6406 Q193.325,599.9844 192.9813,600.3906 Q192.4813,600.9688 191.6844,601.2969 Q190.6063,601.75 189.3094,601.75 Q187.7938,601.75 186.5906,601.125 Q185.6063,600.625 184.9188,599.5547 Q184.2313,598.4844 184.2313,597.2031 L184.2313,596.0469 Q184.2313,594.7188 184.8484,593.5703 Q185.4656,592.4219 186.5594,591.8047 Q187.6531,591.1875 188.8875,591.1875 Q189.6219,591.1875 190.2703,591.3516 Q190.9188,591.5156 191.4656,591.875 Z " fill="#000000"/><text fill="#000000" font-family="sans-serif" font-size="14" lengthAdjust="spacing" textLength="62" x="205.3" y="601.7285">Categor&#237;a</text><line style="stroke:#181818;stroke-width:0.5;" x1="163" x2="281" y1="612" y2="612"/><ellipse cx="173" cy="626.3047" fill="none" rx="3" ry="3" style="stroke:#038048;stroke-width:1.0;"/><text fill="#000000" font-family="sans-serif" font-size="14" lengthAdjust="spacing" textLength="94" x="182" y="630.5332">Nombre: String</text><line style="stroke:#181818;stroke-width:0.5;" x1="163" x2="281" y1="637.6094" y2="637.6094"/></g><!--link Biblioteca to Libro--><g id="link_Biblioteca_Libro"><path codeLine="29" d="M135.02,55.2 C129.16,71.61 122.05,94.31 119,115 C115.66,137.7 119.56,346.01 121,359 C123.2,378.79 127.32,400.29 131.48,418.95 " fill="none" id="Biblioteca-Libro" style="stroke:#181818;stroke-width:1.0;"/><text fill="#000000" font-family="sans-serif" font-size="13" lengthAdjust="spacing" textLength="7" x="124.978" y="76.5867">1</text><text fill="#000000" font-family="sans-serif" font-size="13" lengthAdjust="spacing" textLength="20" x="108.3131" y="408.2483">0..*</text></g><!--link Biblioteca to Usuario--><g id="link_Biblioteca_Usuario"><path codeLine="30" d="M154.8,55.08 C162.5,71.54 173.15,94.3 182.74,114.8 " fill="none" id="Biblioteca-Usuario" style="stroke:#181818;stroke-width:1.0;"/><text fill="#000000" font-family="sans-serif" font-size="13" lengthAdjust="spacing" textLength="7" x="149.5794" y="76.4375">1</text><text fill="#000000" font-family="sans-serif" font-size="13" lengthAdjust="spacing" textLength="20" x="158.0628" y="104.0772">0..*</text></g><!--link Libro to Autor--><g id="link_Libro_Autor"><path codeLine="31" d="M116.85,520.39 C106.11,540.12 94.08,562.23 84.53,579.79 " fill="none" id="Libro-Autor" style="stroke:#181818;stroke-width:1.0;"/><text fill="#000000" font-family="sans-serif" font-size="13" lengthAdjust="spacing" textLength="7" x="105.923" y="541.4639">1</text><text fill="#000000" font-family="sans-serif" font-size="13" lengthAdjust="spacing" textLength="20" x="66.0125" y="569.245">0..*</text></g><!--link Libro to Categor?a--><g id="link_Libro_Categor&#237;a"><path codeLine="32" d="M171.5,520.39 C182.38,540.12 194.57,562.23 204.24,579.79 " fill="none" id="Libro-Categor&#237;a" style="stroke:#181818;stroke-width:1.0;"/><text fill="#000000" font-family="sans-serif" font-size="13" lengthAdjust="spacing" textLength="7" x="167.575" y="541.4639">1</text><text fill="#000000" font-family="sans-serif" font-size="13" lengthAdjust="spacing" textLength="20" x="178.7748" y="569.245">0..*</text></g><!--link Usuario to Pr?stamo--><g id="link_Usuario_Pr&#233;stamo"><path codeLine="33" d="M193.93,216.03 C192.86,235.32 193.05,257.15 194.5,275.53 " fill="none" id="Usuario-Pr&#233;stamo" style="stroke:#181818;stroke-width:1.0;"/><text fill="#000000" font-family="sans-serif" font-size="13" lengthAdjust="spacing" textLength="7" x="184.8378" y="237.4253">1</text><text fill="#000000" font-family="sans-serif" font-size="13" lengthAdjust="spacing" textLength="20" x="171.0734" y="265.0717">0..*</text></g><!--link Pr?stamo to Usuario--><g id="link_Pr&#233;stamo_Usuario"><path codeLine="35" d="M218.18,275.53 C219.71,257.15 219.91,235.32 218.78,216.03 " fill="none" id="Pr&#233;stamo-Usuario" style="stroke:#181818;stroke-width:1.0;"/><text fill="#000000" font-family="sans-serif" font-size="13" lengthAdjust="spacing" textLength="7" x="212.5634" y="265.0717">1</text><text fill="#000000" font-family="sans-serif" font-size="13" lengthAdjust="spacing" textLength="7" x="213.027" y="237.4253">1</text></g><!--link Pr?stamo to Libro--><g id="link_Pr&#233;stamo_Libro"><path codeLine="34" d="M189.22,359.09 C181.62,377.49 172.56,399.41 164.55,418.78 " fill="none" id="Pr&#233;stamo-Libro" style="stroke:#181818;stroke-width:1.0;"/><text fill="#000000" font-family="sans-serif" font-size="13" lengthAdjust="spacing" textLength="7" x="178.8611" y="380.8095">1</text><text fill="#000000" font-family="sans-serif" font-size="13" lengthAdjust="spacing" textLength="7" x="159.9477" y="408.0544">1</text></g><!--SRC=[TP1D2eCm48NtEKLmsQBKRNTQAGYj56mF44Em0KqWYQlI0tNXecV8nHfhJ1HqEU-z-UO7DqXAcDAgeLmHZE0Bl070V_L2Ay6D0E7-hdlLDVm8IoKegmSfBzDYNYVwQ_oSAL8JuI4FsI51BQRWRIN8WfBv7bDUoH2GkaSkv4X9fxXOvRZ8JUYFLAYruyu4Fr7EAAPcimmfuiGpPLPnlITJrLoOqLipPbyAuW268GmEKRGBxAEs_Ua7O0mkpV6iLSkl12R4Ck3k1VxoAH7RlTOjo_i1]--></g></svg>