<?xml version="1.0" encoding="us-ascii" standalone="no"?><svg xmlns="http://www.w3.org/2000/svg" xmlns:xlink="http://www.w3.org/1999/xlink" contentStyleType="text/css" height="705px" preserveAspectRatio="none" style="width:732px;height:705px;background:#FFFFFF;" version="1.1" viewBox="0 0 732 705" width="732px" zoomAndPan="magnify"><defs/><g><!--class Repositorio--><g id="elem_Repositorio"><rect codeLine="1" fill="#F1F1F1" height="100.8281" id="Repositorio" rx="2.5" ry="2.5" style="stroke:#181818;stroke-width:0.5;" width="249" x="314.5" y="7"/><ellipse cx="398.75" cy="23" fill="#ADD1B2" rx="11" ry="11" style="stroke:#181818;stroke-width:1.0;"/><path d="M401.5156,18.875 Q401.6719,18.6563 401.8594,18.5469 Q402.0469,18.4375 402.2656,18.4375 Q402.6406,18.4375 402.875,18.6953 Q403.1094,18.9531 403.1094,19.5625 L403.1094,21.0156 Q403.1094,21.625 402.875,21.8906 Q402.6406,22.1563 402.2656,22.1563 Q401.9219,22.1563 401.7188,21.9531 Q401.5156,21.7656 401.4063,21.25 Q401.3594,20.8906 401.1719,20.7031 Q400.8438,20.3281 400.2344,20.1094 Q399.625,19.8906 399,19.8906 Q398.2344,19.8906 397.6016,20.2188 Q396.9688,20.5469 396.4766,21.2969 Q395.9844,22.0469 395.9844,23.0781 L395.9844,24.1719 Q395.9844,25.4063 396.875,26.2266 Q397.7656,27.0469 399.3594,27.0469 Q400.2969,27.0469 400.9531,26.7969 Q401.3438,26.6406 401.7656,26.2031 Q402.0313,25.9375 402.1797,25.8594 Q402.3281,25.7813 402.5313,25.7813 Q402.8594,25.7813 403.1172,26.0391 Q403.375,26.2969 403.375,26.6406 Q403.375,26.9844 403.0313,27.3906 Q402.5313,27.9688 401.7344,28.2969 Q400.6563,28.75 399.3594,28.75 Q397.8438,28.75 396.6406,28.125 Q395.6563,27.625 394.9688,26.5547 Q394.2813,25.4844 394.2813,24.2031 L394.2813,23.0469 Q394.2813,21.7188 394.8984,20.5703 Q395.5156,19.4219 396.6094,18.8047 Q397.7031,18.1875 398.9375,18.1875 Q399.6719,18.1875 400.3203,18.3516 Q400.9688,18.5156 401.5156,18.875 Z " fill="#000000"/><text fill="#000000" font-family="sans-serif" font-size="14" lengthAdjust="spacing" textLength="72" x="419.25" y="28.7285">Repositorio</text><line style="stroke:#181818;stroke-width:0.5;" x1="315.5" x2="562.5" y1="39" y2="39"/><ellipse cx="325.5" cy="53.3047" fill="none" rx="3" ry="3" style="stroke:#038048;stroke-width:1.0;"/><text fill="#000000" font-family="sans-serif" font-size="14" lengthAdjust="spacing" textLength="94" x="334.5" y="57.5332">Nombre: String</text><ellipse cx="325.5" cy="70.9141" fill="none" rx="3" ry="3" style="stroke:#038048;stroke-width:1.0;"/><text fill="#000000" font-family="sans-serif" font-size="14" lengthAdjust="spacing" textLength="119" x="334.5" y="75.1426">Descripci&#243;n: String</text><ellipse cx="325.5" cy="88.5234" fill="none" rx="3" ry="3" style="stroke:#038048;stroke-width:1.0;"/><text fill="#000000" font-family="sans-serif" font-size="14" lengthAdjust="spacing" textLength="223" x="334.5" y="92.752">Visibilidad: Enum {P&#250;blico, Privado}</text><line style="stroke:#181818;stroke-width:0.5;" x1="315.5" x2="562.5" y1="99.8281" y2="99.8281"/></g><!--class Rama--><g id="elem_Rama"><rect codeLine="7" fill="#F1F1F1" height="83.2188" id="Rama" rx="2.5" ry="2.5" style="stroke:#181818;stroke-width:0.5;" width="120" x="184" y="168"/><ellipse cx="221.95" cy="184" fill="#ADD1B2" rx="11" ry="11" style="stroke:#181818;stroke-width:1.0;"/><path d="M224.7156,179.875 Q224.8719,179.6563 225.0594,179.5469 Q225.2469,179.4375 225.4656,179.4375 Q225.8406,179.4375 226.075,179.6953 Q226.3094,179.9531 226.3094,180.5625 L226.3094,182.0156 Q226.3094,182.625 226.075,182.8906 Q225.8406,183.1563 225.4656,183.1563 Q225.1219,183.1563 224.9188,182.9531 Q224.7156,182.7656 224.6063,182.25 Q224.5594,181.8906 224.3719,181.7031 Q224.0438,181.3281 223.4344,181.1094 Q222.825,180.8906 222.2,180.8906 Q221.4344,180.8906 220.8016,181.2188 Q220.1688,181.5469 219.6766,182.2969 Q219.1844,183.0469 219.1844,184.0781 L219.1844,185.1719 Q219.1844,186.4063 220.075,187.2266 Q220.9656,188.0469 222.5594,188.0469 Q223.4969,188.0469 224.1531,187.7969 Q224.5438,187.6406 224.9656,187.2031 Q225.2313,186.9375 225.3797,186.8594 Q225.5281,186.7813 225.7313,186.7813 Q226.0594,186.7813 226.3172,187.0391 Q226.575,187.2969 226.575,187.6406 Q226.575,187.9844 226.2313,188.3906 Q225.7313,188.9688 224.9344,189.2969 Q223.8563,189.75 222.5594,189.75 Q221.0438,189.75 219.8406,189.125 Q218.8563,188.625 218.1688,187.5547 Q217.4813,186.4844 217.4813,185.2031 L217.4813,184.0469 Q217.4813,182.7188 218.0984,181.5703 Q218.7156,180.4219 219.8094,179.8047 Q220.9031,179.1875 222.1375,179.1875 Q222.8719,179.1875 223.5203,179.3516 Q224.1688,179.5156 224.7156,179.875 Z " fill="#000000"/><text fill="#000000" font-family="sans-serif" font-size="14" lengthAdjust="spacing" textLength="37" x="241.05" y="189.7285">Rama</text><line style="stroke:#181818;stroke-width:0.5;" x1="185" x2="303" y1="200" y2="200"/><ellipse cx="195" cy="214.3047" fill="none" rx="3" ry="3" style="stroke:#038048;stroke-width:1.0;"/><text fill="#000000" font-family="sans-serif" font-size="14" lengthAdjust="spacing" textLength="94" x="204" y="218.5332">Nombre: String</text><ellipse cx="195" cy="231.9141" fill="none" rx="3" ry="3" style="stroke:#038048;stroke-width:1.0;"/><text fill="#000000" font-family="sans-serif" font-size="14" lengthAdjust="spacing" textLength="89" x="204" y="236.1426">Estado: String</text><line style="stroke:#181818;stroke-width:0.5;" x1="185" x2="303" y1="243.2188" y2="243.2188"/></g><!--class PullRequest--><g id="elem_PullRequest"><rect codeLine="12" fill="#F1F1F1" height="83.2188" id="PullRequest" rx="2.5" ry="2.5" style="stroke:#181818;stroke-width:0.5;" width="308" x="7" y="311"/><ellipse cx="118.75" cy="327" fill="#ADD1B2" rx="11" ry="11" style="stroke:#181818;stroke-width:1.0;"/><path d="M121.5156,322.875 Q121.6719,322.6563 121.8594,322.5469 Q122.0469,322.4375 122.2656,322.4375 Q122.6406,322.4375 122.875,322.6953 Q123.1094,322.9531 123.1094,323.5625 L123.1094,325.0156 Q123.1094,325.625 122.875,325.8906 Q122.6406,326.1563 122.2656,326.1563 Q121.9219,326.1563 121.7188,325.9531 Q121.5156,325.7656 121.4063,325.25 Q121.3594,324.8906 121.1719,324.7031 Q120.8438,324.3281 120.2344,324.1094 Q119.625,323.8906 119,323.8906 Q118.2344,323.8906 117.6016,324.2188 Q116.9688,324.5469 116.4766,325.2969 Q115.9844,326.0469 115.9844,327.0781 L115.9844,328.1719 Q115.9844,329.4063 116.875,330.2266 Q117.7656,331.0469 119.3594,331.0469 Q120.2969,331.0469 120.9531,330.7969 Q121.3438,330.6406 121.7656,330.2031 Q122.0313,329.9375 122.1797,329.8594 Q122.3281,329.7813 122.5313,329.7813 Q122.8594,329.7813 123.1172,330.0391 Q123.375,330.2969 123.375,330.6406 Q123.375,330.9844 123.0313,331.3906 Q122.5313,331.9688 121.7344,332.2969 Q120.6563,332.75 119.3594,332.75 Q117.8438,332.75 116.6406,332.125 Q115.6563,331.625 114.9688,330.5547 Q114.2813,329.4844 114.2813,328.2031 L114.2813,327.0469 Q114.2813,325.7188 114.8984,324.5703 Q115.5156,323.4219 116.6094,322.8047 Q117.7031,322.1875 118.9375,322.1875 Q119.6719,322.1875 120.3203,322.3516 Q120.9688,322.5156 121.5156,322.875 Z " fill="#000000"/><text fill="#000000" font-family="sans-serif" font-size="14" lengthAdjust="spacing" textLength="76" x="139.25" y="332.7285">PullRequest</text><line style="stroke:#181818;stroke-width:0.5;" x1="8" x2="314" y1="343" y2="343"/><ellipse cx="18" cy="357.3047" fill="none" rx="3" ry="3" style="stroke:#038048;stroke-width:1.0;"/><text fill="#000000" font-family="sans-serif" font-size="14" lengthAdjust="spacing" textLength="80" x="27" y="361.5332">T&#237;tulo: String</text><ellipse cx="18" cy="374.9141" fill="none" rx="3" ry="3" style="stroke:#038048;stroke-width:1.0;"/><text fill="#000000" font-family="sans-serif" font-size="14" lengthAdjust="spacing" textLength="282" x="27" y="379.1426">Estado: Enum {Abierto, Cerrado, Fusionado}</text><line style="stroke:#181818;stroke-width:0.5;" x1="8" x2="314" y1="386.2188" y2="386.2188"/></g><!--class Commit--><g id="elem_Commit"><rect codeLine="17" fill="#F1F1F1" height="100.8281" id="Commit" rx="2.5" ry="2.5" style="stroke:#181818;stroke-width:0.5;" width="124" x="341" y="454"/><ellipse cx="376.25" cy="470" fill="#ADD1B2" rx="11" ry="11" style="stroke:#181818;stroke-width:1.0;"/><path d="M379.0156,465.875 Q379.1719,465.6563 379.3594,465.5469 Q379.5469,465.4375 379.7656,465.4375 Q380.1406,465.4375 380.375,465.6953 Q380.6094,465.9531 380.6094,466.5625 L380.6094,468.0156 Q380.6094,468.625 380.375,468.8906 Q380.1406,469.1563 379.7656,469.1563 Q379.4219,469.1563 379.2188,468.9531 Q379.0156,468.7656 378.9063,468.25 Q378.8594,467.8906 378.6719,467.7031 Q378.3438,467.3281 377.7344,467.1094 Q377.125,466.8906 376.5,466.8906 Q375.7344,466.8906 375.1016,467.2188 Q374.4688,467.5469 373.9766,468.2969 Q373.4844,469.0469 373.4844,470.0781 L373.4844,471.1719 Q373.4844,472.4063 374.375,473.2266 Q375.2656,474.0469 376.8594,474.0469 Q377.7969,474.0469 378.4531,473.7969 Q378.8438,473.6406 379.2656,473.2031 Q379.5313,472.9375 379.6797,472.8594 Q379.8281,472.7813 380.0313,472.7813 Q380.3594,472.7813 380.6172,473.0391 Q380.875,473.2969 380.875,473.6406 Q380.875,473.9844 380.5313,474.3906 Q380.0313,474.9688 379.2344,475.2969 Q378.1563,475.75 376.8594,475.75 Q375.3438,475.75 374.1406,475.125 Q373.1563,474.625 372.4688,473.5547 Q371.7813,472.4844 371.7813,471.2031 L371.7813,470.0469 Q371.7813,468.7188 372.3984,467.5703 Q373.0156,466.4219 374.1094,465.8047 Q375.2031,465.1875 376.4375,465.1875 Q377.1719,465.1875 377.8203,465.3516 Q378.4688,465.5156 379.0156,465.875 Z " fill="#000000"/><text fill="#000000" font-family="sans-serif" font-size="14" lengthAdjust="spacing" textLength="47" x="394.75" y="475.7285">Commit</text><line style="stroke:#181818;stroke-width:0.5;" x1="342" x2="464" y1="486" y2="486"/><ellipse cx="352" cy="500.3047" fill="none" rx="3" ry="3" style="stroke:#038048;stroke-width:1.0;"/><text fill="#000000" font-family="sans-serif" font-size="14" lengthAdjust="spacing" textLength="77" x="361" y="504.5332">Hash: String</text><ellipse cx="352" cy="517.9141" fill="none" rx="3" ry="3" style="stroke:#038048;stroke-width:1.0;"/><text fill="#000000" font-family="sans-serif" font-size="14" lengthAdjust="spacing" textLength="98" x="361" y="522.1426">Mensaje: String</text><ellipse cx="352" cy="535.5234" fill="none" rx="3" ry="3" style="stroke:#038048;stroke-width:1.0;"/><text fill="#000000" font-family="sans-serif" font-size="14" lengthAdjust="spacing" textLength="78" x="361" y="539.752">Fecha: Date</text><line style="stroke:#181818;stroke-width:0.5;" x1="342" x2="464" y1="546.8281" y2="546.8281"/></g><!--class Usuario--><g id="elem_Usuario"><rect codeLine="23" fill="#F1F1F1" height="83.2188" id="Usuario" rx="2.5" ry="2.5" style="stroke:#181818;stroke-width:0.5;" width="120" x="400" y="615"/><ellipse cx="433" cy="631" fill="#ADD1B2" rx="11" ry="11" style="stroke:#181818;stroke-width:1.0;"/><path d="M435.7656,626.875 Q435.9219,626.6563 436.1094,626.5469 Q436.2969,626.4375 436.5156,626.4375 Q436.8906,626.4375 437.125,626.6953 Q437.3594,626.9531 437.3594,627.5625 L437.3594,629.0156 Q437.3594,629.625 437.125,629.8906 Q436.8906,630.1563 436.5156,630.1563 Q436.1719,630.1563 435.9688,629.9531 Q435.7656,629.7656 435.6563,629.25 Q435.6094,628.8906 435.4219,628.7031 Q435.0938,628.3281 434.4844,628.1094 Q433.875,627.8906 433.25,627.8906 Q432.4844,627.8906 431.8516,628.2188 Q431.2188,628.5469 430.7266,629.2969 Q430.2344,630.0469 430.2344,631.0781 L430.2344,632.1719 Q430.2344,633.4063 431.125,634.2266 Q432.0156,635.0469 433.6094,635.0469 Q434.5469,635.0469 435.2031,634.7969 Q435.5938,634.6406 436.0156,634.2031 Q436.2813,633.9375 436.4297,633.8594 Q436.5781,633.7813 436.7813,633.7813 Q437.1094,633.7813 437.3672,634.0391 Q437.625,634.2969 437.625,634.6406 Q437.625,634.9844 437.2813,635.3906 Q436.7813,635.9688 435.9844,636.2969 Q434.9063,636.75 433.6094,636.75 Q432.0938,636.75 430.8906,636.125 Q429.9063,635.625 429.2188,634.5547 Q428.5313,633.4844 428.5313,632.2031 L428.5313,631.0469 Q428.5313,629.7188 429.1484,628.5703 Q429.7656,627.4219 430.8594,626.8047 Q431.9531,626.1875 433.1875,626.1875 Q433.9219,626.1875 434.5703,626.3516 Q435.2188,626.5156 435.7656,626.875 Z " fill="#000000"/><text fill="#000000" font-family="sans-serif" font-size="14" lengthAdjust="spacing" textLength="48" x="451" y="636.7285">Usuario</text><line style="stroke:#181818;stroke-width:0.5;" x1="401" x2="519" y1="647" y2="647"/><ellipse cx="411" cy="661.3047" fill="none" rx="3" ry="3" style="stroke:#038048;stroke-width:1.0;"/><text fill="#000000" font-family="sans-serif" font-size="14" lengthAdjust="spacing" textLength="94" x="420" y="665.5332">Nombre: String</text><ellipse cx="411" cy="678.9141" fill="none" rx="3" ry="3" style="stroke:#038048;stroke-width:1.0;"/><text fill="#000000" font-family="sans-serif" font-size="14" lengthAdjust="spacing" textLength="79" x="420" y="683.1426">Email: String</text><line style="stroke:#181818;stroke-width:0.5;" x1="401" x2="519" y1="690.2188" y2="690.2188"/></g><!--class Issue--><g id="elem_Issue"><rect codeLine="28" fill="#F1F1F1" height="83.2188" id="Issue" rx="2.5" ry="2.5" style="stroke:#181818;stroke-width:0.5;" width="233" x="492.5" y="311"/><ellipse cx="588.25" cy="327" fill="#ADD1B2" rx="11" ry="11" style="stroke:#181818;stroke-width:1.0;"/><path d="M591.0156,322.875 Q591.1719,322.6563 591.3594,322.5469 Q591.5469,322.4375 591.7656,322.4375 Q592.1406,322.4375 592.375,322.6953 Q592.6094,322.9531 592.6094,323.5625 L592.6094,325.0156 Q592.6094,325.625 592.375,325.8906 Q592.1406,326.1563 591.7656,326.1563 Q591.4219,326.1563 591.2188,325.9531 Q591.0156,325.7656 590.9063,325.25 Q590.8594,324.8906 590.6719,324.7031 Q590.3438,324.3281 589.7344,324.1094 Q589.125,323.8906 588.5,323.8906 Q587.7344,323.8906 587.1016,324.2188 Q586.4688,324.5469 585.9766,325.2969 Q585.4844,326.0469 585.4844,327.0781 L585.4844,328.1719 Q585.4844,329.4063 586.375,330.2266 Q587.2656,331.0469 588.8594,331.0469 Q589.7969,331.0469 590.4531,330.7969 Q590.8438,330.6406 591.2656,330.2031 Q591.5313,329.9375 591.6797,329.8594 Q591.8281,329.7813 592.0313,329.7813 Q592.3594,329.7813 592.6172,330.0391 Q592.875,330.2969 592.875,330.6406 Q592.875,330.9844 592.5313,331.3906 Q592.0313,331.9688 591.2344,332.2969 Q590.1563,332.75 588.8594,332.75 Q587.3438,332.75 586.1406,332.125 Q585.1563,331.625 584.4688,330.5547 Q583.7813,329.4844 583.7813,328.2031 L583.7813,327.0469 Q583.7813,325.7188 584.3984,324.5703 Q585.0156,323.4219 586.1094,322.8047 Q587.2031,322.1875 588.4375,322.1875 Q589.1719,322.1875 589.8203,322.3516 Q590.4688,322.5156 591.0156,322.875 Z " fill="#000000"/><text fill="#000000" font-family="sans-serif" font-size="14" lengthAdjust="spacing" textLength="33" x="608.75" y="332.7285">Issue</text><line style="stroke:#181818;stroke-width:0.5;" x1="493.5" x2="724.5" y1="343" y2="343"/><ellipse cx="503.5" cy="357.3047" fill="none" rx="3" ry="3" style="stroke:#038048;stroke-width:1.0;"/><text fill="#000000" font-family="sans-serif" font-size="14" lengthAdjust="spacing" textLength="80" x="512.5" y="361.5332">T&#237;tulo: String</text><ellipse cx="503.5" cy="374.9141" fill="none" rx="3" ry="3" style="stroke:#038048;stroke-width:1.0;"/><text fill="#000000" font-family="sans-serif" font-size="14" lengthAdjust="spacing" textLength="207" x="512.5" y="379.1426">Estado: Enum {Abierto, Cerrado}</text><line style="stroke:#181818;stroke-width:0.5;" x1="493.5" x2="724.5" y1="386.2188" y2="386.2188"/></g><!--link Repositorio to Rama--><g id="link_Repositorio_Rama"><path codeLine="33" d="M374.61,108.03 C349.43,127.4 320.9,149.35 296.95,167.77 " fill="none" id="Repositorio-Rama" style="stroke:#181818;stroke-width:1.0;"/><text fill="#000000" font-family="sans-serif" font-size="13" lengthAdjust="spacing" textLength="7" x="358.4873" y="129.4253">1</text><text fill="#000000" font-family="sans-serif" font-size="13" lengthAdjust="spacing" textLength="20" x="284.0636" y="157.0396">0..*</text></g><!--link Repositorio to Commit--><g id="link_Repositorio_Commit"><path codeLine="34" d="M434.98,108.25 C428.05,193.87 413.95,368.1 407.03,453.73 " fill="none" id="Repositorio-Commit" style="stroke:#181818;stroke-width:1.0;"/><text fill="#000000" font-family="sans-serif" font-size="13" lengthAdjust="spacing" textLength="7" x="427.0165" y="129.306">1</text><text fill="#000000" font-family="sans-serif" font-size="13" lengthAdjust="spacing" textLength="20" x="386.1905" y="442.9974">0..*</text></g><!--link Repositorio to Issue--><g id="link_Repositorio_Issue"><path codeLine="35" d="M467.84,108.2 C500.9,165.18 554.48,257.53 585.24,310.55 " fill="none" id="Repositorio-Issue" style="stroke:#181818;stroke-width:1.0;"/><text fill="#000000" font-family="sans-serif" font-size="13" lengthAdjust="spacing" textLength="7" x="464.0867" y="129.2496">1</text><text fill="#000000" font-family="sans-serif" font-size="13" lengthAdjust="spacing" textLength="20" x="559.8595" y="300.0949">0..*</text></g><!--link Rama to Commit--><g id="link_Rama_Commit"><path codeLine="36" d="M285.85,251.33 C301.87,268.61 319.32,289.67 332,311 C358.94,356.32 378.46,413.58 390.13,453.82 " fill="none" id="Rama-Commit" style="stroke:#181818;stroke-width:1.0;"/><text fill="#000000" font-family="sans-serif" font-size="13" lengthAdjust="spacing" textLength="7" x="284.962" y="272.7774">1</text><text fill="#000000" font-family="sans-serif" font-size="13" lengthAdjust="spacing" textLength="20" x="366.9139" y="443.1">0..*</text></g><!--link Rama to PullRequest--><g id="link_Rama_PullRequest"><path codeLine="37" d="M208.31,251.28 C195.87,269.99 182.85,292.11 173.28,310.81 " fill="none" id="Rama-PullRequest" style="stroke:#181818;stroke-width:1.0;"/><text fill="#000000" font-family="sans-serif" font-size="13" lengthAdjust="spacing" textLength="7" x="195.0641" y="272.7194">1</text><text fill="#000000" font-family="sans-serif" font-size="13" lengthAdjust="spacing" textLength="20" x="153.6576" y="300.0862">0..*</text></g><!--link PullRequest to Rama--><g id="link_PullRequest_Rama"><path codeLine="39" d="M197.32,310.81 C209.83,292.11 222.86,269.99 232.36,251.28 " fill="none" id="PullRequest-Rama" style="stroke:#181818;stroke-width:1.0;"/><text fill="#000000" font-family="sans-serif" font-size="13" lengthAdjust="spacing" textLength="7" x="195.7558" y="300.0862">1</text><text fill="#000000" font-family="sans-serif" font-size="13" lengthAdjust="spacing" textLength="20" x="208.9111" y="272.7194">1..*</text></g><!--link PullRequest to Commit--><g id="link_PullRequest_Commit"><path codeLine="38" d="M226.49,394.09 C262.04,416.13 305.76,443.23 340.79,464.94 " fill="none" id="PullRequest-Commit" style="stroke:#181818;stroke-width:1.0;"/><text fill="#000000" font-family="sans-serif" font-size="13" lengthAdjust="spacing" textLength="7" x="229.7571" y="415.8095">1</text><text fill="#000000" font-family="sans-serif" font-size="13" lengthAdjust="spacing" textLength="20" x="312.892" y="457.2619">0..*</text></g><!--link Commit to Usuario--><g id="link_Commit_Usuario"><path codeLine="40" d="M421.82,555.03 C429.15,574.32 437.45,596.15 444.43,614.53 " fill="none" id="Commit-Usuario" style="stroke:#181818;stroke-width:1.0;"/><text fill="#000000" font-family="sans-serif" font-size="13" lengthAdjust="spacing" textLength="7" x="416.8786" y="576.4253">1</text><text fill="#000000" font-family="sans-serif" font-size="13" lengthAdjust="spacing" textLength="7" x="434.3907" y="604.0717">1</text></g><!--link Issue to Usuario--><g id="link_Issue_Usuario"><path codeLine="41" d="M588.91,394.23 C560.39,452.03 508.49,557.23 480.01,614.94 " fill="none" id="Issue-Usuario" style="stroke:#181818;stroke-width:1.0;"/><text fill="#000000" font-family="sans-serif" font-size="13" lengthAdjust="spacing" textLength="7" x="578.1503" y="415.6614">1</text><text fill="#000000" font-family="sans-serif" font-size="13" lengthAdjust="spacing" textLength="22" x="459.5023" y="604.2377">0..1</text></g><!--SRC=[dL6xKiCm4Epr5JSk8ScGrXsJE9CKC9xmw6LPGuwHhA2JQ3Bv92ewMlyOnWgsCZ4kQ6zlztPlXU94i9LxG-YCHGC71d1zRtHXPGeFpcBryZDPIX8MzmBhpogUFoDXWGfBNgQGLLx38Q-_2eN2J22t-CvBSsH7naIun3N_wqH6hbdk9XqdzqfjvPkNv0BriVvmNfaXRd1mMw2qhZ6maDOsymciFA6fphqiZDPuabnpsiLwTx8Y_dfcRoN5ZgUmv4xs6a_a-SZNCirHNIRQ47dvponjWBYmP9x0T0h9pMnsbRGF7e53vf65O8srFGrJBv6e81QNDSWVMfZtra-bT4Zo-s8Md4MQFVOD]--></g></svg>