<?xml version="1.0" encoding="us-ascii" standalone="no"?><svg xmlns="http://www.w3.org/2000/svg" xmlns:xlink="http://www.w3.org/1999/xlink" contentStyleType="text/css" height="842px" preserveAspectRatio="none" style="width:771px;height:842px;background:#FFFFFF;" version="1.1" viewBox="0 0 771 842" width="771px" zoomAndPan="magnify"><defs/><g><!--class Repositorio--><g id="elem_Repositorio"><rect codeLine="1" fill="#F1F1F1" height="100.8281" id="Repositorio" rx="2.5" ry="2.5" style="stroke:#181818;stroke-width:0.5;" width="249" x="343.5" y="7"/><ellipse cx="427.75" cy="23" fill="#ADD1B2" rx="11" ry="11" style="stroke:#181818;stroke-width:1.0;"/><path d="M430.5156,18.875 Q430.6719,18.6563 430.8594,18.5469 Q431.0469,18.4375 431.2656,18.4375 Q431.6406,18.4375 431.875,18.6953 Q432.1094,18.9531 432.1094,19.5625 L432.1094,21.0156 Q432.1094,21.625 431.875,21.8906 Q431.6406,22.1563 431.2656,22.1563 Q430.9219,22.1563 430.7188,21.9531 Q430.5156,21.7656 430.4063,21.25 Q430.3594,20.8906 430.1719,20.7031 Q429.8438,20.3281 429.2344,20.1094 Q428.625,19.8906 428,19.8906 Q427.2344,19.8906 426.6016,20.2188 Q425.9688,20.5469 425.4766,21.2969 Q424.9844,22.0469 424.9844,23.0781 L424.9844,24.1719 Q424.9844,25.4063 425.875,26.2266 Q426.7656,27.0469 428.3594,27.0469 Q429.2969,27.0469 429.9531,26.7969 Q430.3438,26.6406 430.7656,26.2031 Q431.0313,25.9375 431.1797,25.8594 Q431.3281,25.7813 431.5313,25.7813 Q431.8594,25.7813 432.1172,26.0391 Q432.375,26.2969 432.375,26.6406 Q432.375,26.9844 432.0313,27.3906 Q431.5313,27.9688 430.7344,28.2969 Q429.6563,28.75 428.3594,28.75 Q426.8438,28.75 425.6406,28.125 Q424.6563,27.625 423.9688,26.5547 Q423.2813,25.4844 423.2813,24.2031 L423.2813,23.0469 Q423.2813,21.7188 423.8984,20.5703 Q424.5156,19.4219 425.6094,18.8047 Q426.7031,18.1875 427.9375,18.1875 Q428.6719,18.1875 429.3203,18.3516 Q429.9688,18.5156 430.5156,18.875 Z " fill="#000000"/><text fill="#000000" font-family="sans-serif" font-size="14" lengthAdjust="spacing" textLength="72" x="448.25" y="28.7285">Repositorio</text><line style="stroke:#181818;stroke-width:0.5;" x1="344.5" x2="591.5" y1="39" y2="39"/><ellipse cx="354.5" cy="53.3047" fill="none" rx="3" ry="3" style="stroke:#038048;stroke-width:1.0;"/><text fill="#000000" font-family="sans-serif" font-size="14" lengthAdjust="spacing" textLength="94" x="363.5" y="57.5332">Nombre: String</text><ellipse cx="354.5" cy="70.9141" fill="none" rx="3" ry="3" style="stroke:#038048;stroke-width:1.0;"/><text fill="#000000" font-family="sans-serif" font-size="14" lengthAdjust="spacing" textLength="119" x="363.5" y="75.1426">Descripci&#243;n: String</text><ellipse cx="354.5" cy="88.5234" fill="none" rx="3" ry="3" style="stroke:#038048;stroke-width:1.0;"/><text fill="#000000" font-family="sans-serif" font-size="14" lengthAdjust="spacing" textLength="223" x="363.5" y="92.752">Visibilidad: Enum {P&#250;blico, Privado}</text><line style="stroke:#181818;stroke-width:0.5;" x1="344.5" x2="591.5" y1="99.8281" y2="99.8281"/></g><!--class Rama--><g id="elem_Rama"><rect codeLine="7" fill="#F1F1F1" height="83.2188" id="Rama" rx="2.5" ry="2.5" style="stroke:#181818;stroke-width:0.5;" width="120" x="265" y="186"/><ellipse cx="302.95" cy="202" fill="#ADD1B2" rx="11" ry="11" style="stroke:#181818;stroke-width:1.0;"/><path d="M305.7156,197.875 Q305.8719,197.6563 306.0594,197.5469 Q306.2469,197.4375 306.4656,197.4375 Q306.8406,197.4375 307.075,197.6953 Q307.3094,197.9531 307.3094,198.5625 L307.3094,200.0156 Q307.3094,200.625 307.075,200.8906 Q306.8406,201.1563 306.4656,201.1563 Q306.1219,201.1563 305.9188,200.9531 Q305.7156,200.7656 305.6063,200.25 Q305.5594,199.8906 305.3719,199.7031 Q305.0438,199.3281 304.4344,199.1094 Q303.825,198.8906 303.2,198.8906 Q302.4344,198.8906 301.8016,199.2188 Q301.1688,199.5469 300.6766,200.2969 Q300.1844,201.0469 300.1844,202.0781 L300.1844,203.1719 Q300.1844,204.4063 301.075,205.2266 Q301.9656,206.0469 303.5594,206.0469 Q304.4969,206.0469 305.1531,205.7969 Q305.5438,205.6406 305.9656,205.2031 Q306.2313,204.9375 306.3797,204.8594 Q306.5281,204.7813 306.7313,204.7813 Q307.0594,204.7813 307.3172,205.0391 Q307.575,205.2969 307.575,205.6406 Q307.575,205.9844 307.2313,206.3906 Q306.7313,206.9688 305.9344,207.2969 Q304.8563,207.75 303.5594,207.75 Q302.0438,207.75 300.8406,207.125 Q299.8563,206.625 299.1688,205.5547 Q298.4813,204.4844 298.4813,203.2031 L298.4813,202.0469 Q298.4813,200.7188 299.0984,199.5703 Q299.7156,198.4219 300.8094,197.8047 Q301.9031,197.1875 303.1375,197.1875 Q303.8719,197.1875 304.5203,197.3516 Q305.1688,197.5156 305.7156,197.875 Z " fill="#000000"/><text fill="#000000" font-family="sans-serif" font-size="14" lengthAdjust="spacing" textLength="37" x="322.05" y="207.7285">Rama</text><line style="stroke:#181818;stroke-width:0.5;" x1="266" x2="384" y1="218" y2="218"/><ellipse cx="276" cy="232.3047" fill="none" rx="3" ry="3" style="stroke:#038048;stroke-width:1.0;"/><text fill="#000000" font-family="sans-serif" font-size="14" lengthAdjust="spacing" textLength="94" x="285" y="236.5332">Nombre: String</text><ellipse cx="276" cy="249.9141" fill="none" rx="3" ry="3" style="stroke:#038048;stroke-width:1.0;"/><text fill="#000000" font-family="sans-serif" font-size="14" lengthAdjust="spacing" textLength="89" x="285" y="254.1426">Estado: String</text><line style="stroke:#181818;stroke-width:0.5;" x1="266" x2="384" y1="261.2188" y2="261.2188"/></g><!--class PullRequest--><g id="elem_PullRequest"><rect codeLine="12" fill="#F1F1F1" height="83.2188" id="PullRequest" rx="2.5" ry="2.5" style="stroke:#181818;stroke-width:0.5;" width="308" x="7" y="412"/><ellipse cx="118.75" cy="428" fill="#ADD1B2" rx="11" ry="11" style="stroke:#181818;stroke-width:1.0;"/><path d="M121.5156,423.875 Q121.6719,423.6563 121.8594,423.5469 Q122.0469,423.4375 122.2656,423.4375 Q122.6406,423.4375 122.875,423.6953 Q123.1094,423.9531 123.1094,424.5625 L123.1094,426.0156 Q123.1094,426.625 122.875,426.8906 Q122.6406,427.1563 122.2656,427.1563 Q121.9219,427.1563 121.7188,426.9531 Q121.5156,426.7656 121.4063,426.25 Q121.3594,425.8906 121.1719,425.7031 Q120.8438,425.3281 120.2344,425.1094 Q119.625,424.8906 119,424.8906 Q118.2344,424.8906 117.6016,425.2188 Q116.9688,425.5469 116.4766,426.2969 Q115.9844,427.0469 115.9844,428.0781 L115.9844,429.1719 Q115.9844,430.4063 116.875,431.2266 Q117.7656,432.0469 119.3594,432.0469 Q120.2969,432.0469 120.9531,431.7969 Q121.3438,431.6406 121.7656,431.2031 Q122.0313,430.9375 122.1797,430.8594 Q122.3281,430.7813 122.5313,430.7813 Q122.8594,430.7813 123.1172,431.0391 Q123.375,431.2969 123.375,431.6406 Q123.375,431.9844 123.0313,432.3906 Q122.5313,432.9688 121.7344,433.2969 Q120.6563,433.75 119.3594,433.75 Q117.8438,433.75 116.6406,433.125 Q115.6563,432.625 114.9688,431.5547 Q114.2813,430.4844 114.2813,429.2031 L114.2813,428.0469 Q114.2813,426.7188 114.8984,425.5703 Q115.5156,424.4219 116.6094,423.8047 Q117.7031,423.1875 118.9375,423.1875 Q119.6719,423.1875 120.3203,423.3516 Q120.9688,423.5156 121.5156,423.875 Z " fill="#000000"/><text fill="#000000" font-family="sans-serif" font-size="14" lengthAdjust="spacing" textLength="76" x="139.25" y="433.7285">PullRequest</text><line style="stroke:#181818;stroke-width:0.5;" x1="8" x2="314" y1="444" y2="444"/><ellipse cx="18" cy="458.3047" fill="none" rx="3" ry="3" style="stroke:#038048;stroke-width:1.0;"/><text fill="#000000" font-family="sans-serif" font-size="14" lengthAdjust="spacing" textLength="80" x="27" y="462.5332">T&#237;tulo: String</text><ellipse cx="18" cy="475.9141" fill="none" rx="3" ry="3" style="stroke:#038048;stroke-width:1.0;"/><text fill="#000000" font-family="sans-serif" font-size="14" lengthAdjust="spacing" textLength="282" x="27" y="480.1426">Estado: Enum {Abierto, Cerrado, Fusionado}</text><line style="stroke:#181818;stroke-width:0.5;" x1="8" x2="314" y1="487.2188" y2="487.2188"/></g><!--class Commit--><g id="elem_Commit"><rect codeLine="17" fill="#F1F1F1" height="100.8281" id="Commit" rx="2.5" ry="2.5" style="stroke:#181818;stroke-width:0.5;" width="124" x="374" y="573"/><ellipse cx="409.25" cy="589" fill="#ADD1B2" rx="11" ry="11" style="stroke:#181818;stroke-width:1.0;"/><path d="M412.0156,584.875 Q412.1719,584.6563 412.3594,584.5469 Q412.5469,584.4375 412.7656,584.4375 Q413.1406,584.4375 413.375,584.6953 Q413.6094,584.9531 413.6094,585.5625 L413.6094,587.0156 Q413.6094,587.625 413.375,587.8906 Q413.1406,588.1563 412.7656,588.1563 Q412.4219,588.1563 412.2188,587.9531 Q412.0156,587.7656 411.9063,587.25 Q411.8594,586.8906 411.6719,586.7031 Q411.3438,586.3281 410.7344,586.1094 Q410.125,585.8906 409.5,585.8906 Q408.7344,585.8906 408.1016,586.2188 Q407.4688,586.5469 406.9766,587.2969 Q406.4844,588.0469 406.4844,589.0781 L406.4844,590.1719 Q406.4844,591.4063 407.375,592.2266 Q408.2656,593.0469 409.8594,593.0469 Q410.7969,593.0469 411.4531,592.7969 Q411.8438,592.6406 412.2656,592.2031 Q412.5313,591.9375 412.6797,591.8594 Q412.8281,591.7813 413.0313,591.7813 Q413.3594,591.7813 413.6172,592.0391 Q413.875,592.2969 413.875,592.6406 Q413.875,592.9844 413.5313,593.3906 Q413.0313,593.9688 412.2344,594.2969 Q411.1563,594.75 409.8594,594.75 Q408.3438,594.75 407.1406,594.125 Q406.1563,593.625 405.4688,592.5547 Q404.7813,591.4844 404.7813,590.2031 L404.7813,589.0469 Q404.7813,587.7188 405.3984,586.5703 Q406.0156,585.4219 407.1094,584.8047 Q408.2031,584.1875 409.4375,584.1875 Q410.1719,584.1875 410.8203,584.3516 Q411.4688,584.5156 412.0156,584.875 Z " fill="#000000"/><text fill="#000000" font-family="sans-serif" font-size="14" lengthAdjust="spacing" textLength="47" x="427.75" y="594.7285">Commit</text><line style="stroke:#181818;stroke-width:0.5;" x1="375" x2="497" y1="605" y2="605"/><ellipse cx="385" cy="619.3047" fill="none" rx="3" ry="3" style="stroke:#038048;stroke-width:1.0;"/><text fill="#000000" font-family="sans-serif" font-size="14" lengthAdjust="spacing" textLength="77" x="394" y="623.5332">Hash: String</text><ellipse cx="385" cy="636.9141" fill="none" rx="3" ry="3" style="stroke:#038048;stroke-width:1.0;"/><text fill="#000000" font-family="sans-serif" font-size="14" lengthAdjust="spacing" textLength="98" x="394" y="641.1426">Mensaje: String</text><ellipse cx="385" cy="654.5234" fill="none" rx="3" ry="3" style="stroke:#038048;stroke-width:1.0;"/><text fill="#000000" font-family="sans-serif" font-size="14" lengthAdjust="spacing" textLength="78" x="394" y="658.752">Fecha: Date</text><line style="stroke:#181818;stroke-width:0.5;" x1="375" x2="497" y1="665.8281" y2="665.8281"/></g><!--class Usuario--><g id="elem_Usuario"><rect codeLine="23" fill="#F1F1F1" height="83.2188" id="Usuario" rx="2.5" ry="2.5" style="stroke:#181818;stroke-width:0.5;" width="120" x="453" y="752"/><ellipse cx="486" cy="768" fill="#ADD1B2" rx="11" ry="11" style="stroke:#181818;stroke-width:1.0;"/><path d="M488.7656,763.875 Q488.9219,763.6563 489.1094,763.5469 Q489.2969,763.4375 489.5156,763.4375 Q489.8906,763.4375 490.125,763.6953 Q490.3594,763.9531 490.3594,764.5625 L490.3594,766.0156 Q490.3594,766.625 490.125,766.8906 Q489.8906,767.1563 489.5156,767.1563 Q489.1719,767.1563 488.9688,766.9531 Q488.7656,766.7656 488.6563,766.25 Q488.6094,765.8906 488.4219,765.7031 Q488.0938,765.3281 487.4844,765.1094 Q486.875,764.8906 486.25,764.8906 Q485.4844,764.8906 484.8516,765.2188 Q484.2188,765.5469 483.7266,766.2969 Q483.2344,767.0469 483.2344,768.0781 L483.2344,769.1719 Q483.2344,770.4063 484.125,771.2266 Q485.0156,772.0469 486.6094,772.0469 Q487.5469,772.0469 488.2031,771.7969 Q488.5938,771.6406 489.0156,771.2031 Q489.2813,770.9375 489.4297,770.8594 Q489.5781,770.7813 489.7813,770.7813 Q490.1094,770.7813 490.3672,771.0391 Q490.625,771.2969 490.625,771.6406 Q490.625,771.9844 490.2813,772.3906 Q489.7813,772.9688 488.9844,773.2969 Q487.9063,773.75 486.6094,773.75 Q485.0938,773.75 483.8906,773.125 Q482.9063,772.625 482.2188,771.5547 Q481.5313,770.4844 481.5313,769.2031 L481.5313,768.0469 Q481.5313,766.7188 482.1484,765.5703 Q482.7656,764.4219 483.8594,763.8047 Q484.9531,763.1875 486.1875,763.1875 Q486.9219,763.1875 487.5703,763.3516 Q488.2188,763.5156 488.7656,763.875 Z " fill="#000000"/><text fill="#000000" font-family="sans-serif" font-size="14" lengthAdjust="spacing" textLength="48" x="504" y="773.7285">Usuario</text><line style="stroke:#181818;stroke-width:0.5;" x1="454" x2="572" y1="784" y2="784"/><ellipse cx="464" cy="798.3047" fill="none" rx="3" ry="3" style="stroke:#038048;stroke-width:1.0;"/><text fill="#000000" font-family="sans-serif" font-size="14" lengthAdjust="spacing" textLength="94" x="473" y="802.5332">Nombre: String</text><ellipse cx="464" cy="815.9141" fill="none" rx="3" ry="3" style="stroke:#038048;stroke-width:1.0;"/><text fill="#000000" font-family="sans-serif" font-size="14" lengthAdjust="spacing" textLength="79" x="473" y="820.1426">Email: String</text><line style="stroke:#181818;stroke-width:0.5;" x1="454" x2="572" y1="827.2188" y2="827.2188"/></g><!--class Issue--><g id="elem_Issue"><rect codeLine="28" fill="#F1F1F1" height="83.2188" id="Issue" rx="2.5" ry="2.5" style="stroke:#181818;stroke-width:0.5;" width="233" x="531.5" y="299"/><ellipse cx="627.25" cy="315" fill="#ADD1B2" rx="11" ry="11" style="stroke:#181818;stroke-width:1.0;"/><path d="M630.0156,310.875 Q630.1719,310.6563 630.3594,310.5469 Q630.5469,310.4375 630.7656,310.4375 Q631.1406,310.4375 631.375,310.6953 Q631.6094,310.9531 631.6094,311.5625 L631.6094,313.0156 Q631.6094,313.625 631.375,313.8906 Q631.1406,314.1563 630.7656,314.1563 Q630.4219,314.1563 630.2188,313.9531 Q630.0156,313.7656 629.9063,313.25 Q629.8594,312.8906 629.6719,312.7031 Q629.3438,312.3281 628.7344,312.1094 Q628.125,311.8906 627.5,311.8906 Q626.7344,311.8906 626.1016,312.2188 Q625.4688,312.5469 624.9766,313.2969 Q624.4844,314.0469 624.4844,315.0781 L624.4844,316.1719 Q624.4844,317.4063 625.375,318.2266 Q626.2656,319.0469 627.8594,319.0469 Q628.7969,319.0469 629.4531,318.7969 Q629.8438,318.6406 630.2656,318.2031 Q630.5313,317.9375 630.6797,317.8594 Q630.8281,317.7813 631.0313,317.7813 Q631.3594,317.7813 631.6172,318.0391 Q631.875,318.2969 631.875,318.6406 Q631.875,318.9844 631.5313,319.3906 Q631.0313,319.9688 630.2344,320.2969 Q629.1563,320.75 627.8594,320.75 Q626.3438,320.75 625.1406,320.125 Q624.1563,319.625 623.4688,318.5547 Q622.7813,317.4844 622.7813,316.2031 L622.7813,315.0469 Q622.7813,313.7188 623.3984,312.5703 Q624.0156,311.4219 625.1094,310.8047 Q626.2031,310.1875 627.4375,310.1875 Q628.1719,310.1875 628.8203,310.3516 Q629.4688,310.5156 630.0156,310.875 Z " fill="#000000"/><text fill="#000000" font-family="sans-serif" font-size="14" lengthAdjust="spacing" textLength="33" x="647.75" y="320.7285">Issue</text><line style="stroke:#181818;stroke-width:0.5;" x1="532.5" x2="763.5" y1="331" y2="331"/><ellipse cx="542.5" cy="345.3047" fill="none" rx="3" ry="3" style="stroke:#038048;stroke-width:1.0;"/><text fill="#000000" font-family="sans-serif" font-size="14" lengthAdjust="spacing" textLength="80" x="551.5" y="349.5332">T&#237;tulo: String</text><ellipse cx="542.5" cy="362.9141" fill="none" rx="3" ry="3" style="stroke:#038048;stroke-width:1.0;"/><text fill="#000000" font-family="sans-serif" font-size="14" lengthAdjust="spacing" textLength="207" x="551.5" y="367.1426">Estado: Enum {Abierto, Cerrado}</text><line style="stroke:#181818;stroke-width:0.5;" x1="532.5" x2="763.5" y1="374.2188" y2="374.2188"/></g><!--link Repositorio to Rama--><g id="link_Repositorio_Rama"><path codeLine="33" d="M418.11,108.05 C408.87,117.78 399.47,128.05 391,138 C378.21,153.03 365.02,170.3 353.83,185.56 " fill="none" id="Repositorio-Rama" style="stroke:#181818;stroke-width:1.0;"/><text fill="#000000" font-family="sans-serif" font-size="13" lengthAdjust="spacing" textLength="49" x="392" y="152.4951">contiene</text><text fill="#000000" font-family="sans-serif" font-size="13" lengthAdjust="spacing" textLength="7" x="403.9357" y="129.4479">1</text><text fill="#000000" font-family="sans-serif" font-size="13" lengthAdjust="spacing" textLength="20" x="336.831" y="175.1065">0..*</text></g><!--link Repositorio to Commit--><g id="link_Repositorio_Commit"><path codeLine="34" d="M465.45,108.24 C462.97,156.87 459.13,233.02 456,299 C450.85,407.43 453.55,434.78 445,543 C444.23,552.69 443.21,563.03 442.14,572.93 " fill="none" id="Repositorio-Commit" style="stroke:#181818;stroke-width:1.0;"/><text fill="#000000" font-family="sans-serif" font-size="13" lengthAdjust="spacing" textLength="56" x="457" y="345.9951">almacena</text><text fill="#000000" font-family="sans-serif" font-size="13" lengthAdjust="spacing" textLength="7" x="457.6748" y="129.2947">1</text><text fill="#000000" font-family="sans-serif" font-size="13" lengthAdjust="spacing" textLength="20" x="444.4097" y="562.2255">0..*</text></g><!--link Repositorio to Issue--><g id="link_Repositorio_Issue"><path codeLine="35" d="M499.77,108.09 C534.48,162.29 589.47,248.12 621.81,298.61 " fill="none" id="Repositorio-Issue" style="stroke:#181818;stroke-width:1.0;"/><text fill="#000000" font-family="sans-serif" font-size="13" lengthAdjust="spacing" textLength="41" x="528" y="152.4951">incluye</text><text fill="#000000" font-family="sans-serif" font-size="13" lengthAdjust="spacing" textLength="7" x="496.5688" y="129.4933">1</text><text fill="#000000" font-family="sans-serif" font-size="13" lengthAdjust="spacing" textLength="20" x="596.0422" y="288.1645">0..*</text></g><!--link Rama to Commit--><g id="link_Rama_Commit"><path codeLine="36" d="M349.45,269.37 C354.44,278.87 359.3,289.1 363,299 C381.64,348.81 411.4,495.21 426.52,572.85 " fill="none" id="Rama-Commit" style="stroke:#181818;stroke-width:1.0;"/><text fill="#000000" font-family="sans-serif" font-size="13" lengthAdjust="spacing" textLength="28" x="411" y="458.9951">tiene</text><text fill="#000000" font-family="sans-serif" font-size="13" lengthAdjust="spacing" textLength="7" x="345.7889" y="290.8237">1</text><text fill="#000000" font-family="sans-serif" font-size="13" lengthAdjust="spacing" textLength="20" x="403.7806" y="562.1343">0..*</text></g><!--link Rama to PullRequest--><g id="link_Rama_PullRequest"><path codeLine="37" d="M264.81,241.76 C233.17,251.97 196.75,269.51 176,299 C152.97,331.74 151.72,378.59 154.67,411.9 " fill="none" id="Rama-PullRequest" style="stroke:#181818;stroke-width:1.0;"/><text fill="#000000" font-family="sans-serif" font-size="13" lengthAdjust="spacing" textLength="67" x="177" y="345.9951">participa en</text><text fill="#000000" font-family="sans-serif" font-size="13" lengthAdjust="spacing" textLength="7" x="250.0478" y="240.0261">1</text><text fill="#000000" font-family="sans-serif" font-size="13" lengthAdjust="spacing" textLength="20" x="131.9653" y="401.1911">0..*</text></g><!--link PullRequest to Rama--><g id="link_PullRequest_Rama"><path codeLine="39" d="M219.26,411.84 C229.94,402.79 240.41,392.68 249,382 C252.9,377.15 284.23,312.93 305.43,269.11 " fill="none" id="PullRequest-Rama" style="stroke:#181818;stroke-width:1.0;"/><text fill="#000000" font-family="sans-serif" font-size="13" lengthAdjust="spacing" textLength="66" x="291" y="345.9951">fusiona con</text><text fill="#000000" font-family="sans-serif" font-size="13" lengthAdjust="spacing" textLength="7" x="221.3296" y="401.1212">1</text><text fill="#000000" font-family="sans-serif" font-size="13" lengthAdjust="spacing" textLength="20" x="280.5325" y="290.8328">1..*</text></g><!--link PullRequest to Commit--><g id="link_PullRequest_Commit"><path codeLine="38" d="M227.57,495.17 C272.08,522.36 330.24,557.89 373.81,584.51 " fill="none" id="PullRequest-Commit" style="stroke:#181818;stroke-width:1.0;"/><text fill="#000000" font-family="sans-serif" font-size="13" lengthAdjust="spacing" textLength="41" x="300" y="539.4951">incluye</text><text fill="#000000" font-family="sans-serif" font-size="13" lengthAdjust="spacing" textLength="7" x="230.6218" y="516.5919">1</text><text fill="#000000" font-family="sans-serif" font-size="13" lengthAdjust="spacing" textLength="20" x="345.9142" y="576.8942">0..*</text></g><!--link Commit to Usuario--><g id="link_Commit_Usuario"><path codeLine="40" d="M458.89,674.45 C470.2,699.11 483.66,728.49 494.33,751.77 " fill="none" id="Commit-Usuario" style="stroke:#181818;stroke-width:1.0;"/><text fill="#000000" font-family="sans-serif" font-size="13" lengthAdjust="spacing" textLength="61" x="480" y="718.4951">creado por</text><text fill="#000000" font-family="sans-serif" font-size="13" lengthAdjust="spacing" textLength="7" x="454.2532" y="695.1615">1</text><text fill="#000000" font-family="sans-serif" font-size="13" lengthAdjust="spacing" textLength="7" x="483.6581" y="741.0396">1</text></g><!--link Issue to Usuario--><g id="link_Issue_Usuario"><path codeLine="41" d="M640.19,382.05 C625.98,452.53 593.16,601.61 548,722 C544.3,731.85 539.67,742.15 534.98,751.75 " fill="none" id="Issue-Usuario" style="stroke:#181818;stroke-width:1.0;"/><text fill="#000000" font-family="sans-serif" font-size="13" lengthAdjust="spacing" textLength="63" x="608" y="539.4951">asignado a</text><text fill="#000000" font-family="sans-serif" font-size="13" lengthAdjust="spacing" textLength="7" x="631.3168" y="403.7628">1</text><text fill="#000000" font-family="sans-serif" font-size="13" lengthAdjust="spacing" textLength="22" x="514.7986" y="741.0163">0..1</text></g><!--SRC=[dLAvJiD04EttAqOk8Ob8wmxb41IWA1pzU3D91krXza12KJw9YeusFuQDZTaeHq4x- -PTirAXzp2dqdeErh65ZG2ulBUwS9J3Gt1iLlLaJ5uwBYNlFaqwVsRF1IjUu2A7YOaQDhFTLw5OsXxC7B_Xmcx5LWZPAA76Kn8J7ofmD-bsPb6fERr6yg5PVTnzXAZiiTt6mNN1v49bO4JELVCUJADdQ_QzZApMt5BUe5-dV7TaFBxisPkIN6CEOmpqn_7a8vvfRQAHrM6YM-yZ_JFBJu3qODamWtuVigl1u29h2iv1MXEO39r1jl5pGALHai4psCPm3coaYkyLQwroWgxLFKIaTyoXH1TOSeb0HgHF9sX_fOz1XsdqPNFgkWBHRdUuh3jOLP6ZgauehHDDl4Hu3uYUL_NN0Vm6]--></g></svg>