<?xml version="1.0" encoding="us-ascii" standalone="no"?><svg xmlns="http://www.w3.org/2000/svg" xmlns:xlink="http://www.w3.org/1999/xlink" contentStyleType="text/css" height="724px" preserveAspectRatio="none" style="width:315px;height:724px;background:#FFFFFF;" version="1.1" viewBox="0 0 315 724" width="315px" zoomAndPan="magnify"><defs/><g><!--class Biblioteca--><g id="elem_Biblioteca"><rect codeLine="1" fill="#F1F1F1" height="48" id="Biblioteca" rx="2.5" ry="2.5" style="stroke:#181818;stroke-width:0.5;" width="93" x="113.5" y="7"/><ellipse cx="128.5" cy="23" fill="#ADD1B2" rx="11" ry="11" style="stroke:#181818;stroke-width:1.0;"/><path d="M131.2656,18.875 Q131.4219,18.6563 131.6094,18.5469 Q131.7969,18.4375 132.0156,18.4375 Q132.3906,18.4375 132.625,18.6953 Q132.8594,18.9531 132.8594,19.5625 L132.8594,21.0156 Q132.8594,21.625 132.625,21.8906 Q132.3906,22.1563 132.0156,22.1563 Q131.6719,22.1563 131.4688,21.9531 Q131.2656,21.7656 131.1563,21.25 Q131.1094,20.8906 130.9219,20.7031 Q130.5938,20.3281 129.9844,20.1094 Q129.375,19.8906 128.75,19.8906 Q127.9844,19.8906 127.3516,20.2188 Q126.7188,20.5469 126.2266,21.2969 Q125.7344,22.0469 125.7344,23.0781 L125.7344,24.1719 Q125.7344,25.4063 126.625,26.2266 Q127.5156,27.0469 129.1094,27.0469 Q130.0469,27.0469 130.7031,26.7969 Q131.0938,26.6406 131.5156,26.2031 Q131.7813,25.9375 131.9297,25.8594 Q132.0781,25.7813 132.2813,25.7813 Q132.6094,25.7813 132.8672,26.0391 Q133.125,26.2969 133.125,26.6406 Q133.125,26.9844 132.7813,27.3906 Q132.2813,27.9688 131.4844,28.2969 Q130.4063,28.75 129.1094,28.75 Q127.5938,28.75 126.3906,28.125 Q125.4063,27.625 124.7188,26.5547 Q124.0313,25.4844 124.0313,24.2031 L124.0313,23.0469 Q124.0313,21.7188 124.6484,20.5703 Q125.2656,19.4219 126.3594,18.8047 Q127.4531,18.1875 128.6875,18.1875 Q129.4219,18.1875 130.0703,18.3516 Q130.7188,18.5156 131.2656,18.875 Z " fill="#000000"/><text fill="#000000" font-family="sans-serif" font-size="14" lengthAdjust="spacing" textLength="61" x="142.5" y="28.7285">Biblioteca</text><line style="stroke:#181818;stroke-width:0.5;" x1="114.5" x2="205.5" y1="39" y2="39"/><line style="stroke:#181818;stroke-width:0.5;" x1="114.5" x2="205.5" y1="47" y2="47"/></g><!--class Libro--><g id="elem_Libro"><rect codeLine="4" fill="#F1F1F1" height="100.8281" id="Libro" rx="2.5" ry="2.5" style="stroke:#181818;stroke-width:0.5;" width="106" x="91" y="473"/><ellipse cx="124.9" cy="489" fill="#ADD1B2" rx="11" ry="11" style="stroke:#181818;stroke-width:1.0;"/><path d="M127.6656,484.875 Q127.8219,484.6563 128.0094,484.5469 Q128.1969,484.4375 128.4156,484.4375 Q128.7906,484.4375 129.025,484.6953 Q129.2594,484.9531 129.2594,485.5625 L129.2594,487.0156 Q129.2594,487.625 129.025,487.8906 Q128.7906,488.1563 128.4156,488.1563 Q128.0719,488.1563 127.8688,487.9531 Q127.6656,487.7656 127.5563,487.25 Q127.5094,486.8906 127.3219,486.7031 Q126.9938,486.3281 126.3844,486.1094 Q125.775,485.8906 125.15,485.8906 Q124.3844,485.8906 123.7516,486.2188 Q123.1188,486.5469 122.6266,487.2969 Q122.1344,488.0469 122.1344,489.0781 L122.1344,490.1719 Q122.1344,491.4063 123.025,492.2266 Q123.9156,493.0469 125.5094,493.0469 Q126.4469,493.0469 127.1031,492.7969 Q127.4938,492.6406 127.9156,492.2031 Q128.1813,491.9375 128.3297,491.8594 Q128.4781,491.7813 128.6813,491.7813 Q129.0094,491.7813 129.2672,492.0391 Q129.525,492.2969 129.525,492.6406 Q129.525,492.9844 129.1813,493.3906 Q128.6813,493.9688 127.8844,494.2969 Q126.8063,494.75 125.5094,494.75 Q123.9938,494.75 122.7906,494.125 Q121.8063,493.625 121.1188,492.5547 Q120.4313,491.4844 120.4313,490.2031 L120.4313,489.0469 Q120.4313,487.7188 121.0484,486.5703 Q121.6656,485.4219 122.7594,484.8047 Q123.8531,484.1875 125.0875,484.1875 Q125.8219,484.1875 126.4703,484.3516 Q127.1188,484.5156 127.6656,484.875 Z " fill="#000000"/><text fill="#000000" font-family="sans-serif" font-size="14" lengthAdjust="spacing" textLength="32" x="143.1" y="494.7285">Libro</text><line style="stroke:#181818;stroke-width:0.5;" x1="92" x2="196" y1="505" y2="505"/><ellipse cx="102" cy="519.3047" fill="none" rx="3" ry="3" style="stroke:#038048;stroke-width:1.0;"/><text fill="#000000" font-family="sans-serif" font-size="14" lengthAdjust="spacing" textLength="80" x="111" y="523.5332">T&#237;tulo: String</text><ellipse cx="102" cy="536.9141" fill="none" rx="3" ry="3" style="stroke:#038048;stroke-width:1.0;"/><text fill="#000000" font-family="sans-serif" font-size="14" lengthAdjust="spacing" textLength="75" x="111" y="541.1426">ISBN: String</text><ellipse cx="102" cy="554.5234" fill="none" rx="3" ry="3" style="stroke:#038048;stroke-width:1.0;"/><text fill="#000000" font-family="sans-serif" font-size="14" lengthAdjust="spacing" textLength="77" x="111" y="558.752">A&#241;o: Integer</text><line style="stroke:#181818;stroke-width:0.5;" x1="92" x2="196" y1="565.8281" y2="565.8281"/></g><!--class Usuario--><g id="elem_Usuario"><rect codeLine="10" fill="#F1F1F1" height="100.8281" id="Usuario" rx="2.5" ry="2.5" style="stroke:#181818;stroke-width:0.5;" width="140" x="168" y="133"/><ellipse cx="210" cy="149" fill="#ADD1B2" rx="11" ry="11" style="stroke:#181818;stroke-width:1.0;"/><path d="M212.7656,144.875 Q212.9219,144.6563 213.1094,144.5469 Q213.2969,144.4375 213.5156,144.4375 Q213.8906,144.4375 214.125,144.6953 Q214.3594,144.9531 214.3594,145.5625 L214.3594,147.0156 Q214.3594,147.625 214.125,147.8906 Q213.8906,148.1563 213.5156,148.1563 Q213.1719,148.1563 212.9688,147.9531 Q212.7656,147.7656 212.6563,147.25 Q212.6094,146.8906 212.4219,146.7031 Q212.0938,146.3281 211.4844,146.1094 Q210.875,145.8906 210.25,145.8906 Q209.4844,145.8906 208.8516,146.2188 Q208.2188,146.5469 207.7266,147.2969 Q207.2344,148.0469 207.2344,149.0781 L207.2344,150.1719 Q207.2344,151.4063 208.125,152.2266 Q209.0156,153.0469 210.6094,153.0469 Q211.5469,153.0469 212.2031,152.7969 Q212.5938,152.6406 213.0156,152.2031 Q213.2813,151.9375 213.4297,151.8594 Q213.5781,151.7813 213.7813,151.7813 Q214.1094,151.7813 214.3672,152.0391 Q214.625,152.2969 214.625,152.6406 Q214.625,152.9844 214.2813,153.3906 Q213.7813,153.9688 212.9844,154.2969 Q211.9063,154.75 210.6094,154.75 Q209.0938,154.75 207.8906,154.125 Q206.9063,153.625 206.2188,152.5547 Q205.5313,151.4844 205.5313,150.2031 L205.5313,149.0469 Q205.5313,147.7188 206.1484,146.5703 Q206.7656,145.4219 207.8594,144.8047 Q208.9531,144.1875 210.1875,144.1875 Q210.9219,144.1875 211.5703,144.3516 Q212.2188,144.5156 212.7656,144.875 Z " fill="#000000"/><text fill="#000000" font-family="sans-serif" font-size="14" lengthAdjust="spacing" textLength="48" x="230" y="154.7285">Usuario</text><line style="stroke:#181818;stroke-width:0.5;" x1="169" x2="307" y1="165" y2="165"/><ellipse cx="179" cy="179.3047" fill="none" rx="3" ry="3" style="stroke:#038048;stroke-width:1.0;"/><text fill="#000000" font-family="sans-serif" font-size="14" lengthAdjust="spacing" textLength="94" x="188" y="183.5332">Nombre: String</text><ellipse cx="179" cy="196.9141" fill="none" rx="3" ry="3" style="stroke:#038048;stroke-width:1.0;"/><text fill="#000000" font-family="sans-serif" font-size="14" lengthAdjust="spacing" textLength="65" x="188" y="201.1426">ID: Integer</text><ellipse cx="179" cy="214.5234" fill="none" rx="3" ry="3" style="stroke:#038048;stroke-width:1.0;"/><text fill="#000000" font-family="sans-serif" font-size="14" lengthAdjust="spacing" textLength="114" x="188" y="218.752">Membres&#237;a: String</text><line style="stroke:#181818;stroke-width:0.5;" x1="169" x2="307" y1="225.8281" y2="225.8281"/></g><!--class Autor--><g id="elem_Autor"><rect codeLine="16" fill="#F1F1F1" height="65.6094" id="Autor" rx="2.5" ry="2.5" style="stroke:#181818;stroke-width:0.5;" width="120" x="7" y="652"/><ellipse cx="46.3" cy="668" fill="#ADD1B2" rx="11" ry="11" style="stroke:#181818;stroke-width:1.0;"/><path d="M49.0656,663.875 Q49.2219,663.6563 49.4094,663.5469 Q49.5969,663.4375 49.8156,663.4375 Q50.1906,663.4375 50.425,663.6953 Q50.6594,663.9531 50.6594,664.5625 L50.6594,666.0156 Q50.6594,666.625 50.425,666.8906 Q50.1906,667.1563 49.8156,667.1563 Q49.4719,667.1563 49.2688,666.9531 Q49.0656,666.7656 48.9563,666.25 Q48.9094,665.8906 48.7219,665.7031 Q48.3938,665.3281 47.7844,665.1094 Q47.175,664.8906 46.55,664.8906 Q45.7844,664.8906 45.1516,665.2188 Q44.5188,665.5469 44.0266,666.2969 Q43.5344,667.0469 43.5344,668.0781 L43.5344,669.1719 Q43.5344,670.4063 44.425,671.2266 Q45.3156,672.0469 46.9094,672.0469 Q47.8469,672.0469 48.5031,671.7969 Q48.8938,671.6406 49.3156,671.2031 Q49.5813,670.9375 49.7297,670.8594 Q49.8781,670.7813 50.0813,670.7813 Q50.4094,670.7813 50.6672,671.0391 Q50.925,671.2969 50.925,671.6406 Q50.925,671.9844 50.5813,672.3906 Q50.0813,672.9688 49.2844,673.2969 Q48.2063,673.75 46.9094,673.75 Q45.3938,673.75 44.1906,673.125 Q43.2063,672.625 42.5188,671.5547 Q41.8313,670.4844 41.8313,669.2031 L41.8313,668.0469 Q41.8313,666.7188 42.4484,665.5703 Q43.0656,664.4219 44.1594,663.8047 Q45.2531,663.1875 46.4875,663.1875 Q47.2219,663.1875 47.8703,663.3516 Q48.5188,663.5156 49.0656,663.875 Z " fill="#000000"/><text fill="#000000" font-family="sans-serif" font-size="14" lengthAdjust="spacing" textLength="34" x="65.7" y="673.7285">Autor</text><line style="stroke:#181818;stroke-width:0.5;" x1="8" x2="126" y1="684" y2="684"/><ellipse cx="18" cy="698.3047" fill="none" rx="3" ry="3" style="stroke:#038048;stroke-width:1.0;"/><text fill="#000000" font-family="sans-serif" font-size="14" lengthAdjust="spacing" textLength="94" x="27" y="702.5332">Nombre: String</text><line style="stroke:#181818;stroke-width:0.5;" x1="8" x2="126" y1="709.6094" y2="709.6094"/></g><!--class Pr?stamo--><g id="elem_Pr&#233;stamo"><rect codeLine="20" fill="#F1F1F1" height="83.2188" id="Pr&#233;stamo" rx="2.5" ry="2.5" style="stroke:#181818;stroke-width:0.5;" width="136" x="168" y="312"/><ellipse cx="202.8" cy="328" fill="#ADD1B2" rx="11" ry="11" style="stroke:#181818;stroke-width:1.0;"/><path d="M205.5656,323.875 Q205.7219,323.6563 205.9094,323.5469 Q206.0969,323.4375 206.3156,323.4375 Q206.6906,323.4375 206.925,323.6953 Q207.1594,323.9531 207.1594,324.5625 L207.1594,326.0156 Q207.1594,326.625 206.925,326.8906 Q206.6906,327.1563 206.3156,327.1563 Q205.9719,327.1563 205.7688,326.9531 Q205.5656,326.7656 205.4563,326.25 Q205.4094,325.8906 205.2219,325.7031 Q204.8938,325.3281 204.2844,325.1094 Q203.675,324.8906 203.05,324.8906 Q202.2844,324.8906 201.6516,325.2188 Q201.0188,325.5469 200.5266,326.2969 Q200.0344,327.0469 200.0344,328.0781 L200.0344,329.1719 Q200.0344,330.4063 200.925,331.2266 Q201.8156,332.0469 203.4094,332.0469 Q204.3469,332.0469 205.0031,331.7969 Q205.3938,331.6406 205.8156,331.2031 Q206.0813,330.9375 206.2297,330.8594 Q206.3781,330.7813 206.5813,330.7813 Q206.9094,330.7813 207.1672,331.0391 Q207.425,331.2969 207.425,331.6406 Q207.425,331.9844 207.0813,332.3906 Q206.5813,332.9688 205.7844,333.2969 Q204.7063,333.75 203.4094,333.75 Q201.8938,333.75 200.6906,333.125 Q199.7063,332.625 199.0188,331.5547 Q198.3313,330.4844 198.3313,329.2031 L198.3313,328.0469 Q198.3313,326.7188 198.9484,325.5703 Q199.5656,324.4219 200.6594,323.8047 Q201.7531,323.1875 202.9875,323.1875 Q203.7219,323.1875 204.3703,323.3516 Q205.0188,323.5156 205.5656,323.875 Z " fill="#000000"/><text fill="#000000" font-family="sans-serif" font-size="14" lengthAdjust="spacing" textLength="60" x="221.2" y="333.7285">Pr&#233;stamo</text><line style="stroke:#181818;stroke-width:0.5;" x1="169" x2="303" y1="344" y2="344"/><ellipse cx="179" cy="358.3047" fill="none" rx="3" ry="3" style="stroke:#038048;stroke-width:1.0;"/><text fill="#000000" font-family="sans-serif" font-size="14" lengthAdjust="spacing" textLength="110" x="188" y="362.5332">FechaInicio: Date</text><ellipse cx="179" cy="375.9141" fill="none" rx="3" ry="3" style="stroke:#038048;stroke-width:1.0;"/><text fill="#000000" font-family="sans-serif" font-size="14" lengthAdjust="spacing" textLength="98" x="188" y="380.1426">FechaFin: Date</text><line style="stroke:#181818;stroke-width:0.5;" x1="169" x2="303" y1="387.2188" y2="387.2188"/></g><!--class Categor?a--><g id="elem_Categor&#237;a"><rect codeLine="25" fill="#F1F1F1" height="65.6094" id="Categor&#237;a" rx="2.5" ry="2.5" style="stroke:#181818;stroke-width:0.5;" width="120" x="162" y="652"/><ellipse cx="188.7" cy="668" fill="#ADD1B2" rx="11" ry="11" style="stroke:#181818;stroke-width:1.0;"/><path d="M191.4656,663.875 Q191.6219,663.6563 191.8094,663.5469 Q191.9969,663.4375 192.2156,663.4375 Q192.5906,663.4375 192.825,663.6953 Q193.0594,663.9531 193.0594,664.5625 L193.0594,666.0156 Q193.0594,666.625 192.825,666.8906 Q192.5906,667.1563 192.2156,667.1563 Q191.8719,667.1563 191.6688,666.9531 Q191.4656,666.7656 191.3563,666.25 Q191.3094,665.8906 191.1219,665.7031 Q190.7938,665.3281 190.1844,665.1094 Q189.575,664.8906 188.95,664.8906 Q188.1844,664.8906 187.5516,665.2188 Q186.9188,665.5469 186.4266,666.2969 Q185.9344,667.0469 185.9344,668.0781 L185.9344,669.1719 Q185.9344,670.4063 186.825,671.2266 Q187.7156,672.0469 189.3094,672.0469 Q190.2469,672.0469 190.9031,671.7969 Q191.2938,671.6406 191.7156,671.2031 Q191.9813,670.9375 192.1297,670.8594 Q192.2781,670.7813 192.4813,670.7813 Q192.8094,670.7813 193.0672,671.0391 Q193.325,671.2969 193.325,671.6406 Q193.325,671.9844 192.9813,672.3906 Q192.4813,672.9688 191.6844,673.2969 Q190.6063,673.75 189.3094,673.75 Q187.7938,673.75 186.5906,673.125 Q185.6063,672.625 184.9188,671.5547 Q184.2313,670.4844 184.2313,669.2031 L184.2313,668.0469 Q184.2313,666.7188 184.8484,665.5703 Q185.4656,664.4219 186.5594,663.8047 Q187.6531,663.1875 188.8875,663.1875 Q189.6219,663.1875 190.2703,663.3516 Q190.9188,663.5156 191.4656,663.875 Z " fill="#000000"/><text fill="#000000" font-family="sans-serif" font-size="14" lengthAdjust="spacing" textLength="62" x="205.3" y="673.7285">Categor&#237;a</text><line style="stroke:#181818;stroke-width:0.5;" x1="163" x2="281" y1="684" y2="684"/><ellipse cx="173" cy="698.3047" fill="none" rx="3" ry="3" style="stroke:#038048;stroke-width:1.0;"/><text fill="#000000" font-family="sans-serif" font-size="14" lengthAdjust="spacing" textLength="94" x="182" y="702.5332">Nombre: String</text><line style="stroke:#181818;stroke-width:0.5;" x1="163" x2="281" y1="709.6094" y2="709.6094"/></g><!--link Biblioteca to Libro--><g id="link_Biblioteca_Libro"><path codeLine="29" d="M157.46,55.23 C155.33,75.68 152.43,106.28 151,133 C144.47,255.07 143.67,398.94 143.77,472.96 " fill="none" id="Biblioteca-Libro" style="stroke:#181818;stroke-width:1.0;"/><text fill="#000000" font-family="sans-serif" font-size="13" lengthAdjust="spacing" textLength="28" x="148" y="278.4951">tiene</text><text fill="#000000" font-family="sans-serif" font-size="13" lengthAdjust="spacing" textLength="7" x="148.9878" y="76.624">1</text><text fill="#000000" font-family="sans-serif" font-size="13" lengthAdjust="spacing" textLength="20" x="122.3314" y="462.2597">0..*</text></g><!--link Biblioteca to Usuario--><g id="link_Biblioteca_Usuario"><path codeLine="30" d="M172.02,55.19 C182.7,75.8 198.68,106.64 212.24,132.8 " fill="none" id="Biblioteca-Usuario" style="stroke:#181818;stroke-width:1.0;"/><text fill="#000000" font-family="sans-serif" font-size="13" lengthAdjust="spacing" textLength="28" x="197" y="99.4951">tiene</text><text fill="#000000" font-family="sans-serif" font-size="13" lengthAdjust="spacing" textLength="7" x="167.0968" y="76.5743">1</text><text fill="#000000" font-family="sans-serif" font-size="13" lengthAdjust="spacing" textLength="20" x="187.2113" y="122.0772">0..*</text></g><!--link Libro to Autor--><g id="link_Libro_Autor"><path codeLine="31" d="M120.06,574.09 C107.87,599.33 93.41,629.3 82.66,651.56 " fill="none" id="Libro-Autor" style="stroke:#181818;stroke-width:1.0;"/><text fill="#000000" font-family="sans-serif" font-size="13" lengthAdjust="spacing" textLength="61" x="107" y="618.4951">escrito por</text><text fill="#000000" font-family="sans-serif" font-size="13" lengthAdjust="spacing" textLength="7" x="109.3728" y="595.4933">1</text><text fill="#000000" font-family="sans-serif" font-size="13" lengthAdjust="spacing" textLength="20" x="63.7389" y="641.2264">0..*</text></g><!--link Libro to Categor?a--><g id="link_Libro_Categor&#237;a"><path codeLine="32" d="M168.25,574.09 C180.6,599.33 195.25,629.3 206.14,651.56 " fill="none" id="Libro-Categor&#237;a" style="stroke:#181818;stroke-width:1.0;"/><text fill="#000000" font-family="sans-serif" font-size="13" lengthAdjust="spacing" textLength="68" x="190" y="618.4951">pertenece a</text><text fill="#000000" font-family="sans-serif" font-size="13" lengthAdjust="spacing" textLength="7" x="164.0383" y="595.4933">1</text><text fill="#000000" font-family="sans-serif" font-size="13" lengthAdjust="spacing" textLength="20" x="181.2104" y="641.2264">0..*</text></g><!--link Usuario to Pr?stamo--><g id="link_Usuario_Pr&#233;stamo"><path codeLine="33" d="M212.06,234.04 C206.88,249.24 203.87,266.14 207,282 C208.98,292 212.39,302.36 216.19,311.96 " fill="none" id="Usuario-Pr&#233;stamo" style="stroke:#181818;stroke-width:1.0;"/><text fill="#000000" font-family="sans-serif" font-size="13" lengthAdjust="spacing" textLength="38" x="208" y="278.4951">realiza</text><text fill="#000000" font-family="sans-serif" font-size="13" lengthAdjust="spacing" textLength="7" x="201.104" y="255.4366">1</text><text fill="#000000" font-family="sans-serif" font-size="13" lengthAdjust="spacing" textLength="20" x="191.2527" y="301.2611">0..*</text></g><!--link Pr?stamo to Usuario--><g id="link_Pr&#233;stamo_Usuario"><path codeLine="35" d="M246.19,311.73 C248.19,302.04 249.98,291.71 251,282 C252.64,266.38 251.43,249.39 249.19,234.04 " fill="none" id="Pr&#233;stamo-Usuario" style="stroke:#181818;stroke-width:1.0;"/><text fill="#000000" font-family="sans-serif" font-size="13" lengthAdjust="spacing" textLength="38" x="252" y="278.4951">asocia</text><text fill="#000000" font-family="sans-serif" font-size="13" lengthAdjust="spacing" textLength="7" x="240.298" y="300.993">1</text><text fill="#000000" font-family="sans-serif" font-size="13" lengthAdjust="spacing" textLength="7" x="243.2233" y="255.4366">1</text></g><!--link Pr?stamo to Libro--><g id="link_Pr&#233;stamo_Libro"><path codeLine="34" d="M213.73,395.17 C200.91,418.57 184.71,448.15 171.15,472.91 " fill="none" id="Pr&#233;stamo-Libro" style="stroke:#181818;stroke-width:1.0;"/><text fill="#000000" font-family="sans-serif" font-size="13" lengthAdjust="spacing" textLength="41" x="196" y="439.4951">incluye</text><text fill="#000000" font-family="sans-serif" font-size="13" lengthAdjust="spacing" textLength="7" x="202.6229" y="416.5919">1</text><text fill="#000000" font-family="sans-serif" font-size="13" lengthAdjust="spacing" textLength="7" x="167.4758" y="462.2027">1</text></g><!--SRC=[TP11QiCm44NtEiNWPKj2izKkQGWOsb18Uu2n6Dm1HmeZUT6M7gYBB7e6NwnAOqisEClvUlE_vfi6lOSDLmsxG0RXItqhPVxL9wx4HG7W_hKxXxPn6Wv1sDONgJnizkDvtVt6zz86gacooPjlKRYtsRjZ9JHnsUQTE3xJ1V3T6HEKdDPjS3Bhav0NwNvym6CVjoFpZgLbm_5dMmoKn1tRNacxZt6gdSJeMncZbefL0Oi550_BvLtH5wKXC5cwZGrL3E1rRSfSZzH0tWW71oSdizpejnfE924Q6W9KGyWKpyLe4CA6Fr5bRM1N-HIsfca_Q1xAXw1tXl4F]--></g></svg>