<?xml version="1.0" encoding="us-ascii" standalone="no"?><svg xmlns="http://www.w3.org/2000/svg" xmlns:xlink="http://www.w3.org/1999/xlink" contentStyleType="text/css" height="1062px" preserveAspectRatio="none" style="width:756px;height:1062px;background:#FFFFFF;" version="1.1" viewBox="0 0 756 1062" width="756px" zoomAndPan="magnify"><defs/><g><text fill="#000000" font-family="sans-serif" font-size="14" font-weight="bold" lengthAdjust="spacing" textLength="377" x="182.5" y="24.5332">Sistema de Control de Versiones - Modelo Alternativo</text><!--class SistemaDeControlDeVersiones--><g id="elem_SistemaDeControlDeVersiones"><rect codeLine="4" fill="#F1F1F1" height="136.0469" id="SistemaDeControlDeVersiones" rx="2.5" ry="2.5" style="stroke:#181818;stroke-width:0.5;" width="388" x="282" y="45.6094"/><ellipse cx="374.25" cy="61.6094" fill="#ADD1B2" rx="11" ry="11" style="stroke:#181818;stroke-width:1.0;"/><path d="M377.0156,57.4844 Q377.1719,57.2656 377.3594,57.1563 Q377.5469,57.0469 377.7656,57.0469 Q378.1406,57.0469 378.375,57.3047 Q378.6094,57.5625 378.6094,58.1719 L378.6094,59.625 Q378.6094,60.2344 378.375,60.5 Q378.1406,60.7656 377.7656,60.7656 Q377.4219,60.7656 377.2188,60.5625 Q377.0156,60.375 376.9063,59.8594 Q376.8594,59.5 376.6719,59.3125 Q376.3438,58.9375 375.7344,58.7188 Q375.125,58.5 374.5,58.5 Q373.7344,58.5 373.1016,58.8281 Q372.4688,59.1563 371.9766,59.9063 Q371.4844,60.6563 371.4844,61.6875 L371.4844,62.7813 Q371.4844,64.0156 372.375,64.8359 Q373.2656,65.6563 374.8594,65.6563 Q375.7969,65.6563 376.4531,65.4063 Q376.8438,65.25 377.2656,64.8125 Q377.5313,64.5469 377.6797,64.4688 Q377.8281,64.3906 378.0313,64.3906 Q378.3594,64.3906 378.6172,64.6484 Q378.875,64.9063 378.875,65.25 Q378.875,65.5938 378.5313,66 Q378.0313,66.5781 377.2344,66.9063 Q376.1563,67.3594 374.8594,67.3594 Q373.3438,67.3594 372.1406,66.7344 Q371.1563,66.2344 370.4688,65.1641 Q369.7813,64.0938 369.7813,62.8125 L369.7813,61.6563 Q369.7813,60.3281 370.3984,59.1797 Q371.0156,58.0313 372.1094,57.4141 Q373.2031,56.7969 374.4375,56.7969 Q375.1719,56.7969 375.8203,56.9609 Q376.4688,57.125 377.0156,57.4844 Z " fill="#000000"/><text fill="#000000" font-family="sans-serif" font-size="14" lengthAdjust="spacing" textLength="195" x="394.75" y="67.3379">SistemaDeControlDeVersiones</text><line style="stroke:#181818;stroke-width:0.5;" x1="283" x2="669" y1="77.6094" y2="77.6094"/><rect fill="none" height="6" style="stroke:#C82930;stroke-width:1.0;" width="6" x="290" y="88.9141"/><text fill="#000000" font-family="sans-serif" font-size="14" lengthAdjust="spacing" textLength="148" x="302" y="96.1426">usuarios: List&lt;Usuario&gt;</text><rect fill="none" height="6" style="stroke:#C82930;stroke-width:1.0;" width="6" x="290" y="106.5234"/><text fill="#000000" font-family="sans-serif" font-size="14" lengthAdjust="spacing" textLength="192" x="302" y="113.752">repositorios: List&lt;Repositorio&gt;</text><line style="stroke:#181818;stroke-width:0.5;" x1="283" x2="669" y1="120.8281" y2="120.8281"/><ellipse cx="293" cy="135.1328" fill="#84BE84" rx="3" ry="3" style="stroke:#038048;stroke-width:1.0;"/><text fill="#000000" font-family="sans-serif" font-size="14" lengthAdjust="spacing" textLength="362" x="302" y="139.3613">iniciarSesion(usuario: String, contrasena: String): Usuario</text><ellipse cx="293" cy="152.7422" fill="#84BE84" rx="3" ry="3" style="stroke:#038048;stroke-width:1.0;"/><text fill="#000000" font-family="sans-serif" font-size="14" lengthAdjust="spacing" textLength="288" x="302" y="156.9707">crearRepositorio(nombre: String): Repositorio</text><ellipse cx="293" cy="170.3516" fill="#84BE84" rx="3" ry="3" style="stroke:#038048;stroke-width:1.0;"/><text fill="#000000" font-family="sans-serif" font-size="14" lengthAdjust="spacing" textLength="237" x="302" y="174.5801">listarRepositorios(): List&lt;Repositorio&gt;</text></g><!--class Repositorio--><g id="elem_Repositorio"><rect codeLine="13" fill="#F1F1F1" height="136.0469" id="Repositorio" rx="2.5" ry="2.5" style="stroke:#181818;stroke-width:0.5;" width="260" x="84" y="259.6094"/><ellipse cx="173.75" cy="275.6094" fill="#ADD1B2" rx="11" ry="11" style="stroke:#181818;stroke-width:1.0;"/><path d="M176.5156,271.4844 Q176.6719,271.2656 176.8594,271.1563 Q177.0469,271.0469 177.2656,271.0469 Q177.6406,271.0469 177.875,271.3047 Q178.1094,271.5625 178.1094,272.1719 L178.1094,273.625 Q178.1094,274.2344 177.875,274.5 Q177.6406,274.7656 177.2656,274.7656 Q176.9219,274.7656 176.7188,274.5625 Q176.5156,274.375 176.4063,273.8594 Q176.3594,273.5 176.1719,273.3125 Q175.8438,272.9375 175.2344,272.7188 Q174.625,272.5 174,272.5 Q173.2344,272.5 172.6016,272.8281 Q171.9688,273.1563 171.4766,273.9063 Q170.9844,274.6563 170.9844,275.6875 L170.9844,276.7813 Q170.9844,278.0156 171.875,278.8359 Q172.7656,279.6563 174.3594,279.6563 Q175.2969,279.6563 175.9531,279.4063 Q176.3438,279.25 176.7656,278.8125 Q177.0313,278.5469 177.1797,278.4688 Q177.3281,278.3906 177.5313,278.3906 Q177.8594,278.3906 178.1172,278.6484 Q178.375,278.9063 178.375,279.25 Q178.375,279.5938 178.0313,280 Q177.5313,280.5781 176.7344,280.9063 Q175.6563,281.3594 174.3594,281.3594 Q172.8438,281.3594 171.6406,280.7344 Q170.6563,280.2344 169.9688,279.1641 Q169.2813,278.0938 169.2813,276.8125 L169.2813,275.6563 Q169.2813,274.3281 169.8984,273.1797 Q170.5156,272.0313 171.6094,271.4141 Q172.7031,270.7969 173.9375,270.7969 Q174.6719,270.7969 175.3203,270.9609 Q175.9688,271.125 176.5156,271.4844 Z " fill="#000000"/><text fill="#000000" font-family="sans-serif" font-size="14" lengthAdjust="spacing" textLength="72" x="194.25" y="281.3379">Repositorio</text><line style="stroke:#181818;stroke-width:0.5;" x1="85" x2="343" y1="291.6094" y2="291.6094"/><rect fill="none" height="6" style="stroke:#C82930;stroke-width:1.0;" width="6" x="92" y="302.9141"/><text fill="#000000" font-family="sans-serif" font-size="14" lengthAdjust="spacing" textLength="93" x="104" y="310.1426">nombre: String</text><rect fill="none" height="6" style="stroke:#C82930;stroke-width:1.0;" width="6" x="92" y="320.5234"/><text fill="#000000" font-family="sans-serif" font-size="14" lengthAdjust="spacing" textLength="122" x="104" y="327.752">ramas: List&lt;Rama&gt;</text><line style="stroke:#181818;stroke-width:0.5;" x1="85" x2="343" y1="334.8281" y2="334.8281"/><ellipse cx="95" cy="349.1328" fill="#84BE84" rx="3" ry="3" style="stroke:#038048;stroke-width:1.0;"/><text fill="#000000" font-family="sans-serif" font-size="14" lengthAdjust="spacing" textLength="218" x="104" y="353.3613">crearRama(nombre: String): Rama</text><ellipse cx="95" cy="366.7422" fill="#84BE84" rx="3" ry="3" style="stroke:#038048;stroke-width:1.0;"/><text fill="#000000" font-family="sans-serif" font-size="14" lengthAdjust="spacing" textLength="234" x="104" y="370.9707">obtenerRama(nombre: String): Rama</text><ellipse cx="95" cy="384.3516" fill="#84BE84" rx="3" ry="3" style="stroke:#038048;stroke-width:1.0;"/><text fill="#000000" font-family="sans-serif" font-size="14" lengthAdjust="spacing" textLength="167" x="104" y="388.5801">listarRamas(): List&lt;Rama&gt;</text></g><!--class Rama--><g id="elem_Rama"><rect codeLine="24" fill="#F1F1F1" height="136.0469" id="Rama" rx="2.5" ry="2.5" style="stroke:#181818;stroke-width:0.5;" width="266" x="81" y="473.6094"/><ellipse cx="191.25" cy="489.6094" fill="#ADD1B2" rx="11" ry="11" style="stroke:#181818;stroke-width:1.0;"/><path d="M194.0156,485.4844 Q194.1719,485.2656 194.3594,485.1563 Q194.5469,485.0469 194.7656,485.0469 Q195.1406,485.0469 195.375,485.3047 Q195.6094,485.5625 195.6094,486.1719 L195.6094,487.625 Q195.6094,488.2344 195.375,488.5 Q195.1406,488.7656 194.7656,488.7656 Q194.4219,488.7656 194.2188,488.5625 Q194.0156,488.375 193.9063,487.8594 Q193.8594,487.5 193.6719,487.3125 Q193.3438,486.9375 192.7344,486.7188 Q192.125,486.5 191.5,486.5 Q190.7344,486.5 190.1016,486.8281 Q189.4688,487.1563 188.9766,487.9063 Q188.4844,488.6563 188.4844,489.6875 L188.4844,490.7813 Q188.4844,492.0156 189.375,492.8359 Q190.2656,493.6563 191.8594,493.6563 Q192.7969,493.6563 193.4531,493.4063 Q193.8438,493.25 194.2656,492.8125 Q194.5313,492.5469 194.6797,492.4688 Q194.8281,492.3906 195.0313,492.3906 Q195.3594,492.3906 195.6172,492.6484 Q195.875,492.9063 195.875,493.25 Q195.875,493.5938 195.5313,494 Q195.0313,494.5781 194.2344,494.9063 Q193.1563,495.3594 191.8594,495.3594 Q190.3438,495.3594 189.1406,494.7344 Q188.1563,494.2344 187.4688,493.1641 Q186.7813,492.0938 186.7813,490.8125 L186.7813,489.6563 Q186.7813,488.3281 187.3984,487.1797 Q188.0156,486.0313 189.1094,485.4141 Q190.2031,484.7969 191.4375,484.7969 Q192.1719,484.7969 192.8203,484.9609 Q193.4688,485.125 194.0156,485.4844 Z " fill="#000000"/><text fill="#000000" font-family="sans-serif" font-size="14" lengthAdjust="spacing" textLength="37" x="211.75" y="495.3379">Rama</text><line style="stroke:#181818;stroke-width:0.5;" x1="82" x2="346" y1="505.6094" y2="505.6094"/><rect fill="none" height="6" style="stroke:#C82930;stroke-width:1.0;" width="6" x="89" y="516.9141"/><text fill="#000000" font-family="sans-serif" font-size="14" lengthAdjust="spacing" textLength="93" x="101" y="524.1426">nombre: String</text><rect fill="none" height="6" style="stroke:#C82930;stroke-width:1.0;" width="6" x="89" y="534.5234"/><text fill="#000000" font-family="sans-serif" font-size="14" lengthAdjust="spacing" textLength="144" x="101" y="541.752">commits: List&lt;Commit&gt;</text><line style="stroke:#181818;stroke-width:0.5;" x1="82" x2="346" y1="548.8281" y2="548.8281"/><ellipse cx="92" cy="563.1328" fill="#84BE84" rx="3" ry="3" style="stroke:#038048;stroke-width:1.0;"/><text fill="#000000" font-family="sans-serif" font-size="14" lengthAdjust="spacing" textLength="240" x="101" y="567.3613">agregarCommit(commit: Commit): void</text><ellipse cx="92" cy="580.7422" fill="#84BE84" rx="3" ry="3" style="stroke:#038048;stroke-width:1.0;"/><text fill="#000000" font-family="sans-serif" font-size="14" lengthAdjust="spacing" textLength="187" x="101" y="584.9707">listarCommits(): List&lt;Commit&gt;</text><ellipse cx="92" cy="598.3516" fill="#84BE84" rx="3" ry="3" style="stroke:#038048;stroke-width:1.0;"/><text fill="#000000" font-family="sans-serif" font-size="14" lengthAdjust="spacing" textLength="199" x="101" y="602.5801">obtenerUltimoCommit(): Commit</text></g><!--class Commit--><g id="elem_Commit"><rect codeLine="35" fill="#F1F1F1" height="153.6563" id="Commit" rx="2.5" ry="2.5" style="stroke:#181818;stroke-width:0.5;" width="399" x="14.5" y="687.6094"/><ellipse cx="186.25" cy="703.6094" fill="#ADD1B2" rx="11" ry="11" style="stroke:#181818;stroke-width:1.0;"/><path d="M189.0156,699.4844 Q189.1719,699.2656 189.3594,699.1563 Q189.5469,699.0469 189.7656,699.0469 Q190.1406,699.0469 190.375,699.3047 Q190.6094,699.5625 190.6094,700.1719 L190.6094,701.625 Q190.6094,702.2344 190.375,702.5 Q190.1406,702.7656 189.7656,702.7656 Q189.4219,702.7656 189.2188,702.5625 Q189.0156,702.375 188.9063,701.8594 Q188.8594,701.5 188.6719,701.3125 Q188.3438,700.9375 187.7344,700.7188 Q187.125,700.5 186.5,700.5 Q185.7344,700.5 185.1016,700.8281 Q184.4688,701.1563 183.9766,701.9063 Q183.4844,702.6563 183.4844,703.6875 L183.4844,704.7813 Q183.4844,706.0156 184.375,706.8359 Q185.2656,707.6563 186.8594,707.6563 Q187.7969,707.6563 188.4531,707.4063 Q188.8438,707.25 189.2656,706.8125 Q189.5313,706.5469 189.6797,706.4688 Q189.8281,706.3906 190.0313,706.3906 Q190.3594,706.3906 190.6172,706.6484 Q190.875,706.9063 190.875,707.25 Q190.875,707.5938 190.5313,708 Q190.0313,708.5781 189.2344,708.9063 Q188.1563,709.3594 186.8594,709.3594 Q185.3438,709.3594 184.1406,708.7344 Q183.1563,708.2344 182.4688,707.1641 Q181.7813,706.0938 181.7813,704.8125 L181.7813,703.6563 Q181.7813,702.3281 182.3984,701.1797 Q183.0156,700.0313 184.1094,699.4141 Q185.2031,698.7969 186.4375,698.7969 Q187.1719,698.7969 187.8203,698.9609 Q188.4688,699.125 189.0156,699.4844 Z " fill="#000000"/><text fill="#000000" font-family="sans-serif" font-size="14" lengthAdjust="spacing" textLength="47" x="206.75" y="709.3379">Commit</text><line style="stroke:#181818;stroke-width:0.5;" x1="15.5" x2="412.5" y1="719.6094" y2="719.6094"/><rect fill="none" height="6" style="stroke:#C82930;stroke-width:1.0;" width="6" x="22.5" y="730.9141"/><text fill="#000000" font-family="sans-serif" font-size="14" lengthAdjust="spacing" textLength="56" x="34.5" y="738.1426">id: String</text><rect fill="none" height="6" style="stroke:#C82930;stroke-width:1.0;" width="6" x="22.5" y="748.5234"/><text fill="#000000" font-family="sans-serif" font-size="14" lengthAdjust="spacing" textLength="98" x="34.5" y="755.752">mensaje: String</text><rect fill="none" height="6" style="stroke:#C82930;stroke-width:1.0;" width="6" x="22.5" y="766.1328"/><text fill="#000000" font-family="sans-serif" font-size="14" lengthAdjust="spacing" textLength="102" x="34.5" y="773.3613">timestamp: Date</text><rect fill="none" height="6" style="stroke:#C82930;stroke-width:1.0;" width="6" x="22.5" y="783.7422"/><text fill="#000000" font-family="sans-serif" font-size="14" lengthAdjust="spacing" textLength="146" x="34.5" y="790.9707">cambios: List&lt;Cambio&gt;</text><line style="stroke:#181818;stroke-width:0.5;" x1="15.5" x2="412.5" y1="798.0469" y2="798.0469"/><ellipse cx="25.5" cy="812.3516" fill="#84BE84" rx="3" ry="3" style="stroke:#038048;stroke-width:1.0;"/><text fill="#000000" font-family="sans-serif" font-size="14" lengthAdjust="spacing" textLength="373" x="34.5" y="816.5801">Commit(id: String, mensaje: String, cambios: List&lt;Cambio&gt;)</text><ellipse cx="25.5" cy="829.9609" fill="#84BE84" rx="3" ry="3" style="stroke:#038048;stroke-width:1.0;"/><text fill="#000000" font-family="sans-serif" font-size="14" lengthAdjust="spacing" textLength="155" x="34.5" y="834.1895">obtenerDetalles(): String</text></g><!--class Cambio--><g id="elem_Cambio"><rect codeLine="47" fill="#F1F1F1" height="136.0469" id="Cambio" rx="2.5" ry="2.5" style="stroke:#181818;stroke-width:0.5;" width="414" x="7" y="919.6094"/><ellipse cx="185.75" cy="935.6094" fill="#ADD1B2" rx="11" ry="11" style="stroke:#181818;stroke-width:1.0;"/><path d="M188.5156,931.4844 Q188.6719,931.2656 188.8594,931.1563 Q189.0469,931.0469 189.2656,931.0469 Q189.6406,931.0469 189.875,931.3047 Q190.1094,931.5625 190.1094,932.1719 L190.1094,933.625 Q190.1094,934.2344 189.875,934.5 Q189.6406,934.7656 189.2656,934.7656 Q188.9219,934.7656 188.7188,934.5625 Q188.5156,934.375 188.4063,933.8594 Q188.3594,933.5 188.1719,933.3125 Q187.8438,932.9375 187.2344,932.7188 Q186.625,932.5 186,932.5 Q185.2344,932.5 184.6016,932.8281 Q183.9688,933.1563 183.4766,933.9063 Q182.9844,934.6563 182.9844,935.6875 L182.9844,936.7813 Q182.9844,938.0156 183.875,938.8359 Q184.7656,939.6563 186.3594,939.6563 Q187.2969,939.6563 187.9531,939.4063 Q188.3438,939.25 188.7656,938.8125 Q189.0313,938.5469 189.1797,938.4688 Q189.3281,938.3906 189.5313,938.3906 Q189.8594,938.3906 190.1172,938.6484 Q190.375,938.9063 190.375,939.25 Q190.375,939.5938 190.0313,940 Q189.5313,940.5781 188.7344,940.9063 Q187.6563,941.3594 186.3594,941.3594 Q184.8438,941.3594 183.6406,940.7344 Q182.6563,940.2344 181.9688,939.1641 Q181.2813,938.0938 181.2813,936.8125 L181.2813,935.6563 Q181.2813,934.3281 181.8984,933.1797 Q182.5156,932.0313 183.6094,931.4141 Q184.7031,930.7969 185.9375,930.7969 Q186.6719,930.7969 187.3203,930.9609 Q187.9688,931.125 188.5156,931.4844 Z " fill="#000000"/><text fill="#000000" font-family="sans-serif" font-size="14" lengthAdjust="spacing" textLength="48" x="206.25" y="941.3379">Cambio</text><line style="stroke:#181818;stroke-width:0.5;" x1="8" x2="420" y1="951.6094" y2="951.6094"/><rect fill="none" height="6" style="stroke:#C82930;stroke-width:1.0;" width="6" x="15" y="962.9141"/><text fill="#000000" font-family="sans-serif" font-size="14" lengthAdjust="spacing" textLength="91" x="27" y="970.1426">archivo: String</text><rect fill="none" height="6" style="stroke:#C82930;stroke-width:1.0;" width="6" x="15" y="980.5234"/><text fill="#000000" font-family="sans-serif" font-size="14" lengthAdjust="spacing" textLength="116" x="27" y="987.752">tipoCambio: String</text><rect fill="none" height="6" style="stroke:#C82930;stroke-width:1.0;" width="6" x="15" y="998.1328"/><text fill="#000000" font-family="sans-serif" font-size="14" lengthAdjust="spacing" textLength="107" x="27" y="1005.3613">contenido: String</text><line style="stroke:#181818;stroke-width:0.5;" x1="8" x2="420" y1="1012.4375" y2="1012.4375"/><ellipse cx="18" cy="1026.7422" fill="#84BE84" rx="3" ry="3" style="stroke:#038048;stroke-width:1.0;"/><text fill="#000000" font-family="sans-serif" font-size="14" lengthAdjust="spacing" textLength="388" x="27" y="1030.9707">Cambio(archivo: String, tipoCambio: String, contenido: String)</text><ellipse cx="18" cy="1044.3516" fill="#84BE84" rx="3" ry="3" style="stroke:#038048;stroke-width:1.0;"/><text fill="#000000" font-family="sans-serif" font-size="14" lengthAdjust="spacing" textLength="154" x="27" y="1048.5801">mostrarDetalles(): String</text></g><!--class Usuario--><g id="elem_Usuario"><rect codeLine="58" fill="#F1F1F1" height="136.0469" id="Usuario" rx="2.5" ry="2.5" style="stroke:#181818;stroke-width:0.5;" width="370" x="379" y="259.6094"/><ellipse cx="535.75" cy="275.6094" fill="#ADD1B2" rx="11" ry="11" style="stroke:#181818;stroke-width:1.0;"/><path d="M538.5156,271.4844 Q538.6719,271.2656 538.8594,271.1563 Q539.0469,271.0469 539.2656,271.0469 Q539.6406,271.0469 539.875,271.3047 Q540.1094,271.5625 540.1094,272.1719 L540.1094,273.625 Q540.1094,274.2344 539.875,274.5 Q539.6406,274.7656 539.2656,274.7656 Q538.9219,274.7656 538.7188,274.5625 Q538.5156,274.375 538.4063,273.8594 Q538.3594,273.5 538.1719,273.3125 Q537.8438,272.9375 537.2344,272.7188 Q536.625,272.5 536,272.5 Q535.2344,272.5 534.6016,272.8281 Q533.9688,273.1563 533.4766,273.9063 Q532.9844,274.6563 532.9844,275.6875 L532.9844,276.7813 Q532.9844,278.0156 533.875,278.8359 Q534.7656,279.6563 536.3594,279.6563 Q537.2969,279.6563 537.9531,279.4063 Q538.3438,279.25 538.7656,278.8125 Q539.0313,278.5469 539.1797,278.4688 Q539.3281,278.3906 539.5313,278.3906 Q539.8594,278.3906 540.1172,278.6484 Q540.375,278.9063 540.375,279.25 Q540.375,279.5938 540.0313,280 Q539.5313,280.5781 538.7344,280.9063 Q537.6563,281.3594 536.3594,281.3594 Q534.8438,281.3594 533.6406,280.7344 Q532.6563,280.2344 531.9688,279.1641 Q531.2813,278.0938 531.2813,276.8125 L531.2813,275.6563 Q531.2813,274.3281 531.8984,273.1797 Q532.5156,272.0313 533.6094,271.4141 Q534.7031,270.7969 535.9375,270.7969 Q536.6719,270.7969 537.3203,270.9609 Q537.9688,271.125 538.5156,271.4844 Z " fill="#000000"/><text fill="#000000" font-family="sans-serif" font-size="14" lengthAdjust="spacing" textLength="48" x="556.25" y="281.3379">Usuario</text><line style="stroke:#181818;stroke-width:0.5;" x1="380" x2="748" y1="291.6094" y2="291.6094"/><rect fill="none" height="6" style="stroke:#C82930;stroke-width:1.0;" width="6" x="387" y="302.9141"/><text fill="#000000" font-family="sans-serif" font-size="14" lengthAdjust="spacing" textLength="93" x="399" y="310.1426">nombre: String</text><rect fill="none" height="6" style="stroke:#C82930;stroke-width:1.0;" width="6" x="387" y="320.5234"/><text fill="#000000" font-family="sans-serif" font-size="14" lengthAdjust="spacing" textLength="116" x="399" y="327.752">contrasena: String</text><rect fill="none" height="6" style="stroke:#C82930;stroke-width:1.0;" width="6" x="387" y="338.1328"/><text fill="#000000" font-family="sans-serif" font-size="14" lengthAdjust="spacing" textLength="61" x="399" y="345.3613">rol: String</text><line style="stroke:#181818;stroke-width:0.5;" x1="380" x2="748" y1="352.4375" y2="352.4375"/><ellipse cx="390" cy="366.7422" fill="#84BE84" rx="3" ry="3" style="stroke:#038048;stroke-width:1.0;"/><text fill="#000000" font-family="sans-serif" font-size="14" lengthAdjust="spacing" textLength="344" x="399" y="370.9707">Usuario(nombre: String, contrasena: String, rol: String)</text><ellipse cx="390" cy="384.3516" fill="#84BE84" rx="3" ry="3" style="stroke:#038048;stroke-width:1.0;"/><text fill="#000000" font-family="sans-serif" font-size="14" lengthAdjust="spacing" textLength="248" x="399" y="388.5801">autenticar(contrasena: String): boolean</text></g><!--link SistemaDeControlDeVersiones to Repositorio--><g id="link_SistemaDeControlDeVersiones_Repositorio"><path codeLine="21" d="M393.1,181.6894 C362.37,206.5594 332.1941,230.965 301.4741,255.825 " fill="none" id="SistemaDeControlDeVersiones-to-Repositorio" style="stroke:#181818;stroke-width:1.0;"/><polygon fill="#181818" points="296.81,259.5994,306.3224,257.0472,300.6968,256.454,301.2899,250.8284,296.81,259.5994" style="stroke:#181818;stroke-width:1.0;"/><text fill="#000000" font-family="sans-serif" font-size="13" lengthAdjust="spacing" textLength="49" x="354" y="226.1045">gestiona</text></g><!--link Repositorio to Rama--><g id="link_Repositorio_Rama"><path codeLine="32" d="M214,395.6894 C214,420.5594 214,442.7394 214,467.5994 " fill="none" id="Repositorio-to-Rama" style="stroke:#181818;stroke-width:1.0;"/><polygon fill="#181818" points="214,473.5994,218,464.5994,214,468.5994,210,464.5994,214,473.5994" style="stroke:#181818;stroke-width:1.0;"/><text fill="#000000" font-family="sans-serif" font-size="13" lengthAdjust="spacing" textLength="49" x="215" y="440.1045">contiene</text></g><!--link Rama to Commit--><g id="link_Rama_Commit"><path codeLine="44" d="M214,609.8194 C214,634.3294 214,656.2094 214,681.4394 " fill="none" id="Rama-to-Commit" style="stroke:#181818;stroke-width:1.0;"/><polygon fill="#181818" points="214,687.4394,218,678.4394,214,682.4394,210,678.4394,214,687.4394" style="stroke:#181818;stroke-width:1.0;"/><text fill="#000000" font-family="sans-serif" font-size="13" lengthAdjust="spacing" textLength="56" x="215" y="654.1045">almacena</text></g><!--link Commit to Cambio--><g id="link_Commit_Cambio"><path codeLine="55" d="M214,841.6694 C214,866.8894 214,888.7694 214,913.2894 " fill="none" id="Commit-to-Cambio" style="stroke:#181818;stroke-width:1.0;"/><polygon fill="#181818" points="214,919.2894,218,910.2894,214,914.2894,210,910.2894,214,919.2894" style="stroke:#181818;stroke-width:1.0;"/><text fill="#000000" font-family="sans-serif" font-size="13" lengthAdjust="spacing" textLength="41" x="215" y="886.1045">incluye</text></g><!--link SistemaDeControlDeVersiones to Usuario--><g id="link_SistemaDeControlDeVersiones_Usuario"><path codeLine="66" d="M503.84,181.6894 C514.17,206.5594 523.5696,229.1979 533.8896,254.0579 " fill="none" id="SistemaDeControlDeVersiones-to-Usuario" style="stroke:#181818;stroke-width:1.0;"/><polygon fill="#181818" points="536.19,259.5994,536.4337,249.7535,534.273,254.9815,529.0451,252.8207,536.19,259.5994" style="stroke:#181818;stroke-width:1.0;"/><text fill="#000000" font-family="sans-serif" font-size="13" lengthAdjust="spacing" textLength="49" x="523" y="226.1045">gestiona</text></g><!--SRC=[ZPJFRkCW4CRlUGhKIntLUG6hYbGbn_RIg7kVsACi5Nyim9MgrRxx3cQ8ZUEswvE1uMD-d_4NP50eJj87r20w50ThWhCgllv2vwKrwCLElDWEbHLFAg0p4EI7tMpknK61Hz4xQLhPGzoaX4zQcvRMV5O-8kiUSLBzin7qxCJW1t3I-aOyK_NZMnhkUTLXRxqCTbRnEasbgWSXZMmbk1D6xOeL6t4ArDkb5cqydNeraEUsZU23MA5r26wcN1chpmvdzRD5tgEecsAJhxPhFVwTcGKE2YOsQbP_DQRi8Fi16gv6qFk-w9ycLXgdMQwovu06VwvZidZMX3IUHYpVVTJTRb-mDEBkWZxG8jmjND1Wy1rS8iesqFlt_AtLMeRim64SPG_Wul02BarMgR8HQKWK7rPs1LzQcGXBDVRgJGMfBMjkirpqOSuvSiVc2JZUDabRby3SEgCcdIkix1QW6es7zoK-zK9sWkuRSOI0sHJGv-d_E8oZZC6TJ_hrKhfUtxyjVJXY0ALmT8jRYXv4vWZFE8GFIaEBjz-R3w6KYBSc9inWs9DioLXnjGHS-vkIviQ1tgR2cvjXg57PbVCFh5ejrEeLeVfM8vkWhQS4-S84PXzjI0Xa0uMY6ZxngrkVKu_HEOn-kllB6CkXODK2clKMF_bQ4jRptHaN1h8Xo1PSjPgTPsiLWlcVDCXaHHBy0m00]--></g></svg>