<?xml version="1.0" encoding="us-ascii" standalone="no"?><svg xmlns="http://www.w3.org/2000/svg" xmlns:xlink="http://www.w3.org/1999/xlink" contentStyleType="text/css" height="399px" preserveAspectRatio="none" style="width:334px;height:399px;background:#FFFFFF;" version="1.1" viewBox="0 0 334 399" width="334px" zoomAndPan="magnify"><defs/><g><!--entity B2--><g id="elem_B2"><polygon fill="#F1F1F1" points="144,16,154,6,192,6,192,45.0679,182,55.0679,144,55.0679,144,16" style="stroke:#181818;stroke-width:0.5;"/><line style="stroke:#181818;stroke-width:0.5;" x1="182" x2="192" y1="16" y2="6"/><line style="stroke:#181818;stroke-width:0.5;" x1="144" x2="182" y1="16" y2="16"/><line style="stroke:#181818;stroke-width:0.5;" x1="182" x2="182" y1="16" y2="55.0679"/><text fill="#000000" font-family="sans-serif" font-size="14" lengthAdjust="spacing" textLength="8" x="159" y="40.9659">2</text></g><!--entity B6--><g id="elem_B6"><polygon fill="#F1F1F1" points="103,125,113,115,151,115,151,154.0679,141,164.0679,103,164.0679,103,125" style="stroke:#181818;stroke-width:0.5;"/><line style="stroke:#181818;stroke-width:0.5;" x1="141" x2="151" y1="125" y2="115"/><line style="stroke:#181818;stroke-width:0.5;" x1="103" x2="141" y1="125" y2="125"/><line style="stroke:#181818;stroke-width:0.5;" x1="141" x2="141" y1="125" y2="164.0679"/><text fill="#000000" font-family="sans-serif" font-size="14" lengthAdjust="spacing" textLength="8" x="118" y="149.9659">6</text></g><!--entity B5--><g id="elem_B5"><polygon fill="#F1F1F1" points="186,125,196,115,234,115,234,154.0679,224,164.0679,186,164.0679,186,125" style="stroke:#181818;stroke-width:0.5;"/><line style="stroke:#181818;stroke-width:0.5;" x1="224" x2="234" y1="125" y2="115"/><line style="stroke:#181818;stroke-width:0.5;" x1="186" x2="224" y1="125" y2="125"/><line style="stroke:#181818;stroke-width:0.5;" x1="224" x2="224" y1="125" y2="164.0679"/><text fill="#000000" font-family="sans-serif" font-size="14" lengthAdjust="spacing" textLength="8" x="201" y="149.9659">5</text></g><!--entity B3--><g id="elem_B3"><polygon fill="#F1F1F1" points="20,234,30,224,68,224,68,263.0679,58,273.0679,20,273.0679,20,234" style="stroke:#181818;stroke-width:0.5;"/><line style="stroke:#181818;stroke-width:0.5;" x1="58" x2="68" y1="234" y2="224"/><line style="stroke:#181818;stroke-width:0.5;" x1="20" x2="58" y1="234" y2="234"/><line style="stroke:#181818;stroke-width:0.5;" x1="58" x2="58" y1="234" y2="273.0679"/><text fill="#000000" font-family="sans-serif" font-size="14" lengthAdjust="spacing" textLength="8" x="35" y="258.9659">3</text></g><!--entity B7--><g id="elem_B7"><polygon fill="#F1F1F1" points="186,234,196,224,234,224,234,263.0679,224,273.0679,186,273.0679,186,234" style="stroke:#181818;stroke-width:0.5;"/><line style="stroke:#181818;stroke-width:0.5;" x1="224" x2="234" y1="234" y2="224"/><line style="stroke:#181818;stroke-width:0.5;" x1="186" x2="224" y1="234" y2="234"/><line style="stroke:#181818;stroke-width:0.5;" x1="224" x2="224" y1="234" y2="273.0679"/><text fill="#000000" font-family="sans-serif" font-size="14" lengthAdjust="spacing" textLength="8" x="201" y="258.9659">7</text></g><!--entity B1--><g id="elem_B1"><polygon fill="#F1F1F1" points="103,234,113,224,151,224,151,263.0679,141,273.0679,103,273.0679,103,234" style="stroke:#181818;stroke-width:0.5;"/><line style="stroke:#181818;stroke-width:0.5;" x1="141" x2="151" y1="234" y2="224"/><line style="stroke:#181818;stroke-width:0.5;" x1="103" x2="141" y1="234" y2="234"/><line style="stroke:#181818;stroke-width:0.5;" x1="141" x2="141" y1="234" y2="273.0679"/><text fill="#000000" font-family="sans-serif" font-size="14" lengthAdjust="spacing" textLength="8" x="118" y="258.9659">1</text></g><!--entity B9--><g id="elem_B9"><polygon fill="#F1F1F1" points="269,234,279,224,317,224,317,263.0679,307,273.0679,269,273.0679,269,234" style="stroke:#181818;stroke-width:0.5;"/><line style="stroke:#181818;stroke-width:0.5;" x1="307" x2="317" y1="234" y2="224"/><line style="stroke:#181818;stroke-width:0.5;" x1="269" x2="307" y1="234" y2="234"/><line style="stroke:#181818;stroke-width:0.5;" x1="307" x2="307" y1="234" y2="273.0679"/><text fill="#000000" font-family="sans-serif" font-size="14" lengthAdjust="spacing" textLength="8" x="284" y="258.9659">9</text></g><!--entity B10--><g id="elem_B10"><polygon fill="#F1F1F1" points="16,343,26,333,72,333,72,372.0679,62,382.0679,16,382.0679,16,343" style="stroke:#181818;stroke-width:0.5;"/><line style="stroke:#181818;stroke-width:0.5;" x1="62" x2="72" y1="343" y2="333"/><line style="stroke:#181818;stroke-width:0.5;" x1="16" x2="62" y1="343" y2="343"/><line style="stroke:#181818;stroke-width:0.5;" x1="62" x2="62" y1="343" y2="382.0679"/><text fill="#000000" font-family="sans-serif" font-size="14" lengthAdjust="spacing" textLength="16" x="31" y="367.9659">10</text></g><!--link B2 to B6--><g id="link_B2_B6"><path d="M158.9,55.25 C152.11,72.98 142.86,97.1 136.07,114.82 " fill="none" id="B2-B6" style="stroke:#181818;stroke-width:1.0;"/></g><!--link B2 to B5--><g id="link_B2_B5"><path d="M177.32,55.25 C184.28,72.98 193.75,97.1 200.7,114.82 " fill="none" id="B2-B5" style="stroke:#181818;stroke-width:1.0;"/></g><!--link B6 to B3--><g id="link_B6_B3"><path d="M108.58,164.25 C94.83,181.98 76.11,206.1 62.37,223.82 " fill="none" id="B6-B3" style="stroke:#181818;stroke-width:1.0;"/></g><!--link B3 to B10--><g id="link_B3_B10"><path d="M44,273.25 C44,290.98 44,315.1 44,332.82 " fill="none" id="B3-B10" style="stroke:#181818;stroke-width:1.0;"/></g><!--link B6 to B1--><g id="link_B6_B1"><path d="M127,164.25 C127,181.98 127,206.1 127,223.82 " fill="none" id="B6-B1" style="stroke:#181818;stroke-width:1.0;"/></g><!--link B5 to B7--><g id="link_B5_B7"><path d="M210,164.25 C210,181.98 210,206.1 210,223.82 " fill="none" id="B5-B7" style="stroke:#181818;stroke-width:1.0;"/></g><!--link B5 to B9--><g id="link_B5_B9"><path d="M228.42,164.25 C242.17,181.98 260.89,206.1 274.63,223.82 " fill="none" id="B5-B9" style="stroke:#181818;stroke-width:1.0;"/></g><!--SRC=[JSux2i0m30FGFQSGsGFva8IilacXNTkXzuUMA2qQzMmZ0y1vxGTyzjXkM7RugP6QK2LLeK8gGftKXH8f2GtIqAsurgARQXaXV1-im6vhCx3LoWplbOnOPNM6hc70FG00]--></g></svg>