<?xml version="1.0" encoding="us-ascii" standalone="no"?><svg xmlns="http://www.w3.org/2000/svg" xmlns:xlink="http://www.w3.org/1999/xlink" contentStyleType="text/css" height="710px" preserveAspectRatio="none" style="width:954px;height:710px;background:#FFFFFF;" version="1.1" viewBox="0 0 954 710" width="954px" zoomAndPan="magnify"><defs/><g><!--class Node--><g id="elem_Node"><rect codeLine="2" fill="#F1F1F1" height="124.2717" id="Node" rx="2.5" ry="2.5" style="stroke:#181818;stroke-width:0.5;" width="128" x="169" y="432"/><ellipse cx="211" cy="448" fill="#ADD1B2" rx="11" ry="11" style="stroke:#181818;stroke-width:1.0;"/><path d="M213.9688,453.6406 Q213.3906,453.9375 212.75,454.0781 Q212.1094,454.2344 211.4063,454.2344 Q208.9063,454.2344 207.5781,452.5938 Q206.2656,450.9375 206.2656,447.8125 Q206.2656,444.6875 207.5781,443.0313 Q208.9063,441.375 211.4063,441.375 Q212.1094,441.375 212.75,441.5313 Q213.4063,441.6875 213.9688,441.9844 L213.9688,444.7031 Q213.3438,444.125 212.75,443.8594 Q212.1563,443.5781 211.5313,443.5781 Q210.1875,443.5781 209.5,444.6563 Q208.8125,445.7188 208.8125,447.8125 Q208.8125,449.9063 209.5,450.9844 Q210.1875,452.0469 211.5313,452.0469 Q212.1563,452.0469 212.75,451.7813 Q213.3438,451.5 213.9688,450.9219 L213.9688,453.6406 Z " fill="#000000"/><text fill="#000000" font-family="sans-serif" font-size="14" lengthAdjust="spacing" textLength="36" x="231" y="453.432">Node</text><line style="stroke:#181818;stroke-width:0.5;" x1="170" x2="296" y1="464" y2="464"/><rect fill="none" height="6" style="stroke:#C82930;stroke-width:1.0;" width="6" x="177" y="476.034"/><text fill="#000000" font-family="sans-serif" font-size="14" lengthAdjust="spacing" textLength="58" x="189" y="482.9659">int value</text><rect fill="none" height="6" style="stroke:#C82930;stroke-width:1.0;" width="6" x="177" y="495.1019"/><text fill="#000000" font-family="sans-serif" font-size="14" lengthAdjust="spacing" textLength="62" x="189" y="502.0339">Node left</text><rect fill="none" height="6" style="stroke:#C82930;stroke-width:1.0;" width="6" x="177" y="514.1698"/><text fill="#000000" font-family="sans-serif" font-size="14" lengthAdjust="spacing" textLength="73" x="189" y="521.1018">Node right</text><line style="stroke:#181818;stroke-width:0.5;" x1="170" x2="296" y1="529.2038" y2="529.2038"/><ellipse cx="180" cy="544.2377" fill="#84BE84" rx="3" ry="3" style="stroke:#038048;stroke-width:1.0;"/><text fill="#000000" font-family="sans-serif" font-size="14" lengthAdjust="spacing" textLength="102" x="189" y="548.1697">Node(int value)</text></g><!--class Tree--><g id="elem_Tree"><rect codeLine="9" fill="#F1F1F1" height="181.4754" id="Tree" rx="2.5" ry="2.5" style="stroke:#181818;stroke-width:0.5;" width="316" x="91" y="172"/><ellipse cx="229.75" cy="188" fill="#ADD1B2" rx="11" ry="11" style="stroke:#181818;stroke-width:1.0;"/><path d="M232.7188,193.6406 Q232.1406,193.9375 231.5,194.0781 Q230.8594,194.2344 230.1563,194.2344 Q227.6563,194.2344 226.3281,192.5938 Q225.0156,190.9375 225.0156,187.8125 Q225.0156,184.6875 226.3281,183.0313 Q227.6563,181.375 230.1563,181.375 Q230.8594,181.375 231.5,181.5313 Q232.1563,181.6875 232.7188,181.9844 L232.7188,184.7031 Q232.0938,184.125 231.5,183.8594 Q230.9063,183.5781 230.2813,183.5781 Q228.9375,183.5781 228.25,184.6563 Q227.5625,185.7188 227.5625,187.8125 Q227.5625,189.9063 228.25,190.9844 Q228.9375,192.0469 230.2813,192.0469 Q230.9063,192.0469 231.5,191.7813 Q232.0938,191.5 232.7188,190.9219 L232.7188,193.6406 Z " fill="#000000"/><text fill="#000000" font-family="sans-serif" font-size="14" lengthAdjust="spacing" textLength="30" x="250.25" y="193.432">Tree</text><line style="stroke:#181818;stroke-width:0.5;" x1="92" x2="406" y1="204" y2="204"/><rect fill="none" height="6" style="stroke:#C82930;stroke-width:1.0;" width="6" x="99" y="216.034"/><text fill="#000000" font-family="sans-serif" font-size="14" lengthAdjust="spacing" textLength="67" x="111" y="222.9659">Node root</text><rect fill="none" height="6" style="stroke:#C82930;stroke-width:1.0;" width="6" x="99" y="235.1019"/><text fill="#000000" font-family="sans-serif" font-size="14" lengthAdjust="spacing" textLength="176" x="111" y="242.0339">InsertionStrategy strategy</text><line style="stroke:#181818;stroke-width:0.5;" x1="92" x2="406" y1="250.1358" y2="250.1358"/><ellipse cx="102" cy="265.1698" fill="#84BE84" rx="3" ry="3" style="stroke:#038048;stroke-width:1.0;"/><text fill="#000000" font-family="sans-serif" font-size="14" lengthAdjust="spacing" textLength="214" x="111" y="269.1018">Tree(InsertionStrategy strategy)</text><ellipse cx="102" cy="284.2377" fill="#84BE84" rx="3" ry="3" style="stroke:#038048;stroke-width:1.0;"/><text fill="#000000" font-family="sans-serif" font-size="14" lengthAdjust="spacing" textLength="137" x="111" y="288.1697">void insert(int value)</text><rect fill="#F24D5C" height="6" style="stroke:#C82930;stroke-width:1.0;" width="6" x="99" y="300.3056"/><text fill="#000000" font-family="sans-serif" font-size="14" lengthAdjust="spacing" textLength="290" x="111" y="307.2376">Node recursiveInsert(Node node, int value)</text><ellipse cx="102" cy="322.3735" fill="#84BE84" rx="3" ry="3" style="stroke:#038048;stroke-width:1.0;"/><text fill="#000000" font-family="sans-serif" font-size="14" lengthAdjust="spacing" textLength="73" x="111" y="326.3055">void print()</text><rect fill="#F24D5C" height="6" style="stroke:#C82930;stroke-width:1.0;" width="6" x="99" y="338.4415"/><text fill="#000000" font-family="sans-serif" font-size="14" lengthAdjust="spacing" textLength="270" x="111" y="345.3734">void recursivePrint(Node node, int nivel)</text></g><!--class InsertionStrategy--><g id="elem_InsertionStrategy"><rect codeLine="19" fill="#F1F1F1" height="67.0679" id="InsertionStrategy" rx="2.5" ry="2.5" style="stroke:#181818;stroke-width:0.5;" width="290" x="332" y="460.5"/><ellipse cx="417.75" cy="476.5" fill="#B4A7E5" rx="11" ry="11" style="stroke:#181818;stroke-width:1.0;"/><path d="M413.6719,472.2656 L413.6719,470.1094 L421.0625,470.1094 L421.0625,472.2656 L418.5938,472.2656 L418.5938,480.3438 L421.0625,480.3438 L421.0625,482.5 L413.6719,482.5 L413.6719,480.3438 L416.1406,480.3438 L416.1406,472.2656 L413.6719,472.2656 Z " fill="#000000"/><text fill="#000000" font-family="sans-serif" font-size="14" font-style="italic" lengthAdjust="spacing" textLength="110" x="438.25" y="481.932">InsertionStrategy</text><line style="stroke:#181818;stroke-width:0.5;" x1="333" x2="621" y1="492.5" y2="492.5"/><line style="stroke:#181818;stroke-width:0.5;" x1="333" x2="621" y1="500.5" y2="500.5"/><ellipse cx="343" cy="515.534" fill="#84BE84" rx="3" ry="3" style="stroke:#038048;stroke-width:1.0;"/><text fill="#000000" font-family="sans-serif" font-size="14" lengthAdjust="spacing" textLength="264" x="352" y="519.4659">boolean goLeft(Node current, int value)</text></g><!--class NormalBSTStrategy--><g id="elem_NormalBSTStrategy"><rect codeLine="23" fill="#F1F1F1" height="67.0679" id="NormalBSTStrategy" rx="2.5" ry="2.5" style="stroke:#181818;stroke-width:0.5;" width="290" x="7" y="626.5"/><ellipse cx="82.25" cy="642.5" fill="#ADD1B2" rx="11" ry="11" style="stroke:#181818;stroke-width:1.0;"/><path d="M85.2188,648.1406 Q84.6406,648.4375 84,648.5781 Q83.3594,648.7344 82.6563,648.7344 Q80.1563,648.7344 78.8281,647.0938 Q77.5156,645.4375 77.5156,642.3125 Q77.5156,639.1875 78.8281,637.5313 Q80.1563,635.875 82.6563,635.875 Q83.3594,635.875 84,636.0313 Q84.6563,636.1875 85.2188,636.4844 L85.2188,639.2031 Q84.5938,638.625 84,638.3594 Q83.4063,638.0781 82.7813,638.0781 Q81.4375,638.0781 80.75,639.1563 Q80.0625,640.2188 80.0625,642.3125 Q80.0625,644.4063 80.75,645.4844 Q81.4375,646.5469 82.7813,646.5469 Q83.4063,646.5469 84,646.2813 Q84.5938,646 85.2188,645.4219 L85.2188,648.1406 Z " fill="#000000"/><text fill="#000000" font-family="sans-serif" font-size="14" lengthAdjust="spacing" textLength="131" x="102.75" y="647.932">NormalBSTStrategy</text><line style="stroke:#181818;stroke-width:0.5;" x1="8" x2="296" y1="658.5" y2="658.5"/><line style="stroke:#181818;stroke-width:0.5;" x1="8" x2="296" y1="666.5" y2="666.5"/><ellipse cx="18" cy="681.534" fill="#84BE84" rx="3" ry="3" style="stroke:#038048;stroke-width:1.0;"/><text fill="#000000" font-family="sans-serif" font-size="14" lengthAdjust="spacing" textLength="264" x="27" y="685.4659">boolean goLeft(Node current, int value)</text></g><!--class BalancedStrategy--><g id="elem_BalancedStrategy"><rect codeLine="27" fill="#F1F1F1" height="86.1358" id="BalancedStrategy" rx="2.5" ry="2.5" style="stroke:#181818;stroke-width:0.5;" width="290" x="332" y="617"/><ellipse cx="413.75" cy="633" fill="#ADD1B2" rx="11" ry="11" style="stroke:#181818;stroke-width:1.0;"/><path d="M416.7188,638.6406 Q416.1406,638.9375 415.5,639.0781 Q414.8594,639.2344 414.1563,639.2344 Q411.6563,639.2344 410.3281,637.5938 Q409.0156,635.9375 409.0156,632.8125 Q409.0156,629.6875 410.3281,628.0313 Q411.6563,626.375 414.1563,626.375 Q414.8594,626.375 415.5,626.5313 Q416.1563,626.6875 416.7188,626.9844 L416.7188,629.7031 Q416.0938,629.125 415.5,628.8594 Q414.9063,628.5781 414.2813,628.5781 Q412.9375,628.5781 412.25,629.6563 Q411.5625,630.7188 411.5625,632.8125 Q411.5625,634.9063 412.25,635.9844 Q412.9375,637.0469 414.2813,637.0469 Q414.9063,637.0469 415.5,636.7813 Q416.0938,636.5 416.7188,635.9219 L416.7188,638.6406 Z " fill="#000000"/><text fill="#000000" font-family="sans-serif" font-size="14" lengthAdjust="spacing" textLength="118" x="434.25" y="638.432">BalancedStrategy</text><line style="stroke:#181818;stroke-width:0.5;" x1="333" x2="621" y1="649" y2="649"/><line style="stroke:#181818;stroke-width:0.5;" x1="333" x2="621" y1="657" y2="657"/><ellipse cx="343" cy="672.034" fill="#84BE84" rx="3" ry="3" style="stroke:#038048;stroke-width:1.0;"/><text fill="#000000" font-family="sans-serif" font-size="14" lengthAdjust="spacing" textLength="264" x="352" y="675.9659">boolean goLeft(Node current, int value)</text><rect fill="#F24D5C" height="6" style="stroke:#C82930;stroke-width:1.0;" width="6" x="340" y="688.1019"/><text fill="#000000" font-family="sans-serif" font-size="14" lengthAdjust="spacing" textLength="185" x="352" y="695.0339">int countNodes(Node node)</text></g><!--class InvertedBSTStrategy--><g id="elem_InvertedBSTStrategy"><rect codeLine="32" fill="#F1F1F1" height="67.0679" id="InvertedBSTStrategy" rx="2.5" ry="2.5" style="stroke:#181818;stroke-width:0.5;" width="290" x="657" y="626.5"/><ellipse cx="728.75" cy="642.5" fill="#ADD1B2" rx="11" ry="11" style="stroke:#181818;stroke-width:1.0;"/><path d="M731.7188,648.1406 Q731.1406,648.4375 730.5,648.5781 Q729.8594,648.7344 729.1563,648.7344 Q726.6563,648.7344 725.3281,647.0938 Q724.0156,645.4375 724.0156,642.3125 Q724.0156,639.1875 725.3281,637.5313 Q726.6563,635.875 729.1563,635.875 Q729.8594,635.875 730.5,636.0313 Q731.1563,636.1875 731.7188,636.4844 L731.7188,639.2031 Q731.0938,638.625 730.5,638.3594 Q729.9063,638.0781 729.2813,638.0781 Q727.9375,638.0781 727.25,639.1563 Q726.5625,640.2188 726.5625,642.3125 Q726.5625,644.4063 727.25,645.4844 Q727.9375,646.5469 729.2813,646.5469 Q729.9063,646.5469 730.5,646.2813 Q731.0938,646 731.7188,645.4219 L731.7188,648.1406 Z " fill="#000000"/><text fill="#000000" font-family="sans-serif" font-size="14" lengthAdjust="spacing" textLength="138" x="749.25" y="647.932">InvertedBSTStrategy</text><line style="stroke:#181818;stroke-width:0.5;" x1="658" x2="946" y1="658.5" y2="658.5"/><line style="stroke:#181818;stroke-width:0.5;" x1="658" x2="946" y1="666.5" y2="666.5"/><ellipse cx="668" cy="681.534" fill="#84BE84" rx="3" ry="3" style="stroke:#038048;stroke-width:1.0;"/><text fill="#000000" font-family="sans-serif" font-size="14" lengthAdjust="spacing" textLength="264" x="677" y="685.4659">boolean goLeft(Node current, int value)</text></g><!--class Jardinero--><g id="elem_Jardinero"><rect codeLine="36" fill="#F1F1F1" height="86.1358" id="Jardinero" rx="2.5" ry="2.5" style="stroke:#181818;stroke-width:0.5;" width="293" x="216.5" y="7"/><ellipse cx="327.75" cy="23" fill="#ADD1B2" rx="11" ry="11" style="stroke:#181818;stroke-width:1.0;"/><path d="M330.7188,28.6406 Q330.1406,28.9375 329.5,29.0781 Q328.8594,29.2344 328.1563,29.2344 Q325.6563,29.2344 324.3281,27.5938 Q323.0156,25.9375 323.0156,22.8125 Q323.0156,19.6875 324.3281,18.0313 Q325.6563,16.375 328.1563,16.375 Q328.8594,16.375 329.5,16.5313 Q330.1563,16.6875 330.7188,16.9844 L330.7188,19.7031 Q330.0938,19.125 329.5,18.8594 Q328.9063,18.5781 328.2813,18.5781 Q326.9375,18.5781 326.25,19.6563 Q325.5625,20.7188 325.5625,22.8125 Q325.5625,24.9063 326.25,25.9844 Q326.9375,27.0469 328.2813,27.0469 Q328.9063,27.0469 329.5,26.7813 Q330.0938,26.5 330.7188,25.9219 L330.7188,28.6406 Z " fill="#000000"/><text fill="#000000" font-family="sans-serif" font-size="14" lengthAdjust="spacing" textLength="62" x="348.25" y="28.432">Jardinero</text><line style="stroke:#181818;stroke-width:0.5;" x1="217.5" x2="508.5" y1="39" y2="39"/><line style="stroke:#181818;stroke-width:0.5;" x1="217.5" x2="508.5" y1="47" y2="47"/><ellipse cx="227.5" cy="62.034" fill="#84BE84" rx="3" ry="3" style="stroke:#038048;stroke-width:1.0;"/><text fill="#000000" font-family="sans-serif" font-size="14" lengthAdjust="spacing" text-decoration="underline" textLength="159" x="236.5" y="65.9659">void main(String[] args)</text><rect fill="#F24D5C" height="6" style="stroke:#C82930;stroke-width:1.0;" width="6" x="224.5" y="78.1019"/><text fill="#000000" font-family="sans-serif" font-size="14" lengthAdjust="spacing" text-decoration="underline" textLength="267" x="236.5" y="85.0339">void insertValues(Tree tree, int[] values)</text></g><!--reverse link Tree to Node--><g id="link_Tree_Node"><path codeLine="41" d="M241.9116,365.1907 C240.0716,391.4607 238.95,407.61 237.27,431.68 " fill="none" id="Tree-backto-Node" style="stroke:#181818;stroke-width:1.0;"/><polygon fill="none" points="242.75,353.22,238.3406,358.9259,241.9116,365.1907,246.321,359.4848,242.75,353.22" style="stroke:#181818;stroke-width:1.0;"/><polygon fill="#000000" points="245.6518,397.8409,249.2135,389.0224,243.3499,388.6131,245.6518,397.8409" style="stroke:#000000;stroke-width:1.0;"/><text fill="#000000" font-family="sans-serif" font-size="13" lengthAdjust="spacing" textLength="30" x="255" y="397.897">tiene</text></g><!--reverse link Tree to InsertionStrategy--><g id="link_Tree_InsertionStrategy"><path codeLine="42" d="M346.5882,361.7323 C384.0582,399.4423 416.84,432.44 444.56,460.35 " fill="none" id="Tree-backto-InsertionStrategy" style="stroke:#181818;stroke-width:1.0;"/><polygon fill="none" points="338.13,353.22,339.5216,360.2955,346.5882,361.7323,345.1965,354.6568,338.13,353.22" style="stroke:#181818;stroke-width:1.0;"/><polygon fill="#000000" points="391.5239,396.4001,387.2341,387.912,383.0642,392.0546,391.5239,396.4001" style="stroke:#000000;stroke-width:1.0;"/><text fill="#000000" font-family="sans-serif" font-size="13" lengthAdjust="spacing" textLength="21" x="397" y="397.897">usa</text></g><!--reverse link InsertionStrategy to NormalBSTStrategy--><g id="link_InsertionStrategy_NormalBSTStrategy"><path codeLine="44" d="M396.3293,535.7075 C339.4993,564.3775 273.27,597.81 216.48,626.46 " fill="none" id="InsertionStrategy-backto-NormalBSTStrategy" style="stroke:#181818;stroke-width:1.0;stroke-dasharray:7.0,7.0;"/><polygon fill="none" points="412.4,527.6,393.6268,530.3506,399.0318,541.0644,412.4,527.6" style="stroke:#181818;stroke-width:1.0;"/></g><!--reverse link InsertionStrategy to BalancedStrategy--><g id="link_InsertionStrategy_BalancedStrategy"><path codeLine="45" d="M477,545.79 C477,571.41 477,589.18 477,616.91 " fill="none" id="InsertionStrategy-backto-BalancedStrategy" style="stroke:#181818;stroke-width:1.0;stroke-dasharray:7.0,7.0;"/><polygon fill="none" points="477,527.79,471,545.79,483,545.79,477,527.79" style="stroke:#181818;stroke-width:1.0;"/></g><!--reverse link InsertionStrategy to InvertedBSTStrategy--><g id="link_InsertionStrategy_InvertedBSTStrategy"><path codeLine="46" d="M557.6707,535.7075 C614.5007,564.3775 680.73,597.81 737.52,626.46 " fill="none" id="InsertionStrategy-backto-InvertedBSTStrategy" style="stroke:#181818;stroke-width:1.0;stroke-dasharray:7.0,7.0;"/><polygon fill="none" points="541.6,527.6,554.9682,541.0644,560.3732,530.3506,541.6,527.6" style="stroke:#181818;stroke-width:1.0;"/></g><!--link Jardinero to Tree--><g id="link_Jardinero_Tree"><path codeLine="48" d="M340.2,93.09 C327.99,115.65 315.3082,139.0745 300.5282,166.3545 " fill="none" id="Jardinero-to-Tree" style="stroke:#181818;stroke-width:1.0;"/><polygon fill="#181818" points="297.67,171.63,305.4743,165.6222,300.0518,167.2338,298.4403,161.8113,297.67,171.63" style="stroke:#181818;stroke-width:1.0;"/><text fill="#000000" font-family="sans-serif" font-size="13" lengthAdjust="spacing" textLength="21" x="323" y="137.897">usa</text></g><!--link Jardinero to InsertionStrategy--><g id="link_Jardinero_InsertionStrategy"><path codeLine="49" d="M388.17,93.04 C400.71,115.72 415.06,144.6 424,172 C457.28,274.03 469.89,395.4477 474.42,454.3577 " fill="none" id="Jardinero-to-InsertionStrategy" style="stroke:#181818;stroke-width:1.0;"/><polygon fill="#181818" points="474.88,460.34,478.1782,451.0598,474.4966,455.3547,470.2017,451.6732,474.88,460.34" style="stroke:#181818;stroke-width:1.0;"/><text fill="#000000" font-family="sans-serif" font-size="13" lengthAdjust="spacing" textLength="21" x="463" y="267.897">usa</text></g><!--SRC=[hPF1JiCm38RlUGeVEutk0IQqmsv3Q9gqYGlY45AlHCeSbAILqDYxapgbwrfw0Ng8QlltPyT9b97UmzOM26S1ySir1QYbgJ2P739u33tJwV8jsVF6phgKcRW8eHXvSDWXKvArBMD37btGblR1oO3b1_Zs9p6Rr6nQD4kgske2DAlw3VGAeggSrpKcLCPEYiiT3FI9zUwYEsi9xEa8EmuD01G3XdSSBNH7gH36NQSHp5-jDIW9IliOPvbG4UwGmaqxtVosrfsaMUyFVoQjfP6aiFWjgBiLobOK6fc_Zg9NPqDrt3iM_z7pWtI59dJsct3sGGQjBi07SvAQibX4K_dy0jALlctpLfPknrF3zXbVo10NhXZJkARdeXopUPuUmXA2Ha9ONVtZSrr2vMMKY77e_dEn69_Vb71uF5Ew7yOhn7LEURvARuuR6mGcsXTV]--></g></svg>