<?xml version="1.0" encoding="us-ascii" standalone="no"?><svg xmlns="http://www.w3.org/2000/svg" xmlns:xlink="http://www.w3.org/1999/xlink" contentStyleType="text/css" height="425px" preserveAspectRatio="none" style="width:567px;height:425px;background:#FFFFFF;" version="1.1" viewBox="0 0 567 425" width="567px" zoomAndPan="magnify"><defs/><g><!--class Tree--><g id="elem_Tree"><rect fill="#F1F1F1" height="48" id="Tree" rx="2.5" ry="2.5" style="stroke:#181818;stroke-width:0.5;" width="62" x="148.5" y="134"/><ellipse cx="163.5" cy="150" fill="#ADD1B2" rx="11" ry="11" style="stroke:#181818;stroke-width:1.0;"/><path d="M166.4688,155.6406 Q165.8906,155.9375 165.25,156.0781 Q164.6094,156.2344 163.9063,156.2344 Q161.4063,156.2344 160.0781,154.5938 Q158.7656,152.9375 158.7656,149.8125 Q158.7656,146.6875 160.0781,145.0313 Q161.4063,143.375 163.9063,143.375 Q164.6094,143.375 165.25,143.5313 Q165.9063,143.6875 166.4688,143.9844 L166.4688,146.7031 Q165.8438,146.125 165.25,145.8594 Q164.6563,145.5781 164.0313,145.5781 Q162.6875,145.5781 162,146.6563 Q161.3125,147.7188 161.3125,149.8125 Q161.3125,151.9063 162,152.9844 Q162.6875,154.0469 164.0313,154.0469 Q164.6563,154.0469 165.25,153.7813 Q165.8438,153.5 166.4688,152.9219 L166.4688,155.6406 Z " fill="#000000"/><text fill="#000000" font-family="sans-serif" font-size="14" lengthAdjust="spacing" textLength="30" x="177.5" y="155.432">Tree</text><line style="stroke:#181818;stroke-width:0.5;" x1="149.5" x2="209.5" y1="166" y2="166"/><line style="stroke:#181818;stroke-width:0.5;" x1="149.5" x2="209.5" y1="174" y2="174"/></g><!--class Node--><g id="elem_Node"><rect fill="#F1F1F1" height="48" id="Node" rx="2.5" ry="2.5" style="stroke:#181818;stroke-width:0.5;" width="68" x="102.5" y="261"/><ellipse cx="117.5" cy="277" fill="#ADD1B2" rx="11" ry="11" style="stroke:#181818;stroke-width:1.0;"/><path d="M120.4688,282.6406 Q119.8906,282.9375 119.25,283.0781 Q118.6094,283.2344 117.9063,283.2344 Q115.4063,283.2344 114.0781,281.5938 Q112.7656,279.9375 112.7656,276.8125 Q112.7656,273.6875 114.0781,272.0313 Q115.4063,270.375 117.9063,270.375 Q118.6094,270.375 119.25,270.5313 Q119.9063,270.6875 120.4688,270.9844 L120.4688,273.7031 Q119.8438,273.125 119.25,272.8594 Q118.6563,272.5781 118.0313,272.5781 Q116.6875,272.5781 116,273.6563 Q115.3125,274.7188 115.3125,276.8125 Q115.3125,278.9063 116,279.9844 Q116.6875,281.0469 118.0313,281.0469 Q118.6563,281.0469 119.25,280.7813 Q119.8438,280.5 120.4688,279.9219 L120.4688,282.6406 Z " fill="#000000"/><text fill="#000000" font-family="sans-serif" font-size="14" lengthAdjust="spacing" textLength="36" x="131.5" y="282.432">Node</text><line style="stroke:#181818;stroke-width:0.5;" x1="103.5" x2="169.5" y1="293" y2="293"/><line style="stroke:#181818;stroke-width:0.5;" x1="103.5" x2="169.5" y1="301" y2="301"/></g><!--class InsertionStrategy--><g id="elem_InsertionStrategy"><rect fill="#F1F1F1" height="48" id="InsertionStrategy" rx="2.5" ry="2.5" style="stroke:#181818;stroke-width:0.5;" width="149" x="206" y="261"/><ellipse cx="221" cy="277" fill="#ADD1B2" rx="11" ry="11" style="stroke:#181818;stroke-width:1.0;"/><path d="M223.9688,282.6406 Q223.3906,282.9375 222.75,283.0781 Q222.1094,283.2344 221.4063,283.2344 Q218.9063,283.2344 217.5781,281.5938 Q216.2656,279.9375 216.2656,276.8125 Q216.2656,273.6875 217.5781,272.0313 Q218.9063,270.375 221.4063,270.375 Q222.1094,270.375 222.75,270.5313 Q223.4063,270.6875 223.9688,270.9844 L223.9688,273.7031 Q223.3438,273.125 222.75,272.8594 Q222.1563,272.5781 221.5313,272.5781 Q220.1875,272.5781 219.5,273.6563 Q218.8125,274.7188 218.8125,276.8125 Q218.8125,278.9063 219.5,279.9844 Q220.1875,281.0469 221.5313,281.0469 Q222.1563,281.0469 222.75,280.7813 Q223.3438,280.5 223.9688,279.9219 L223.9688,282.6406 Z " fill="#000000"/><text fill="#000000" font-family="sans-serif" font-size="14" lengthAdjust="spacing" textLength="117" x="235" y="282.432">InsertionStrategy</text><line style="stroke:#181818;stroke-width:0.5;" x1="207" x2="354" y1="293" y2="293"/><line style="stroke:#181818;stroke-width:0.5;" x1="207" x2="354" y1="301" y2="301"/></g><!--class NormalBSTStrategy--><g id="elem_NormalBSTStrategy"><rect fill="#F1F1F1" height="48" id="NormalBSTStrategy" rx="2.5" ry="2.5" style="stroke:#181818;stroke-width:0.5;" width="163" x="7" y="370"/><ellipse cx="22" cy="386" fill="#ADD1B2" rx="11" ry="11" style="stroke:#181818;stroke-width:1.0;"/><path d="M24.9688,391.6406 Q24.3906,391.9375 23.75,392.0781 Q23.1094,392.2344 22.4063,392.2344 Q19.9063,392.2344 18.5781,390.5938 Q17.2656,388.9375 17.2656,385.8125 Q17.2656,382.6875 18.5781,381.0313 Q19.9063,379.375 22.4063,379.375 Q23.1094,379.375 23.75,379.5313 Q24.4063,379.6875 24.9688,379.9844 L24.9688,382.7031 Q24.3438,382.125 23.75,381.8594 Q23.1563,381.5781 22.5313,381.5781 Q21.1875,381.5781 20.5,382.6563 Q19.8125,383.7188 19.8125,385.8125 Q19.8125,387.9063 20.5,388.9844 Q21.1875,390.0469 22.5313,390.0469 Q23.1563,390.0469 23.75,389.7813 Q24.3438,389.5 24.9688,388.9219 L24.9688,391.6406 Z " fill="#000000"/><text fill="#000000" font-family="sans-serif" font-size="14" lengthAdjust="spacing" textLength="131" x="36" y="391.432">NormalBSTStrategy</text><line style="stroke:#181818;stroke-width:0.5;" x1="8" x2="169" y1="402" y2="402"/><line style="stroke:#181818;stroke-width:0.5;" x1="8" x2="169" y1="410" y2="410"/></g><!--class BalancedStrategy--><g id="elem_BalancedStrategy"><rect fill="#F1F1F1" height="48" id="BalancedStrategy" rx="2.5" ry="2.5" style="stroke:#181818;stroke-width:0.5;" width="150" x="205.5" y="370"/><ellipse cx="220.5" cy="386" fill="#ADD1B2" rx="11" ry="11" style="stroke:#181818;stroke-width:1.0;"/><path d="M223.4688,391.6406 Q222.8906,391.9375 222.25,392.0781 Q221.6094,392.2344 220.9063,392.2344 Q218.4063,392.2344 217.0781,390.5938 Q215.7656,388.9375 215.7656,385.8125 Q215.7656,382.6875 217.0781,381.0313 Q218.4063,379.375 220.9063,379.375 Q221.6094,379.375 222.25,379.5313 Q222.9063,379.6875 223.4688,379.9844 L223.4688,382.7031 Q222.8438,382.125 222.25,381.8594 Q221.6563,381.5781 221.0313,381.5781 Q219.6875,381.5781 219,382.6563 Q218.3125,383.7188 218.3125,385.8125 Q218.3125,387.9063 219,388.9844 Q219.6875,390.0469 221.0313,390.0469 Q221.6563,390.0469 222.25,389.7813 Q222.8438,389.5 223.4688,388.9219 L223.4688,391.6406 Z " fill="#000000"/><text fill="#000000" font-family="sans-serif" font-size="14" lengthAdjust="spacing" textLength="118" x="234.5" y="391.432">BalancedStrategy</text><line style="stroke:#181818;stroke-width:0.5;" x1="206.5" x2="354.5" y1="402" y2="402"/><line style="stroke:#181818;stroke-width:0.5;" x1="206.5" x2="354.5" y1="410" y2="410"/></g><!--class InvertedBSTStrategy--><g id="elem_InvertedBSTStrategy"><rect fill="#F1F1F1" height="48" id="InvertedBSTStrategy" rx="2.5" ry="2.5" style="stroke:#181818;stroke-width:0.5;" width="170" x="390.5" y="370"/><ellipse cx="405.5" cy="386" fill="#ADD1B2" rx="11" ry="11" style="stroke:#181818;stroke-width:1.0;"/><path d="M408.4688,391.6406 Q407.8906,391.9375 407.25,392.0781 Q406.6094,392.2344 405.9063,392.2344 Q403.4063,392.2344 402.0781,390.5938 Q400.7656,388.9375 400.7656,385.8125 Q400.7656,382.6875 402.0781,381.0313 Q403.4063,379.375 405.9063,379.375 Q406.6094,379.375 407.25,379.5313 Q407.9063,379.6875 408.4688,379.9844 L408.4688,382.7031 Q407.8438,382.125 407.25,381.8594 Q406.6563,381.5781 406.0313,381.5781 Q404.6875,381.5781 404,382.6563 Q403.3125,383.7188 403.3125,385.8125 Q403.3125,387.9063 404,388.9844 Q404.6875,390.0469 406.0313,390.0469 Q406.6563,390.0469 407.25,389.7813 Q407.8438,389.5 408.4688,388.9219 L408.4688,391.6406 Z " fill="#000000"/><text fill="#000000" font-family="sans-serif" font-size="14" lengthAdjust="spacing" textLength="138" x="419.5" y="391.432">InvertedBSTStrategy</text><line style="stroke:#181818;stroke-width:0.5;" x1="391.5" x2="559.5" y1="402" y2="402"/><line style="stroke:#181818;stroke-width:0.5;" x1="391.5" x2="559.5" y1="410" y2="410"/></g><!--class Jardinero--><g id="elem_Jardinero"><rect fill="#F1F1F1" height="48" id="Jardinero" rx="2.5" ry="2.5" style="stroke:#181818;stroke-width:0.5;" width="94" x="183.5" y="7"/><ellipse cx="198.5" cy="23" fill="#ADD1B2" rx="11" ry="11" style="stroke:#181818;stroke-width:1.0;"/><path d="M201.4688,28.6406 Q200.8906,28.9375 200.25,29.0781 Q199.6094,29.2344 198.9063,29.2344 Q196.4063,29.2344 195.0781,27.5938 Q193.7656,25.9375 193.7656,22.8125 Q193.7656,19.6875 195.0781,18.0313 Q196.4063,16.375 198.9063,16.375 Q199.6094,16.375 200.25,16.5313 Q200.9063,16.6875 201.4688,16.9844 L201.4688,19.7031 Q200.8438,19.125 200.25,18.8594 Q199.6563,18.5781 199.0313,18.5781 Q197.6875,18.5781 197,19.6563 Q196.3125,20.7188 196.3125,22.8125 Q196.3125,24.9063 197,25.9844 Q197.6875,27.0469 199.0313,27.0469 Q199.6563,27.0469 200.25,26.7813 Q200.8438,26.5 201.4688,25.9219 L201.4688,28.6406 Z " fill="#000000"/><text fill="#000000" font-family="sans-serif" font-size="14" lengthAdjust="spacing" textLength="62" x="212.5" y="28.432">Jardinero</text><line style="stroke:#181818;stroke-width:0.5;" x1="184.5" x2="276.5" y1="39" y2="39"/><line style="stroke:#181818;stroke-width:0.5;" x1="184.5" x2="276.5" y1="47" y2="47"/></g><!--reverse link Tree to Node--><g id="link_Tree_Node"><path codeLine="2" d="M144.9537,190.9504 C137.1037,199.4604 137.63,200.93 133.5,212 C127.68,227.59 128.72,246.41 131.06,260.9 " fill="none" id="Tree-backto-Node" style="stroke:#181818;stroke-width:1.0;"/><polygon fill="none" points="153.09,182.13,146.0817,183.8281,144.9537,190.9504,151.962,189.2523,153.09,182.13" style="stroke:#181818;stroke-width:1.0;"/><polygon fill="#000000" points="137.5259,226.7572,142.1707,218.458,136.4054,217.3129,137.5259,226.7572" style="stroke:#000000;stroke-width:1.0;"/><text fill="#000000" font-family="sans-serif" font-size="13" lengthAdjust="spacing" textLength="30" x="147.5" y="226.897">tiene</text></g><!--reverse link Tree to InsertionStrategy--><g id="link_Tree_InsertionStrategy"><path codeLine="3" d="M194.3991,192.9174 C201.3391,207.7374 206.43,216.08 218.5,231 C227.31,241.9 238.58,252.3 249.09,260.95 " fill="none" id="Tree-backto-InsertionStrategy" style="stroke:#181818;stroke-width:1.0;"/><polygon fill="none" points="189.31,182.05,188.2321,189.1801,194.3991,192.9174,195.477,185.7874,189.31,182.05" style="stroke:#181818;stroke-width:1.0;"/><polygon fill="#000000" points="226.6327,225.7499,223.2561,216.859,218.675,220.5417,226.6327,225.7499" style="stroke:#000000;stroke-width:1.0;"/><text fill="#000000" font-family="sans-serif" font-size="13" lengthAdjust="spacing" textLength="21" x="232.5" y="226.897">usa</text></g><!--reverse link InsertionStrategy to NormalBSTStrategy--><g id="link_InsertionStrategy_NormalBSTStrategy"><path codeLine="5" d="M223.1146,317.9786 C190.9046,335.9186 162.26,351.89 130.08,369.83 " fill="none" id="InsertionStrategy-backto-NormalBSTStrategy" style="stroke:#181818;stroke-width:1.0;stroke-dasharray:7.0,7.0;"/><polygon fill="none" points="238.84,309.22,220.1951,312.7368,226.0341,323.2204,238.84,309.22" style="stroke:#181818;stroke-width:1.0;"/></g><!--reverse link InsertionStrategy to BalancedStrategy--><g id="link_InsertionStrategy_BalancedStrategy"><path codeLine="6" d="M280.5,327.22 C280.5,345.16 280.5,351.89 280.5,369.83 " fill="none" id="InsertionStrategy-backto-BalancedStrategy" style="stroke:#181818;stroke-width:1.0;stroke-dasharray:7.0,7.0;"/><polygon fill="none" points="280.5,309.22,274.5,327.22,286.5,327.22,280.5,309.22" style="stroke:#181818;stroke-width:1.0;"/></g><!--reverse link InsertionStrategy to InvertedBSTStrategy--><g id="link_InsertionStrategy_InvertedBSTStrategy"><path codeLine="7" d="M338.5922,317.8758 C371.3022,335.8158 400.58,351.89 433.27,369.83 " fill="none" id="InsertionStrategy-backto-InvertedBSTStrategy" style="stroke:#181818;stroke-width:1.0;stroke-dasharray:7.0,7.0;"/><polygon fill="none" points="322.81,309.22,335.7069,323.1365,341.4774,312.6151,322.81,309.22" style="stroke:#181818;stroke-width:1.0;"/></g><!--link Jardinero to Tree--><g id="link_Jardinero_Tree"><path codeLine="9" d="M221.03,55.22 C211.87,77.67 200.338,105.9452 191.188,128.3552 " fill="none" id="Jardinero-to-Tree" style="stroke:#181818;stroke-width:1.0;stroke-dasharray:7.0,7.0;"/><polygon fill="#181818" points="188.92,133.91,196.0253,127.0898,190.81,129.281,188.6188,124.0657,188.92,133.91" style="stroke:#181818;stroke-width:1.0;"/><text fill="#000000" font-family="sans-serif" font-size="13" lengthAdjust="spacing" textLength="21" x="209.5" y="99.897">usa</text></g><!--link Jardinero to InsertionStrategy--><g id="link_Jardinero_InsertionStrategy"><path codeLine="10" d="M235.11,55.26 C244.64,103.26 265.2118,206.9548 274.7318,254.9148 " fill="none" id="Jardinero-to-InsertionStrategy" style="stroke:#181818;stroke-width:1.0;stroke-dasharray:7.0,7.0;"/><polygon fill="#181818" points="275.9,260.8,278.0712,251.1934,274.9265,255.8957,270.2242,252.751,275.9,260.8" style="stroke:#181818;stroke-width:1.0;"/><text fill="#000000" font-family="sans-serif" font-size="13" lengthAdjust="spacing" textLength="21" x="260.5" y="163.397">usa</text></g><!--SRC=[2obAJLN8rzLLyCjFILMmKYZ9JCrBLR3Z2e69U-OLfnQLPERd1PSK9PQafbS25PKM9mALS65AsTJewG5DAifDp74A3e49urBeb9YJc9USca98dMTU6L0uDGNPI2wlnAAKpBpKedm5FJqx1R1pmGv3ay3XV2u0]--></g></svg>