<?xml version="1.0" encoding="us-ascii" standalone="no"?><svg xmlns="http://www.w3.org/2000/svg" xmlns:xlink="http://www.w3.org/1999/xlink" contentStyleType="text/css" height="425px" preserveAspectRatio="none" style="width:567px;height:425px;background:#FFFFFF;" version="1.1" viewBox="0 0 567 425" width="567px" zoomAndPan="magnify"><defs/><g><!--class InsertionStrategy--><g id="elem_InsertionStrategy"><rect codeLine="2" fill="#F1F1F1" height="48" id="InsertionStrategy" rx="2.5" ry="2.5" style="stroke:#181818;stroke-width:0.5;" width="142" x="209.5" y="261"/><ellipse cx="224.5" cy="277" fill="#B4A7E5" rx="11" ry="11" style="stroke:#181818;stroke-width:1.0;"/><path d="M220.4219,272.7656 L220.4219,270.6094 L227.8125,270.6094 L227.8125,272.7656 L225.3438,272.7656 L225.3438,280.8438 L227.8125,280.8438 L227.8125,283 L220.4219,283 L220.4219,280.8438 L222.8906,280.8438 L222.8906,272.7656 L220.4219,272.7656 Z " fill="#000000"/><text fill="#000000" font-family="sans-serif" font-size="14" font-style="italic" lengthAdjust="spacing" textLength="110" x="238.5" y="282.432">InsertionStrategy</text><line style="stroke:#181818;stroke-width:0.5;" x1="210.5" x2="350.5" y1="293" y2="293"/><line style="stroke:#181818;stroke-width:0.5;" x1="210.5" x2="350.5" y1="301" y2="301"/></g><!--class Tree--><g id="elem_Tree"><rect fill="#F1F1F1" height="48" id="Tree" rx="2.5" ry="2.5" style="stroke:#181818;stroke-width:0.5;" width="62" x="338.5" y="134"/><ellipse cx="353.5" cy="150" fill="#ADD1B2" rx="11" ry="11" style="stroke:#181818;stroke-width:1.0;"/><path d="M356.4688,155.6406 Q355.8906,155.9375 355.25,156.0781 Q354.6094,156.2344 353.9063,156.2344 Q351.4063,156.2344 350.0781,154.5938 Q348.7656,152.9375 348.7656,149.8125 Q348.7656,146.6875 350.0781,145.0313 Q351.4063,143.375 353.9063,143.375 Q354.6094,143.375 355.25,143.5313 Q355.9063,143.6875 356.4688,143.9844 L356.4688,146.7031 Q355.8438,146.125 355.25,145.8594 Q354.6563,145.5781 354.0313,145.5781 Q352.6875,145.5781 352,146.6563 Q351.3125,147.7188 351.3125,149.8125 Q351.3125,151.9063 352,152.9844 Q352.6875,154.0469 354.0313,154.0469 Q354.6563,154.0469 355.25,153.7813 Q355.8438,153.5 356.4688,152.9219 L356.4688,155.6406 Z " fill="#000000"/><text fill="#000000" font-family="sans-serif" font-size="14" lengthAdjust="spacing" textLength="30" x="367.5" y="155.432">Tree</text><line style="stroke:#181818;stroke-width:0.5;" x1="339.5" x2="399.5" y1="166" y2="166"/><line style="stroke:#181818;stroke-width:0.5;" x1="339.5" x2="399.5" y1="174" y2="174"/></g><!--class Node--><g id="elem_Node"><rect fill="#F1F1F1" height="48" id="Node" rx="2.5" ry="2.5" style="stroke:#181818;stroke-width:0.5;" width="68" x="386.5" y="261"/><ellipse cx="401.5" cy="277" fill="#ADD1B2" rx="11" ry="11" style="stroke:#181818;stroke-width:1.0;"/><path d="M404.4688,282.6406 Q403.8906,282.9375 403.25,283.0781 Q402.6094,283.2344 401.9063,283.2344 Q399.4063,283.2344 398.0781,281.5938 Q396.7656,279.9375 396.7656,276.8125 Q396.7656,273.6875 398.0781,272.0313 Q399.4063,270.375 401.9063,270.375 Q402.6094,270.375 403.25,270.5313 Q403.9063,270.6875 404.4688,270.9844 L404.4688,273.7031 Q403.8438,273.125 403.25,272.8594 Q402.6563,272.5781 402.0313,272.5781 Q400.6875,272.5781 400,273.6563 Q399.3125,274.7188 399.3125,276.8125 Q399.3125,278.9063 400,279.9844 Q400.6875,281.0469 402.0313,281.0469 Q402.6563,281.0469 403.25,280.7813 Q403.8438,280.5 404.4688,279.9219 L404.4688,282.6406 Z " fill="#000000"/><text fill="#000000" font-family="sans-serif" font-size="14" lengthAdjust="spacing" textLength="36" x="415.5" y="282.432">Node</text><line style="stroke:#181818;stroke-width:0.5;" x1="387.5" x2="453.5" y1="293" y2="293"/><line style="stroke:#181818;stroke-width:0.5;" x1="387.5" x2="453.5" y1="301" y2="301"/></g><!--class NormalBSTStrategy--><g id="elem_NormalBSTStrategy"><rect fill="#F1F1F1" height="48" id="NormalBSTStrategy" rx="2.5" ry="2.5" style="stroke:#181818;stroke-width:0.5;" width="163" x="7" y="370"/><ellipse cx="22" cy="386" fill="#ADD1B2" rx="11" ry="11" style="stroke:#181818;stroke-width:1.0;"/><path d="M24.9688,391.6406 Q24.3906,391.9375 23.75,392.0781 Q23.1094,392.2344 22.4063,392.2344 Q19.9063,392.2344 18.5781,390.5938 Q17.2656,388.9375 17.2656,385.8125 Q17.2656,382.6875 18.5781,381.0313 Q19.9063,379.375 22.4063,379.375 Q23.1094,379.375 23.75,379.5313 Q24.4063,379.6875 24.9688,379.9844 L24.9688,382.7031 Q24.3438,382.125 23.75,381.8594 Q23.1563,381.5781 22.5313,381.5781 Q21.1875,381.5781 20.5,382.6563 Q19.8125,383.7188 19.8125,385.8125 Q19.8125,387.9063 20.5,388.9844 Q21.1875,390.0469 22.5313,390.0469 Q23.1563,390.0469 23.75,389.7813 Q24.3438,389.5 24.9688,388.9219 L24.9688,391.6406 Z " fill="#000000"/><text fill="#000000" font-family="sans-serif" font-size="14" lengthAdjust="spacing" textLength="131" x="36" y="391.432">NormalBSTStrategy</text><line style="stroke:#181818;stroke-width:0.5;" x1="8" x2="169" y1="402" y2="402"/><line style="stroke:#181818;stroke-width:0.5;" x1="8" x2="169" y1="410" y2="410"/></g><!--class BalancedStrategy--><g id="elem_BalancedStrategy"><rect fill="#F1F1F1" height="48" id="BalancedStrategy" rx="2.5" ry="2.5" style="stroke:#181818;stroke-width:0.5;" width="150" x="205.5" y="370"/><ellipse cx="220.5" cy="386" fill="#ADD1B2" rx="11" ry="11" style="stroke:#181818;stroke-width:1.0;"/><path d="M223.4688,391.6406 Q222.8906,391.9375 222.25,392.0781 Q221.6094,392.2344 220.9063,392.2344 Q218.4063,392.2344 217.0781,390.5938 Q215.7656,388.9375 215.7656,385.8125 Q215.7656,382.6875 217.0781,381.0313 Q218.4063,379.375 220.9063,379.375 Q221.6094,379.375 222.25,379.5313 Q222.9063,379.6875 223.4688,379.9844 L223.4688,382.7031 Q222.8438,382.125 222.25,381.8594 Q221.6563,381.5781 221.0313,381.5781 Q219.6875,381.5781 219,382.6563 Q218.3125,383.7188 218.3125,385.8125 Q218.3125,387.9063 219,388.9844 Q219.6875,390.0469 221.0313,390.0469 Q221.6563,390.0469 222.25,389.7813 Q222.8438,389.5 223.4688,388.9219 L223.4688,391.6406 Z " fill="#000000"/><text fill="#000000" font-family="sans-serif" font-size="14" lengthAdjust="spacing" textLength="118" x="234.5" y="391.432">BalancedStrategy</text><line style="stroke:#181818;stroke-width:0.5;" x1="206.5" x2="354.5" y1="402" y2="402"/><line style="stroke:#181818;stroke-width:0.5;" x1="206.5" x2="354.5" y1="410" y2="410"/></g><!--class InvertedBSTStrategy--><g id="elem_InvertedBSTStrategy"><rect fill="#F1F1F1" height="48" id="InvertedBSTStrategy" rx="2.5" ry="2.5" style="stroke:#181818;stroke-width:0.5;" width="170" x="390.5" y="370"/><ellipse cx="405.5" cy="386" fill="#ADD1B2" rx="11" ry="11" style="stroke:#181818;stroke-width:1.0;"/><path d="M408.4688,391.6406 Q407.8906,391.9375 407.25,392.0781 Q406.6094,392.2344 405.9063,392.2344 Q403.4063,392.2344 402.0781,390.5938 Q400.7656,388.9375 400.7656,385.8125 Q400.7656,382.6875 402.0781,381.0313 Q403.4063,379.375 405.9063,379.375 Q406.6094,379.375 407.25,379.5313 Q407.9063,379.6875 408.4688,379.9844 L408.4688,382.7031 Q407.8438,382.125 407.25,381.8594 Q406.6563,381.5781 406.0313,381.5781 Q404.6875,381.5781 404,382.6563 Q403.3125,383.7188 403.3125,385.8125 Q403.3125,387.9063 404,388.9844 Q404.6875,390.0469 406.0313,390.0469 Q406.6563,390.0469 407.25,389.7813 Q407.8438,389.5 408.4688,388.9219 L408.4688,391.6406 Z " fill="#000000"/><text fill="#000000" font-family="sans-serif" font-size="14" lengthAdjust="spacing" textLength="138" x="419.5" y="391.432">InvertedBSTStrategy</text><line style="stroke:#181818;stroke-width:0.5;" x1="391.5" x2="559.5" y1="402" y2="402"/><line style="stroke:#181818;stroke-width:0.5;" x1="391.5" x2="559.5" y1="410" y2="410"/></g><!--class Jardinero--><g id="elem_Jardinero"><rect fill="#F1F1F1" height="48" id="Jardinero" rx="2.5" ry="2.5" style="stroke:#181818;stroke-width:0.5;" width="94" x="262.5" y="7"/><ellipse cx="277.5" cy="23" fill="#ADD1B2" rx="11" ry="11" style="stroke:#181818;stroke-width:1.0;"/><path d="M280.4688,28.6406 Q279.8906,28.9375 279.25,29.0781 Q278.6094,29.2344 277.9063,29.2344 Q275.4063,29.2344 274.0781,27.5938 Q272.7656,25.9375 272.7656,22.8125 Q272.7656,19.6875 274.0781,18.0313 Q275.4063,16.375 277.9063,16.375 Q278.6094,16.375 279.25,16.5313 Q279.9063,16.6875 280.4688,16.9844 L280.4688,19.7031 Q279.8438,19.125 279.25,18.8594 Q278.6563,18.5781 278.0313,18.5781 Q276.6875,18.5781 276,19.6563 Q275.3125,20.7188 275.3125,22.8125 Q275.3125,24.9063 276,25.9844 Q276.6875,27.0469 278.0313,27.0469 Q278.6563,27.0469 279.25,26.7813 Q279.8438,26.5 280.4688,25.9219 L280.4688,28.6406 Z " fill="#000000"/><text fill="#000000" font-family="sans-serif" font-size="14" lengthAdjust="spacing" textLength="62" x="291.5" y="28.432">Jardinero</text><line style="stroke:#181818;stroke-width:0.5;" x1="263.5" x2="355.5" y1="39" y2="39"/><line style="stroke:#181818;stroke-width:0.5;" x1="263.5" x2="355.5" y1="47" y2="47"/></g><!--reverse link Tree to Node--><g id="link_Tree_Node"><path codeLine="4" d="M383.5034,193.3307 C392.6634,215.7807 401.93,238.5 411.08,260.91 " fill="none" id="Tree-backto-Node" style="stroke:#181818;stroke-width:1.0;"/><polygon fill="none" points="378.97,182.22,377.5331,189.2865,383.5034,193.3307,384.9403,186.2642,378.97,182.22" style="stroke:#181818;stroke-width:1.0;"/><polygon fill="#000000" points="404.3891,226.4824,403.6928,216.9974,398.2506,219.2181,404.3891,226.4824" style="stroke:#000000;stroke-width:1.0;"/><text fill="#000000" font-family="sans-serif" font-size="13" lengthAdjust="spacing" textLength="30" x="411.5" y="226.897">tiene</text></g><!--reverse link Tree to InsertionStrategy--><g id="link_Tree_InsertionStrategy"><path codeLine="5" d="M346.0083,191.9942 C330.0183,214.4442 312.9,238.5 296.94,260.91 " fill="none" id="Tree-backto-InsertionStrategy" style="stroke:#181818;stroke-width:1.0;"/><polygon fill="none" points="352.97,182.22,346.2311,184.7865,346.0083,191.9942,352.7472,189.4277,352.97,182.22" style="stroke:#181818;stroke-width:1.0;"/><polygon fill="#000000" points="332.6,225.9261,340.2403,220.2624,335.4521,216.8532,332.6,225.9261" style="stroke:#000000;stroke-width:1.0;"/><text fill="#000000" font-family="sans-serif" font-size="13" lengthAdjust="spacing" textLength="21" x="344.5" y="226.897">usa</text></g><!--reverse link InsertionStrategy to NormalBSTStrategy--><g id="link_InsertionStrategy_NormalBSTStrategy"><path codeLine="7" d="M223.1146,317.9786 C190.9046,335.9186 162.26,351.89 130.08,369.83 " fill="none" id="InsertionStrategy-backto-NormalBSTStrategy" style="stroke:#181818;stroke-width:1.0;stroke-dasharray:7.0,7.0;"/><polygon fill="none" points="238.84,309.22,220.1951,312.7368,226.0341,323.2204,238.84,309.22" style="stroke:#181818;stroke-width:1.0;"/></g><!--reverse link InsertionStrategy to BalancedStrategy--><g id="link_InsertionStrategy_BalancedStrategy"><path codeLine="8" d="M280.5,327.22 C280.5,345.16 280.5,351.89 280.5,369.83 " fill="none" id="InsertionStrategy-backto-BalancedStrategy" style="stroke:#181818;stroke-width:1.0;stroke-dasharray:7.0,7.0;"/><polygon fill="none" points="280.5,309.22,274.5,327.22,286.5,327.22,280.5,309.22" style="stroke:#181818;stroke-width:1.0;"/></g><!--reverse link InsertionStrategy to InvertedBSTStrategy--><g id="link_InsertionStrategy_InvertedBSTStrategy"><path codeLine="9" d="M338.5922,317.8758 C371.3022,335.8158 400.58,351.89 433.27,369.83 " fill="none" id="InsertionStrategy-backto-InvertedBSTStrategy" style="stroke:#181818;stroke-width:1.0;stroke-dasharray:7.0,7.0;"/><polygon fill="none" points="322.81,309.22,335.7069,323.1365,341.4774,312.6151,322.81,309.22" style="stroke:#181818;stroke-width:1.0;"/></g><!--link Jardinero to Tree--><g id="link_Jardinero_Tree"><path codeLine="11" d="M320.64,55.22 C331.42,77.67 345.0649,106.0902 355.8149,128.5002 " fill="none" id="Jardinero-to-Tree" style="stroke:#181818;stroke-width:1.0;"/><polygon fill="#181818" points="358.41,133.91,358.1239,124.0653,356.2475,129.4019,350.9109,127.5254,358.41,133.91" style="stroke:#181818;stroke-width:1.0;"/><text fill="#000000" font-family="sans-serif" font-size="13" lengthAdjust="spacing" textLength="21" x="343.5" y="99.897">usa</text></g><!--link Jardinero to InsertionStrategy--><g id="link_Jardinero_InsertionStrategy"><path codeLine="12" d="M306.82,55.26 C301.3,103.26 289.376,206.8794 283.856,254.8394 " fill="none" id="Jardinero-to-InsertionStrategy" style="stroke:#181818;stroke-width:1.0;"/><polygon fill="#181818" points="283.17,260.8,288.1728,252.3164,283.7417,255.8328,280.2253,251.4017,283.17,260.8" style="stroke:#181818;stroke-width:1.0;"/><text fill="#000000" font-family="sans-serif" font-size="13" lengthAdjust="spacing" textLength="21" x="298.5" y="163.397">usa</text></g><!--SRC=[XOv12eD034NtEKKkC1wW51VkTD6DNY0ulsN0PY2cXK8Fx-2YbOfq-__BpqlgiAkCu5PdcAUilPiuRY-YmG3E8V0bH_29FK71zJVVtHJeCKj1Q5-TtrLLbkmkKzCFdoy7O2EJw8ZuZslrMMB4xIHrOZ4fB7C8DQ-wgzXFSQ1F2m00]--></g></svg>