<?xml version="1.0" encoding="us-ascii" standalone="no"?><svg xmlns="http://www.w3.org/2000/svg" xmlns:xlink="http://www.w3.org/1999/xlink" contentStyleType="text/css" height="821px" preserveAspectRatio="none" style="width:946px;height:821px;background:#FFFFFF;" version="1.1" viewBox="0 0 946 821" width="946px" zoomAndPan="magnify"><defs/><g><g id="elem_jardinero"><rect fill="#F1F1F1" height="39.0679" style="stroke:#181818;stroke-width:0.5;" width="80" x="398.5" y="18"/><text fill="#000000" font-family="sans-serif" font-size="14" lengthAdjust="spacing" textLength="66" x="405.5" y="34.9659">:Jardinero</text><line style="stroke:#181818;stroke-width:0.5;" x1="399.5" x2="477.5" y1="41.0679" y2="41.0679"/></g><g id="elem_tree1"><rect fill="#F1F1F1" height="39.0679" style="stroke:#181818;stroke-width:0.5;" width="126" x="164.5" y="130"/><text fill="#000000" font-family="sans-serif" font-size="14" lengthAdjust="spacing" textLength="112" x="171.5" y="146.9659">normalTree:Tree</text><line style="stroke:#181818;stroke-width:0.5;" x1="165.5" x2="289.5" y1="153.0679" y2="153.0679"/></g><g id="elem_tree2"><rect fill="#F1F1F1" height="39.0679" style="stroke:#181818;stroke-width:0.5;" width="140" x="368.5" y="130"/><text fill="#000000" font-family="sans-serif" font-size="14" lengthAdjust="spacing" textLength="126" x="375.5" y="146.9659">balancedTree:Tree</text><line style="stroke:#181818;stroke-width:0.5;" x1="369.5" x2="507.5" y1="153.0679" y2="153.0679"/></g><g id="elem_tree3"><rect fill="#F1F1F1" height="39.0679" style="stroke:#181818;stroke-width:0.5;" width="134" x="587.5" y="130"/><text fill="#000000" font-family="sans-serif" font-size="14" lengthAdjust="spacing" textLength="120" x="594.5" y="146.9659">invertedTree:Tree</text><line style="stroke:#181818;stroke-width:0.5;" x1="588.5" x2="720.5" y1="153.0679" y2="153.0679"/></g><g id="elem_strat1"><rect fill="#F1F1F1" height="39.0679" style="stroke:#181818;stroke-width:0.5;" width="149" x="7" y="253.5"/><text fill="#000000" font-family="sans-serif" font-size="14" lengthAdjust="spacing" textLength="135" x="14" y="270.4659">:NormalBSTStrategy</text><line style="stroke:#181818;stroke-width:0.5;" x1="8" x2="155" y1="276.5679" y2="276.5679"/></g><g id="elem_strat2"><rect fill="#F1F1F1" height="39.0679" style="stroke:#181818;stroke-width:0.5;" width="136" x="298.5" y="253.5"/><text fill="#000000" font-family="sans-serif" font-size="14" lengthAdjust="spacing" textLength="122" x="305.5" y="270.4659">:BalancedStrategy</text><line style="stroke:#181818;stroke-width:0.5;" x1="299.5" x2="433.5" y1="276.5679" y2="276.5679"/></g><g id="elem_strat3"><rect fill="#F1F1F1" height="39.0679" style="stroke:#181818;stroke-width:0.5;" width="156" x="576.5" y="253.5"/><text fill="#000000" font-family="sans-serif" font-size="14" lengthAdjust="spacing" textLength="142" x="583.5" y="270.4659">:InvertedBSTStrategy</text><line style="stroke:#181818;stroke-width:0.5;" x1="577.5" x2="731.5" y1="276.5679" y2="276.5679"/></g><g id="elem_n1_1"><rect fill="#F1F1F1" height="50.1358" style="stroke:#181818;stroke-width:0.5;" width="72" x="191.5" y="248"/><text fill="#000000" font-family="sans-serif" font-size="14" lengthAdjust="spacing" textLength="40" x="207.5" y="264.9659">:Node</text><line style="stroke:#181818;stroke-width:0.5;" x1="192.5" x2="262.5" y1="271.0679" y2="271.0679"/><text fill="#000000" font-family="sans-serif" font-size="14" lengthAdjust="spacing" textLength="60" x="197.5" y="290.0339">value = 2</text></g><g id="elem_n1_2"><rect fill="#F1F1F1" height="50.1358" style="stroke:#181818;stroke-width:0.5;" width="72" x="85.5" y="377"/><text fill="#000000" font-family="sans-serif" font-size="14" lengthAdjust="spacing" textLength="40" x="101.5" y="393.9659">:Node</text><line style="stroke:#181818;stroke-width:0.5;" x1="86.5" x2="156.5" y1="400.0679" y2="400.0679"/><text fill="#000000" font-family="sans-serif" font-size="14" lengthAdjust="spacing" textLength="60" x="91.5" y="419.0339">value = 1</text></g><g id="elem_n1_3"><rect fill="#F1F1F1" height="50.1358" style="stroke:#181818;stroke-width:0.5;" width="72" x="192.5" y="377"/><text fill="#000000" font-family="sans-serif" font-size="14" lengthAdjust="spacing" textLength="40" x="208.5" y="393.9659">:Node</text><line style="stroke:#181818;stroke-width:0.5;" x1="193.5" x2="263.5" y1="400.0679" y2="400.0679"/><text fill="#000000" font-family="sans-serif" font-size="14" lengthAdjust="spacing" textLength="60" x="198.5" y="419.0339">value = 6</text></g><g id="elem_n1_4"><rect fill="#F1F1F1" height="50.1358" style="stroke:#181818;stroke-width:0.5;" width="72" x="86.5" y="506"/><text fill="#000000" font-family="sans-serif" font-size="14" lengthAdjust="spacing" textLength="40" x="102.5" y="522.9659">:Node</text><line style="stroke:#181818;stroke-width:0.5;" x1="87.5" x2="157.5" y1="529.0679" y2="529.0679"/><text fill="#000000" font-family="sans-serif" font-size="14" lengthAdjust="spacing" textLength="60" x="92.5" y="548.0339">value = 5</text></g><g id="elem_n1_5"><rect fill="#F1F1F1" height="50.1358" style="stroke:#181818;stroke-width:0.5;" width="72" x="193.5" y="506"/><text fill="#000000" font-family="sans-serif" font-size="14" lengthAdjust="spacing" textLength="40" x="209.5" y="522.9659">:Node</text><line style="stroke:#181818;stroke-width:0.5;" x1="194.5" x2="264.5" y1="529.0679" y2="529.0679"/><text fill="#000000" font-family="sans-serif" font-size="14" lengthAdjust="spacing" textLength="60" x="199.5" y="548.0339">value = 7</text></g><g id="elem_n1_6"><rect fill="#F1F1F1" height="50.1358" style="stroke:#181818;stroke-width:0.5;" width="72" x="86.5" y="635"/><text fill="#000000" font-family="sans-serif" font-size="14" lengthAdjust="spacing" textLength="40" x="102.5" y="651.9659">:Node</text><line style="stroke:#181818;stroke-width:0.5;" x1="87.5" x2="157.5" y1="658.0679" y2="658.0679"/><text fill="#000000" font-family="sans-serif" font-size="14" lengthAdjust="spacing" textLength="60" x="92.5" y="677.0339">value = 3</text></g><g id="elem_n1_7"><rect fill="#F1F1F1" height="50.1358" style="stroke:#181818;stroke-width:0.5;" width="72" x="193.5" y="635"/><text fill="#000000" font-family="sans-serif" font-size="14" lengthAdjust="spacing" textLength="40" x="209.5" y="651.9659">:Node</text><line style="stroke:#181818;stroke-width:0.5;" x1="194.5" x2="264.5" y1="658.0679" y2="658.0679"/><text fill="#000000" font-family="sans-serif" font-size="14" lengthAdjust="spacing" textLength="60" x="199.5" y="677.0339">value = 9</text></g><g id="elem_n1_8"><rect fill="#F1F1F1" height="50.1358" style="stroke:#181818;stroke-width:0.5;" width="80" x="189.5" y="764"/><text fill="#000000" font-family="sans-serif" font-size="14" lengthAdjust="spacing" textLength="40" x="209.5" y="780.9659">:Node</text><line style="stroke:#181818;stroke-width:0.5;" x1="190.5" x2="268.5" y1="787.0679" y2="787.0679"/><text fill="#000000" font-family="sans-serif" font-size="14" lengthAdjust="spacing" textLength="68" x="195.5" y="806.0339">value = 10</text></g><g id="elem_n2_1"><rect fill="#F1F1F1" height="50.1358" style="stroke:#181818;stroke-width:0.5;" width="72" x="469.5" y="248"/><text fill="#000000" font-family="sans-serif" font-size="14" lengthAdjust="spacing" textLength="40" x="485.5" y="264.9659">:Node</text><line style="stroke:#181818;stroke-width:0.5;" x1="470.5" x2="540.5" y1="271.0679" y2="271.0679"/><text fill="#000000" font-family="sans-serif" font-size="14" lengthAdjust="spacing" textLength="60" x="475.5" y="290.0339">value = 2</text></g><g id="elem_n2_2"><rect fill="#F1F1F1" height="50.1358" style="stroke:#181818;stroke-width:0.5;" width="72" x="407.5" y="377"/><text fill="#000000" font-family="sans-serif" font-size="14" lengthAdjust="spacing" textLength="40" x="423.5" y="393.9659">:Node</text><line style="stroke:#181818;stroke-width:0.5;" x1="408.5" x2="478.5" y1="400.0679" y2="400.0679"/><text fill="#000000" font-family="sans-serif" font-size="14" lengthAdjust="spacing" textLength="60" x="413.5" y="419.0339">value = 6</text></g><g id="elem_n2_3"><rect fill="#F1F1F1" height="50.1358" style="stroke:#181818;stroke-width:0.5;" width="72" x="514.5" y="377"/><text fill="#000000" font-family="sans-serif" font-size="14" lengthAdjust="spacing" textLength="40" x="530.5" y="393.9659">:Node</text><line style="stroke:#181818;stroke-width:0.5;" x1="515.5" x2="585.5" y1="400.0679" y2="400.0679"/><text fill="#000000" font-family="sans-serif" font-size="14" lengthAdjust="spacing" textLength="60" x="520.5" y="419.0339">value = 5</text></g><g id="elem_n2_4"><rect fill="#F1F1F1" height="50.1358" style="stroke:#181818;stroke-width:0.5;" width="72" x="300.5" y="506"/><text fill="#000000" font-family="sans-serif" font-size="14" lengthAdjust="spacing" textLength="40" x="316.5" y="522.9659">:Node</text><line style="stroke:#181818;stroke-width:0.5;" x1="301.5" x2="371.5" y1="529.0679" y2="529.0679"/><text fill="#000000" font-family="sans-serif" font-size="14" lengthAdjust="spacing" textLength="60" x="306.5" y="548.0339">value = 3</text></g><g id="elem_n2_5"><rect fill="#F1F1F1" height="50.1358" style="stroke:#181818;stroke-width:0.5;" width="72" x="514.5" y="506"/><text fill="#000000" font-family="sans-serif" font-size="14" lengthAdjust="spacing" textLength="40" x="530.5" y="522.9659">:Node</text><line style="stroke:#181818;stroke-width:0.5;" x1="515.5" x2="585.5" y1="529.0679" y2="529.0679"/><text fill="#000000" font-family="sans-serif" font-size="14" lengthAdjust="spacing" textLength="60" x="520.5" y="548.0339">value = 7</text></g><g id="elem_n2_6"><rect fill="#F1F1F1" height="50.1358" style="stroke:#181818;stroke-width:0.5;" width="72" x="407.5" y="506"/><text fill="#000000" font-family="sans-serif" font-size="14" lengthAdjust="spacing" textLength="40" x="423.5" y="522.9659">:Node</text><line style="stroke:#181818;stroke-width:0.5;" x1="408.5" x2="478.5" y1="529.0679" y2="529.0679"/><text fill="#000000" font-family="sans-serif" font-size="14" lengthAdjust="spacing" textLength="60" x="413.5" y="548.0339">value = 1</text></g><g id="elem_n2_7"><rect fill="#F1F1F1" height="50.1358" style="stroke:#181818;stroke-width:0.5;" width="72" x="621.5" y="506"/><text fill="#000000" font-family="sans-serif" font-size="14" lengthAdjust="spacing" textLength="40" x="637.5" y="522.9659">:Node</text><line style="stroke:#181818;stroke-width:0.5;" x1="622.5" x2="692.5" y1="529.0679" y2="529.0679"/><text fill="#000000" font-family="sans-serif" font-size="14" lengthAdjust="spacing" textLength="60" x="627.5" y="548.0339">value = 9</text></g><g id="elem_n2_8"><rect fill="#F1F1F1" height="50.1358" style="stroke:#181818;stroke-width:0.5;" width="80" x="617.5" y="635"/><text fill="#000000" font-family="sans-serif" font-size="14" lengthAdjust="spacing" textLength="40" x="637.5" y="651.9659">:Node</text><line style="stroke:#181818;stroke-width:0.5;" x1="618.5" x2="696.5" y1="658.0679" y2="658.0679"/><text fill="#000000" font-family="sans-serif" font-size="14" lengthAdjust="spacing" textLength="68" x="623.5" y="677.0339">value = 10</text></g><g id="elem_n3_1"><rect fill="#F1F1F1" height="50.1358" style="stroke:#181818;stroke-width:0.5;" width="72" x="767.5" y="248"/><text fill="#000000" font-family="sans-serif" font-size="14" lengthAdjust="spacing" textLength="40" x="783.5" y="264.9659">:Node</text><line style="stroke:#181818;stroke-width:0.5;" x1="768.5" x2="838.5" y1="271.0679" y2="271.0679"/><text fill="#000000" font-family="sans-serif" font-size="14" lengthAdjust="spacing" textLength="60" x="773.5" y="290.0339">value = 2</text></g><g id="elem_n3_2"><rect fill="#F1F1F1" height="50.1358" style="stroke:#181818;stroke-width:0.5;" width="72" x="760.5" y="377"/><text fill="#000000" font-family="sans-serif" font-size="14" lengthAdjust="spacing" textLength="40" x="776.5" y="393.9659">:Node</text><line style="stroke:#181818;stroke-width:0.5;" x1="761.5" x2="831.5" y1="400.0679" y2="400.0679"/><text fill="#000000" font-family="sans-serif" font-size="14" lengthAdjust="spacing" textLength="60" x="766.5" y="419.0339">value = 6</text></g><g id="elem_n3_3"><rect fill="#F1F1F1" height="50.1358" style="stroke:#181818;stroke-width:0.5;" width="72" x="867.5" y="377"/><text fill="#000000" font-family="sans-serif" font-size="14" lengthAdjust="spacing" textLength="40" x="883.5" y="393.9659">:Node</text><line style="stroke:#181818;stroke-width:0.5;" x1="868.5" x2="938.5" y1="400.0679" y2="400.0679"/><text fill="#000000" font-family="sans-serif" font-size="14" lengthAdjust="spacing" textLength="60" x="873.5" y="419.0339">value = 1</text></g><g id="elem_n3_4"><rect fill="#F1F1F1" height="50.1358" style="stroke:#181818;stroke-width:0.5;" width="72" x="741.5" y="506"/><text fill="#000000" font-family="sans-serif" font-size="14" lengthAdjust="spacing" textLength="40" x="757.5" y="522.9659">:Node</text><line style="stroke:#181818;stroke-width:0.5;" x1="742.5" x2="812.5" y1="529.0679" y2="529.0679"/><text fill="#000000" font-family="sans-serif" font-size="14" lengthAdjust="spacing" textLength="60" x="747.5" y="548.0339">value = 7</text></g><g id="elem_n3_5"><rect fill="#F1F1F1" height="50.1358" style="stroke:#181818;stroke-width:0.5;" width="72" x="848.5" y="506"/><text fill="#000000" font-family="sans-serif" font-size="14" lengthAdjust="spacing" textLength="40" x="864.5" y="522.9659">:Node</text><line style="stroke:#181818;stroke-width:0.5;" x1="849.5" x2="919.5" y1="529.0679" y2="529.0679"/><text fill="#000000" font-family="sans-serif" font-size="14" lengthAdjust="spacing" textLength="60" x="854.5" y="548.0339">value = 5</text></g><g id="elem_n3_6"><rect fill="#F1F1F1" height="50.1358" style="stroke:#181818;stroke-width:0.5;" width="72" x="741.5" y="635"/><text fill="#000000" font-family="sans-serif" font-size="14" lengthAdjust="spacing" textLength="40" x="757.5" y="651.9659">:Node</text><line style="stroke:#181818;stroke-width:0.5;" x1="742.5" x2="812.5" y1="658.0679" y2="658.0679"/><text fill="#000000" font-family="sans-serif" font-size="14" lengthAdjust="spacing" textLength="60" x="747.5" y="677.0339">value = 9</text></g><g id="elem_n3_7"><rect fill="#F1F1F1" height="50.1358" style="stroke:#181818;stroke-width:0.5;" width="72" x="848.5" y="635"/><text fill="#000000" font-family="sans-serif" font-size="14" lengthAdjust="spacing" textLength="40" x="864.5" y="651.9659">:Node</text><line style="stroke:#181818;stroke-width:0.5;" x1="849.5" x2="919.5" y1="658.0679" y2="658.0679"/><text fill="#000000" font-family="sans-serif" font-size="14" lengthAdjust="spacing" textLength="60" x="854.5" y="677.0339">value = 3</text></g><g id="elem_n3_8"><rect fill="#F1F1F1" height="50.1358" style="stroke:#181818;stroke-width:0.5;" width="80" x="737.5" y="764"/><text fill="#000000" font-family="sans-serif" font-size="14" lengthAdjust="spacing" textLength="40" x="757.5" y="780.9659">:Node</text><line style="stroke:#181818;stroke-width:0.5;" x1="738.5" x2="816.5" y1="787.0679" y2="787.0679"/><text fill="#000000" font-family="sans-serif" font-size="14" lengthAdjust="spacing" textLength="68" x="743.5" y="806.0339">value = 10</text></g><g id="elem_GMN63"><path d="M513.5,6 L513.5,33.5 L478.6,37.5 L513.5,41.5 L513.5,69.118 A0,0 0 0 0 513.5,69.118 L717.5,69.118 A0,0 0 0 0 717.5,69.118 L717.5,16 L707.5,6 L513.5,6 A0,0 0 0 0 513.5,6 " fill="#FEFFDD" style="stroke:#181818;stroke-width:0.5;"/><path d="M707.5,6 L707.5,16 L717.5,16 L707.5,6 " fill="#FEFFDD" style="stroke:#181818;stroke-width:0.5;"/><text fill="#000000" font-family="sans-serif" font-size="13" lengthAdjust="spacing" textLength="183" x="519.5" y="24.897">Cada &#225;rbol mantiene su propia</text><text fill="#000000" font-family="sans-serif" font-size="13" lengthAdjust="spacing" textLength="182" x="519.5" y="42.603">estructura seg&#250;n su estrategia</text><text fill="#000000" font-family="sans-serif" font-size="13" lengthAdjust="spacing" textLength="72" x="519.5" y="60.309">de inserci&#243;n</text></g><!--link jardinero to tree1--><g id="link_jardinero_tree1"><path codeLine="87" d="M402.71,57.16 C363.79,77.45 307.2803,106.9061 268.4403,127.1561 " fill="none" id="jardinero-to-tree1" style="stroke:#181818;stroke-width:1.0;"/><polygon fill="#181818" points="263.12,129.93,272.9497,129.3161,267.5536,127.6185,269.2512,122.2223,263.12,129.93" style="stroke:#181818;stroke-width:1.0;"/></g><!--link jardinero to tree2--><g id="link_jardinero_tree2"><path codeLine="88" d="M438.5,57.16 C438.5,77.39 438.5,103.49 438.5,123.75 " fill="none" id="jardinero-to-tree2" style="stroke:#181818;stroke-width:1.0;"/><polygon fill="#181818" points="438.5,129.75,442.5,120.75,438.5,124.75,434.5,120.75,438.5,129.75" style="stroke:#181818;stroke-width:1.0;"/></g><!--link jardinero to tree3--><g id="link_jardinero_tree3"><path codeLine="89" d="M472.78,57.04 C480.25,61.02 488.12,65.18 495.5,69 C536.75,90.34 579.0685,111.4167 611.3785,127.3467 " fill="none" id="jardinero-to-tree3" style="stroke:#181818;stroke-width:1.0;"/><polygon fill="#181818" points="616.76,130,610.4566,122.4325,612.2754,127.789,606.919,129.6078,616.76,130" style="stroke:#181818;stroke-width:1.0;"/></g><!--link tree1 to strat1--><g id="link_tree1_strat1"><path codeLine="91" d="M204.32,169.03 C193.14,178.01 179.57,189 167.5,199 C145.48,217.24 125.1676,234.5176 107.8476,249.3476 " fill="none" id="tree1-to-strat1" style="stroke:#181818;stroke-width:1.0;"/><polygon fill="#181818" points="103.29,253.25,112.7279,250.4348,107.088,249.998,107.5248,244.3581,103.29,253.25" style="stroke:#181818;stroke-width:1.0;"/><text fill="#000000" font-family="sans-serif" font-size="13" lengthAdjust="spacing" textLength="50" x="168.5" y="213.897">strategy</text></g><!--link tree2 to strat2--><g id="link_tree2_strat2"><path codeLine="92" d="M425.67,169.16 C419.68,178.08 412.54,188.98 406.5,199 C395.54,217.2 386.7809,233.2639 378.9209,248.1539 " fill="none" id="tree2-to-strat2" style="stroke:#181818;stroke-width:1.0;"/><polygon fill="#181818" points="376.12,253.46,383.8588,247.3681,378.4541,249.0382,376.784,243.6336,376.12,253.46" style="stroke:#181818;stroke-width:1.0;"/><text fill="#000000" font-family="sans-serif" font-size="13" lengthAdjust="spacing" textLength="50" x="407.5" y="213.897">strategy</text></g><!--link tree3 to strat3--><g id="link_tree3_strat3"><path codeLine="93" d="M654.5,169.22 C654.5,192.12 654.5,224.64 654.5,247.46 " fill="none" id="tree3-to-strat3" style="stroke:#181818;stroke-width:1.0;"/><polygon fill="#181818" points="654.5,253.46,658.5,244.46,654.5,248.46,650.5,244.46,654.5,253.46" style="stroke:#181818;stroke-width:1.0;"/><text fill="#000000" font-family="sans-serif" font-size="13" lengthAdjust="spacing" textLength="50" x="655.5" y="213.897">strategy</text></g><!--link tree1 to n1_1--><g id="link_tree1_n1_1"><path codeLine="95" d="M227.5,169.22 C227.5,190.25 227.5,218.47 227.5,241.59 " fill="none" id="tree1-to-n1_1" style="stroke:#181818;stroke-width:1.0;"/><polygon fill="#181818" points="227.5,247.59,231.5,238.59,227.5,242.59,223.5,238.59,227.5,247.59" style="stroke:#181818;stroke-width:1.0;"/><text fill="#000000" font-family="sans-serif" font-size="13" lengthAdjust="spacing" textLength="26" x="228.5" y="213.897">root</text></g><!--link n1_1 to n1_2--><g id="link_n1_1_n1_2"><path codeLine="96" d="M207.31,298.19 C188.45,320.78 164.2949,349.7239 145.4549,372.2939 " fill="none" id="n1_1-to-n1_2" style="stroke:#181818;stroke-width:1.0;"/><polygon fill="#181818" points="141.61,376.9,150.4481,372.5541,144.8141,373.0615,144.3066,367.4275,141.61,376.9" style="stroke:#181818;stroke-width:1.0;"/><text fill="#000000" font-family="sans-serif" font-size="13" lengthAdjust="spacing" textLength="19" x="182.5" y="342.897">left</text></g><!--link n1_1 to n1_3--><g id="link_n1_1_n1_3"><path codeLine="97" d="M227.69,298.19 C227.87,320.78 228.0822,348.3302 228.2622,370.9002 " fill="none" id="n1_1-to-n1_3" style="stroke:#181818;stroke-width:1.0;"/><polygon fill="#181818" points="228.31,376.9,232.2381,367.8684,228.2701,371.9002,224.2384,367.9322,228.31,376.9" style="stroke:#181818;stroke-width:1.0;"/><text fill="#000000" font-family="sans-serif" font-size="13" lengthAdjust="spacing" textLength="29" x="229.5" y="342.897">right</text></g><!--link n1_3 to n1_4--><g id="link_n1_3_n1_4"><path codeLine="98" d="M208.31,427.19 C189.45,449.78 165.2949,478.7239 146.4549,501.2939 " fill="none" id="n1_3-to-n1_4" style="stroke:#181818;stroke-width:1.0;"/><polygon fill="#181818" points="142.61,505.9,151.4481,501.5541,145.8141,502.0615,145.3066,496.4275,142.61,505.9" style="stroke:#181818;stroke-width:1.0;"/><text fill="#000000" font-family="sans-serif" font-size="13" lengthAdjust="spacing" textLength="19" x="183.5" y="471.897">left</text></g><!--link n1_4 to n1_6--><g id="link_n1_4_n1_6"><path codeLine="99" d="M122.5,556.19 C122.5,578.78 122.5,606.33 122.5,628.9 " fill="none" id="n1_4-to-n1_6" style="stroke:#181818;stroke-width:1.0;"/><polygon fill="#181818" points="122.5,634.9,126.5,625.9,122.5,629.9,118.5,625.9,122.5,634.9" style="stroke:#181818;stroke-width:1.0;"/><text fill="#000000" font-family="sans-serif" font-size="13" lengthAdjust="spacing" textLength="19" x="123.5" y="600.897">left</text></g><!--link n1_3 to n1_5--><g id="link_n1_3_n1_5"><path codeLine="100" d="M228.69,427.19 C228.87,449.78 229.0822,477.3302 229.2622,499.9002 " fill="none" id="n1_3-to-n1_5" style="stroke:#181818;stroke-width:1.0;"/><polygon fill="#181818" points="229.31,505.9,233.2381,496.8684,229.2701,500.9002,225.2384,496.9322,229.31,505.9" style="stroke:#181818;stroke-width:1.0;"/><text fill="#000000" font-family="sans-serif" font-size="13" lengthAdjust="spacing" textLength="29" x="230.5" y="471.897">right</text></g><!--link n1_5 to n1_7--><g id="link_n1_5_n1_7"><path codeLine="101" d="M229.5,556.19 C229.5,578.78 229.5,606.33 229.5,628.9 " fill="none" id="n1_5-to-n1_7" style="stroke:#181818;stroke-width:1.0;"/><polygon fill="#181818" points="229.5,634.9,233.5,625.9,229.5,629.9,225.5,625.9,229.5,634.9" style="stroke:#181818;stroke-width:1.0;"/><text fill="#000000" font-family="sans-serif" font-size="13" lengthAdjust="spacing" textLength="29" x="230.5" y="600.897">right</text></g><!--link n1_7 to n1_8--><g id="link_n1_7_n1_8"><path codeLine="102" d="M229.5,685.19 C229.5,707.78 229.5,735.33 229.5,757.9 " fill="none" id="n1_7-to-n1_8" style="stroke:#181818;stroke-width:1.0;"/><polygon fill="#181818" points="229.5,763.9,233.5,754.9,229.5,758.9,225.5,754.9,229.5,763.9" style="stroke:#181818;stroke-width:1.0;"/><text fill="#000000" font-family="sans-serif" font-size="13" lengthAdjust="spacing" textLength="29" x="230.5" y="729.897">right</text></g><!--link tree2 to n2_1--><g id="link_tree2_n2_1"><path codeLine="104" d="M448.82,169.22 C460.42,190.25 476.3926,219.216 489.1426,242.336 " fill="none" id="tree2-to-n2_1" style="stroke:#181818;stroke-width:1.0;"/><polygon fill="#181818" points="492.04,247.59,491.1965,237.7773,489.6255,243.2116,484.1911,241.6406,492.04,247.59" style="stroke:#181818;stroke-width:1.0;"/><text fill="#000000" font-family="sans-serif" font-size="13" lengthAdjust="spacing" textLength="26" x="475.5" y="213.897">root</text></g><!--link n2_1 to n2_2--><g id="link_n2_1_n2_2"><path codeLine="105" d="M493.69,298.19 C482.66,320.78 468.9125,348.9384 457.8925,371.5084 " fill="none" id="n2_1-to-n2_2" style="stroke:#181818;stroke-width:1.0;"/><polygon fill="#181818" points="455.26,376.9,462.8032,370.5675,457.4538,372.407,455.6143,367.0575,455.26,376.9" style="stroke:#181818;stroke-width:1.0;"/><text fill="#000000" font-family="sans-serif" font-size="13" lengthAdjust="spacing" textLength="19" x="479.5" y="342.897">left</text></g><!--link n2_2 to n2_4--><g id="link_n2_2_n2_4"><path codeLine="106" d="M423.12,427.19 C404.08,449.78 379.6864,478.7419 360.6664,501.3119 " fill="none" id="n2_2-to-n2_4" style="stroke:#181818;stroke-width:1.0;"/><polygon fill="#181818" points="356.8,505.9,365.6584,501.5955,360.022,502.0766,359.5409,496.4402,356.8,505.9" style="stroke:#181818;stroke-width:1.0;"/><text fill="#000000" font-family="sans-serif" font-size="13" lengthAdjust="spacing" textLength="19" x="397.5" y="471.897">left</text></g><!--link n2_2 to n2_6--><g id="link_n2_2_n2_6"><path codeLine="107" d="M443.5,427.19 C443.5,449.78 443.5,477.33 443.5,499.9 " fill="none" id="n2_2-to-n2_6" style="stroke:#181818;stroke-width:1.0;"/><polygon fill="#181818" points="443.5,505.9,447.5,496.9,443.5,500.9,439.5,496.9,443.5,505.9" style="stroke:#181818;stroke-width:1.0;"/><text fill="#000000" font-family="sans-serif" font-size="13" lengthAdjust="spacing" textLength="29" x="444.5" y="471.897">right</text></g><!--link n2_1 to n2_3--><g id="link_n2_1_n2_3"><path codeLine="108" d="M514.07,298.19 C522.08,320.78 531.9555,348.6747 539.9555,371.2447 " fill="none" id="n2_1-to-n2_3" style="stroke:#181818;stroke-width:1.0;"/><polygon fill="#181818" points="541.96,376.9,542.7234,367.0808,540.2896,372.1873,535.183,369.7535,541.96,376.9" style="stroke:#181818;stroke-width:1.0;"/><text fill="#000000" font-family="sans-serif" font-size="13" lengthAdjust="spacing" textLength="29" x="532.5" y="342.897">right</text></g><!--link n2_3 to n2_5--><g id="link_n2_3_n2_5"><path codeLine="109" d="M550.5,427.19 C550.5,449.78 550.5,477.33 550.5,499.9 " fill="none" id="n2_3-to-n2_5" style="stroke:#181818;stroke-width:1.0;"/><polygon fill="#181818" points="550.5,505.9,554.5,496.9,550.5,500.9,546.5,496.9,550.5,505.9" style="stroke:#181818;stroke-width:1.0;"/><text fill="#000000" font-family="sans-serif" font-size="13" lengthAdjust="spacing" textLength="19" x="551.5" y="471.897">left</text></g><!--link n2_3 to n2_7--><g id="link_n2_3_n2_7"><path codeLine="110" d="M570.88,427.19 C589.92,449.78 614.3136,478.7419 633.3336,501.3119 " fill="none" id="n2_3-to-n2_7" style="stroke:#181818;stroke-width:1.0;"/><polygon fill="#181818" points="637.2,505.9,634.4591,496.4402,633.978,502.0766,628.3416,501.5955,637.2,505.9" style="stroke:#181818;stroke-width:1.0;"/><text fill="#000000" font-family="sans-serif" font-size="13" lengthAdjust="spacing" textLength="29" x="611.5" y="471.897">right</text></g><!--link n2_7 to n2_8--><g id="link_n2_7_n2_8"><path codeLine="111" d="M657.5,556.19 C657.5,578.78 657.5,606.33 657.5,628.9 " fill="none" id="n2_7-to-n2_8" style="stroke:#181818;stroke-width:1.0;"/><polygon fill="#181818" points="657.5,634.9,661.5,625.9,657.5,629.9,653.5,625.9,657.5,634.9" style="stroke:#181818;stroke-width:1.0;"/><text fill="#000000" font-family="sans-serif" font-size="13" lengthAdjust="spacing" textLength="29" x="658.5" y="600.897">right</text></g><!--link tree3 to n3_1--><g id="link_tree3_n3_1"><path codeLine="113" d="M677.61,169.12 C688.77,178.12 702.35,189.1 714.5,199 C734.49,215.28 752.2947,229.8803 769.6447,244.1403 " fill="none" id="tree3-to-n3_1" style="stroke:#181818;stroke-width:1.0;"/><polygon fill="#181818" points="774.28,247.95,769.8669,239.1452,770.4173,244.7752,764.7872,245.3256,774.28,247.95" style="stroke:#181818;stroke-width:1.0;"/><text fill="#000000" font-family="sans-serif" font-size="13" lengthAdjust="spacing" textLength="26" x="738.5" y="213.897">root</text></g><!--link n3_1 to n3_2--><g id="link_n3_1_n3_2"><path codeLine="114" d="M802.17,298.19 C800.92,320.78 799.3991,348.339 798.1591,370.909 " fill="none" id="n3_1-to-n3_2" style="stroke:#181818;stroke-width:1.0;"/><polygon fill="#181818" points="797.83,376.9,802.3177,368.133,798.1043,371.9075,794.3297,367.6941,797.83,376.9" style="stroke:#181818;stroke-width:1.0;"/><text fill="#000000" font-family="sans-serif" font-size="13" lengthAdjust="spacing" textLength="19" x="801.5" y="342.897">left</text></g><!--link n3_2 to n3_4--><g id="link_n3_2_n3_4"><path codeLine="115" d="M792.88,427.19 C789.5,449.78 785.3661,477.3958 781.9961,499.9658 " fill="none" id="n3_2-to-n3_4" style="stroke:#181818;stroke-width:1.0;"/><polygon fill="#181818" points="781.11,505.9,786.3952,497.5894,781.8484,500.9548,778.4829,496.408,781.11,505.9" style="stroke:#181818;stroke-width:1.0;"/><text fill="#000000" font-family="sans-serif" font-size="13" lengthAdjust="spacing" textLength="19" x="789.5" y="471.897">left</text></g><!--link n3_4 to n3_6--><g id="link_n3_4_n3_6"><path codeLine="116" d="M777.5,556.19 C777.5,578.78 777.5,606.33 777.5,628.9 " fill="none" id="n3_4-to-n3_6" style="stroke:#181818;stroke-width:1.0;"/><polygon fill="#181818" points="777.5,634.9,781.5,625.9,777.5,629.9,773.5,625.9,777.5,634.9" style="stroke:#181818;stroke-width:1.0;"/><text fill="#000000" font-family="sans-serif" font-size="13" lengthAdjust="spacing" textLength="19" x="778.5" y="600.897">left</text></g><!--link n3_6 to n3_8--><g id="link_n3_6_n3_8"><path codeLine="117" d="M777.5,685.19 C777.5,707.78 777.5,735.33 777.5,757.9 " fill="none" id="n3_6-to-n3_8" style="stroke:#181818;stroke-width:1.0;"/><polygon fill="#181818" points="777.5,763.9,781.5,754.9,777.5,758.9,773.5,754.9,777.5,763.9" style="stroke:#181818;stroke-width:1.0;"/><text fill="#000000" font-family="sans-serif" font-size="13" lengthAdjust="spacing" textLength="19" x="778.5" y="729.897">left</text></g><!--link n3_2 to n3_5--><g id="link_n3_2_n3_5"><path codeLine="118" d="M813.26,427.19 C828.92,449.78 848.7426,478.3983 864.3826,500.9683 " fill="none" id="n3_2-to-n3_5" style="stroke:#181818;stroke-width:1.0;"/><polygon fill="#181818" points="867.8,505.9,865.9616,496.2242,864.9522,501.7903,859.3861,500.7808,867.8,505.9" style="stroke:#181818;stroke-width:1.0;"/><text fill="#000000" font-family="sans-serif" font-size="13" lengthAdjust="spacing" textLength="29" x="846.5" y="471.897">right</text></g><!--link n3_5 to n3_7--><g id="link_n3_5_n3_7"><path codeLine="119" d="M884.5,556.19 C884.5,578.78 884.5,606.33 884.5,628.9 " fill="none" id="n3_5-to-n3_7" style="stroke:#181818;stroke-width:1.0;"/><polygon fill="#181818" points="884.5,634.9,888.5,625.9,884.5,629.9,880.5,625.9,884.5,634.9" style="stroke:#181818;stroke-width:1.0;"/><text fill="#000000" font-family="sans-serif" font-size="13" lengthAdjust="spacing" textLength="29" x="885.5" y="600.897">right</text></g><!--link n3_1 to n3_3--><g id="link_n3_1_n3_3"><path codeLine="120" d="M822.54,298.19 C840.34,320.78 863.0484,349.6158 880.8184,372.1858 " fill="none" id="n3_1-to-n3_3" style="stroke:#181818;stroke-width:1.0;"/><polygon fill="#181818" points="884.53,376.9,882.1054,367.3543,881.437,372.9715,875.8197,372.3031,884.53,376.9" style="stroke:#181818;stroke-width:1.0;"/><text fill="#000000" font-family="sans-serif" font-size="13" lengthAdjust="spacing" textLength="29" x="859.5" y="342.897">right</text></g><!--SRC=[ZPMzRjim4CTtFiKXUu2AfmzNG3kaKpjqIVQ2jXX7WK8651sWAFemVOPkNVrYrHUb2qK2z62S_lVZtV4F-QoFp_9auQR-9apJAcdq3OWUdjqJOteXb3OledimKjRZruJP8SXWHOwY4-eacpt4DwXLRzBO48ImTQk_J-tkxX_khH5MddzEM3y-P1jrjtJSGto3lYuTWyNmNSzcdaPbFpBunM3ul8dk8k4JSFOx378Fp68WUc0P0tCFB69WuO5L32mz46DWvO4VO-31l_M7WGoXFDL9ldEoZ86OPX3VEOanCD59ldCoYu69Jl9q9p7LIKnr4dTEPZ4mJpC8TquMCR1CCmXtJc8C33kvhZAulVqyRwo0nWFQi1hc1JSAy-Q1UWw65SBclRRck9_3BOSqHufEUwO6exLbKxo8OwrEFhuNnoAcFJzDAZer9sZkn9A8ArdGyuLJAwfMJZsiAhdcz5jsqt8t62VJZl4YvY6nt9gHyqXLT6f12gnYHT7AgTwq2uraMdJTa4oBRZ0aqw9p4OcBOxo8Xz1nOYqwQv4EI_fljsLAMpd7e1_9Vox05z48kFunHzt1Yr2sbKf2Vu5NerzRCG1oU9qk9tin0dfvllvJOrOkxzX4D19QrKjpQgz_5PEgWR4T-my0]--></g></svg>