<?xml version="1.0" encoding="us-ascii" standalone="no"?><svg xmlns="http://www.w3.org/2000/svg" xmlns:xlink="http://www.w3.org/1999/xlink" contentStyleType="text/css" height="273px" preserveAspectRatio="none" style="width:525px;height:273px;background:#FFFFFF;" version="1.1" viewBox="0 0 525 273" width="525px" zoomAndPan="magnify"><defs/><g><g id="elem_jardinero"><rect fill="#F1F1F1" height="39.0679" style="stroke:#181818;stroke-width:0.5;" width="80" x="219.5" y="18"/><text fill="#000000" font-family="sans-serif" font-size="14" lengthAdjust="spacing" textLength="66" x="226.5" y="34.9659">:Jardinero</text><line style="stroke:#181818;stroke-width:0.5;" x1="220.5" x2="298.5" y1="41.0679" y2="41.0679"/></g><g id="elem_tree1"><rect fill="#F1F1F1" height="39.0679" style="stroke:#181818;stroke-width:0.5;" width="126" x="23.5" y="129"/><text fill="#000000" font-family="sans-serif" font-size="14" lengthAdjust="spacing" textLength="112" x="30.5" y="145.9659">normalTree:Tree</text><line style="stroke:#181818;stroke-width:0.5;" x1="24.5" x2="148.5" y1="152.0679" y2="152.0679"/></g><g id="elem_tree2"><rect fill="#F1F1F1" height="39.0679" style="stroke:#181818;stroke-width:0.5;" width="140" x="189.5" y="129"/><text fill="#000000" font-family="sans-serif" font-size="14" lengthAdjust="spacing" textLength="126" x="196.5" y="145.9659">balancedTree:Tree</text><line style="stroke:#181818;stroke-width:0.5;" x1="190.5" x2="328.5" y1="152.0679" y2="152.0679"/></g><g id="elem_tree3"><rect fill="#F1F1F1" height="39.0679" style="stroke:#181818;stroke-width:0.5;" width="134" x="368.5" y="129"/><text fill="#000000" font-family="sans-serif" font-size="14" lengthAdjust="spacing" textLength="120" x="375.5" y="145.9659">invertedTree:Tree</text><line style="stroke:#181818;stroke-width:0.5;" x1="369.5" x2="501.5" y1="152.0679" y2="152.0679"/></g><g id="elem_strat1"><rect fill="#F1F1F1" height="39.0679" style="stroke:#181818;stroke-width:0.5;" width="149" x="7" y="228"/><text fill="#000000" font-family="sans-serif" font-size="14" lengthAdjust="spacing" textLength="135" x="14" y="244.9659">:NormalBSTStrategy</text><line style="stroke:#181818;stroke-width:0.5;" x1="8" x2="155" y1="251.0679" y2="251.0679"/></g><g id="elem_strat2"><rect fill="#F1F1F1" height="39.0679" style="stroke:#181818;stroke-width:0.5;" width="136" x="191.5" y="228"/><text fill="#000000" font-family="sans-serif" font-size="14" lengthAdjust="spacing" textLength="122" x="198.5" y="244.9659">:BalancedStrategy</text><line style="stroke:#181818;stroke-width:0.5;" x1="192.5" x2="326.5" y1="251.0679" y2="251.0679"/></g><g id="elem_strat3"><rect fill="#F1F1F1" height="39.0679" style="stroke:#181818;stroke-width:0.5;" width="156" x="362.5" y="228"/><text fill="#000000" font-family="sans-serif" font-size="14" lengthAdjust="spacing" textLength="142" x="369.5" y="244.9659">:InvertedBSTStrategy</text><line style="stroke:#181818;stroke-width:0.5;" x1="363.5" x2="517.5" y1="251.0679" y2="251.0679"/></g><g id="elem_GMN15"><path d="M334.5,6 L334.5,33.5 L299.62,37.5 L334.5,41.5 L334.5,69.118 A0,0 0 0 0 334.5,69.118 L518.5,69.118 A0,0 0 0 0 518.5,69.118 L518.5,16 L508.5,6 L334.5,6 A0,0 0 0 0 334.5,6 " fill="#FEFFDD" style="stroke:#181818;stroke-width:0.5;"/><path d="M508.5,6 L508.5,16 L518.5,16 L508.5,6 " fill="#FEFFDD" style="stroke:#181818;stroke-width:0.5;"/><text fill="#000000" font-family="sans-serif" font-size="13" lengthAdjust="spacing" textLength="163" x="340.5" y="24.897">Aqu&#237; s&#237; vemos las instancias</text><text fill="#000000" font-family="sans-serif" font-size="13" lengthAdjust="spacing" textLength="155" x="340.5" y="42.603">concretas que el Jardinero</text><text fill="#000000" font-family="sans-serif" font-size="13" lengthAdjust="spacing" textLength="73" x="340.5" y="60.309">crea y utiliza</text></g><!--link jardinero to tree1--><g id="link_jardinero_tree1"><path codeLine="11" d="M229.76,57.24 C197.98,77.26 152.9667,105.6221 121.2167,125.6221 " fill="none" id="jardinero-to-tree1" style="stroke:#181818;stroke-width:1.0;"/><polygon fill="#181818" points="116.14,128.82,125.8871,127.4076,120.3706,126.1551,121.6231,120.6386,116.14,128.82" style="stroke:#181818;stroke-width:1.0;"/></g><!--link jardinero to tree2--><g id="link_jardinero_tree2"><path codeLine="12" d="M259.5,57.49 C259.5,77.49 259.5,102.81 259.5,122.73 " fill="none" id="jardinero-to-tree2" style="stroke:#181818;stroke-width:1.0;"/><polygon fill="#181818" points="259.5,128.73,263.5,119.73,259.5,123.73,255.5,119.73,259.5,128.73" style="stroke:#181818;stroke-width:1.0;"/></g><!--link jardinero to tree3--><g id="link_jardinero_tree3"><path codeLine="13" d="M289.76,57.24 C322.09,77.26 367.9487,105.6613 400.2487,125.6613 " fill="none" id="jardinero-to-tree3" style="stroke:#181818;stroke-width:1.0;"/><polygon fill="#181818" points="405.35,128.82,399.8039,120.6812,401.099,126.1878,395.5923,127.4828,405.35,128.82" style="stroke:#181818;stroke-width:1.0;"/></g><!--link tree1 to strat1--><g id="link_tree1_strat1"><path codeLine="15" d="M85.54,168.2 C84.65,185.38 83.661,204.7081 82.771,221.8581 " fill="none" id="tree1-to-strat1" style="stroke:#181818;stroke-width:1.0;"/><polygon fill="#181818" points="82.46,227.85,86.9211,219.0694,82.7191,222.8567,78.9318,218.6548,82.46,227.85" style="stroke:#181818;stroke-width:1.0;"/></g><!--link tree2 to strat2--><g id="link_tree2_strat2"><path codeLine="16" d="M259.5,168.2 C259.5,185.38 259.5,204.7 259.5,221.85 " fill="none" id="tree2-to-strat2" style="stroke:#181818;stroke-width:1.0;"/><polygon fill="#181818" points="259.5,227.85,263.5,218.85,259.5,222.85,255.5,218.85,259.5,227.85" style="stroke:#181818;stroke-width:1.0;"/></g><!--link tree3 to strat3--><g id="link_tree3_strat3"><path codeLine="17" d="M436.46,168.2 C437.35,185.38 438.339,204.7081 439.229,221.8581 " fill="none" id="tree3-to-strat3" style="stroke:#181818;stroke-width:1.0;"/><polygon fill="#181818" points="439.54,227.85,443.0682,218.6548,439.2809,222.8567,435.0789,219.0694,439.54,227.85" style="stroke:#181818;stroke-width:1.0;"/></g><!--SRC=[RP2n3i8W48RtFiN5lODrOp3HJGSN-mBNzbGCGeIhYRwJJ-6BUILOJDe10Z_VyN6uvaejmqBjqNVQadSBm03NtwueN2AiypSqjITImnGnbiLo91eqQ5lgfamrCje-oFCSiyegTOYkxR4-iaUcypDIOTXadTectnJAFhLBmjdBn3bs2cMvJWrDiseca-A8no2zBR8vg6Amoe7KMCS4Nfyl3Exqzz40ctl_UKEGyQ2R2s3acTe6bYOr1W5QPrjFBF6z9o03-xzgEK5uGi_Qw1SMP3iOL5y0]--></g></svg>