<?xml version="1.0" encoding="us-ascii" standalone="no"?><svg xmlns="http://www.w3.org/2000/svg" xmlns:xlink="http://www.w3.org/1999/xlink" contentStyleType="text/css" height="333px" preserveAspectRatio="none" style="width:686px;height:333px;background:#FFFFFF;" version="1.1" viewBox="0 0 686 333" width="686px" zoomAndPan="magnify"><defs/><g><g id="elem_jardinero"><rect fill="#F1F1F1" height="39.0679" style="stroke:#181818;stroke-width:0.5;" width="142" x="253.5" y="18"/><text fill="#000000" font-family="sans-serif" font-size="14" lengthAdjust="spacing" textLength="128" x="260.5" y="34.9659">jardinero:Jardinero</text><line style="stroke:#181818;stroke-width:0.5;" x1="254.5" x2="394.5" y1="41.0679" y2="41.0679"/></g><g id="elem_tree1"><rect fill="#F1F1F1" height="39.0679" style="stroke:#181818;stroke-width:0.5;" width="126" x="23.5" y="150"/><text fill="#000000" font-family="sans-serif" font-size="14" lengthAdjust="spacing" textLength="112" x="30.5" y="166.9659">normalTree:Tree</text><line style="stroke:#181818;stroke-width:0.5;" x1="24.5" x2="148.5" y1="173.0679" y2="173.0679"/></g><g id="elem_tree2"><rect fill="#F1F1F1" height="39.0679" style="stroke:#181818;stroke-width:0.5;" width="140" x="254.5" y="150"/><text fill="#000000" font-family="sans-serif" font-size="14" lengthAdjust="spacing" textLength="126" x="261.5" y="166.9659">balancedTree:Tree</text><line style="stroke:#181818;stroke-width:0.5;" x1="255.5" x2="393.5" y1="173.0679" y2="173.0679"/></g><g id="elem_tree3"><rect fill="#F1F1F1" height="39.0679" style="stroke:#181818;stroke-width:0.5;" width="134" x="499.5" y="150"/><text fill="#000000" font-family="sans-serif" font-size="14" lengthAdjust="spacing" textLength="120" x="506.5" y="166.9659">invertedTree:Tree</text><line style="stroke:#181818;stroke-width:0.5;" x1="500.5" x2="632.5" y1="173.0679" y2="173.0679"/></g><g id="elem_strat1"><rect fill="#F1F1F1" height="39.0679" style="stroke:#181818;stroke-width:0.5;" width="149" x="7" y="288"/><text fill="#000000" font-family="sans-serif" font-size="14" lengthAdjust="spacing" textLength="135" x="14" y="304.9659">:NormalBSTStrategy</text><line style="stroke:#181818;stroke-width:0.5;" x1="8" x2="155" y1="311.0679" y2="311.0679"/></g><g id="elem_strat2"><rect fill="#F1F1F1" height="39.0679" style="stroke:#181818;stroke-width:0.5;" width="136" x="256.5" y="288"/><text fill="#000000" font-family="sans-serif" font-size="14" lengthAdjust="spacing" textLength="122" x="263.5" y="304.9659">:BalancedStrategy</text><line style="stroke:#181818;stroke-width:0.5;" x1="257.5" x2="391.5" y1="311.0679" y2="311.0679"/></g><g id="elem_strat3"><rect fill="#F1F1F1" height="39.0679" style="stroke:#181818;stroke-width:0.5;" width="156" x="492.5" y="288"/><text fill="#000000" font-family="sans-serif" font-size="14" lengthAdjust="spacing" textLength="142" x="499.5" y="304.9659">:InvertedBSTStrategy</text><line style="stroke:#181818;stroke-width:0.5;" x1="493.5" x2="647.5" y1="311.0679" y2="311.0679"/></g><g id="elem_GMN15"><path d="M495.5,6 L495.5,33.5 L395.64,37.5 L495.5,41.5 L495.5,69.118 A0,0 0 0 0 495.5,69.118 L679.5,69.118 A0,0 0 0 0 679.5,69.118 L679.5,16 L669.5,6 L495.5,6 A0,0 0 0 0 495.5,6 " fill="#FEFFDD" style="stroke:#181818;stroke-width:0.5;"/><path d="M669.5,6 L669.5,16 L679.5,16 L669.5,6 " fill="#FEFFDD" style="stroke:#181818;stroke-width:0.5;"/><text fill="#000000" font-family="sans-serif" font-size="13" lengthAdjust="spacing" textLength="163" x="501.5" y="24.897">Aqu&#237; s&#237; vemos las instancias</text><text fill="#000000" font-family="sans-serif" font-size="13" lengthAdjust="spacing" textLength="155" x="501.5" y="42.603">concretas que el Jardinero</text><text fill="#000000" font-family="sans-serif" font-size="13" lengthAdjust="spacing" textLength="73" x="501.5" y="60.309">crea y utiliza</text></g><!--link jardinero to tree1--><g id="link_jardinero_tree1"><path codeLine="15" d="M290.4,57.13 C245.16,81.84 171.0154,122.3333 125.8054,147.0333 " fill="none" id="jardinero-to-tree1" style="stroke:#181818;stroke-width:1.0;stroke-dasharray:7.0,7.0;"/><polygon fill="#181818" points="120.54,149.91,130.3559,149.1052,124.9278,147.5127,126.5203,142.0847,120.54,149.91" style="stroke:#181818;stroke-width:1.0;"/></g><!--link jardinero to tree2--><g id="link_jardinero_tree2"><path codeLine="16" d="M324.5,57.13 C324.5,81.84 324.5,119.21 324.5,143.91 " fill="none" id="jardinero-to-tree2" style="stroke:#181818;stroke-width:1.0;stroke-dasharray:7.0,7.0;"/><polygon fill="#181818" points="324.5,149.91,328.5,140.91,324.5,144.91,320.5,140.91,324.5,149.91" style="stroke:#181818;stroke-width:1.0;"/></g><!--link jardinero to tree3--><g id="link_jardinero_tree3"><path codeLine="17" d="M359.17,57.13 C405.18,81.84 480.6346,122.3701 526.6046,147.0701 " fill="none" id="jardinero-to-tree3" style="stroke:#181818;stroke-width:1.0;stroke-dasharray:7.0,7.0;"/><polygon fill="#181818" points="531.89,149.91,525.8552,142.1266,527.4855,147.5434,522.0687,149.1738,531.89,149.91" style="stroke:#181818;stroke-width:1.0;"/></g><!--link tree1 to strat1--><g id="link_tree1_strat1"><path codeLine="19" d="M85.82,189.13 C84.86,215.02 83.3713,255.6541 82.4113,281.6641 " fill="none" id="tree1-to-strat1" style="stroke:#181818;stroke-width:1.0;"/><polygon fill="#181818" points="82.19,287.66,86.5192,278.8137,82.3744,282.6634,78.5247,278.5186,82.19,287.66" style="stroke:#181818;stroke-width:1.0;"/><text fill="#000000" font-family="sans-serif" font-size="13" lengthAdjust="spacing" textLength="50" x="85.5" y="243.897">strategy</text></g><!--link tree2 to strat2--><g id="link_tree2_strat2"><path codeLine="20" d="M324.5,189.13 C324.5,215.02 324.5,255.65 324.5,281.66 " fill="none" id="tree2-to-strat2" style="stroke:#181818;stroke-width:1.0;"/><polygon fill="#181818" points="324.5,287.66,328.5,278.66,324.5,282.66,320.5,278.66,324.5,287.66" style="stroke:#181818;stroke-width:1.0;"/><text fill="#000000" font-family="sans-serif" font-size="13" lengthAdjust="spacing" textLength="50" x="325.5" y="243.897">strategy</text></g><!--link tree3 to strat3--><g id="link_tree3_strat3"><path codeLine="21" d="M567.05,189.13 C567.81,215.02 569.0025,255.6526 569.7725,281.6626 " fill="none" id="tree3-to-strat3" style="stroke:#181818;stroke-width:1.0;"/><polygon fill="#181818" points="569.95,287.66,573.6819,278.5456,569.802,282.6622,565.6854,278.7823,569.95,287.66" style="stroke:#181818;stroke-width:1.0;"/><text fill="#000000" font-family="sans-serif" font-size="13" lengthAdjust="spacing" textLength="50" x="570.5" y="243.897">strategy</text></g><!--SRC=[RP9Dae8m48NtdABBlHO_6uk5LRhJXHkyG0CzJXGwcZHMwPqynLnimiyGQcG1rNdlwxnqm5uLtz1W3Jg_K25R4QFoHcXVQCxKYo0CxCYmBidI3Q9mgXhaQwkkmo3eTu751Ksfc8nE3t_L0j32g7kKjQcnEXcYj7rrcBWYWX79iK8kgFo4uf5H_20ZSqpYiz9Z5xRBJfaO53e_EygsYyXJko7l4_9vwNu8dDtCPOwZmcgrwIUQqU8PpJNt5x1SReQpGTeNBgJpOk_5_xt4UydK2rWBWL7dRm7zDVaK0Djxy_C6wvu7rTf2vUPGRCNTWaBh0FSt58R4oVU6W2euJBgTW_24HbIbNXWGbz16_G80]--></g></svg>