<?xml version="1.0" encoding="us-ascii" standalone="no"?><svg xmlns="http://www.w3.org/2000/svg" xmlns:xlink="http://www.w3.org/1999/xlink" contentStyleType="text/css" height="821px" preserveAspectRatio="none" style="width:1294px;height:821px;background:#FFFFFF;" version="1.1" viewBox="0 0 1294 821" width="1294px" zoomAndPan="magnify"><defs/><g><g id="elem_jardinero"><rect fill="#F1F1F1" height="39.0679" style="stroke:#181818;stroke-width:0.5;" width="142" x="498" y="18"/><text fill="#000000" font-family="sans-serif" font-size="14" lengthAdjust="spacing" textLength="128" x="505" y="34.9659">jardinero:Jardinero</text><line style="stroke:#181818;stroke-width:0.5;" x1="499" x2="639" y1="41.0679" y2="41.0679"/></g><g id="elem_tree1"><rect fill="#F1F1F1" height="39.0679" style="stroke:#181818;stroke-width:0.5;" width="126" x="246" y="130"/><text fill="#000000" font-family="sans-serif" font-size="14" lengthAdjust="spacing" textLength="112" x="253" y="146.9659">normalTree:Tree</text><line style="stroke:#181818;stroke-width:0.5;" x1="247" x2="371" y1="153.0679" y2="153.0679"/></g><g id="elem_tree2"><rect fill="#F1F1F1" height="39.0679" style="stroke:#181818;stroke-width:0.5;" width="140" x="499" y="130"/><text fill="#000000" font-family="sans-serif" font-size="14" lengthAdjust="spacing" textLength="126" x="506" y="146.9659">balancedTree:Tree</text><line style="stroke:#181818;stroke-width:0.5;" x1="500" x2="638" y1="153.0679" y2="153.0679"/></g><g id="elem_tree3"><rect fill="#F1F1F1" height="39.0679" style="stroke:#181818;stroke-width:0.5;" width="134" x="822" y="130"/><text fill="#000000" font-family="sans-serif" font-size="14" lengthAdjust="spacing" textLength="120" x="829" y="146.9659">invertedTree:Tree</text><line style="stroke:#181818;stroke-width:0.5;" x1="823" x2="955" y1="153.0679" y2="153.0679"/></g><g id="elem_strat1"><rect fill="#F1F1F1" height="39.0679" style="stroke:#181818;stroke-width:0.5;" width="212" x="7" y="253.5"/><text fill="#000000" font-family="sans-serif" font-size="14" lengthAdjust="spacing" textLength="198" x="14" y="270.4659">strategy1:NormalBSTStrategy</text><line style="stroke:#181818;stroke-width:0.5;" x1="8" x2="218" y1="276.5679" y2="276.5679"/></g><g id="elem_strat2"><rect fill="#F1F1F1" height="39.0679" style="stroke:#181818;stroke-width:0.5;" width="199" x="399.5" y="253.5"/><text fill="#000000" font-family="sans-serif" font-size="14" lengthAdjust="spacing" textLength="185" x="406.5" y="270.4659">strategy2:BalancedStrategy</text><line style="stroke:#181818;stroke-width:0.5;" x1="400.5" x2="597.5" y1="276.5679" y2="276.5679"/></g><g id="elem_strat3"><rect fill="#F1F1F1" height="39.0679" style="stroke:#181818;stroke-width:0.5;" width="219" x="779.5" y="253.5"/><text fill="#000000" font-family="sans-serif" font-size="14" lengthAdjust="spacing" textLength="205" x="786.5" y="270.4659">strategy3:InvertedBSTStrategy</text><line style="stroke:#181818;stroke-width:0.5;" x1="780.5" x2="997.5" y1="276.5679" y2="276.5679"/></g><g id="elem_n1_1"><rect fill="#F1F1F1" height="50.1358" style="stroke:#181818;stroke-width:0.5;" width="110" x="254" y="248"/><text fill="#000000" font-family="sans-serif" font-size="14" lengthAdjust="spacing" textLength="96" x="261" y="264.9659">node1_1:Node</text><line style="stroke:#181818;stroke-width:0.5;" x1="255" x2="363" y1="271.0679" y2="271.0679"/><text fill="#000000" font-family="sans-serif" font-size="14" lengthAdjust="spacing" textLength="60" x="260" y="290.0339">value = 2</text></g><g id="elem_n1_2"><rect fill="#F1F1F1" height="50.1358" style="stroke:#181818;stroke-width:0.5;" width="110" x="125" y="377"/><text fill="#000000" font-family="sans-serif" font-size="14" lengthAdjust="spacing" textLength="96" x="132" y="393.9659">node1_2:Node</text><line style="stroke:#181818;stroke-width:0.5;" x1="126" x2="234" y1="400.0679" y2="400.0679"/><text fill="#000000" font-family="sans-serif" font-size="14" lengthAdjust="spacing" textLength="60" x="131" y="419.0339">value = 1</text></g><g id="elem_n1_3"><rect fill="#F1F1F1" height="50.1358" style="stroke:#181818;stroke-width:0.5;" width="110" x="270" y="377"/><text fill="#000000" font-family="sans-serif" font-size="14" lengthAdjust="spacing" textLength="96" x="277" y="393.9659">node1_3:Node</text><line style="stroke:#181818;stroke-width:0.5;" x1="271" x2="379" y1="400.0679" y2="400.0679"/><text fill="#000000" font-family="sans-serif" font-size="14" lengthAdjust="spacing" textLength="60" x="276" y="419.0339">value = 6</text></g><g id="elem_n1_4"><rect fill="#F1F1F1" height="50.1358" style="stroke:#181818;stroke-width:0.5;" width="110" x="153" y="506"/><text fill="#000000" font-family="sans-serif" font-size="14" lengthAdjust="spacing" textLength="96" x="160" y="522.9659">node1_4:Node</text><line style="stroke:#181818;stroke-width:0.5;" x1="154" x2="262" y1="529.0679" y2="529.0679"/><text fill="#000000" font-family="sans-serif" font-size="14" lengthAdjust="spacing" textLength="60" x="159" y="548.0339">value = 5</text></g><g id="elem_n1_5"><rect fill="#F1F1F1" height="50.1358" style="stroke:#181818;stroke-width:0.5;" width="110" x="298" y="506"/><text fill="#000000" font-family="sans-serif" font-size="14" lengthAdjust="spacing" textLength="96" x="305" y="522.9659">node1_5:Node</text><line style="stroke:#181818;stroke-width:0.5;" x1="299" x2="407" y1="529.0679" y2="529.0679"/><text fill="#000000" font-family="sans-serif" font-size="14" lengthAdjust="spacing" textLength="60" x="304" y="548.0339">value = 7</text></g><g id="elem_n1_6"><rect fill="#F1F1F1" height="50.1358" style="stroke:#181818;stroke-width:0.5;" width="110" x="153" y="635"/><text fill="#000000" font-family="sans-serif" font-size="14" lengthAdjust="spacing" textLength="96" x="160" y="651.9659">node1_6:Node</text><line style="stroke:#181818;stroke-width:0.5;" x1="154" x2="262" y1="658.0679" y2="658.0679"/><text fill="#000000" font-family="sans-serif" font-size="14" lengthAdjust="spacing" textLength="60" x="159" y="677.0339">value = 3</text></g><g id="elem_n1_7"><rect fill="#F1F1F1" height="50.1358" style="stroke:#181818;stroke-width:0.5;" width="110" x="298" y="635"/><text fill="#000000" font-family="sans-serif" font-size="14" lengthAdjust="spacing" textLength="96" x="305" y="651.9659">node1_7:Node</text><line style="stroke:#181818;stroke-width:0.5;" x1="299" x2="407" y1="658.0679" y2="658.0679"/><text fill="#000000" font-family="sans-serif" font-size="14" lengthAdjust="spacing" textLength="60" x="304" y="677.0339">value = 9</text></g><g id="elem_n1_8"><rect fill="#F1F1F1" height="50.1358" style="stroke:#181818;stroke-width:0.5;" width="110" x="298" y="764"/><text fill="#000000" font-family="sans-serif" font-size="14" lengthAdjust="spacing" textLength="96" x="305" y="780.9659">node1_8:Node</text><line style="stroke:#181818;stroke-width:0.5;" x1="299" x2="407" y1="787.0679" y2="787.0679"/><text fill="#000000" font-family="sans-serif" font-size="14" lengthAdjust="spacing" textLength="68" x="304" y="806.0339">value = 10</text></g><g id="elem_n2_1"><rect fill="#F1F1F1" height="50.1358" style="stroke:#181818;stroke-width:0.5;" width="110" x="634" y="248"/><text fill="#000000" font-family="sans-serif" font-size="14" lengthAdjust="spacing" textLength="96" x="641" y="264.9659">node2_1:Node</text><line style="stroke:#181818;stroke-width:0.5;" x1="635" x2="743" y1="271.0679" y2="271.0679"/><text fill="#000000" font-family="sans-serif" font-size="14" lengthAdjust="spacing" textLength="60" x="640" y="290.0339">value = 2</text></g><g id="elem_n2_2"><rect fill="#F1F1F1" height="50.1358" style="stroke:#181818;stroke-width:0.5;" width="110" x="591" y="377"/><text fill="#000000" font-family="sans-serif" font-size="14" lengthAdjust="spacing" textLength="96" x="598" y="393.9659">node2_2:Node</text><line style="stroke:#181818;stroke-width:0.5;" x1="592" x2="700" y1="400.0679" y2="400.0679"/><text fill="#000000" font-family="sans-serif" font-size="14" lengthAdjust="spacing" textLength="60" x="597" y="419.0339">value = 6</text></g><g id="elem_n2_3"><rect fill="#F1F1F1" height="50.1358" style="stroke:#181818;stroke-width:0.5;" width="110" x="736" y="377"/><text fill="#000000" font-family="sans-serif" font-size="14" lengthAdjust="spacing" textLength="96" x="743" y="393.9659">node2_3:Node</text><line style="stroke:#181818;stroke-width:0.5;" x1="737" x2="845" y1="400.0679" y2="400.0679"/><text fill="#000000" font-family="sans-serif" font-size="14" lengthAdjust="spacing" textLength="60" x="742" y="419.0339">value = 5</text></g><g id="elem_n2_4"><rect fill="#F1F1F1" height="50.1358" style="stroke:#181818;stroke-width:0.5;" width="110" x="446" y="506"/><text fill="#000000" font-family="sans-serif" font-size="14" lengthAdjust="spacing" textLength="96" x="453" y="522.9659">node2_4:Node</text><line style="stroke:#181818;stroke-width:0.5;" x1="447" x2="555" y1="529.0679" y2="529.0679"/><text fill="#000000" font-family="sans-serif" font-size="14" lengthAdjust="spacing" textLength="60" x="452" y="548.0339">value = 3</text></g><g id="elem_n2_5"><rect fill="#F1F1F1" height="50.1358" style="stroke:#181818;stroke-width:0.5;" width="110" x="736" y="506"/><text fill="#000000" font-family="sans-serif" font-size="14" lengthAdjust="spacing" textLength="96" x="743" y="522.9659">node2_5:Node</text><line style="stroke:#181818;stroke-width:0.5;" x1="737" x2="845" y1="529.0679" y2="529.0679"/><text fill="#000000" font-family="sans-serif" font-size="14" lengthAdjust="spacing" textLength="60" x="742" y="548.0339">value = 7</text></g><g id="elem_n2_6"><rect fill="#F1F1F1" height="50.1358" style="stroke:#181818;stroke-width:0.5;" width="110" x="591" y="506"/><text fill="#000000" font-family="sans-serif" font-size="14" lengthAdjust="spacing" textLength="96" x="598" y="522.9659">node2_6:Node</text><line style="stroke:#181818;stroke-width:0.5;" x1="592" x2="700" y1="529.0679" y2="529.0679"/><text fill="#000000" font-family="sans-serif" font-size="14" lengthAdjust="spacing" textLength="60" x="597" y="548.0339">value = 1</text></g><g id="elem_n2_7"><rect fill="#F1F1F1" height="50.1358" style="stroke:#181818;stroke-width:0.5;" width="110" x="881" y="506"/><text fill="#000000" font-family="sans-serif" font-size="14" lengthAdjust="spacing" textLength="96" x="888" y="522.9659">node2_7:Node</text><line style="stroke:#181818;stroke-width:0.5;" x1="882" x2="990" y1="529.0679" y2="529.0679"/><text fill="#000000" font-family="sans-serif" font-size="14" lengthAdjust="spacing" textLength="60" x="887" y="548.0339">value = 9</text></g><g id="elem_n2_8"><rect fill="#F1F1F1" height="50.1358" style="stroke:#181818;stroke-width:0.5;" width="110" x="881" y="635"/><text fill="#000000" font-family="sans-serif" font-size="14" lengthAdjust="spacing" textLength="96" x="888" y="651.9659">node2_8:Node</text><line style="stroke:#181818;stroke-width:0.5;" x1="882" x2="990" y1="658.0679" y2="658.0679"/><text fill="#000000" font-family="sans-serif" font-size="14" lengthAdjust="spacing" textLength="68" x="887" y="677.0339">value = 10</text></g><g id="elem_n3_1"><rect fill="#F1F1F1" height="50.1358" style="stroke:#181818;stroke-width:0.5;" width="110" x="1034" y="248"/><text fill="#000000" font-family="sans-serif" font-size="14" lengthAdjust="spacing" textLength="96" x="1041" y="264.9659">node3_1:Node</text><line style="stroke:#181818;stroke-width:0.5;" x1="1035" x2="1143" y1="271.0679" y2="271.0679"/><text fill="#000000" font-family="sans-serif" font-size="14" lengthAdjust="spacing" textLength="60" x="1040" y="290.0339">value = 2</text></g><g id="elem_n3_2"><rect fill="#F1F1F1" height="50.1358" style="stroke:#181818;stroke-width:0.5;" width="110" x="1033" y="377"/><text fill="#000000" font-family="sans-serif" font-size="14" lengthAdjust="spacing" textLength="96" x="1040" y="393.9659">node3_2:Node</text><line style="stroke:#181818;stroke-width:0.5;" x1="1034" x2="1142" y1="400.0679" y2="400.0679"/><text fill="#000000" font-family="sans-serif" font-size="14" lengthAdjust="spacing" textLength="60" x="1039" y="419.0339">value = 6</text></g><g id="elem_n3_3"><rect fill="#F1F1F1" height="50.1358" style="stroke:#181818;stroke-width:0.5;" width="110" x="1178" y="377"/><text fill="#000000" font-family="sans-serif" font-size="14" lengthAdjust="spacing" textLength="96" x="1185" y="393.9659">node3_3:Node</text><line style="stroke:#181818;stroke-width:0.5;" x1="1179" x2="1287" y1="400.0679" y2="400.0679"/><text fill="#000000" font-family="sans-serif" font-size="14" lengthAdjust="spacing" textLength="60" x="1184" y="419.0339">value = 1</text></g><g id="elem_n3_4"><rect fill="#F1F1F1" height="50.1358" style="stroke:#181818;stroke-width:0.5;" width="110" x="1026" y="506"/><text fill="#000000" font-family="sans-serif" font-size="14" lengthAdjust="spacing" textLength="96" x="1033" y="522.9659">node3_4:Node</text><line style="stroke:#181818;stroke-width:0.5;" x1="1027" x2="1135" y1="529.0679" y2="529.0679"/><text fill="#000000" font-family="sans-serif" font-size="14" lengthAdjust="spacing" textLength="60" x="1032" y="548.0339">value = 7</text></g><g id="elem_n3_5"><rect fill="#F1F1F1" height="50.1358" style="stroke:#181818;stroke-width:0.5;" width="110" x="1171" y="506"/><text fill="#000000" font-family="sans-serif" font-size="14" lengthAdjust="spacing" textLength="96" x="1178" y="522.9659">node3_5:Node</text><line style="stroke:#181818;stroke-width:0.5;" x1="1172" x2="1280" y1="529.0679" y2="529.0679"/><text fill="#000000" font-family="sans-serif" font-size="14" lengthAdjust="spacing" textLength="60" x="1177" y="548.0339">value = 5</text></g><g id="elem_n3_6"><rect fill="#F1F1F1" height="50.1358" style="stroke:#181818;stroke-width:0.5;" width="110" x="1026" y="635"/><text fill="#000000" font-family="sans-serif" font-size="14" lengthAdjust="spacing" textLength="96" x="1033" y="651.9659">node3_6:Node</text><line style="stroke:#181818;stroke-width:0.5;" x1="1027" x2="1135" y1="658.0679" y2="658.0679"/><text fill="#000000" font-family="sans-serif" font-size="14" lengthAdjust="spacing" textLength="60" x="1032" y="677.0339">value = 9</text></g><g id="elem_n3_7"><rect fill="#F1F1F1" height="50.1358" style="stroke:#181818;stroke-width:0.5;" width="110" x="1171" y="635"/><text fill="#000000" font-family="sans-serif" font-size="14" lengthAdjust="spacing" textLength="96" x="1178" y="651.9659">node3_7:Node</text><line style="stroke:#181818;stroke-width:0.5;" x1="1172" x2="1280" y1="658.0679" y2="658.0679"/><text fill="#000000" font-family="sans-serif" font-size="14" lengthAdjust="spacing" textLength="60" x="1177" y="677.0339">value = 3</text></g><g id="elem_n3_8"><rect fill="#F1F1F1" height="50.1358" style="stroke:#181818;stroke-width:0.5;" width="110" x="1026" y="764"/><text fill="#000000" font-family="sans-serif" font-size="14" lengthAdjust="spacing" textLength="96" x="1033" y="780.9659">node3_8:Node</text><line style="stroke:#181818;stroke-width:0.5;" x1="1027" x2="1135" y1="787.0679" y2="787.0679"/><text fill="#000000" font-family="sans-serif" font-size="14" lengthAdjust="spacing" textLength="68" x="1032" y="806.0339">value = 10</text></g><g id="elem_GMN63"><path d="M675,6 L675,33.5 L640.09,37.5 L675,41.5 L675,69.118 A0,0 0 0 0 675,69.118 L879,69.118 A0,0 0 0 0 879,69.118 L879,16 L869,6 L675,6 A0,0 0 0 0 675,6 " fill="#FEFFDD" style="stroke:#181818;stroke-width:0.5;"/><path d="M869,6 L869,16 L879,16 L869,6 " fill="#FEFFDD" style="stroke:#181818;stroke-width:0.5;"/><text fill="#000000" font-family="sans-serif" font-size="13" lengthAdjust="spacing" textLength="183" x="681" y="24.897">Cada &#225;rbol mantiene su propia</text><text fill="#000000" font-family="sans-serif" font-size="13" lengthAdjust="spacing" textLength="182" x="681" y="42.603">estructura seg&#250;n su estrategia</text><text fill="#000000" font-family="sans-serif" font-size="13" lengthAdjust="spacing" textLength="72" x="681" y="60.309">de inserci&#243;n</text></g><!--link jardinero to tree1--><g id="link_jardinero_tree1"><path codeLine="90" d="M525.19,57.04 C477.29,77.3 406.4958,107.2521 358.5158,127.5521 " fill="none" id="jardinero-to-tree1" style="stroke:#181818;stroke-width:1.0;stroke-dasharray:7.0,7.0;"/><polygon fill="#181818" points="352.99,129.89,362.8373,130.067,357.5948,127.9417,359.72,122.6993,352.99,129.89" style="stroke:#181818;stroke-width:1.0;"/></g><!--link jardinero to tree2--><g id="link_jardinero_tree2"><path codeLine="91" d="M569,57.16 C569,77.39 569,103.49 569,123.75 " fill="none" id="jardinero-to-tree2" style="stroke:#181818;stroke-width:1.0;stroke-dasharray:7.0,7.0;"/><polygon fill="#181818" points="569,129.75,573,120.75,569,124.75,565,120.75,569,129.75" style="stroke:#181818;stroke-width:1.0;"/></g><!--link jardinero to tree3--><g id="link_jardinero_tree3"><path codeLine="92" d="M622.51,57.08 C633.89,61.02 645.84,65.15 657,69 C717.78,89.95 781.9027,111.8989 828.9327,127.9789 " fill="none" id="jardinero-to-tree3" style="stroke:#181818;stroke-width:1.0;stroke-dasharray:7.0,7.0;"/><polygon fill="#181818" points="834.61,129.92,827.3881,123.2234,829.8789,128.3024,824.7999,130.7932,834.61,129.92" style="stroke:#181818;stroke-width:1.0;"/></g><!--link tree1 to strat1--><g id="link_tree1_strat1"><path codeLine="94" d="M278.8,169.22 C241.87,192.12 184.8196,227.4786 148.0096,250.2986 " fill="none" id="tree1-to-strat1" style="stroke:#181818;stroke-width:1.0;"/><polygon fill="#181818" points="142.91,253.46,152.6669,252.1176,147.1596,250.8255,148.4517,245.3182,142.91,253.46" style="stroke:#181818;stroke-width:1.0;"/><text fill="#000000" font-family="sans-serif" font-size="13" lengthAdjust="spacing" textLength="50" x="230" y="213.897">strategy</text></g><!--link tree2 to strat2--><g id="link_tree2_strat2"><path codeLine="95" d="M558.22,169.22 C545.02,192.12 525.8257,225.4414 512.6757,248.2614 " fill="none" id="tree2-to-strat2" style="stroke:#181818;stroke-width:1.0;"/><polygon fill="#181818" points="509.68,253.46,517.6393,247.6592,512.1764,249.1278,510.7078,243.6649,509.68,253.46" style="stroke:#181818;stroke-width:1.0;"/><text fill="#000000" font-family="sans-serif" font-size="13" lengthAdjust="spacing" textLength="50" x="542" y="213.897">strategy</text></g><!--link tree3 to strat3--><g id="link_tree3_strat3"><path codeLine="96" d="M889,169.22 C889,192.12 889,224.64 889,247.46 " fill="none" id="tree3-to-strat3" style="stroke:#181818;stroke-width:1.0;"/><polygon fill="#181818" points="889,253.46,893,244.46,889,248.46,885,244.46,889,253.46" style="stroke:#181818;stroke-width:1.0;"/><text fill="#000000" font-family="sans-serif" font-size="13" lengthAdjust="spacing" textLength="50" x="890" y="213.897">strategy</text></g><!--link tree1 to n1_1--><g id="link_tree1_n1_1"><path codeLine="99" d="M309,169.22 C309,190.25 309,218.47 309,241.59 " fill="none" id="tree1-to-n1_1" style="stroke:#181818;stroke-width:1.0;"/><polygon fill="#181818" points="309,247.59,313,238.59,309,242.59,305,238.59,309,247.59" style="stroke:#181818;stroke-width:1.0;"/><text fill="#000000" font-family="sans-serif" font-size="13" lengthAdjust="spacing" textLength="26" x="310" y="213.897">root</text></g><!--link n1_1 to n1_2--><g id="link_n1_1_n1_2"><path codeLine="100" d="M284.43,298.19 C261.48,320.78 231.6752,350.1201 208.7552,372.6901 " fill="none" id="n1_1-to-n1_2" style="stroke:#181818;stroke-width:1.0;"/><polygon fill="#181818" points="204.48,376.9,213.6993,373.4353,208.0426,373.3918,208.0862,367.7351,204.48,376.9" style="stroke:#181818;stroke-width:1.0;"/><text fill="#000000" font-family="sans-serif" font-size="13" lengthAdjust="spacing" textLength="19" x="254" y="342.897">left</text></g><!--link n1_1 to n1_3--><g id="link_n1_1_n1_3"><path codeLine="101" d="M312.05,298.19 C314.89,320.78 318.3709,348.3769 321.2109,370.9469 " fill="none" id="n1_1-to-n1_3" style="stroke:#181818;stroke-width:1.0;"/><polygon fill="#181818" points="321.96,376.9,324.8051,367.471,321.3358,371.9391,316.8677,368.4698,321.96,376.9" style="stroke:#181818;stroke-width:1.0;"/><text fill="#000000" font-family="sans-serif" font-size="13" lengthAdjust="spacing" textLength="29" x="319" y="342.897">right</text></g><!--link n1_3 to n1_4--><g id="link_n1_3_n1_4"><path codeLine="102" d="M302.72,427.19 C281.9,449.78 255.055,478.9169 234.265,501.4869 " fill="none" id="n1_3-to-n1_4" style="stroke:#181818;stroke-width:1.0;"/><polygon fill="#181818" points="230.2,505.9,239.2396,501.9904,233.5875,502.2224,233.3555,496.5703,230.2,505.9" style="stroke:#181818;stroke-width:1.0;"/><text fill="#000000" font-family="sans-serif" font-size="13" lengthAdjust="spacing" textLength="19" x="275" y="471.897">left</text></g><!--link n1_4 to n1_6--><g id="link_n1_4_n1_6"><path codeLine="103" d="M208,556.19 C208,578.78 208,606.33 208,628.9 " fill="none" id="n1_4-to-n1_6" style="stroke:#181818;stroke-width:1.0;"/><polygon fill="#181818" points="208,634.9,212,625.9,208,629.9,204,625.9,208,634.9" style="stroke:#181818;stroke-width:1.0;"/><text fill="#000000" font-family="sans-serif" font-size="13" lengthAdjust="spacing" textLength="19" x="209" y="600.897">left</text></g><!--link n1_3 to n1_5--><g id="link_n1_3_n1_5"><path codeLine="104" d="M330.33,427.19 C335.31,449.78 341.4172,477.4709 346.3972,500.0409 " fill="none" id="n1_3-to-n1_5" style="stroke:#181818;stroke-width:1.0;"/><polygon fill="#181818" points="347.69,505.9,349.6569,496.2495,346.6127,501.0174,341.8448,497.9733,347.69,505.9" style="stroke:#181818;stroke-width:1.0;"/><text fill="#000000" font-family="sans-serif" font-size="13" lengthAdjust="spacing" textLength="29" x="342" y="471.897">right</text></g><!--link n1_5 to n1_7--><g id="link_n1_5_n1_7"><path codeLine="105" d="M353,556.19 C353,578.78 353,606.33 353,628.9 " fill="none" id="n1_5-to-n1_7" style="stroke:#181818;stroke-width:1.0;"/><polygon fill="#181818" points="353,634.9,357,625.9,353,629.9,349,625.9,353,634.9" style="stroke:#181818;stroke-width:1.0;"/><text fill="#000000" font-family="sans-serif" font-size="13" lengthAdjust="spacing" textLength="29" x="354" y="600.897">right</text></g><!--link n1_7 to n1_8--><g id="link_n1_7_n1_8"><path codeLine="106" d="M353,685.19 C353,707.78 353,735.33 353,757.9 " fill="none" id="n1_7-to-n1_8" style="stroke:#181818;stroke-width:1.0;"/><polygon fill="#181818" points="353,763.9,357,754.9,353,758.9,349,754.9,353,763.9" style="stroke:#181818;stroke-width:1.0;"/><text fill="#000000" font-family="sans-serif" font-size="13" lengthAdjust="spacing" textLength="29" x="354" y="729.897">right</text></g><!--link tree2 to n2_1--><g id="link_tree2_n2_1"><path codeLine="109" d="M587.49,169.22 C608.26,190.25 637.8442,220.2007 660.6742,243.3207 " fill="none" id="tree2-to-n2_1" style="stroke:#181818;stroke-width:1.0;"/><polygon fill="#181818" points="664.89,247.59,661.4126,238.3755,661.3768,244.0322,655.7201,243.9965,664.89,247.59" style="stroke:#181818;stroke-width:1.0;"/><text fill="#000000" font-family="sans-serif" font-size="13" lengthAdjust="spacing" textLength="26" x="634" y="213.897">root</text></g><!--link n2_1 to n2_2--><g id="link_n2_1_n2_2"><path codeLine="110" d="M680.81,298.19 C673.16,320.78 663.7238,348.6468 656.0838,371.2168 " fill="none" id="n2_1-to-n2_2" style="stroke:#181818;stroke-width:1.0;"/><polygon fill="#181818" points="654.16,376.9,660.8345,369.6577,655.7632,372.164,653.2569,367.0926,654.16,376.9" style="stroke:#181818;stroke-width:1.0;"/><text fill="#000000" font-family="sans-serif" font-size="13" lengthAdjust="spacing" textLength="19" x="672" y="342.897">left</text></g><!--link n2_2 to n2_4--><g id="link_n2_2_n2_4"><path codeLine="111" d="M618.39,427.19 C592.58,449.78 558.7936,479.3769 533.0236,501.9469 " fill="none" id="n2_2-to-n2_4" style="stroke:#181818;stroke-width:1.0;"/><polygon fill="#181818" points="528.51,505.9,537.9158,502.9794,532.2713,502.6057,532.645,496.9612,528.51,505.9" style="stroke:#181818;stroke-width:1.0;"/><text fill="#000000" font-family="sans-serif" font-size="13" lengthAdjust="spacing" textLength="19" x="584" y="471.897">left</text></g><!--link n2_2 to n2_6--><g id="link_n2_2_n2_6"><path codeLine="112" d="M646,427.19 C646,449.78 646,477.33 646,499.9 " fill="none" id="n2_2-to-n2_6" style="stroke:#181818;stroke-width:1.0;"/><polygon fill="#181818" points="646,505.9,650,496.9,646,500.9,642,496.9,646,505.9" style="stroke:#181818;stroke-width:1.0;"/><text fill="#000000" font-family="sans-serif" font-size="13" lengthAdjust="spacing" textLength="29" x="647" y="471.897">right</text></g><!--link n2_1 to n2_3--><g id="link_n2_1_n2_3"><path codeLine="113" d="M708.43,298.19 C726.58,320.78 749.7625,349.6523 767.8925,372.2223 " fill="none" id="n2_1-to-n2_3" style="stroke:#181818;stroke-width:1.0;"/><polygon fill="#181818" points="771.65,376.9,769.1322,367.3784,768.5187,373.0019,762.8952,372.3884,771.65,376.9" style="stroke:#181818;stroke-width:1.0;"/><text fill="#000000" font-family="sans-serif" font-size="13" lengthAdjust="spacing" textLength="29" x="748" y="342.897">right</text></g><!--link n2_3 to n2_5--><g id="link_n2_3_n2_5"><path codeLine="114" d="M791,427.19 C791,449.78 791,477.33 791,499.9 " fill="none" id="n2_3-to-n2_5" style="stroke:#181818;stroke-width:1.0;"/><polygon fill="#181818" points="791,505.9,795,496.9,791,500.9,787,496.9,791,505.9" style="stroke:#181818;stroke-width:1.0;"/><text fill="#000000" font-family="sans-serif" font-size="13" lengthAdjust="spacing" textLength="19" x="792" y="471.897">left</text></g><!--link n2_3 to n2_7--><g id="link_n2_3_n2_7"><path codeLine="115" d="M818.61,427.19 C844.42,449.78 878.2064,479.3769 903.9764,501.9469 " fill="none" id="n2_3-to-n2_7" style="stroke:#181818;stroke-width:1.0;"/><polygon fill="#181818" points="908.49,505.9,904.355,496.9612,904.7287,502.6057,899.0842,502.9794,908.49,505.9" style="stroke:#181818;stroke-width:1.0;"/><text fill="#000000" font-family="sans-serif" font-size="13" lengthAdjust="spacing" textLength="29" x="874" y="471.897">right</text></g><!--link n2_7 to n2_8--><g id="link_n2_7_n2_8"><path codeLine="116" d="M936,556.19 C936,578.78 936,606.33 936,628.9 " fill="none" id="n2_7-to-n2_8" style="stroke:#181818;stroke-width:1.0;"/><polygon fill="#181818" points="936,634.9,940,625.9,936,629.9,932,625.9,936,634.9" style="stroke:#181818;stroke-width:1.0;"/><text fill="#000000" font-family="sans-serif" font-size="13" lengthAdjust="spacing" textLength="29" x="937" y="600.897">right</text></g><!--link tree3 to n3_1--><g id="link_tree3_n3_1"><path codeLine="119" d="M919.81,169.22 C954.55,190.32 1006.0024,221.5743 1044.0524,244.6943 " fill="none" id="tree3-to-n3_1" style="stroke:#181818;stroke-width:1.0;"/><polygon fill="#181818" points="1049.18,247.81,1043.5657,239.7181,1044.907,245.2136,1039.4114,246.5549,1049.18,247.81" style="stroke:#181818;stroke-width:1.0;"/><text fill="#000000" font-family="sans-serif" font-size="13" lengthAdjust="spacing" textLength="26" x="996" y="213.897">root</text></g><!--link n3_1 to n3_2--><g id="link_n3_1_n3_2"><path codeLine="120" d="M1088.81,298.19 C1088.63,320.78 1088.4178,348.3302 1088.2378,370.9002 " fill="none" id="n3_1-to-n3_2" style="stroke:#181818;stroke-width:1.0;"/><polygon fill="#181818" points="1088.19,376.9,1092.2616,367.9322,1088.2299,371.9002,1084.2619,367.8684,1088.19,376.9" style="stroke:#181818;stroke-width:1.0;"/><text fill="#000000" font-family="sans-serif" font-size="13" lengthAdjust="spacing" textLength="19" x="1090" y="342.897">left</text></g><!--link n3_2 to n3_4--><g id="link_n3_2_n3_4"><path codeLine="121" d="M1086.67,427.19 C1085.42,449.78 1083.8991,477.339 1082.6591,499.909 " fill="none" id="n3_2-to-n3_4" style="stroke:#181818;stroke-width:1.0;"/><polygon fill="#181818" points="1082.33,505.9,1086.8177,497.133,1082.6043,500.9075,1078.8297,496.6941,1082.33,505.9" style="stroke:#181818;stroke-width:1.0;"/><text fill="#000000" font-family="sans-serif" font-size="13" lengthAdjust="spacing" textLength="19" x="1086" y="471.897">left</text></g><!--link n3_4 to n3_6--><g id="link_n3_4_n3_6"><path codeLine="122" d="M1081,556.19 C1081,578.78 1081,606.33 1081,628.9 " fill="none" id="n3_4-to-n3_6" style="stroke:#181818;stroke-width:1.0;"/><polygon fill="#181818" points="1081,634.9,1085,625.9,1081,629.9,1077,625.9,1081,634.9" style="stroke:#181818;stroke-width:1.0;"/><text fill="#000000" font-family="sans-serif" font-size="13" lengthAdjust="spacing" textLength="19" x="1082" y="600.897">left</text></g><!--link n3_6 to n3_8--><g id="link_n3_6_n3_8"><path codeLine="123" d="M1081,685.19 C1081,707.78 1081,735.33 1081,757.9 " fill="none" id="n3_6-to-n3_8" style="stroke:#181818;stroke-width:1.0;"/><polygon fill="#181818" points="1081,763.9,1085,754.9,1081,758.9,1077,754.9,1081,763.9" style="stroke:#181818;stroke-width:1.0;"/><text fill="#000000" font-family="sans-serif" font-size="13" lengthAdjust="spacing" textLength="19" x="1082" y="729.897">left</text></g><!--link n3_2 to n3_5--><g id="link_n3_2_n3_5"><path codeLine="124" d="M1114.28,427.19 C1138.84,449.78 1170.8746,479.2674 1195.4046,501.8374 " fill="none" id="n3_2-to-n3_5" style="stroke:#181818;stroke-width:1.0;"/><polygon fill="#181818" points="1199.82,505.9,1195.9053,496.8626,1196.1405,502.5145,1190.4886,502.7497,1199.82,505.9" style="stroke:#181818;stroke-width:1.0;"/><text fill="#000000" font-family="sans-serif" font-size="13" lengthAdjust="spacing" textLength="29" x="1167" y="471.897">right</text></g><!--link n3_5 to n3_7--><g id="link_n3_5_n3_7"><path codeLine="125" d="M1226,556.19 C1226,578.78 1226,606.33 1226,628.9 " fill="none" id="n3_5-to-n3_7" style="stroke:#181818;stroke-width:1.0;"/><polygon fill="#181818" points="1226,634.9,1230,625.9,1226,629.9,1222,625.9,1226,634.9" style="stroke:#181818;stroke-width:1.0;"/><text fill="#000000" font-family="sans-serif" font-size="13" lengthAdjust="spacing" textLength="29" x="1227" y="600.897">right</text></g><!--link n3_1 to n3_3--><g id="link_n3_1_n3_3"><path codeLine="126" d="M1116.42,298.19 C1142.05,320.78 1175.5902,350.3612 1201.1802,372.9312 " fill="none" id="n3_1-to-n3_3" style="stroke:#181818;stroke-width:1.0;"/><polygon fill="#181818" points="1205.68,376.9,1201.5761,367.9469,1201.9301,373.5927,1196.2844,373.9467,1205.68,376.9" style="stroke:#181818;stroke-width:1.0;"/><text fill="#000000" font-family="sans-serif" font-size="13" lengthAdjust="spacing" textLength="29" x="1171" y="342.897">right</text></g><!--SRC=[ZPQzRjim4CTtFSKXIwO45KyVZe1aIATswD1aBsYBTXGef4790OgY3zDdwDRLBrPH4kKxKONgmQ3__97tyPVFDjjNjMlXwbNQijBAckApNrs1R63IeyYCg3RsJTRFLgd2lVLOsorYc92jhANUgJA4n0MgzBkoxHA4S8dMj5Qswl0zBhxqSH-Vdfz6gUVx_JZ0HV4uvX3I8g2n-3GcitWzqk9B5NzpoPH3lhhx13yYw5xliZufk0SH_PpnWl5YniS1Zup76Py5VCBuPCQd0PyoFftnUS1dZCzcF0PyplXynjy5_8Rnctb_FdG7ecjmJ0DxOu4-N-mgmQmHgzO8Peq8hCa27XcFAwqMp1eHM8C1dp9-pHh1h161DN70vunViqOmQyH_M4E_rUmgPDRWgZN8hC5LQv1PWu4rSS0dZ4zMMetC6WoiIGC-Otosqcfarc1W3GRyXl7_ikQhgcLR6TsyLCScckOvtDu-36DxGHCBMZS4Xob_S_CmJbqem4_GQ1ZkqvwOx-5b3-bU__2umTu7SVffrvwi8i7w4Lk0DQQD-lKekXYrsdFHNMwhmqklebSJWYPUp8WuaIazdterfshkrSsaTbNutvkbEeR6zFF8ro5yoeBKuTQZc2o9sIKDSXwfYbvDoGMJc5Cqzoghm_yIBjKnteEa3lHv8Aa3VSf8wa3VUIITT-jHt2mT9tQWjmDf6IJ-fG-HDgqQrc3sv4yCm4TPIZZ_ibjJmvlKRQLqL-K9ZjOSAza1ofSieL67yn_jTjNulFP4gRefroYxgyw_TQHq2IxSNm00]--></g></svg>