<?xml version="1.0" encoding="us-ascii" standalone="no"?><svg xmlns="http://www.w3.org/2000/svg" xmlns:xlink="http://www.w3.org/1999/xlink" contentStyleType="text/css" height="451px" preserveAspectRatio="none" style="width:342px;height:451px;background:#FFFFFF;" version="1.1" viewBox="0 0 342 451" width="342px" zoomAndPan="magnify"><defs/><g><g id="elem_ListA"><rect fill="#F1F1F1" height="50.1358" style="stroke:#181818;stroke-width:0.5;" width="107" x="10.5" y="7"/><text fill="#000000" font-family="sans-serif" font-size="14" lengthAdjust="spacing" textLength="27" x="50.5" y="23.9659">:List</text><line style="stroke:#181818;stroke-width:0.5;" x1="11.5" x2="116.5" y1="30.0679" y2="30.0679"/><text fill="#000000" font-family="sans-serif" font-size="14" lengthAdjust="spacing" textLength="95" x="16.5" y="49.0339">first = Node(1)</text></g><g id="elem_Node1"><rect fill="#F1F1F1" height="69.2038" style="stroke:#181818;stroke-width:0.5;" width="114" x="7" y="117"/><text fill="#000000" font-family="sans-serif" font-size="14" lengthAdjust="spacing" textLength="56" x="36" y="133.9659">1 : Node</text><line style="stroke:#181818;stroke-width:0.5;" x1="8" x2="120" y1="140.0679" y2="140.0679"/><text fill="#000000" font-family="sans-serif" font-size="14" lengthAdjust="spacing" textLength="65" x="13" y="159.0339">value: "A"</text><text fill="#000000" font-family="sans-serif" font-size="14" lengthAdjust="spacing" textLength="102" x="13" y="178.1018">next -&gt; Node(2)</text></g><g id="elem_Node2"><rect fill="#F1F1F1" height="69.2038" style="stroke:#181818;stroke-width:0.5;" width="114" x="13" y="246"/><text fill="#000000" font-family="sans-serif" font-size="14" lengthAdjust="spacing" textLength="56" x="42" y="262.9659">2 : Node</text><line style="stroke:#181818;stroke-width:0.5;" x1="14" x2="126" y1="269.0679" y2="269.0679"/><text fill="#000000" font-family="sans-serif" font-size="14" lengthAdjust="spacing" textLength="65" x="19" y="288.0339">value: "B"</text><text fill="#000000" font-family="sans-serif" font-size="14" lengthAdjust="spacing" textLength="102" x="19" y="307.1018">next -&gt; Node(3)</text></g><g id="elem_Node3"><rect fill="#F1F1F1" height="69.2038" style="stroke:#181818;stroke-width:0.5;" width="88" x="29" y="375"/><text fill="#000000" font-family="sans-serif" font-size="14" lengthAdjust="spacing" textLength="56" x="45" y="391.9659">3 : Node</text><line style="stroke:#181818;stroke-width:0.5;" x1="30" x2="116" y1="398.0679" y2="398.0679"/><text fill="#000000" font-family="sans-serif" font-size="14" lengthAdjust="spacing" textLength="65" x="35" y="417.0339">value: "A"</text><text fill="#000000" font-family="sans-serif" font-size="14" lengthAdjust="spacing" textLength="76" x="35" y="436.1018">next -&gt; null</text></g><g id="elem_ListF"><rect fill="#F1F1F1" height="50.1358" style="stroke:#181818;stroke-width:0.5;" width="119" x="186.5" y="7"/><text fill="#000000" font-family="sans-serif" font-size="14" lengthAdjust="spacing" textLength="105" x="193.5" y="23.9659">:FoundNodeList</text><line style="stroke:#181818;stroke-width:0.5;" x1="187.5" x2="304.5" y1="30.0679" y2="30.0679"/><text fill="#000000" font-family="sans-serif" font-size="14" lengthAdjust="spacing" textLength="104" x="192.5" y="49.0339">first = Node(p1)</text></g><g id="elem_p1"><rect fill="#F1F1F1" height="69.2038" style="stroke:#181818;stroke-width:0.5;" width="180" x="156" y="117"/><text fill="#000000" font-family="sans-serif" font-size="14" lengthAdjust="spacing" textLength="166" x="163" y="133.9659">p1 : FoundNodeWrapper</text><line style="stroke:#181818;stroke-width:0.5;" x1="157" x2="335" y1="140.0679" y2="140.0679"/><text fill="#000000" font-family="sans-serif" font-size="14" lengthAdjust="spacing" textLength="40" x="162" y="159.0339">value:</text><text fill="#000000" font-family="sans-serif" font-size="14" lengthAdjust="spacing" textLength="76" x="162" y="178.1018">next -&gt; null</text></g><g id="elem_p2"><rect fill="#F1F1F1" height="69.2038" style="stroke:#181818;stroke-width:0.5;" width="180" x="154" y="375"/><text fill="#000000" font-family="sans-serif" font-size="14" lengthAdjust="spacing" textLength="166" x="161" y="391.9659">p2 : FoundNodeWrapper</text><line style="stroke:#181818;stroke-width:0.5;" x1="155" x2="333" y1="398.0679" y2="398.0679"/><text fill="#000000" font-family="sans-serif" font-size="14" lengthAdjust="spacing" textLength="40" x="160" y="417.0339">value:</text><text fill="#000000" font-family="sans-serif" font-size="14" lengthAdjust="spacing" textLength="76" x="160" y="436.1018">next -&gt; null</text></g><!--link ListA to Node1--><g id="link_ListA_Node1"><path codeLine="33" d="M64,57.06 C64,74.25 64,91.61 64,110.67 " fill="none" id="ListA-to-Node1" style="stroke:#181818;stroke-width:1.0;"/><polygon fill="#181818" points="64,116.67,68,107.67,64,111.67,60,107.67,64,116.67" style="stroke:#181818;stroke-width:1.0;"/></g><!--link Node1 to Node2--><g id="link_Node1_Node2"><path codeLine="34" d="M65.59,186.2 C66.46,204.57 67.2465,221.2567 68.1165,239.6467 " fill="none" id="Node1-to-Node2" style="stroke:#181818;stroke-width:1.0;"/><polygon fill="#181818" points="68.4,245.64,71.9702,236.461,68.1637,240.6456,63.9792,236.8391,68.4,245.64" style="stroke:#181818;stroke-width:1.0;"/></g><!--link Node2 to Node3--><g id="link_Node2_Node3"><path codeLine="35" d="M70.8,315.2 C71.23,333.57 71.6297,350.2516 72.0597,368.6416 " fill="none" id="Node2-to-Node3" style="stroke:#181818;stroke-width:1.0;"/><polygon fill="#181818" points="72.2,374.64,75.9885,365.549,72.0831,369.6414,67.9907,365.736,72.2,374.64" style="stroke:#181818;stroke-width:1.0;"/></g><!--link ListF to p1--><g id="link_ListF_p1"><path codeLine="37" d="M246,57.06 C246,74.25 246,91.61 246,110.67 " fill="none" id="ListF-to-p1" style="stroke:#181818;stroke-width:1.0;"/><polygon fill="#181818" points="246,116.67,250,107.67,246,111.67,242,107.67,246,116.67" style="stroke:#181818;stroke-width:1.0;"/></g><!--link p1 to p2--><g id="link_p1_p2"><path codeLine="38" d="M245.74,186.23 C245.35,235.24 244.6977,319.6402 244.3077,368.6902 " fill="none" id="p1-to-p2" style="stroke:#181818;stroke-width:1.0;"/><polygon fill="#181818" points="244.26,374.69,248.3314,365.7221,244.2998,369.6902,240.3317,365.6585,244.26,374.69" style="stroke:#181818;stroke-width:1.0;"/></g><!--reverse link Node1 to p1--><g id="link_Node1_p1"><path codeLine="40" d="M127.23,151.5 C138.77,151.5 144.3,151.5 155.83,151.5 " fill="none" id="Node1-backto-p1" style="stroke:#181818;stroke-width:1.0;stroke-dasharray:7.0,7.0;"/><polygon fill="#181818" points="121.23,151.5,130.23,155.5,126.23,151.5,130.23,147.5,121.23,151.5" style="stroke:#181818;stroke-width:1.0;"/></g><!--reverse link Node3 to p2--><g id="link_Node3_p2"><path codeLine="41" d="M123.09,409.5 C135.31,409.5 141.54,409.5 153.77,409.5 " fill="none" id="Node3-backto-p2" style="stroke:#181818;stroke-width:1.0;stroke-dasharray:7.0,7.0;"/><polygon fill="#181818" points="117.09,409.5,126.09,413.5,122.09,409.5,126.09,405.5,117.09,409.5" style="stroke:#181818;stroke-width:1.0;"/></g><!--SRC=[ZP4n2y8m48Nt_8gZamuj9Da22dNe9AxErKQeXEPeKn74_swJDCM6MinqxyZxSlUYBtTvDP28OzsP1CeER973Yy1mRdNR6TZ1ILToGxVaJOWU3HI4QpkFBUZeUPIgbmAIF76oaKy3wTuZs0p1OWIB48S51BU8GE0nWQyFqVHAVKyW2jqtbJNErY-MriVv_cW3cEpdjaIKhIDWbCJg1CX-OjWV6FzPwHWE9VuZWcR4fneqzuR2DP0Iz5UH4LjcAWkOuUr9yGy0]--></g></svg>