<?xml version="1.0" encoding="us-ascii" standalone="no"?><svg xmlns="http://www.w3.org/2000/svg" xmlns:xlink="http://www.w3.org/1999/xlink" contentStyleType="text/css" height="430px" preserveAspectRatio="none" style="width:432px;height:430px;background:#FFFFFF;" version="1.1" viewBox="0 0 432 430" width="432px" zoomAndPan="magnify"><defs/><g><!--class List--><g id="elem_List"><rect codeLine="2" fill="#F1F1F1" height="86.1358" id="List" rx="2.5" ry="2.5" style="stroke:#181818;stroke-width:0.5;" width="97" x="247.5" y="7"/><ellipse cx="281.4" cy="23" fill="#ADD1B2" rx="11" ry="11" style="stroke:#181818;stroke-width:1.0;"/><path d="M284.3688,28.6406 Q283.7906,28.9375 283.15,29.0781 Q282.5094,29.2344 281.8063,29.2344 Q279.3063,29.2344 277.9781,27.5938 Q276.6656,25.9375 276.6656,22.8125 Q276.6656,19.6875 277.9781,18.0313 Q279.3063,16.375 281.8063,16.375 Q282.5094,16.375 283.15,16.5313 Q283.8063,16.6875 284.3688,16.9844 L284.3688,19.7031 Q283.7438,19.125 283.15,18.8594 Q282.5563,18.5781 281.9313,18.5781 Q280.5875,18.5781 279.9,19.6563 Q279.2125,20.7188 279.2125,22.8125 Q279.2125,24.9063 279.9,25.9844 Q280.5875,27.0469 281.9313,27.0469 Q282.5563,27.0469 283.15,26.7813 Q283.7438,26.5 284.3688,25.9219 L284.3688,28.6406 Z " fill="#000000"/><text fill="#000000" font-family="sans-serif" font-size="14" lengthAdjust="spacing" textLength="23" x="299.6" y="28.432">List</text><line style="stroke:#181818;stroke-width:0.5;" x1="248.5" x2="343.5" y1="39" y2="39"/><rect fill="none" height="6" style="stroke:#C82930;stroke-width:1.0;" width="6" x="255.5" y="51.034"/><text fill="#000000" font-family="sans-serif" font-size="14" lengthAdjust="spacing" textLength="71" x="267.5" y="57.9659">first: Node</text><rect fill="none" height="6" style="stroke:#C82930;stroke-width:1.0;" width="6" x="255.5" y="70.1019"/><text fill="#000000" font-family="sans-serif" font-size="14" lengthAdjust="spacing" textLength="52" x="267.5" y="77.0339">size: int</text><line style="stroke:#181818;stroke-width:0.5;" x1="248.5" x2="343.5" y1="85.1358" y2="85.1358"/></g><!--class Node--><g id="elem_Node"><rect codeLine="6" fill="#F1F1F1" height="86.1358" id="Node" rx="2.5" ry="2.5" style="stroke:#181818;stroke-width:0.5;" width="111" x="240.5" y="172"/><ellipse cx="274.85" cy="188" fill="#ADD1B2" rx="11" ry="11" style="stroke:#181818;stroke-width:1.0;"/><path d="M277.8188,193.6406 Q277.2406,193.9375 276.6,194.0781 Q275.9594,194.2344 275.2563,194.2344 Q272.7563,194.2344 271.4281,192.5938 Q270.1156,190.9375 270.1156,187.8125 Q270.1156,184.6875 271.4281,183.0313 Q272.7563,181.375 275.2563,181.375 Q275.9594,181.375 276.6,181.5313 Q277.2563,181.6875 277.8188,181.9844 L277.8188,184.7031 Q277.1938,184.125 276.6,183.8594 Q276.0063,183.5781 275.3813,183.5781 Q274.0375,183.5781 273.35,184.6563 Q272.6625,185.7188 272.6625,187.8125 Q272.6625,189.9063 273.35,190.9844 Q274.0375,192.0469 275.3813,192.0469 Q276.0063,192.0469 276.6,191.7813 Q277.1938,191.5 277.8188,190.9219 L277.8188,193.6406 Z " fill="#000000"/><text fill="#000000" font-family="sans-serif" font-size="14" lengthAdjust="spacing" textLength="36" x="293.15" y="193.432">Node</text><line style="stroke:#181818;stroke-width:0.5;" x1="241.5" x2="350.5" y1="204" y2="204"/><rect fill="none" height="6" style="stroke:#C82930;stroke-width:1.0;" width="6" x="248.5" y="216.034"/><text fill="#000000" font-family="sans-serif" font-size="14" lengthAdjust="spacing" textLength="85" x="260.5" y="222.9659">value: String</text><rect fill="none" height="6" style="stroke:#C82930;stroke-width:1.0;" width="6" x="248.5" y="235.1019"/><text fill="#000000" font-family="sans-serif" font-size="14" lengthAdjust="spacing" textLength="73" x="260.5" y="242.0339">next: Node</text><line style="stroke:#181818;stroke-width:0.5;" x1="241.5" x2="350.5" y1="250.1358" y2="250.1358"/></g><!--class FoundNodeList--><g id="elem_FoundNodeList"><rect codeLine="10" fill="#F1F1F1" height="86.1358" id="FoundNodeList" rx="2.5" ry="2.5" style="stroke:#181818;stroke-width:0.5;" width="198" x="7" y="172"/><ellipse cx="51.25" cy="188" fill="#ADD1B2" rx="11" ry="11" style="stroke:#181818;stroke-width:1.0;"/><path d="M54.2188,193.6406 Q53.6406,193.9375 53,194.0781 Q52.3594,194.2344 51.6563,194.2344 Q49.1563,194.2344 47.8281,192.5938 Q46.5156,190.9375 46.5156,187.8125 Q46.5156,184.6875 47.8281,183.0313 Q49.1563,181.375 51.6563,181.375 Q52.3594,181.375 53,181.5313 Q53.6563,181.6875 54.2188,181.9844 L54.2188,184.7031 Q53.5938,184.125 53,183.8594 Q52.4063,183.5781 51.7813,183.5781 Q50.4375,183.5781 49.75,184.6563 Q49.0625,185.7188 49.0625,187.8125 Q49.0625,189.9063 49.75,190.9844 Q50.4375,192.0469 51.7813,192.0469 Q52.4063,192.0469 53,191.7813 Q53.5938,191.5 54.2188,190.9219 L54.2188,193.6406 Z " fill="#000000"/><text fill="#000000" font-family="sans-serif" font-size="14" lengthAdjust="spacing" textLength="101" x="71.75" y="193.432">FoundNodeList</text><line style="stroke:#181818;stroke-width:0.5;" x1="8" x2="204" y1="204" y2="204"/><rect fill="none" height="6" style="stroke:#C82930;stroke-width:1.0;" width="6" x="15" y="216.034"/><text fill="#000000" font-family="sans-serif" font-size="14" lengthAdjust="spacing" textLength="172" x="27" y="222.9659">first: FoundNodeWrapper</text><rect fill="none" height="6" style="stroke:#C82930;stroke-width:1.0;" width="6" x="15" y="235.1019"/><text fill="#000000" font-family="sans-serif" font-size="14" lengthAdjust="spacing" textLength="52" x="27" y="242.0339">size: int</text><line style="stroke:#181818;stroke-width:0.5;" x1="8" x2="204" y1="250.1358" y2="250.1358"/></g><!--class FoundNodeWrapper--><g id="elem_FoundNodeWrapper"><rect codeLine="14" fill="#F1F1F1" height="86.1358" id="FoundNodeWrapper" rx="2.5" ry="2.5" style="stroke:#181818;stroke-width:0.5;" width="200" x="52" y="337"/><ellipse cx="80.95" cy="353" fill="#ADD1B2" rx="11" ry="11" style="stroke:#181818;stroke-width:1.0;"/><path d="M83.9188,358.6406 Q83.3406,358.9375 82.7,359.0781 Q82.0594,359.2344 81.3563,359.2344 Q78.8563,359.2344 77.5281,357.5938 Q76.2156,355.9375 76.2156,352.8125 Q76.2156,349.6875 77.5281,348.0313 Q78.8563,346.375 81.3563,346.375 Q82.0594,346.375 82.7,346.5313 Q83.3563,346.6875 83.9188,346.9844 L83.9188,349.7031 Q83.2938,349.125 82.7,348.8594 Q82.1063,348.5781 81.4813,348.5781 Q80.1375,348.5781 79.45,349.6563 Q78.7625,350.7188 78.7625,352.8125 Q78.7625,354.9063 79.45,355.9844 Q80.1375,357.0469 81.4813,357.0469 Q82.1063,357.0469 82.7,356.7813 Q83.2938,356.5 83.9188,355.9219 L83.9188,358.6406 Z " fill="#000000"/><text fill="#000000" font-family="sans-serif" font-size="14" lengthAdjust="spacing" textLength="137" x="98.05" y="358.432">FoundNodeWrapper</text><line style="stroke:#181818;stroke-width:0.5;" x1="53" x2="251" y1="369" y2="369"/><rect fill="none" height="6" style="stroke:#C82930;stroke-width:1.0;" width="6" x="60" y="381.034"/><text fill="#000000" font-family="sans-serif" font-size="14" lengthAdjust="spacing" textLength="120" x="72" y="387.9659">foundNode: Node</text><rect fill="none" height="6" style="stroke:#C82930;stroke-width:1.0;" width="6" x="60" y="400.1019"/><text fill="#000000" font-family="sans-serif" font-size="14" lengthAdjust="spacing" textLength="174" x="72" y="407.0339">next: FoundNodeWrapper</text><line style="stroke:#181818;stroke-width:0.5;" x1="53" x2="251" y1="415.1358" y2="415.1358"/></g><!--link List to Node--><g id="link_List_Node"><path codeLine="19" d="M296,93.4 C296,117.55 296,141.7 296,165.81 " fill="none" id="List-to-Node" style="stroke:#181818;stroke-width:1.0;"/><polygon fill="#181818" points="296,171.81,300,162.81,296,166.81,292,162.81,296,171.81" style="stroke:#181818;stroke-width:1.0;"/><text fill="#000000" font-family="sans-serif" font-size="13" lengthAdjust="spacing" textLength="51" x="297" y="137.897">contains</text><text fill="#000000" font-family="sans-serif" font-size="13" lengthAdjust="spacing" textLength="7" x="288.4859" y="114.9617">1</text><text fill="#000000" font-family="sans-serif" font-size="13" lengthAdjust="spacing" textLength="20" x="274.3438" y="160.1931">0..*</text></g><!--link Node to Node--><g id="link_Node_Node"><path codeLine="20" d="M351.68,199.63 C370.94,199.47 386.5,204.59 386.5,215 C386.5,225.41 376.9398,230.5798 357.6798,230.4198 " fill="none" id="Node-to-Node" style="stroke:#181818;stroke-width:1.0;"/><polygon fill="#181818" points="351.68,230.37,360.6465,234.4446,356.6798,230.4115,360.7129,226.4449,351.68,230.37" style="stroke:#181818;stroke-width:1.0;"/><text fill="#000000" font-family="sans-serif" font-size="13" lengthAdjust="spacing" textLength="27" x="392.5" y="220.397">next</text></g><!--link FoundNodeList to FoundNodeWrapper--><g id="link_FoundNodeList_FoundNodeWrapper"><path codeLine="21" d="M117.97,258.4 C124.78,282.55 131.6613,306.9253 138.4613,331.0353 " fill="none" id="FoundNodeList-to-FoundNodeWrapper" style="stroke:#181818;stroke-width:1.0;"/><polygon fill="#181818" points="140.09,336.81,141.4968,327.0621,138.7327,331.9977,133.7971,329.2337,140.09,336.81" style="stroke:#181818;stroke-width:1.0;"/><text fill="#000000" font-family="sans-serif" font-size="13" lengthAdjust="spacing" textLength="51" x="131" y="302.897">contains</text><text fill="#000000" font-family="sans-serif" font-size="13" lengthAdjust="spacing" textLength="7" x="112.214" y="279.9617">1</text><text fill="#000000" font-family="sans-serif" font-size="13" lengthAdjust="spacing" textLength="20" x="116.4612" y="325.1931">0..*</text></g><!--link FoundNodeWrapper to FoundNodeWrapper--><g id="link_FoundNodeWrapper_FoundNodeWrapper"><path codeLine="22" d="M252.09,365.21 C272.43,366.82 287,371.75 287,380 C287,388.25 278.4113,392.7066 258.0713,394.3166 " fill="none" id="FoundNodeWrapper-to-FoundNodeWrapper" style="stroke:#181818;stroke-width:1.0;"/><polygon fill="#181818" points="252.09,394.79,261.3776,398.0674,257.0744,394.3955,260.7463,390.0923,252.09,394.79" style="stroke:#181818;stroke-width:1.0;"/><text fill="#000000" font-family="sans-serif" font-size="13" lengthAdjust="spacing" textLength="27" x="293" y="385.397">next</text></g><!--reverse link Node to FoundNodeWrapper--><g id="link_Node_FoundNodeWrapper"><path codeLine="23" d="M254.5681,262.8971 C233.2381,287.0471 210.57,312.7 189.27,336.81 " fill="none" id="Node-backto-FoundNodeWrapper" style="stroke:#181818;stroke-width:1.0;"/><polygon fill="#181818" points="258.54,258.4,249.584,262.4976,255.23,262.1476,255.5801,267.7936,258.54,258.4" style="stroke:#181818;stroke-width:1.0;"/><text fill="#000000" font-family="sans-serif" font-size="13" lengthAdjust="spacing" textLength="62" x="229" y="302.897">references</text></g><!--SRC=[TK-z2i8m4DxlAOwCGekk6HoTnCN1EQHN2PHhIL8HfUzkqvZQFxFb-pzTAUVmR9p7Ds3_ij9OvoLUwe8YuCoB91hsq84Uv85ByeUgsfw-Uclu7Y6cPmf8ZbFTSX6GZQQHkrdLD6J_jIvrOqp2fwFZXbLq1p0i40U1MNP4iS_pdOW7ITGrUsNOmV0F_9S8QJ2_OP6m6ZT9Mt71js6OjupYzhV3KacMM9E33m00]--></g></svg>