<svg xmlns="http://www.w3.org/2000/svg" xmlns:xlink="http://www.w3.org/1999/xlink" contentStyleType="text/css" height="771px" preserveAspectRatio="none" style="width:306px;height:771px;background:#FFFFFF;" version="1.1" viewBox="0 0 306 771" width="306px" zoomAndPan="magnify"><defs/><g><!--class Repositorio--><g id="elem_Repositorio"><rect codeLine="3" fill="#F1F1F1" height="42.2969" id="Repositorio" rx="2.5" ry="2.5" style="stroke:#181818;stroke-width:0.5;" width="85.2422" x="129" y="7"/><text fill="#000000" font-family="sans-serif" font-size="14" lengthAdjust="spacing" textLength="79.2422" x="132" y="24.9951">Repositorio</text><line style="stroke:#181818;stroke-width:0.5;" x1="130" x2="213.2422" y1="33.2969" y2="33.2969"/><line style="stroke:#181818;stroke-width:0.5;" x1="130" x2="213.2422" y1="41.2969" y2="41.2969"/></g><!--class Rama--><g id="elem_Rama"><rect codeLine="4" fill="#F1F1F1" height="42.2969" id="Rama" rx="2.5" ry="2.5" style="stroke:#181818;stroke-width:0.5;" width="46.5234" x="19" y="126"/><text fill="#000000" font-family="sans-serif" font-size="14" lengthAdjust="spacing" textLength="40.5234" x="22" y="143.9951">Rama</text><line style="stroke:#181818;stroke-width:0.5;" x1="20" x2="64.5234" y1="152.2969" y2="152.2969"/><line style="stroke:#181818;stroke-width:0.5;" x1="20" x2="64.5234" y1="160.2969" y2="160.2969"/></g><!--class Commit--><g id="elem_Commit"><rect codeLine="5" fill="#F1F1F1" height="42.2969" id="Commit" rx="2.5" ry="2.5" style="stroke:#181818;stroke-width:0.5;" width="60.9951" x="41" y="451"/><text fill="#000000" font-family="sans-serif" font-size="14" lengthAdjust="spacing" textLength="54.9951" x="44" y="468.9951">Commit</text><line style="stroke:#181818;stroke-width:0.5;" x1="42" x2="100.9951" y1="477.2969" y2="477.2969"/><line style="stroke:#181818;stroke-width:0.5;" x1="42" x2="100.9951" y1="485.2969" y2="485.2969"/></g><!--class Archivo--><g id="elem_Archivo"><rect codeLine="6" fill="#F1F1F1" height="42.2969" id="Archivo" rx="2.5" ry="2.5" style="stroke:#181818;stroke-width:0.5;" width="58.6436" x="183" y="689.5"/><text fill="#000000" font-family="sans-serif" font-size="14" lengthAdjust="spacing" textLength="52.6436" x="186" y="707.4951">Archivo</text><line style="stroke:#181818;stroke-width:0.5;" x1="184" x2="240.6436" y1="715.7969" y2="715.7969"/><line style="stroke:#181818;stroke-width:0.5;" x1="184" x2="240.6436" y1="723.7969" y2="723.7969"/></g><!--class Usuario--><g id="elem_Usuario"><rect codeLine="7" fill="#F1F1F1" height="42.2969" id="Usuario" rx="2.5" ry="2.5" style="stroke:#181818;stroke-width:0.5;" width="59.2041" x="206" y="451"/><text fill="#000000" font-family="sans-serif" font-size="14" lengthAdjust="spacing" textLength="53.2041" x="209" y="468.9951">Usuario</text><line style="stroke:#181818;stroke-width:0.5;" x1="207" x2="264.2041" y1="477.2969" y2="477.2969"/><line style="stroke:#181818;stroke-width:0.5;" x1="207" x2="264.2041" y1="485.2969" y2="485.2969"/></g><!--class PullRequest--><g id="elem_PullRequest"><rect codeLine="8" fill="#F1F1F1" height="42.2969" id="PullRequest" rx="2.5" ry="2.5" style="stroke:#181818;stroke-width:0.5;" width="88.5918" x="94" y="348"/><text fill="#000000" font-family="sans-serif" font-size="14" lengthAdjust="spacing" textLength="82.5918" x="97" y="365.9951">PullRequest</text><line style="stroke:#181818;stroke-width:0.5;" x1="95" x2="181.5918" y1="374.2969" y2="374.2969"/><line style="stroke:#181818;stroke-width:0.5;" x1="95" x2="181.5918" y1="382.2969" y2="382.2969"/></g><!--class ArchivoCambiado--><g id="elem_ArchivoCambiado"><rect codeLine="9" fill="#F1F1F1" height="42.2969" id="ArchivoCambiado" rx="2.5" ry="2.5" style="stroke:#181818;stroke-width:0.5;" width="129.4434" x="7" y="554"/><text fill="#000000" font-family="sans-serif" font-size="14" lengthAdjust="spacing" textLength="123.4434" x="10" y="571.9951">ArchivoCambiado</text><line style="stroke:#181818;stroke-width:0.5;" x1="8" x2="135.4434" y1="580.2969" y2="580.2969"/><line style="stroke:#181818;stroke-width:0.5;" x1="8" x2="135.4434" y1="588.2969" y2="588.2969"/></g><!--class DirectorioTrabajo--><g id="elem_DirectorioTrabajo"><rect codeLine="10" fill="#F1F1F1" height="42.2969" id="DirectorioTrabajo" rx="2.5" ry="2.5" style="stroke:#181818;stroke-width:0.5;" width="127.8096" x="171.5" y="554"/><text fill="#000000" font-family="sans-serif" font-size="14" lengthAdjust="spacing" textLength="121.8096" x="174.5" y="571.9951">DirectorioTrabajo</text><line style="stroke:#181818;stroke-width:0.5;" x1="172.5" x2="298.3096" y1="580.2969" y2="580.2969"/><line style="stroke:#181818;stroke-width:0.5;" x1="172.5" x2="298.3096" y1="588.2969" y2="588.2969"/></g><!--class RepositorioRemoto--><g id="elem_RepositorioRemoto"><rect codeLine="11" fill="#F1F1F1" height="42.2969" id="RepositorioRemoto" rx="2.5" ry="2.5" style="stroke:#181818;stroke-width:0.5;" width="139.8408" x="101.5" y="126"/><text fill="#000000" font-family="sans-serif" font-size="14" lengthAdjust="spacing" textLength="133.8408" x="104.5" y="143.9951">RepositorioRemoto</text><line style="stroke:#181818;stroke-width:0.5;" x1="102.5" x2="240.3408" y1="152.2969" y2="152.2969"/><line style="stroke:#181818;stroke-width:0.5;" x1="102.5" x2="240.3408" y1="160.2969" y2="160.2969"/></g><!--class RamaRemota--><g id="elem_RamaRemota"><rect codeLine="12" fill="#F1F1F1" height="42.2969" id="RamaRemota" rx="2.5" ry="2.5" style="stroke:#181818;stroke-width:0.5;" width="101.1357" x="96" y="245"/><text fill="#000000" font-family="sans-serif" font-size="14" lengthAdjust="spacing" textLength="95.1357" x="99" y="262.9951">RamaRemota</text><line style="stroke:#181818;stroke-width:0.5;" x1="97" x2="196.1357" y1="271.2969" y2="271.2969"/><line style="stroke:#181818;stroke-width:0.5;" x1="97" x2="196.1357" y1="279.2969" y2="279.2969"/></g><!--class EstadoArchivo--><g id="elem_EstadoArchivo"><rect codeLine="13" fill="#F1F1F1" height="107.4844" id="EstadoArchivo" rx="2.5" ry="2.5" style="stroke:#181818;stroke-width:0.5;" width="106.3037" x="18.5" y="657"/><text fill="#000000" font-family="sans-serif" font-size="14" lengthAdjust="spacing" textLength="100.3037" x="21.5" y="674.9951">EstadoArchivo</text><line style="stroke:#181818;stroke-width:0.5;" x1="19.5" x2="123.8037" y1="683.2969" y2="683.2969"/><text fill="#000000" font-family="sans-serif" font-size="14" lengthAdjust="spacing" textLength="44.8096" x="24.5" y="700.292">Nuevo</text><text fill="#000000" font-family="sans-serif" font-size="14" lengthAdjust="spacing" textLength="75.9678" x="24.5" y="716.5889">Modificado</text><text fill="#000000" font-family="sans-serif" font-size="14" lengthAdjust="spacing" textLength="69.0566" x="24.5" y="732.8857">Eliminado</text><text fill="#000000" font-family="sans-serif" font-size="14" lengthAdjust="spacing" textLength="82.2773" x="24.5" y="749.1826">SinCambios</text><line style="stroke:#181818;stroke-width:0.5;" x1="19.5" x2="123.8037" y1="756.4844" y2="756.4844"/></g><!--link Repositorio to Rama--><g id="link_Repositorio_Rama"><path codeLine="20" d="M149.32,49.11 C125.7,70.54 92.9441,100.2488 69.2641,121.7288 " fill="none" id="Repositorio-to-Rama" style="stroke:#181818;stroke-width:1;"/><polygon fill="#181818" points="64.82,125.76,74.1735,122.6759,68.5234,122.4007,68.7986,116.7505,64.82,125.76" style="stroke:#181818;stroke-width:1;"/><text fill="#000000" font-family="sans-serif" font-size="13" lengthAdjust="spacing" textLength="8.271" x="133.9609" y="69.2004">1</text><text fill="#000000" font-family="sans-serif" font-size="13" lengthAdjust="spacing" textLength="6.5" x="64.1435" y="115.081">*</text></g><!--link Repositorio to Usuario--><g id="link_Repositorio_Usuario"><path codeLine="21" d="M214.17,48.12 C249.7,67.28 294.5,100.47 294.5,146 C294.5,146 294.5,146 294.5,370 C294.5,401.48 276.8706,427.3884 259.8006,446.4684 " fill="none" id="Repositorio-to-Usuario" style="stroke:#181818;stroke-width:1;"/><polygon fill="#181818" points="255.8,450.94,264.7819,446.8996,259.1338,447.2136,258.8198,441.5655,255.8,450.94" style="stroke:#181818;stroke-width:1;"/><text fill="#000000" font-family="sans-serif" font-size="13" lengthAdjust="spacing" textLength="8.271" x="218.9842" y="69.3088">1</text><text fill="#000000" font-family="sans-serif" font-size="13" lengthAdjust="spacing" textLength="6.5" x="254.7072" y="439.9513">*</text></g><!--link Repositorio to RepositorioRemoto--><g id="link_Repositorio_RepositorioRemoto"><path codeLine="22" d="M171.5,49.11 C171.5,70.54 171.5,98.28 171.5,119.76 " fill="none" id="Repositorio-to-RepositorioRemoto" style="stroke:#181818;stroke-width:1;"/><polygon fill="#181818" points="171.5,125.76,175.5,116.76,171.5,120.76,167.5,116.76,171.5,125.76" style="stroke:#181818;stroke-width:1;"/><text fill="#000000" font-family="sans-serif" font-size="13" lengthAdjust="spacing" textLength="32.9443" x="172.5" y="92.0669">tiene</text><text fill="#000000" font-family="sans-serif" font-size="13" lengthAdjust="spacing" textLength="8.271" x="162.4828" y="115.081">1</text></g><!--link Rama to Commit--><g id="link_Rama_Commit"><path codeLine="23" d="M42.31,168.25 C42.3,181.55 42.53,199.33 43.5,215 C48.97,303.13 61.8365,401.7068 67.8165,444.8668 " fill="none" id="Rama-to-Commit" style="stroke:#181818;stroke-width:1;"/><polygon fill="#181818" points="68.64,450.81,71.367,441.3462,67.9538,445.8573,63.4427,442.4441,68.64,450.81" style="stroke:#181818;stroke-width:1;"/><text fill="#000000" font-family="sans-serif" font-size="13" lengthAdjust="spacing" textLength="8.271" x="33.2367" y="188.3798">1</text><text fill="#000000" font-family="sans-serif" font-size="13" lengthAdjust="spacing" textLength="6.5" x="61.0629" y="439.7848">*</text></g><!--link Commit to ArchivoCambiado--><g id="link_Commit_ArchivoCambiado"><path codeLine="24" d="M71.5,493.44 C71.5,511.08 71.5,530.41 71.5,547.94 " fill="none" id="Commit-to-ArchivoCambiado" style="stroke:#181818;stroke-width:1;"/><polygon fill="#181818" points="71.5,553.94,75.5,544.94,71.5,548.94,67.5,544.94,71.5,553.94" style="stroke:#181818;stroke-width:1;"/><text fill="#000000" font-family="sans-serif" font-size="13" lengthAdjust="spacing" textLength="8.271" x="62.4621" y="513.2625">1</text><text fill="#000000" font-family="sans-serif" font-size="13" lengthAdjust="spacing" textLength="6.5" x="64.6642" y="542.9513">*</text></g><!--link Rama to PullRequest--><g id="link_Rama_PullRequest"><path codeLine="25" d="M45.24,168.17 C49.56,195.98 59.49,247.18 78.5,287 C89.28,309.58 102.8427,327.6481 116.1527,343.2281 " fill="none" id="Rama-to-PullRequest" style="stroke:#181818;stroke-width:1;"/><polygon fill="#181818" points="120.05,347.79,117.2454,338.3489,116.8023,343.9884,111.1628,343.5453,120.05,347.79" style="stroke:#181818;stroke-width:1;"/><text fill="#000000" font-family="sans-serif" font-size="13" lengthAdjust="spacing" textLength="8.271" x="47.2408" y="188.2773">1</text><text fill="#000000" font-family="sans-serif" font-size="13" lengthAdjust="spacing" textLength="6.5" x="108.1449" y="336.7591">*</text></g><!--link ArchivoCambiado to Archivo--><g id="link_ArchivoCambiado_Archivo"><path codeLine="26" d="M92.91,596.28 C119.57,621.51 160.4524,660.2255 186.9924,685.3455 " fill="none" id="ArchivoCambiado-to-Archivo" style="stroke:#181818;stroke-width:1;"/><polygon fill="#181818" points="191.35,689.47,187.5632,680.3782,187.7187,686.0329,182.0639,686.1884,191.35,689.47" style="stroke:#181818;stroke-width:1;"/><text fill="#000000" font-family="sans-serif" font-size="13" lengthAdjust="spacing" textLength="8.271" x="89.7823" y="616.4182">1</text><text fill="#000000" font-family="sans-serif" font-size="13" lengthAdjust="spacing" textLength="8.271" x="176.3648" y="678.4898">1</text></g><!--link ArchivoCambiado to EstadoArchivo--><g id="link_ArchivoCambiado_EstadoArchivo"><path codeLine="27" d="M71.5,596.28 C71.5,612.4 71.5,629.7 71.5,650.97 " fill="none" id="ArchivoCambiado-to-EstadoArchivo" style="stroke:#181818;stroke-width:1;"/><polygon fill="#181818" points="71.5,656.97,75.5,647.97,71.5,651.97,67.5,647.97,71.5,656.97" style="stroke:#181818;stroke-width:1;"/></g><!--link PullRequest to Commit--><g id="link_PullRequest_Commit"><path codeLine="28" d="M124.94,390.44 C113.24,408.08 99.757,428.4103 88.127,445.9403 " fill="none" id="PullRequest-to-Commit" style="stroke:#181818;stroke-width:1;"/><polygon fill="#181818" points="84.81,450.94,93.1187,445.6517,87.5742,446.7735,86.4523,441.229,84.81,450.94" style="stroke:#181818;stroke-width:1;"/><text fill="#000000" font-family="sans-serif" font-size="13" lengthAdjust="spacing" textLength="8.271" x="112.312" y="410.2625">1</text><text fill="#000000" font-family="sans-serif" font-size="13" lengthAdjust="spacing" textLength="6.5" x="81.7807" y="439.9513">*</text></g><!--link PullRequest to Usuario--><g id="link_PullRequest_Usuario"><path codeLine="29" d="M158.13,390.44 C175.07,408.08 195.2447,429.0818 212.0747,446.6118 " fill="none" id="PullRequest-to-Usuario" style="stroke:#181818;stroke-width:1;"/><polygon fill="#181818" points="216.23,450.94,212.8824,441.6775,212.7672,447.3332,207.1115,447.218,216.23,450.94" style="stroke:#181818;stroke-width:1;"/><text fill="#000000" font-family="sans-serif" font-size="13" lengthAdjust="spacing" textLength="8.271" x="154.4218" y="410.2625">1</text><text fill="#000000" font-family="sans-serif" font-size="13" lengthAdjust="spacing" textLength="8.271" x="201.6947" y="439.9513">1</text></g><!--link DirectorioTrabajo to Archivo--><g id="link_DirectorioTrabajo_Archivo"><path codeLine="30" d="M232.01,596.28 C227.66,621.51 221.2992,658.4372 216.9692,683.5572 " fill="none" id="DirectorioTrabajo-to-Archivo" style="stroke:#181818;stroke-width:1;"/><polygon fill="#181818" points="215.95,689.47,221.4207,681.2803,216.7993,684.5427,213.5369,679.9213,215.95,689.47" style="stroke:#181818;stroke-width:1;"/><text fill="#000000" font-family="sans-serif" font-size="13" lengthAdjust="spacing" textLength="8.271" x="221.9683" y="616.4182">1</text><text fill="#000000" font-family="sans-serif" font-size="13" lengthAdjust="spacing" textLength="6.5" x="210.197" y="678.4898">*</text></g><!--link RepositorioRemoto to RamaRemota--><g id="link_RepositorioRemoto_RamaRemota"><path codeLine="31" d="M172.52,168.2 C172.73,181.63 172.1,199.58 168.5,215 C166.13,225.16 164.3224,230.409 160.0824,239.259 " fill="none" id="RepositorioRemoto-to-RamaRemota" style="stroke:#181818;stroke-width:1;"/><polygon fill="#181818" points="157.49,244.67,164.986,238.2817,159.6503,240.1608,157.7713,234.8252,157.49,244.67" style="stroke:#181818;stroke-width:1;"/><text fill="#000000" font-family="sans-serif" font-size="13" lengthAdjust="spacing" textLength="8.271" x="163.7424" y="188.3157">1</text><text fill="#000000" font-family="sans-serif" font-size="13" lengthAdjust="spacing" textLength="6.5" x="153.6863" y="233.9668">*</text></g><!--link Rama to RamaRemota--><g id="link_Rama_RamaRemota"><path codeLine="32" d="M56.42,168.02 C66.24,181.7 80.01,200 93.5,215 C102.81,225.35 109.4776,231.975 119.1076,240.805 " fill="none" id="Rama-to-RamaRemota" style="stroke:#181818;stroke-width:1;"/><polygon fill="#181818" points="123.53,244.86,119.5998,235.8293,119.8447,241.4809,114.1932,241.7258,123.53,244.86" style="stroke:#181818;stroke-width:1;"/><text fill="#000000" font-family="sans-serif" font-size="13" lengthAdjust="spacing" textLength="65.7109" x="94.5" y="211.0669">sincroniza</text></g><!--link RamaRemota to PullRequest--><g id="link_RamaRemota_PullRequest"><path codeLine="33" d="M144.88,287.44 C143.48,305.08 141.9543,324.4288 140.5643,341.9588 " fill="none" id="RamaRemota-to-PullRequest" style="stroke:#181818;stroke-width:1;"/><polygon fill="#181818" points="140.09,347.94,144.7889,339.2843,140.4852,342.9556,136.8139,338.652,140.09,347.94" style="stroke:#181818;stroke-width:1;"/><text fill="#000000" font-family="sans-serif" font-size="13" lengthAdjust="spacing" textLength="8.271" x="135.3878" y="307.2625">1</text><text fill="#000000" font-family="sans-serif" font-size="13" lengthAdjust="spacing" textLength="6.5" x="133.8212" y="336.9513">*</text></g><!--link Usuario to DirectorioTrabajo--><g id="link_Usuario_DirectorioTrabajo"><path codeLine="34" d="M235.5,493.44 C235.5,511.08 235.5,530.41 235.5,547.94 " fill="none" id="Usuario-to-DirectorioTrabajo" style="stroke:#181818;stroke-width:1;"/><polygon fill="#181818" points="235.5,553.94,239.5,544.94,235.5,548.94,231.5,544.94,235.5,553.94" style="stroke:#181818;stroke-width:1;"/><text fill="#000000" font-family="sans-serif" font-size="13" lengthAdjust="spacing" textLength="8.271" x="226.434" y="513.2625">1</text><text fill="#000000" font-family="sans-serif" font-size="13" lengthAdjust="spacing" textLength="8.271" x="226.4399" y="542.9513">1</text></g><!--SRC=[TL7BRiCW4Bpp5IiVA-NWQm-LgZJ7LfNRV031MsKhmwPWScZLVozWN3zmkC3k3iFCSAOMGP5L7O8GgfFEGOCNTjIp9OQn9RNCnprhJNqk7gqwqvLpTNHUXakvUlLTr-2NHxT2xwK-aMn7t1DPLEcrTojFyfDB6Grgxdcc9JMaGECr75mVo38t_0W8wyLZK1LFpzpI1wduN2mF7MaoO_L69ebX9tw5cFkkwWfskmUexgh1_AtXw7a-JxE0AHp0FVI41aMaND3aL8TjCLc7LboTvxm2JxZwdwZ0nFaYGp5Zt1AvEQwdA8eFtV8Zod3McUTFJePZV-g571qPPTdGzm38_LkvP6aBkONCFm00]--></g></svg>