<svg xmlns="http://www.w3.org/2000/svg" xmlns:xlink="http://www.w3.org/1999/xlink" contentStyleType="text/css" height="605px" preserveAspectRatio="none" style="width:507px;height:605px;background:#FFFFFF;" version="1.1" viewBox="0 0 507 605" width="507px" zoomAndPan="magnify"><defs/><g><g id="elem_eda2425"><rect fill="#F1F1F1" height="36.2969" style="stroke:#181818;stroke-width:0.5;" width="75.708" x="344" y="7"/><text fill="#000000" font-family="sans-serif" font-size="14" lengthAdjust="spacing" textLength="61.708" x="351" y="21.9951">eda2425</text><line style="stroke:#181818;stroke-width:0.5;" x1="345" x2="418.708" y1="27.2969" y2="27.2969"/></g><g id="elem_ramaReto005"><rect fill="#F1F1F1" height="36.2969" style="stroke:#181818;stroke-width:0.5;" width="109.6689" x="162" y="104"/><text fill="#000000" font-family="sans-serif" font-size="14" lengthAdjust="spacing" textLength="95.6689" x="169" y="118.9951">ramaReto005</text><line style="stroke:#181818;stroke-width:0.5;" x1="163" x2="270.6689" y1="124.2969" y2="124.2969"/></g><g id="elem_commit1"><rect fill="#F1F1F1" height="36.2969" style="stroke:#181818;stroke-width:0.5;" width="75.8242" x="86" y="330"/><text fill="#000000" font-family="sans-serif" font-size="14" lengthAdjust="spacing" textLength="61.8242" x="93" y="344.9951">commit1</text><line style="stroke:#181818;stroke-width:0.5;" x1="87" x2="160.8242" y1="350.2969" y2="350.2969"/></g><g id="elem_diagrama"><rect fill="#F1F1F1" height="36.2969" style="stroke:#181818;stroke-width:0.5;" width="80.7939" x="148.5" y="559"/><text fill="#000000" font-family="sans-serif" font-size="14" lengthAdjust="spacing" textLength="66.7939" x="155.5" y="573.9951">diagrama</text><line style="stroke:#181818;stroke-width:0.5;" x1="149.5" x2="228.2939" y1="579.2969" y2="579.2969"/></g><g id="elem_celiabecerril"><rect fill="#F1F1F1" height="36.2969" style="stroke:#181818;stroke-width:0.5;" width="99.7705" x="320" y="330"/><text fill="#000000" font-family="sans-serif" font-size="14" lengthAdjust="spacing" textLength="85.7705" x="327" y="344.9951">celiabecerril</text><line style="stroke:#181818;stroke-width:0.5;" x1="321" x2="418.7705" y1="350.2969" y2="350.2969"/></g><g id="elem_reto005Celia"><rect fill="#F1F1F1" height="36.2969" style="stroke:#181818;stroke-width:0.5;" width="103.8926" x="154" y="217"/><text fill="#000000" font-family="sans-serif" font-size="14" lengthAdjust="spacing" textLength="89.8926" x="161" y="231.9951">reto005Celia</text><line style="stroke:#181818;stroke-width:0.5;" x1="155" x2="256.8926" y1="237.2969" y2="237.2969"/></g><g id="elem_diagramaCambiado"><rect fill="#F1F1F1" height="36.2969" style="stroke:#181818;stroke-width:0.5;" width="151.5938" x="48" y="443"/><text fill="#000000" font-family="sans-serif" font-size="14" lengthAdjust="spacing" textLength="137.5938" x="55" y="457.9951">diagramaCambiado</text><line style="stroke:#181818;stroke-width:0.5;" x1="49" x2="198.5938" y1="463.2969" y2="463.2969"/></g><g id="elem_directorioReto005"><rect fill="#F1F1F1" height="36.2969" style="stroke:#181818;stroke-width:0.5;" width="140.2256" x="300" y="443"/><text fill="#000000" font-family="sans-serif" font-size="14" lengthAdjust="spacing" textLength="126.2256" x="307" y="457.9951">directorioReto005</text><line style="stroke:#181818;stroke-width:0.5;" x1="301" x2="439.2256" y1="463.2969" y2="463.2969"/></g><g id="elem_eda2425Remoto"><rect fill="#F1F1F1" height="36.2969" style="stroke:#181818;stroke-width:0.5;" width="130.3066" x="317" y="104"/><text fill="#000000" font-family="sans-serif" font-size="14" lengthAdjust="spacing" textLength="116.3066" x="324" y="118.9951">eda2425Remoto</text><line style="stroke:#181818;stroke-width:0.5;" x1="318" x2="446.3066" y1="124.2969" y2="124.2969"/></g><g id="elem_ramaReto005Remota"><rect fill="#F1F1F1" height="36.2969" style="stroke:#181818;stroke-width:0.5;" width="164.2813" x="293" y="217"/><text fill="#000000" font-family="sans-serif" font-size="14" lengthAdjust="spacing" textLength="150.2813" x="300" y="231.9951">ramaReto005Remota</text><line style="stroke:#181818;stroke-width:0.5;" x1="294" x2="456.2813" y1="237.2969" y2="237.2969"/></g><!--class estadoArchivo--><g id="elem_estadoArchivo"><rect fill="#F1F1F1" height="42.2969" id="estadoArchivo" rx="2.5" ry="2.5" style="stroke:#181818;stroke-width:0.5;" width="106.0713" x="7" y="556"/><text fill="#000000" font-family="sans-serif" font-size="14" lengthAdjust="spacing" textLength="100.0713" x="10" y="573.9951">estadoArchivo</text><line style="stroke:#181818;stroke-width:0.5;" x1="8" x2="112.0713" y1="582.2969" y2="582.2969"/><line style="stroke:#181818;stroke-width:0.5;" x1="8" x2="112.0713" y1="590.2969" y2="590.2969"/></g><g id="elem_GMN27"><path d="M264.5,564.5 L264.5,589.6328 L465.272,589.6328 L465.272,574.5 L455.272,564.5 L264.5,564.5 " fill="#FEFFDD" style="stroke:#181818;stroke-width:0.5;"/><path d="M455.272,564.5 L455.272,574.5 L465.272,574.5 L455.272,564.5 " fill="#FEFFDD" style="stroke:#181818;stroke-width:1;"/><text fill="#000000" font-family="sans-serif" font-size="13" lengthAdjust="spacing" textLength="179.772" x="270.5" y="581.5669">EstadoArchivo "Modificado"</text></g><!--link eda2425 to ramaReto005--><g id="link_eda2425_ramaReto005"><path codeLine="14" d="M352.12,43.2 C322.22,60.42 281.6797,83.7561 251.8597,100.9261 " fill="none" id="eda2425-to-ramaReto005" style="stroke:#181818;stroke-width:1;"/><polygon fill="#181818" points="246.66,103.92,256.4554,102.8956,250.9931,101.4251,252.4636,95.9627,246.66,103.92" style="stroke:#181818;stroke-width:1;"/></g><!--link eda2425 to celiabecerril--><g id="link_eda2425_celiabecerril"><path codeLine="15" d="M408.3,43.09 C427.3,57.02 451.71,78.52 464,104 C492.83,163.78 500.94,192.34 474,253 C458.99,286.81 430.178,310.3513 405.148,326.5413 " fill="none" id="eda2425-to-celiabecerril" style="stroke:#181818;stroke-width:1;"/><polygon fill="#181818" points="400.11,329.8,409.8394,328.2706,404.3083,327.0844,405.4945,321.5533,400.11,329.8" style="stroke:#181818;stroke-width:1;"/></g><!--link eda2425 to eda2425Remoto--><g id="link_eda2425_eda2425Remoto"><path codeLine="16" d="M382,43.42 C382,60.57 382,80.58 382,97.69 " fill="none" id="eda2425-to-eda2425Remoto" style="stroke:#181818;stroke-width:1;"/><polygon fill="#181818" points="382,103.69,386,94.69,382,98.69,378,94.69,382,103.69" style="stroke:#181818;stroke-width:1;"/></g><!--link eda2425Remoto to ramaReto005Remota--><g id="link_eda2425Remoto_ramaReto005Remota"><path codeLine="17" d="M380.91,140.34 C379.59,161.2 377.7771,189.9919 376.4671,210.7919 " fill="none" id="eda2425Remoto-to-ramaReto005Remota" style="stroke:#181818;stroke-width:1;"/><polygon fill="#181818" points="376.09,216.78,380.6478,208.0492,376.4043,211.7899,372.6636,207.5464,376.09,216.78" style="stroke:#181818;stroke-width:1;"/></g><!--link ramaReto005 to commit1--><g id="link_ramaReto005_commit1"><path codeLine="18" d="M196.33,140.01 C177.04,157.21 149.31,185.67 136,217 C119.96,254.76 120.1897,298.124 121.9497,323.804 " fill="none" id="ramaReto005-to-commit1" style="stroke:#181818;stroke-width:1;"/><polygon fill="#181818" points="122.36,329.79,125.7353,320.5376,122.0181,324.8017,117.754,321.0846,122.36,329.79" style="stroke:#181818;stroke-width:1;"/></g><!--link ramaReto005 to reto005Celia--><g id="link_ramaReto005_reto005Celia"><path codeLine="19" d="M215.28,140.34 C213.21,161.2 210.3613,190.0092 208.3013,210.8092 " fill="none" id="ramaReto005-to-reto005Celia" style="stroke:#181818;stroke-width:1;"/><polygon fill="#181818" points="207.71,216.78,212.5775,208.218,208.2028,211.8043,204.6165,207.4296,207.71,216.78" style="stroke:#181818;stroke-width:1;"/></g><!--link commit1 to diagramaCambiado--><g id="link_commit1_diagramaCambiado"><path codeLine="20" d="M124,366.34 C124,387.2 124,415.98 124,436.78 " fill="none" id="commit1-to-diagramaCambiado" style="stroke:#181818;stroke-width:1;"/><polygon fill="#181818" points="124,442.78,128,433.78,124,437.78,120,433.78,124,442.78" style="stroke:#181818;stroke-width:1;"/><text fill="#000000" font-family="sans-serif" font-size="13" lengthAdjust="spacing" textLength="126.0962" x="125" y="409.0669">registro del cambio</text></g><!--link diagramaCambiado to diagrama--><g id="link_diagramaCambiado_diagrama"><path codeLine="21" d="M133.87,479.31 C146.16,500.87 164.0492,532.2271 176.2792,553.6871 " fill="none" id="diagramaCambiado-to-diagrama" style="stroke:#181818;stroke-width:1;"/><polygon fill="#181818" points="179.25,558.9,178.269,549.1001,176.7743,554.5559,171.3185,553.0612,179.25,558.9" style="stroke:#181818;stroke-width:1;"/><text fill="#000000" font-family="sans-serif" font-size="13" lengthAdjust="spacing" textLength="139.8706" x="162" y="522.0669">modifica este archivo</text></g><!--link diagramaCambiado to estadoArchivo--><g id="link_diagramaCambiado_estadoArchivo"><path codeLine="22" d="M86.09,479.15 C74.26,486.54 62.6,496.42 56,509 C48.48,523.34 48.9417,536.0158 52.1817,549.9558 " fill="none" id="diagramaCambiado-to-estadoArchivo" style="stroke:#181818;stroke-width:1;"/><polygon fill="#181818" points="53.54,555.8,55.3986,546.1281,52.408,550.9298,47.6063,547.9392,53.54,555.8" style="stroke:#181818;stroke-width:1;"/><text fill="#000000" font-family="sans-serif" font-size="13" lengthAdjust="spacing" textLength="88.2007" x="57" y="522.0669">estado actual</text></g><!--link reto005Celia to commit1--><g id="link_reto005Celia_commit1"><path codeLine="23" d="M193.19,253.34 C177.78,274.2 155.6558,304.1545 140.2858,324.9545 " fill="none" id="reto005Celia-to-commit1" style="stroke:#181818;stroke-width:1;"/><polygon fill="#181818" points="136.72,329.78,145.2856,324.9189,139.6915,325.7588,138.8516,320.1646,136.72,329.78" style="stroke:#181818;stroke-width:1;"/></g><!--link celiabecerril to directorioReto005--><g id="link_celiabecerril_directorioReto005"><path codeLine="24" d="M370,366.34 C370,387.2 370,415.98 370,436.78 " fill="none" id="celiabecerril-to-directorioReto005" style="stroke:#181818;stroke-width:1;"/><polygon fill="#181818" points="370,442.78,374,433.78,370,437.78,366,433.78,370,442.78" style="stroke:#181818;stroke-width:1;"/></g><!--link reto005Celia to celiabecerril--><g id="link_reto005Celia_celiabecerril"><path codeLine="25" d="M231.27,253.1 C262.08,273.96 308.9009,305.6473 339.7409,326.5173 " fill="none" id="reto005Celia-to-celiabecerril" style="stroke:#181818;stroke-width:1;"/><polygon fill="#181818" points="344.71,329.88,339.4981,321.5232,340.5691,327.0777,335.0145,328.1487,344.71,329.88" style="stroke:#181818;stroke-width:1;"/><text fill="#000000" font-family="sans-serif" font-size="13" lengthAdjust="spacing" textLength="70.3447" x="299" y="296.0669">creado por</text></g><!--link directorioReto005 to diagrama--><g id="link_directorioReto005_diagrama"><path codeLine="26" d="M357.32,479.15 C346.16,493.27 328.79,513.01 310,526 C296.4,535.4 264.7892,548.1666 235.1892,559.2466 " fill="none" id="directorioReto005-to-diagrama" style="stroke:#181818;stroke-width:1;"/><polygon fill="#181818" points="229.57,561.35,239.4011,561.941,234.2527,559.5972,236.5966,554.4487,229.57,561.35" style="stroke:#181818;stroke-width:1;"/><text fill="#000000" font-family="sans-serif" font-size="13" lengthAdjust="spacing" textLength="156.1841" x="332" y="522.0669">almacenado localmente</text></g><!--link ramaReto005 to ramaReto005Remota--><g id="link_ramaReto005_ramaReto005Remota"><path codeLine="27" d="M229.8,140.2 C240.86,154.16 257.87,173.65 276,187 C292.24,198.96 306.5198,206.6497 324.0998,214.3997 " fill="none" id="ramaReto005-to-ramaReto005Remota" style="stroke:#181818;stroke-width:1;"/><polygon fill="#181818" points="329.59,216.82,322.9683,209.5294,325.0148,214.8031,319.7412,216.8497,329.59,216.82" style="stroke:#181818;stroke-width:1;"/><text fill="#000000" font-family="sans-serif" font-size="13" lengthAdjust="spacing" textLength="93.1836" x="277" y="183.0669">sincroniza con</text></g><!--link estadoArchivo to GMN27--><g id="link_estadoArchivo_GMN27"><path d="M83.13,555.78 C99.91,541.9 123.88,525.01 148.5,517.5 C220.83,495.44 307.87,540.99 345.78,564.34 " fill="none" id="estadoArchivo-GMN27" style="stroke:#181818;stroke-width:1;stroke-dasharray:7.0,7.0;"/></g><!--SRC=[TL4nRiCm3Dpr2a5xW3Hebmu5Yg1Zb_o0eHY7XMGMZDAXhwyKAwubjvFDEnvvF9tPaqLM36IC73y8aoKFkyVTqxrKY72W9Dlj3A74oEdXNdg6eNJDD0M68o6fSfZ7J2FsXUk5UuX71Y-_kEQFA4ktk5exK9GaVnYy4M1CxRERpKlZVuctBfTCkwMf-ebruGAPPjU0Uhm9eJRTY3u9-soTqi2Nf68z1Ok546TMZKjrKKNnV684IvT45XJF_FMVBhVatzUffuWdm0AcAmHdbdQNTrdJX5Szz6-sLZUYl0wLohfFqMAmqwykWn01QIoA89Wh6XEvTSRzwnJjXKTK6VaRyWsZCyQCakDH7ix9oickedXhQlTUK_NYVW00]--></g></svg>