<?xml version="1.0" encoding="us-ascii" standalone="no"?><svg xmlns="http://www.w3.org/2000/svg" xmlns:xlink="http://www.w3.org/1999/xlink" contentStyleType="text/css" height="828px" preserveAspectRatio="none" style="width:410px;height:828px;background:#FFFFFF;" version="1.1" viewBox="0 0 410 828" width="410px" zoomAndPan="magnify"><defs/><g><!--class Repositorio--><g id="elem_Repositorio"><rect codeLine="16" fill="#F1F1F1" height="100.8281" id="Repositorio" rx="2.5" ry="2.5" style="stroke:#181818;stroke-width:0.5;" width="154" x="53.5" y="7"/><ellipse cx="91" cy="23" fill="#ADD1B2" rx="11" ry="11" style="stroke:#181818;stroke-width:1.0;"/><path d="M93.7656,18.875 Q93.9219,18.6563 94.1094,18.5469 Q94.2969,18.4375 94.5156,18.4375 Q94.8906,18.4375 95.125,18.7031 Q95.3594,18.9531 95.3594,19.5625 L95.3594,21.0156 Q95.3594,21.625 95.125,21.8906 Q94.8906,22.1563 94.5156,22.1563 Q94.1719,22.1563 93.9688,21.9531 Q93.7656,21.7656 93.6563,21.25 Q93.6094,20.8906 93.4219,20.7031 Q93.0938,20.3281 92.4844,20.1094 Q91.875,19.8906 91.25,19.8906 Q90.4844,19.8906 89.8438,20.2188 Q89.2188,20.5469 88.7188,21.2969 Q88.2344,22.0469 88.2344,23.0781 L88.2344,24.1719 Q88.2344,25.4063 89.125,26.2344 Q90.0156,27.0469 91.6094,27.0469 Q92.5469,27.0469 93.2031,26.7969 Q93.5938,26.6406 94.0156,26.2031 Q94.2813,25.9375 94.4219,25.8594 Q94.5781,25.7813 94.7813,25.7813 Q95.1094,25.7813 95.3594,26.0469 Q95.625,26.2969 95.625,26.6406 Q95.625,26.9844 95.2813,27.3906 Q94.7813,27.9688 93.9844,28.2969 Q92.9063,28.75 91.6094,28.75 Q90.0938,28.75 88.8906,28.125 Q87.9063,27.625 87.2188,26.5625 Q86.5313,25.4844 86.5313,24.2031 L86.5313,23.0469 Q86.5313,21.7188 87.1406,20.5781 Q87.7656,19.4219 88.8594,18.8125 Q89.9531,18.1875 91.1875,18.1875 Q91.9219,18.1875 92.5625,18.3594 Q93.2188,18.5156 93.7656,18.875 Z " fill="#000000"/><text fill="#000000" font-family="sans-serif" font-size="14" lengthAdjust="spacing" textLength="72" x="110" y="28.7285">Repositorio</text><line style="stroke:#181818;stroke-width:0.5;" x1="54.5" x2="206.5" y1="39" y2="39"/><ellipse cx="64.5" cy="53.3047" fill="none" rx="3" ry="3" style="stroke:#038048;stroke-width:1.0;"/><text fill="#000000" font-family="sans-serif" font-size="14" lengthAdjust="spacing" textLength="98" x="73.5" y="57.5332">Nombre : String</text><ellipse cx="64.5" cy="70.9141" fill="none" rx="3" ry="3" style="stroke:#038048;stroke-width:1.0;"/><text fill="#000000" font-family="sans-serif" font-size="14" lengthAdjust="spacing" textLength="119" x="73.5" y="75.1426">Descripci&#243;n: String</text><ellipse cx="64.5" cy="88.5234" fill="none" rx="3" ry="3" style="stroke:#038048;stroke-width:1.0;"/><text fill="#000000" font-family="sans-serif" font-size="14" lengthAdjust="spacing" textLength="128" x="73.5" y="92.752">Acceso: TipoAcceso</text><line style="stroke:#181818;stroke-width:0.5;" x1="54.5" x2="206.5" y1="99.8281" y2="99.8281"/></g><!--class Usuario--><g id="elem_Usuario"><rect codeLine="30" fill="#F1F1F1" height="83.2188" id="Usuario" rx="2.5" ry="2.5" style="stroke:#181818;stroke-width:0.5;" width="120" x="49.5" y="503"/><ellipse cx="82.5" cy="519" fill="#ADD1B2" rx="11" ry="11" style="stroke:#181818;stroke-width:1.0;"/><path d="M85.2656,514.875 Q85.4219,514.6563 85.6094,514.5469 Q85.7969,514.4375 86.0156,514.4375 Q86.3906,514.4375 86.625,514.7031 Q86.8594,514.9531 86.8594,515.5625 L86.8594,517.0156 Q86.8594,517.625 86.625,517.8906 Q86.3906,518.1563 86.0156,518.1563 Q85.6719,518.1563 85.4688,517.9531 Q85.2656,517.7656 85.1563,517.25 Q85.1094,516.8906 84.9219,516.7031 Q84.5938,516.3281 83.9844,516.1094 Q83.375,515.8906 82.75,515.8906 Q81.9844,515.8906 81.3438,516.2188 Q80.7188,516.5469 80.2188,517.2969 Q79.7344,518.0469 79.7344,519.0781 L79.7344,520.1719 Q79.7344,521.4063 80.625,522.2344 Q81.5156,523.0469 83.1094,523.0469 Q84.0469,523.0469 84.7031,522.7969 Q85.0938,522.6406 85.5156,522.2031 Q85.7813,521.9375 85.9219,521.8594 Q86.0781,521.7813 86.2813,521.7813 Q86.6094,521.7813 86.8594,522.0469 Q87.125,522.2969 87.125,522.6406 Q87.125,522.9844 86.7813,523.3906 Q86.2813,523.9688 85.4844,524.2969 Q84.4063,524.75 83.1094,524.75 Q81.5938,524.75 80.3906,524.125 Q79.4063,523.625 78.7188,522.5625 Q78.0313,521.4844 78.0313,520.2031 L78.0313,519.0469 Q78.0313,517.7188 78.6406,516.5781 Q79.2656,515.4219 80.3594,514.8125 Q81.4531,514.1875 82.6875,514.1875 Q83.4219,514.1875 84.0625,514.3594 Q84.7188,514.5156 85.2656,514.875 Z " fill="#000000"/><text fill="#000000" font-family="sans-serif" font-size="14" lengthAdjust="spacing" textLength="48" x="100.5" y="524.7285">Usuario</text><line style="stroke:#181818;stroke-width:0.5;" x1="50.5" x2="168.5" y1="535" y2="535"/><ellipse cx="60.5" cy="549.3047" fill="none" rx="3" ry="3" style="stroke:#038048;stroke-width:1.0;"/><text fill="#000000" font-family="sans-serif" font-size="14" lengthAdjust="spacing" textLength="94" x="69.5" y="553.5332">Nombre: String</text><ellipse cx="60.5" cy="566.9141" fill="none" rx="3" ry="3" style="stroke:#038048;stroke-width:1.0;"/><text fill="#000000" font-family="sans-serif" font-size="14" lengthAdjust="spacing" textLength="89" x="69.5" y="571.1426">Correo: String</text><line style="stroke:#181818;stroke-width:0.5;" x1="50.5" x2="168.5" y1="578.2188" y2="578.2188"/></g><!--class Rama--><g id="elem_Rama"><rect codeLine="40" fill="#F1F1F1" height="48" id="Rama" rx="2.5" ry="2.5" style="stroke:#181818;stroke-width:0.5;" width="69" x="327" y="186"/><ellipse cx="342" cy="202" fill="#ADD1B2" rx="11" ry="11" style="stroke:#181818;stroke-width:1.0;"/><path d="M344.7656,197.875 Q344.9219,197.6563 345.1094,197.5469 Q345.2969,197.4375 345.5156,197.4375 Q345.8906,197.4375 346.125,197.7031 Q346.3594,197.9531 346.3594,198.5625 L346.3594,200.0156 Q346.3594,200.625 346.125,200.8906 Q345.8906,201.1563 345.5156,201.1563 Q345.1719,201.1563 344.9688,200.9531 Q344.7656,200.7656 344.6563,200.25 Q344.6094,199.8906 344.4219,199.7031 Q344.0938,199.3281 343.4844,199.1094 Q342.875,198.8906 342.25,198.8906 Q341.4844,198.8906 340.8438,199.2188 Q340.2188,199.5469 339.7188,200.2969 Q339.2344,201.0469 339.2344,202.0781 L339.2344,203.1719 Q339.2344,204.4063 340.125,205.2344 Q341.0156,206.0469 342.6094,206.0469 Q343.5469,206.0469 344.2031,205.7969 Q344.5938,205.6406 345.0156,205.2031 Q345.2813,204.9375 345.4219,204.8594 Q345.5781,204.7813 345.7813,204.7813 Q346.1094,204.7813 346.3594,205.0469 Q346.625,205.2969 346.625,205.6406 Q346.625,205.9844 346.2813,206.3906 Q345.7813,206.9688 344.9844,207.2969 Q343.9063,207.75 342.6094,207.75 Q341.0938,207.75 339.8906,207.125 Q338.9063,206.625 338.2188,205.5625 Q337.5313,204.4844 337.5313,203.2031 L337.5313,202.0469 Q337.5313,200.7188 338.1406,199.5781 Q338.7656,198.4219 339.8594,197.8125 Q340.9531,197.1875 342.1875,197.1875 Q342.9219,197.1875 343.5625,197.3594 Q344.2188,197.5156 344.7656,197.875 Z " fill="#000000"/><text fill="#000000" font-family="sans-serif" font-size="14" lengthAdjust="spacing" textLength="37" x="356" y="207.7285">Rama</text><line style="stroke:#181818;stroke-width:0.5;" x1="328" x2="395" y1="218" y2="218"/><line style="stroke:#181818;stroke-width:0.5;" x1="328" x2="395" y1="226" y2="226"/></g><!--class RepositorioRemoto--><g id="elem_RepositorioRemoto"><rect codeLine="41" fill="#F1F1F1" height="48" id="RepositorioRemoto" rx="2.5" ry="2.5" style="stroke:#181818;stroke-width:0.5;" width="153" x="139" y="186"/><ellipse cx="154" cy="202" fill="#ADD1B2" rx="11" ry="11" style="stroke:#181818;stroke-width:1.0;"/><path d="M156.7656,197.875 Q156.9219,197.6563 157.1094,197.5469 Q157.2969,197.4375 157.5156,197.4375 Q157.8906,197.4375 158.125,197.7031 Q158.3594,197.9531 158.3594,198.5625 L158.3594,200.0156 Q158.3594,200.625 158.125,200.8906 Q157.8906,201.1563 157.5156,201.1563 Q157.1719,201.1563 156.9688,200.9531 Q156.7656,200.7656 156.6563,200.25 Q156.6094,199.8906 156.4219,199.7031 Q156.0938,199.3281 155.4844,199.1094 Q154.875,198.8906 154.25,198.8906 Q153.4844,198.8906 152.8438,199.2188 Q152.2188,199.5469 151.7188,200.2969 Q151.2344,201.0469 151.2344,202.0781 L151.2344,203.1719 Q151.2344,204.4063 152.125,205.2344 Q153.0156,206.0469 154.6094,206.0469 Q155.5469,206.0469 156.2031,205.7969 Q156.5938,205.6406 157.0156,205.2031 Q157.2813,204.9375 157.4219,204.8594 Q157.5781,204.7813 157.7813,204.7813 Q158.1094,204.7813 158.3594,205.0469 Q158.625,205.2969 158.625,205.6406 Q158.625,205.9844 158.2813,206.3906 Q157.7813,206.9688 156.9844,207.2969 Q155.9063,207.75 154.6094,207.75 Q153.0938,207.75 151.8906,207.125 Q150.9063,206.625 150.2188,205.5625 Q149.5313,204.4844 149.5313,203.2031 L149.5313,202.0469 Q149.5313,200.7188 150.1406,199.5781 Q150.7656,198.4219 151.8594,197.8125 Q152.9531,197.1875 154.1875,197.1875 Q154.9219,197.1875 155.5625,197.3594 Q156.2188,197.5156 156.7656,197.875 Z " fill="#000000"/><text fill="#000000" font-family="sans-serif" font-size="14" lengthAdjust="spacing" textLength="121" x="168" y="207.7285">RepositorioRemoto</text><line style="stroke:#181818;stroke-width:0.5;" x1="140" x2="291" y1="218" y2="218"/><line style="stroke:#181818;stroke-width:0.5;" x1="140" x2="291" y1="226" y2="226"/></g><!--class Incidencia--><g id="elem_Incidencia"><rect codeLine="35" fill="#F1F1F1" height="83.2188" id="Incidencia" rx="2.5" ry="2.5" style="stroke:#181818;stroke-width:0.5;" width="185" x="28" y="264"/><ellipse cx="84.75" cy="280" fill="#ADD1B2" rx="11" ry="11" style="stroke:#181818;stroke-width:1.0;"/><path d="M87.5156,275.875 Q87.6719,275.6563 87.8594,275.5469 Q88.0469,275.4375 88.2656,275.4375 Q88.6406,275.4375 88.875,275.7031 Q89.1094,275.9531 89.1094,276.5625 L89.1094,278.0156 Q89.1094,278.625 88.875,278.8906 Q88.6406,279.1563 88.2656,279.1563 Q87.9219,279.1563 87.7188,278.9531 Q87.5156,278.7656 87.4063,278.25 Q87.3594,277.8906 87.1719,277.7031 Q86.8438,277.3281 86.2344,277.1094 Q85.625,276.8906 85,276.8906 Q84.2344,276.8906 83.5938,277.2188 Q82.9688,277.5469 82.4688,278.2969 Q81.9844,279.0469 81.9844,280.0781 L81.9844,281.1719 Q81.9844,282.4063 82.875,283.2344 Q83.7656,284.0469 85.3594,284.0469 Q86.2969,284.0469 86.9531,283.7969 Q87.3438,283.6406 87.7656,283.2031 Q88.0313,282.9375 88.1719,282.8594 Q88.3281,282.7813 88.5313,282.7813 Q88.8594,282.7813 89.1094,283.0469 Q89.375,283.2969 89.375,283.6406 Q89.375,283.9844 89.0313,284.3906 Q88.5313,284.9688 87.7344,285.2969 Q86.6563,285.75 85.3594,285.75 Q83.8438,285.75 82.6406,285.125 Q81.6563,284.625 80.9688,283.5625 Q80.2813,282.4844 80.2813,281.2031 L80.2813,280.0469 Q80.2813,278.7188 80.8906,277.5781 Q81.5156,276.4219 82.6094,275.8125 Q83.7031,275.1875 84.9375,275.1875 Q85.6719,275.1875 86.3125,275.3594 Q86.9688,275.5156 87.5156,275.875 Z " fill="#000000"/><text fill="#000000" font-family="sans-serif" font-size="14" lengthAdjust="spacing" textLength="63" x="105.25" y="285.7285">Incidencia</text><line style="stroke:#181818;stroke-width:0.5;" x1="29" x2="212" y1="296" y2="296"/><ellipse cx="39" cy="310.3047" fill="none" rx="3" ry="3" style="stroke:#038048;stroke-width:1.0;"/><text fill="#000000" font-family="sans-serif" font-size="14" lengthAdjust="spacing" textLength="119" x="48" y="314.5332">Descripci&#243;n: String</text><ellipse cx="39" cy="327.9141" fill="none" rx="3" ry="3" style="stroke:#038048;stroke-width:1.0;"/><text fill="#000000" font-family="sans-serif" font-size="14" lengthAdjust="spacing" textLength="159" x="48" y="332.1426">Estado: EstadoIncidencia</text><line style="stroke:#181818;stroke-width:0.5;" x1="29" x2="212" y1="339.2188" y2="339.2188"/></g><!--class Commit--><g id="elem_Commit"><rect codeLine="26" fill="#F1F1F1" height="83.2188" id="Commit" rx="2.5" ry="2.5" style="stroke:#181818;stroke-width:0.5;" width="175" x="228" y="503"/><ellipse cx="287.75" cy="519" fill="#ADD1B2" rx="11" ry="11" style="stroke:#181818;stroke-width:1.0;"/><path d="M290.5156,514.875 Q290.6719,514.6563 290.8594,514.5469 Q291.0469,514.4375 291.2656,514.4375 Q291.6406,514.4375 291.875,514.7031 Q292.1094,514.9531 292.1094,515.5625 L292.1094,517.0156 Q292.1094,517.625 291.875,517.8906 Q291.6406,518.1563 291.2656,518.1563 Q290.9219,518.1563 290.7188,517.9531 Q290.5156,517.7656 290.4063,517.25 Q290.3594,516.8906 290.1719,516.7031 Q289.8438,516.3281 289.2344,516.1094 Q288.625,515.8906 288,515.8906 Q287.2344,515.8906 286.5938,516.2188 Q285.9688,516.5469 285.4688,517.2969 Q284.9844,518.0469 284.9844,519.0781 L284.9844,520.1719 Q284.9844,521.4063 285.875,522.2344 Q286.7656,523.0469 288.3594,523.0469 Q289.2969,523.0469 289.9531,522.7969 Q290.3438,522.6406 290.7656,522.2031 Q291.0313,521.9375 291.1719,521.8594 Q291.3281,521.7813 291.5313,521.7813 Q291.8594,521.7813 292.1094,522.0469 Q292.375,522.2969 292.375,522.6406 Q292.375,522.9844 292.0313,523.3906 Q291.5313,523.9688 290.7344,524.2969 Q289.6563,524.75 288.3594,524.75 Q286.8438,524.75 285.6406,524.125 Q284.6563,523.625 283.9688,522.5625 Q283.2813,521.4844 283.2813,520.2031 L283.2813,519.0469 Q283.2813,517.7188 283.8906,516.5781 Q284.5156,515.4219 285.6094,514.8125 Q286.7031,514.1875 287.9375,514.1875 Q288.6719,514.1875 289.3125,514.3594 Q289.9688,514.5156 290.5156,514.875 Z " fill="#000000"/><text fill="#000000" font-family="sans-serif" font-size="14" lengthAdjust="spacing" textLength="47" x="308.25" y="524.7285">Commit</text><line style="stroke:#181818;stroke-width:0.5;" x1="229" x2="402" y1="535" y2="535"/><ellipse cx="239" cy="549.3047" fill="none" rx="3" ry="3" style="stroke:#038048;stroke-width:1.0;"/><text fill="#000000" font-family="sans-serif" font-size="14" lengthAdjust="spacing" textLength="89" x="248" y="553.5332">Asunto: String</text><ellipse cx="239" cy="566.9141" fill="none" rx="3" ry="3" style="stroke:#038048;stroke-width:1.0;"/><text fill="#000000" font-family="sans-serif" font-size="14" lengthAdjust="spacing" textLength="149" x="248" y="571.1426">Estado: EstadoSolicitud</text><line style="stroke:#181818;stroke-width:0.5;" x1="229" x2="402" y1="578.2188" y2="578.2188"/></g><!--class PullRequest--><g id="elem_PullRequest"><rect codeLine="42" fill="#F1F1F1" height="48" id="PullRequest" rx="2.5" ry="2.5" style="stroke:#181818;stroke-width:0.5;" width="108" x="200.5" y="377"/><ellipse cx="215.5" cy="393" fill="#ADD1B2" rx="11" ry="11" style="stroke:#181818;stroke-width:1.0;"/><path d="M218.2656,388.875 Q218.4219,388.6563 218.6094,388.5469 Q218.7969,388.4375 219.0156,388.4375 Q219.3906,388.4375 219.625,388.7031 Q219.8594,388.9531 219.8594,389.5625 L219.8594,391.0156 Q219.8594,391.625 219.625,391.8906 Q219.3906,392.1563 219.0156,392.1563 Q218.6719,392.1563 218.4688,391.9531 Q218.2656,391.7656 218.1563,391.25 Q218.1094,390.8906 217.9219,390.7031 Q217.5938,390.3281 216.9844,390.1094 Q216.375,389.8906 215.75,389.8906 Q214.9844,389.8906 214.3438,390.2188 Q213.7188,390.5469 213.2188,391.2969 Q212.7344,392.0469 212.7344,393.0781 L212.7344,394.1719 Q212.7344,395.4063 213.625,396.2344 Q214.5156,397.0469 216.1094,397.0469 Q217.0469,397.0469 217.7031,396.7969 Q218.0938,396.6406 218.5156,396.2031 Q218.7813,395.9375 218.9219,395.8594 Q219.0781,395.7813 219.2813,395.7813 Q219.6094,395.7813 219.8594,396.0469 Q220.125,396.2969 220.125,396.6406 Q220.125,396.9844 219.7813,397.3906 Q219.2813,397.9688 218.4844,398.2969 Q217.4063,398.75 216.1094,398.75 Q214.5938,398.75 213.3906,398.125 Q212.4063,397.625 211.7188,396.5625 Q211.0313,395.4844 211.0313,394.2031 L211.0313,393.0469 Q211.0313,391.7188 211.6406,390.5781 Q212.2656,389.4219 213.3594,388.8125 Q214.4531,388.1875 215.6875,388.1875 Q216.4219,388.1875 217.0625,388.3594 Q217.7188,388.5156 218.2656,388.875 Z " fill="#000000"/><text fill="#000000" font-family="sans-serif" font-size="14" lengthAdjust="spacing" textLength="76" x="229.5" y="398.7285">PullRequest</text><line style="stroke:#181818;stroke-width:0.5;" x1="201.5" x2="307.5" y1="409" y2="409"/><line style="stroke:#181818;stroke-width:0.5;" x1="201.5" x2="307.5" y1="417" y2="417"/></g><!--class Cambios--><g id="elem_Cambios"><rect fill="#F1F1F1" height="48" id="Cambios" rx="2.5" ry="2.5" style="stroke:#181818;stroke-width:0.5;" width="87" x="272" y="647"/><ellipse cx="287" cy="663" fill="#ADD1B2" rx="11" ry="11" style="stroke:#181818;stroke-width:1.0;"/><path d="M289.7656,658.875 Q289.9219,658.6563 290.1094,658.5469 Q290.2969,658.4375 290.5156,658.4375 Q290.8906,658.4375 291.125,658.7031 Q291.3594,658.9531 291.3594,659.5625 L291.3594,661.0156 Q291.3594,661.625 291.125,661.8906 Q290.8906,662.1563 290.5156,662.1563 Q290.1719,662.1563 289.9688,661.9531 Q289.7656,661.7656 289.6563,661.25 Q289.6094,660.8906 289.4219,660.7031 Q289.0938,660.3281 288.4844,660.1094 Q287.875,659.8906 287.25,659.8906 Q286.4844,659.8906 285.8438,660.2188 Q285.2188,660.5469 284.7188,661.2969 Q284.2344,662.0469 284.2344,663.0781 L284.2344,664.1719 Q284.2344,665.4063 285.125,666.2344 Q286.0156,667.0469 287.6094,667.0469 Q288.5469,667.0469 289.2031,666.7969 Q289.5938,666.6406 290.0156,666.2031 Q290.2813,665.9375 290.4219,665.8594 Q290.5781,665.7813 290.7813,665.7813 Q291.1094,665.7813 291.3594,666.0469 Q291.625,666.2969 291.625,666.6406 Q291.625,666.9844 291.2813,667.3906 Q290.7813,667.9688 289.9844,668.2969 Q288.9063,668.75 287.6094,668.75 Q286.0938,668.75 284.8906,668.125 Q283.9063,667.625 283.2188,666.5625 Q282.5313,665.4844 282.5313,664.2031 L282.5313,663.0469 Q282.5313,661.7188 283.1406,660.5781 Q283.7656,659.4219 284.8594,658.8125 Q285.9531,658.1875 287.1875,658.1875 Q287.9219,658.1875 288.5625,658.3594 Q289.2188,658.5156 289.7656,658.875 Z " fill="#000000"/><text fill="#000000" font-family="sans-serif" font-size="14" lengthAdjust="spacing" textLength="55" x="301" y="668.7285">Cambios</text><line style="stroke:#181818;stroke-width:0.5;" x1="273" x2="358" y1="679" y2="679"/><line style="stroke:#181818;stroke-width:0.5;" x1="273" x2="358" y1="687" y2="687"/></g><!--class Version--><g id="elem_Version"><rect codeLine="22" fill="#F1F1F1" height="65.6094" id="Version" rx="2.5" ry="2.5" style="stroke:#181818;stroke-width:0.5;" width="115" x="258" y="756"/><ellipse cx="288.75" cy="772" fill="#ADD1B2" rx="11" ry="11" style="stroke:#181818;stroke-width:1.0;"/><path d="M291.5156,767.875 Q291.6719,767.6563 291.8594,767.5469 Q292.0469,767.4375 292.2656,767.4375 Q292.6406,767.4375 292.875,767.7031 Q293.1094,767.9531 293.1094,768.5625 L293.1094,770.0156 Q293.1094,770.625 292.875,770.8906 Q292.6406,771.1563 292.2656,771.1563 Q291.9219,771.1563 291.7188,770.9531 Q291.5156,770.7656 291.4063,770.25 Q291.3594,769.8906 291.1719,769.7031 Q290.8438,769.3281 290.2344,769.1094 Q289.625,768.8906 289,768.8906 Q288.2344,768.8906 287.5938,769.2188 Q286.9688,769.5469 286.4688,770.2969 Q285.9844,771.0469 285.9844,772.0781 L285.9844,773.1719 Q285.9844,774.4063 286.875,775.2344 Q287.7656,776.0469 289.3594,776.0469 Q290.2969,776.0469 290.9531,775.7969 Q291.3438,775.6406 291.7656,775.2031 Q292.0313,774.9375 292.1719,774.8594 Q292.3281,774.7813 292.5313,774.7813 Q292.8594,774.7813 293.1094,775.0469 Q293.375,775.2969 293.375,775.6406 Q293.375,775.9844 293.0313,776.3906 Q292.5313,776.9688 291.7344,777.2969 Q290.6563,777.75 289.3594,777.75 Q287.8438,777.75 286.6406,777.125 Q285.6563,776.625 284.9688,775.5625 Q284.2813,774.4844 284.2813,773.2031 L284.2813,772.0469 Q284.2813,770.7188 284.8906,769.5781 Q285.5156,768.4219 286.6094,767.8125 Q287.7031,767.1875 288.9375,767.1875 Q289.6719,767.1875 290.3125,767.3594 Q290.9688,767.5156 291.5156,767.875 Z " fill="#000000"/><text fill="#000000" font-family="sans-serif" font-size="14" lengthAdjust="spacing" textLength="48" x="306.25" y="777.7285">Version</text><line style="stroke:#181818;stroke-width:0.5;" x1="259" x2="372" y1="788" y2="788"/><ellipse cx="269" cy="802.3047" fill="none" rx="3" ry="3" style="stroke:#038048;stroke-width:1.0;"/><text fill="#000000" font-family="sans-serif" font-size="14" lengthAdjust="spacing" textLength="89" x="278" y="806.5332">Estado: String</text><line style="stroke:#181818;stroke-width:0.5;" x1="259" x2="372" y1="813.6094" y2="813.6094"/></g><!--link Repositorio to Usuario--><g id="link_Repositorio_Usuario"><path codeLine="1" d="M96.9,108.27 C71.97,148.36 40.05,207.22 26.5,264 C6,349.92 49,443.3797 80.38,497.4897 " fill="none" id="Repositorio-to-Usuario" style="stroke:#181818;stroke-width:1.0;"/><polygon fill="#181818" points="83.39,502.68,82.3352,492.8878,80.8816,498.3547,75.4147,496.9012,83.39,502.68" style="stroke:#181818;stroke-width:1.0;"/><text fill="#000000" font-family="sans-serif" font-size="13" lengthAdjust="spacing" textLength="7" x="85.1466" y="129.3286">1</text><text fill="#000000" font-family="sans-serif" font-size="13" lengthAdjust="spacing" textLength="5" x="73.8303" y="492.2456">*</text></g><!--link Repositorio to Rama--><g id="link_Repositorio_Rama"><path codeLine="2" d="M206.78,108.2 C247.39,134.65 290.313,162.6144 321.943,183.2244 " fill="none" id="Repositorio-to-Rama" style="stroke:#181818;stroke-width:1.0;"/><polygon fill="#181818" points="326.97,186.5,321.6132,178.2353,322.7808,183.7704,317.2458,184.938,326.97,186.5" style="stroke:#181818;stroke-width:1.0;"/><text fill="#000000" font-family="sans-serif" font-size="13" lengthAdjust="spacing" textLength="7" x="209.1049" y="129.2496">1</text><text fill="#000000" font-family="sans-serif" font-size="13" lengthAdjust="spacing" textLength="5" x="313.8697" y="177.1429">*</text></g><!--link Repositorio to RepositorioRemoto--><g id="link_Repositorio_RepositorioRemoto"><path codeLine="3" d="M158.57,108.2 C173.37,134.4 187.8575,160.0667 199.5075,180.6767 " fill="none" id="Repositorio-to-RepositorioRemoto" style="stroke:#181818;stroke-width:1.0;"/><polygon fill="#181818" points="202.46,185.9,201.5134,176.0967,199.9996,181.5473,194.549,180.0334,202.46,185.9" style="stroke:#181818;stroke-width:1.0;"/><text fill="#000000" font-family="sans-serif" font-size="13" lengthAdjust="spacing" textLength="49" x="184.5" y="152.4951">contiene</text><text fill="#000000" font-family="sans-serif" font-size="13" lengthAdjust="spacing" textLength="7" x="154.718" y="129.2496">1</text><text fill="#000000" font-family="sans-serif" font-size="13" lengthAdjust="spacing" textLength="7" x="191.2216" y="175.2145">1</text></g><!--link Repositorio to Incidencia--><g id="link_Repositorio_Incidencia"><path codeLine="4" d="M121.08,108.39 C119.59,118.17 118.28,128.38 117.5,138 C114.03,180.79 115.2475,223.9698 117.1775,257.7298 " fill="none" id="Repositorio-to-Incidencia" style="stroke:#181818;stroke-width:1.0;"/><polygon fill="#181818" points="117.52,263.72,120.9998,254.5064,117.2346,258.7282,113.0128,254.963,117.52,263.72" style="stroke:#181818;stroke-width:1.0;"/><text fill="#000000" font-family="sans-serif" font-size="13" lengthAdjust="spacing" textLength="49" x="118.5" y="152.4951">gestiona</text><text fill="#000000" font-family="sans-serif" font-size="13" lengthAdjust="spacing" textLength="7" x="112.4246" y="129.4639">1</text><text fill="#000000" font-family="sans-serif" font-size="13" lengthAdjust="spacing" textLength="5" x="111.6466" y="253.292">*</text></g><!--link Rama to Commit--><g id="link_Rama_Commit"><path codeLine="5" d="M358.3,234.12 C350.59,289.86 331.7122,426.3166 321.9622,496.7966 " fill="none" id="Rama-to-Commit" style="stroke:#181818;stroke-width:1.0;"/><polygon fill="#181818" points="321.14,502.74,326.3356,494.373,321.8252,497.7872,318.411,493.2768,321.14,502.74" style="stroke:#181818;stroke-width:1.0;"/><text fill="#000000" font-family="sans-serif" font-size="13" lengthAdjust="spacing" textLength="7" x="349.6669" y="255.4872">1</text><text fill="#000000" font-family="sans-serif" font-size="13" lengthAdjust="spacing" textLength="5" x="316.6601" y="492.0046">*</text></g><!--link Rama to PullRequest--><g id="link_Rama_PullRequest"><path codeLine="6" d="M348.38,234.18 C327.79,270.55 291.0764,335.3989 270.5164,371.7089 " fill="none" id="Rama-to-PullRequest" style="stroke:#181818;stroke-width:1.0;"/><polygon fill="#181818" points="267.56,376.93,275.4753,371.0693,270.0236,372.5791,268.5138,367.1274,267.56,376.93" style="stroke:#181818;stroke-width:1.0;"/><text fill="#000000" font-family="sans-serif" font-size="13" lengthAdjust="spacing" textLength="7" x="337.3289" y="255.5618">1</text><text fill="#000000" font-family="sans-serif" font-size="13" lengthAdjust="spacing" textLength="5" x="265.266" y="366.2522">*</text></g><!--link Commit to Cambios--><g id="link_Commit_Cambios"><path codeLine="7" d="M315.5,586.27 C315.5,606.41 315.5,623.97 315.5,640.96 " fill="none" id="Commit-to-Cambios" style="stroke:#181818;stroke-width:1.0;"/><polygon fill="#181818" points="315.5,646.96,319.5,637.96,315.5,641.96,311.5,637.96,315.5,646.96" style="stroke:#181818;stroke-width:1.0;"/><text fill="#000000" font-family="sans-serif" font-size="13" lengthAdjust="spacing" textLength="7" x="307.9422" y="607.7078">1</text><text fill="#000000" font-family="sans-serif" font-size="13" lengthAdjust="spacing" textLength="5" x="309.8594" y="636.2899">*</text></g><!--link Cambios to Version--><g id="link_Cambios_Version"><path codeLine="8" d="M315.5,695.2 C315.5,712.52 315.5,730.41 315.5,749.62 " fill="none" id="Cambios-to-Version" style="stroke:#181818;stroke-width:1.0;"/><polygon fill="#181818" points="315.5,755.62,319.5,746.62,315.5,750.62,311.5,746.62,315.5,755.62" style="stroke:#181818;stroke-width:1.0;"/><text fill="#000000" font-family="sans-serif" font-size="13" lengthAdjust="spacing" textLength="7" x="307.6469" y="716.5867">1</text><text fill="#000000" font-family="sans-serif" font-size="13" lengthAdjust="spacing" textLength="7" x="307.8109" y="745.0415">1</text></g><!--link PullRequest to Usuario--><g id="link_PullRequest_Usuario"><path codeLine="9" d="M230.88,425.05 C209.38,446.04 181.4246,473.32 155.5646,498.55 " fill="none" id="PullRequest-to-Usuario" style="stroke:#181818;stroke-width:1.0;"/><polygon fill="#181818" points="151.27,502.74,160.5053,499.3181,154.8489,499.2483,154.9186,493.5919,151.27,502.74" style="stroke:#181818;stroke-width:1.0;"/><text fill="#000000" font-family="sans-serif" font-size="13" lengthAdjust="spacing" textLength="52" x="200.5" y="469.4951">realizado</text><text fill="#000000" font-family="sans-serif" font-size="13" lengthAdjust="spacing" textLength="7" x="217.2695" y="446.4002">1</text><text fill="#000000" font-family="sans-serif" font-size="13" lengthAdjust="spacing" textLength="7" x="150.6085" y="492.0046">1</text></g><!--link PullRequest to Commit--><g id="link_PullRequest_Commit"><path codeLine="10" d="M264.44,425.05 C273.49,446.04 284.6741,472.0005 295.5541,497.2305 " fill="none" id="PullRequest-to-Commit" style="stroke:#181818;stroke-width:1.0;"/><polygon fill="#181818" points="297.93,502.74,298.0392,492.8917,295.9501,498.1487,290.6931,496.0596,297.93,502.74" style="stroke:#181818;stroke-width:1.0;"/><text fill="#000000" font-family="sans-serif" font-size="13" lengthAdjust="spacing" textLength="7" x="259.0098" y="446.4002">1</text><text fill="#000000" font-family="sans-serif" font-size="13" lengthAdjust="spacing" textLength="5" x="289.6059" y="492.0046">*</text></g><!--link Incidencia to Usuario--><g id="link_Incidencia_Usuario"><path codeLine="11" d="M118.61,347.24 C116.59,390.78 113.677,453.4064 111.667,496.8964 " fill="none" id="Incidencia-to-Usuario" style="stroke:#181818;stroke-width:1.0;"/><polygon fill="#181818" points="111.39,502.89,115.8012,494.0843,111.6208,497.8953,107.8098,493.7149,111.39,502.89" style="stroke:#181818;stroke-width:1.0;"/><text fill="#000000" font-family="sans-serif" font-size="13" lengthAdjust="spacing" textLength="54" x="118.5" y="406.4951">reportada</text><text fill="#000000" font-family="sans-serif" font-size="13" lengthAdjust="spacing" textLength="7" x="110.751" y="368.673">1</text><text fill="#000000" font-family="sans-serif" font-size="13" lengthAdjust="spacing" textLength="7" x="104.1233" y="492.1795">1</text></g><!--link RepositorioRemoto to PullRequest--><g id="link_RepositorioRemoto_PullRequest"><path codeLine="13" d="M220.28,234.18 C227.79,270.55 241.0378,334.7437 248.5278,371.0537 " fill="none" id="RepositorioRemoto-to-PullRequest" style="stroke:#181818;stroke-width:1.0;"/><polygon fill="#181818" points="249.74,376.93,251.8393,367.3075,248.7299,372.0331,244.0042,368.9237,249.74,376.93" style="stroke:#181818;stroke-width:1.0;"/><text fill="#000000" font-family="sans-serif" font-size="13" lengthAdjust="spacing" textLength="7" x="217.667" y="253.226">1</text><text fill="#000000" font-family="sans-serif" font-size="13" lengthAdjust="spacing" textLength="5" x="242.8796" y="366.2522">*</text></g><!--SRC=[VLAnJiCm4DtlAquPGHrOEo1LXO45eHJONUTKdPJuWkqiL7mLdy2FOMedjPM49HVTlVVktKjgwiMn5yk2rLs5cyqzLZSLlhb1XHxKA_DQTGgNfw5c_PewyO9Rr68yaw5LoIUZkQ7mK05z8kTPZ8BBeXosbwvZF- -_36rRqySGY10n9KrrHnO7gHPstycwi0moYMAUmWYsBAcMFrKZozZ97a9spPfKBzQhHW7Curex342tohayOCGp8DxYitH7Iq7uu2sRqwNtG4vRxZN_V9jYiDEQd6pnbNk9x_0rQgSqakoZ2nvb8a-eT6S4xTnWl1GRHbwi1sbPin-Q813vOn2v-K9WBzRImk8isFF_HvOMhhohrjzFD4yqVeFKpzB_1G00]--></g></svg>