<svg xmlns="http://www.w3.org/2000/svg" xmlns:xlink="http://www.w3.org/1999/xlink" contentStyleType="text/css" height="729px" preserveAspectRatio="none" style="width:546px;height:729px;background:#FFFFFF;" version="1.1" viewBox="0 0 546 729" width="546px" zoomAndPan="magnify"><defs/><g><!--class Usuario--><g id="elem_Usuario"><rect codeLine="3" fill="#F1F1F1" height="74.8906" id="Usuario" rx="2.5" ry="2.5" style="stroke:#181818;stroke-width:0.5;" width="147.1875" x="103.64" y="7"/><text fill="#000000" font-family="sans-serif" font-size="14" lengthAdjust="spacing" textLength="53.2041" x="150.6317" y="24.9951">Usuario</text><line style="stroke:#181818;stroke-width:0.5;" x1="104.64" x2="249.8275" y1="33.2969" y2="33.2969"/><rect fill="none" height="6" style="stroke:#C82930;stroke-width:1;" width="6" x="111.64" y="43.9453"/><text fill="#000000" font-family="sans-serif" font-size="14" lengthAdjust="spacing" textLength="121.1875" x="123.64" y="50.292">username: String</text><rect fill="none" height="6" style="stroke:#C82930;stroke-width:1;" width="6" x="111.64" y="60.2422"/><text fill="#000000" font-family="sans-serif" font-size="14" lengthAdjust="spacing" textLength="89.5576" x="123.64" y="66.5889">email: String</text><line style="stroke:#181818;stroke-width:0.5;" x1="104.64" x2="249.8275" y1="73.8906" y2="73.8906"/></g><!--class Repositorio--><g id="elem_Repositorio"><rect codeLine="8" fill="#F1F1F1" height="74.8906" id="Repositorio" rx="2.5" ry="2.5" style="stroke:#181818;stroke-width:0.5;" width="154.7891" x="99.84" y="158.89"/><text fill="#000000" font-family="sans-serif" font-size="14" lengthAdjust="spacing" textLength="79.2422" x="137.6134" y="176.8851">Repositorio</text><line style="stroke:#181818;stroke-width:0.5;" x1="100.84" x2="253.6291" y1="185.1869" y2="185.1869"/><rect fill="none" height="6" style="stroke:#C82930;stroke-width:1;" width="6" x="107.84" y="195.8353"/><text fill="#000000" font-family="sans-serif" font-size="14" lengthAdjust="spacing" textLength="90.6514" x="119.84" y="202.182">name: String</text><rect fill="none" height="6" style="stroke:#C82930;stroke-width:1;" width="6" x="107.84" y="212.1322"/><text fill="#000000" font-family="sans-serif" font-size="14" lengthAdjust="spacing" textLength="128.7891" x="119.84" y="218.4789">description: String</text><line style="stroke:#181818;stroke-width:0.5;" x1="100.84" x2="253.6291" y1="225.7806" y2="225.7806"/></g><!--class Commit--><g id="elem_Commit"><rect codeLine="13" fill="#F1F1F1" height="91.1875" id="Commit" rx="2.5" ry="2.5" style="stroke:#181818;stroke-width:0.5;" width="152.4648" x="7" y="462.68"/><text fill="#000000" font-family="sans-serif" font-size="14" lengthAdjust="spacing" textLength="54.9951" x="55.7349" y="480.6751">Commit</text><line style="stroke:#181818;stroke-width:0.5;" x1="8" x2="158.4648" y1="488.9769" y2="488.9769"/><rect fill="none" height="6" style="stroke:#C82930;stroke-width:1;" width="6" x="15" y="499.6253"/><text fill="#000000" font-family="sans-serif" font-size="14" lengthAdjust="spacing" textLength="63.7246" x="27" y="505.972">id: String</text><rect fill="none" height="6" style="stroke:#C82930;stroke-width:1;" width="6" x="15" y="515.9222"/><text fill="#000000" font-family="sans-serif" font-size="14" lengthAdjust="spacing" textLength="113.8662" x="27" y="522.2689">message: String</text><rect fill="none" height="6" style="stroke:#C82930;stroke-width:1;" width="6" x="15" y="532.2191"/><text fill="#000000" font-family="sans-serif" font-size="14" lengthAdjust="spacing" textLength="126.4648" x="27" y="538.5657">timestamp: String</text><line style="stroke:#181818;stroke-width:0.5;" x1="8" x2="158.4648" y1="545.8675" y2="545.8675"/></g><!--class Rama--><g id="elem_Rama"><rect codeLine="19" fill="#F1F1F1" height="74.8906" id="Rama" rx="2.5" ry="2.5" style="stroke:#181818;stroke-width:0.5;" width="154.1943" x="100.14" y="310.78"/><text fill="#000000" font-family="sans-serif" font-size="14" lengthAdjust="spacing" textLength="40.5234" x="156.9754" y="328.7751">Rama</text><line style="stroke:#181818;stroke-width:0.5;" x1="101.14" x2="253.3343" y1="337.0769" y2="337.0769"/><rect fill="none" height="6" style="stroke:#C82930;stroke-width:1;" width="6" x="108.14" y="347.7253"/><text fill="#000000" font-family="sans-serif" font-size="14" lengthAdjust="spacing" textLength="90.6514" x="120.14" y="354.072">name: String</text><rect fill="none" height="6" style="stroke:#C82930;stroke-width:1;" width="6" x="108.14" y="364.0222"/><text fill="#000000" font-family="sans-serif" font-size="14" lengthAdjust="spacing" textLength="128.1943" x="120.14" y="370.3689">isDefault: Boolean</text><line style="stroke:#181818;stroke-width:0.5;" x1="101.14" x2="253.3343" y1="377.6706" y2="377.6706"/></g><!--class PullRequest--><g id="elem_PullRequest"><rect codeLine="24" fill="#F1F1F1" height="91.1875" id="PullRequest" rx="2.5" ry="2.5" style="stroke:#181818;stroke-width:0.5;" width="154.7891" x="194.84" y="462.68"/><text fill="#000000" font-family="sans-serif" font-size="14" lengthAdjust="spacing" textLength="82.5918" x="230.9386" y="480.6751">PullRequest</text><line style="stroke:#181818;stroke-width:0.5;" x1="195.84" x2="348.6291" y1="488.9769" y2="488.9769"/><rect fill="none" height="6" style="stroke:#C82930;stroke-width:1;" width="6" x="202.84" y="499.6253"/><text fill="#000000" font-family="sans-serif" font-size="14" lengthAdjust="spacing" textLength="63.7246" x="214.84" y="505.972">id: String</text><rect fill="none" height="6" style="stroke:#C82930;stroke-width:1;" width="6" x="202.84" y="515.9222"/><text fill="#000000" font-family="sans-serif" font-size="14" lengthAdjust="spacing" textLength="78.3193" x="214.84" y="522.2689">title: String</text><rect fill="none" height="6" style="stroke:#C82930;stroke-width:1;" width="6" x="202.84" y="532.2191"/><text fill="#000000" font-family="sans-serif" font-size="14" lengthAdjust="spacing" textLength="128.7891" x="214.84" y="538.5657">description: String</text><line style="stroke:#181818;stroke-width:0.5;" x1="195.84" x2="348.6291" y1="545.8675" y2="545.8675"/></g><!--class Issue--><g id="elem_Issue"><rect codeLine="30" fill="#F1F1F1" height="91.1875" id="Issue" rx="2.5" ry="2.5" style="stroke:#181818;stroke-width:0.5;" width="154.7891" x="384.84" y="462.68"/><text fill="#000000" font-family="sans-serif" font-size="14" lengthAdjust="spacing" textLength="36.2031" x="444.133" y="480.6751">Issue</text><line style="stroke:#181818;stroke-width:0.5;" x1="385.84" x2="538.6291" y1="488.9769" y2="488.9769"/><rect fill="none" height="6" style="stroke:#C82930;stroke-width:1;" width="6" x="392.84" y="499.6253"/><text fill="#000000" font-family="sans-serif" font-size="14" lengthAdjust="spacing" textLength="63.7246" x="404.84" y="505.972">id: String</text><rect fill="none" height="6" style="stroke:#C82930;stroke-width:1;" width="6" x="392.84" y="515.9222"/><text fill="#000000" font-family="sans-serif" font-size="14" lengthAdjust="spacing" textLength="78.3193" x="404.84" y="522.2689">title: String</text><rect fill="none" height="6" style="stroke:#C82930;stroke-width:1;" width="6" x="392.84" y="532.2191"/><text fill="#000000" font-family="sans-serif" font-size="14" lengthAdjust="spacing" textLength="128.7891" x="404.84" y="538.5657">description: String</text><line style="stroke:#181818;stroke-width:0.5;" x1="385.84" x2="538.6291" y1="545.8675" y2="545.8675"/></g><!--class Comentario--><g id="elem_Comentario"><rect codeLine="36" fill="#F1F1F1" height="91.1875" id="Comentario" rx="2.5" ry="2.5" style="stroke:#181818;stroke-width:0.5;" width="152.4648" x="196" y="630.86"/><text fill="#000000" font-family="sans-serif" font-size="14" lengthAdjust="spacing" textLength="81.7441" x="231.3604" y="648.8551">Comentario</text><line style="stroke:#181818;stroke-width:0.5;" x1="197" x2="347.4648" y1="657.1569" y2="657.1569"/><rect fill="none" height="6" style="stroke:#C82930;stroke-width:1;" width="6" x="204" y="667.8053"/><text fill="#000000" font-family="sans-serif" font-size="14" lengthAdjust="spacing" textLength="104.5488" x="216" y="674.152">content: String</text><rect fill="none" height="6" style="stroke:#C82930;stroke-width:1;" width="6" x="204" y="684.1022"/><text fill="#000000" font-family="sans-serif" font-size="14" lengthAdjust="spacing" textLength="126.4648" x="216" y="690.4489">timestamp: String</text><rect fill="none" height="6" style="stroke:#C82930;stroke-width:1;" width="6" x="204" y="700.3991"/><text fill="#000000" font-family="sans-serif" font-size="14" lengthAdjust="spacing" textLength="97.084" x="216" y="706.7457">author: String</text><line style="stroke:#181818;stroke-width:0.5;" x1="197" x2="347.4648" y1="714.0475" y2="714.0475"/></g><!--link Usuario to Repositorio--><g id="link_Usuario_Repositorio"><path codeLine="42" d="M177.23,82.12 C177.23,105.34 177.23,135.28 177.23,158.53 " fill="none" id="Usuario-Repositorio" style="stroke:#181818;stroke-width:1;"/><text fill="#000000" font-family="sans-serif" font-size="13" lengthAdjust="spacing" textLength="38.9746" x="178.23" y="124.9569">posee</text><text fill="#000000" font-family="sans-serif" font-size="13" lengthAdjust="spacing" textLength="8.271" x="168.5651" y="101.9627">1</text><text fill="#000000" font-family="sans-serif" font-size="13" lengthAdjust="spacing" textLength="23.0356" x="152.2557" y="147.8215">1..*</text></g><!--link Repositorio to Rama--><g id="link_Repositorio_Rama"><path codeLine="43" d="M177.23,234.01 C177.23,257.23 177.23,287.17 177.23,310.42 " fill="none" id="Repositorio-Rama" style="stroke:#181818;stroke-width:1;"/><text fill="#000000" font-family="sans-serif" font-size="13" lengthAdjust="spacing" textLength="56.2847" x="178.23" y="276.8469">contiene</text><text fill="#000000" font-family="sans-serif" font-size="13" lengthAdjust="spacing" textLength="8.271" x="168.565" y="253.8527">1</text><text fill="#000000" font-family="sans-serif" font-size="13" lengthAdjust="spacing" textLength="23.0356" x="152.2553" y="299.7115">1..*</text></g><!--link Rama to Commit--><g id="link_Rama_Commit"><path codeLine="44" d="M155.43,385.88 C141.87,408.68 124.34,438.15 109.95,462.35 " fill="none" id="Rama-Commit" style="stroke:#181818;stroke-width:1;"/><text fill="#000000" font-family="sans-serif" font-size="13" lengthAdjust="spacing" textLength="56.2847" x="137.23" y="428.7469">contiene</text><text fill="#000000" font-family="sans-serif" font-size="13" lengthAdjust="spacing" textLength="8.271" x="143.0177" y="405.7193">1</text><text fill="#000000" font-family="sans-serif" font-size="13" lengthAdjust="spacing" textLength="23.0356" x="89.1877" y="451.58">1..*</text></g><!--reverse link Rama to PullRequest--><g id="link_Rama_PullRequest"><path codeLine="45" d="M202.3603,391.023 C216.0603,413.823 230.69,438.15 245.23,462.35 " fill="none" id="Rama-backto-PullRequest" style="stroke:#181818;stroke-width:1;"/><polygon fill="#181818" points="199.27,385.88,200.4768,395.6546,201.8452,390.1658,207.3341,391.5343,199.27,385.88" style="stroke:#181818;stroke-width:1;"/><text fill="#000000" font-family="sans-serif" font-size="13" lengthAdjust="spacing" textLength="56.2847" x="226.23" y="428.7469">contiene</text><text fill="#000000" font-family="sans-serif" font-size="13" lengthAdjust="spacing" textLength="8.271" x="194.3927" y="405.7193">1</text><text fill="#000000" font-family="sans-serif" font-size="13" lengthAdjust="spacing" textLength="23.0356" x="216.5773" y="451.58">1..*</text></g><!--reverse link Issue to Comentario--><g id="link_Issue_Comentario"><path codeLine="46" d="M406.3037,558.1901 C379.2637,581.8401 350.73,606.79 323.69,630.45 " fill="none" id="Issue-backto-Comentario" style="stroke:#181818;stroke-width:1;"/><polygon fill="#181818" points="410.82,554.24,401.4122,557.1543,407.0564,557.5317,406.679,563.176,410.82,554.24" style="stroke:#181818;stroke-width:1;"/><text fill="#000000" font-family="sans-serif" font-size="13" lengthAdjust="spacing" textLength="32.9443" x="373.23" y="596.9269">tiene</text><text fill="#000000" font-family="sans-serif" font-size="13" lengthAdjust="spacing" textLength="8.271" x="395.0464" y="573.8349">1</text><text fill="#000000" font-family="sans-serif" font-size="13" lengthAdjust="spacing" textLength="23.0356" x="306.5614" y="619.6683">1..*</text></g><!--reverse link Commit to Comentario--><g id="link_Commit_Comentario"><path codeLine="47" d="M138.8854,558.2025 C165.7754,581.8525 194.15,606.79 221.05,630.45 " fill="none" id="Commit-backto-Comentario" style="stroke:#181818;stroke-width:1;"/><polygon fill="#181818" points="134.38,554.24,138.4964,563.1874,138.1345,557.5421,143.7797,557.1802,134.38,554.24" style="stroke:#181818;stroke-width:1;"/><text fill="#000000" font-family="sans-serif" font-size="13" lengthAdjust="spacing" textLength="32.9443" x="185.23" y="596.9269">tiene</text><text fill="#000000" font-family="sans-serif" font-size="13" lengthAdjust="spacing" textLength="8.271" x="133.0292" y="573.8349">1</text><text fill="#000000" font-family="sans-serif" font-size="13" lengthAdjust="spacing" textLength="23.0356" x="188.8461" y="619.6683">1..*</text></g><!--reverse link PullRequest to Comentario--><g id="link_PullRequest_Comentario"><path codeLine="48" d="M272.23,560.24 C272.23,583.89 272.23,606.79 272.23,630.45 " fill="none" id="PullRequest-backto-Comentario" style="stroke:#181818;stroke-width:1;"/><polygon fill="#181818" points="272.23,554.24,268.23,563.24,272.23,559.24,276.23,563.24,272.23,554.24" style="stroke:#181818;stroke-width:1;"/><text fill="#000000" font-family="sans-serif" font-size="13" lengthAdjust="spacing" textLength="32.9443" x="273.23" y="596.9269">tiene</text><text fill="#000000" font-family="sans-serif" font-size="13" lengthAdjust="spacing" textLength="8.271" x="263.6859" y="573.8349">1</text><text fill="#000000" font-family="sans-serif" font-size="13" lengthAdjust="spacing" textLength="23.0356" x="247.5432" y="619.6683">1..*</text></g><!--SRC=[hP9FJuD04CNlV8e9HnEQUDruKY_UJ1i_m0J6TfBzWpkp9zFltgtGTa6KcCW5UFczjyCR3jmHj1nRIrNLMXI1DqaOES1d1Vbg80b5ZuuCx3IotuyoEMHxrOuNzvRw8AoXJ5XmToHjv5uv-EyPJy4vrgkTkvdPaGZkvv7AMLTq_S9GwF2tQLYUwHsJLGEF8LX2V_E-9cktz95oziyJAQlzqoU-Y2JwnxnS6NcTxAqDNhEssjAWOz93Y6NmvJ-exsjecdpRRExgoNuDv6UYgjHczBbuypKAay_a-NsAZCjUWXvkLBc50XrgdB555mO6RZna7IpFMQLF]--></g></svg>