<?xml version="1.0" encoding="us-ascii" standalone="no"?><svg xmlns="http://www.w3.org/2000/svg" xmlns:xlink="http://www.w3.org/1999/xlink" contentStyleType="text/css" height="170px" preserveAspectRatio="none" style="width:311px;height:170px;background:#FFFFFF;" version="1.1" viewBox="0 0 311 170" width="311px" zoomAndPan="magnify"><defs/><g><!--class Compressor--><g id="elem_Compressor"><rect fill="#F1F1F1" height="48" id="Compressor" rx="2.5" ry="2.5" style="stroke:#181818;stroke-width:0.5;" width="113" x="7" y="7"/><ellipse cx="22" cy="23" fill="#ADD1B2" rx="11" ry="11" style="stroke:#181818;stroke-width:1.0;"/><path d="M21.7969,29.7344 Q19.3125,29.7344 17.9844,28.0938 Q16.6719,26.4219 16.6719,23.3125 Q16.6719,20.1875 17.9844,18.5313 Q19.3125,16.875 21.7969,16.875 Q22.5156,16.875 23.1719,17.0313 Q23.8125,17.1875 24.375,17.4844 L24.375,20.2031 Q24.0156,19.8594 23.7188,19.6719 Q23.4219,19.4688 23.1563,19.3438 Q22.8438,19.2031 22.5313,19.1406 Q22.2344,19.0781 21.9219,19.0781 Q20.5938,19.0781 19.9063,20.1406 Q19.2188,21.2344 19.2188,23.3125 Q19.2188,25.4063 19.9063,26.4688 Q20.5938,27.5469 21.9219,27.5469 Q22.5625,27.5469 23.1563,27.2656 Q23.4531,27.1406 23.7344,26.9531 Q24.0313,26.75 24.375,26.4219 L24.375,29.1406 Q23.7969,29.4375 23.1563,29.5938 Q22.5313,29.7344 21.7969,29.7344 Z " fill="#000000"/><text fill="#000000" font-family="sans-serif" font-size="14" lengthAdjust="spacing" textLength="81" x="36" y="28.432">Compressor</text><line style="stroke:#181818;stroke-width:0.5;" x1="8" x2="119" y1="39" y2="39"/><line style="stroke:#181818;stroke-width:0.5;" x1="8" x2="119" y1="47" y2="47"/></g><!--class Dictionary--><g id="elem_Dictionary"><rect fill="#F1F1F1" height="48" id="Dictionary" rx="2.5" ry="2.5" style="stroke:#181818;stroke-width:0.5;" width="100" x="13.5" y="115"/><ellipse cx="28.5" cy="131" fill="#ADD1B2" rx="11" ry="11" style="stroke:#181818;stroke-width:1.0;"/><path d="M28.2969,137.7344 Q25.8125,137.7344 24.4844,136.0938 Q23.1719,134.4219 23.1719,131.3125 Q23.1719,128.1875 24.4844,126.5313 Q25.8125,124.875 28.2969,124.875 Q29.0156,124.875 29.6719,125.0313 Q30.3125,125.1875 30.875,125.4844 L30.875,128.2031 Q30.5156,127.8594 30.2188,127.6719 Q29.9219,127.4688 29.6563,127.3438 Q29.3438,127.2031 29.0313,127.1406 Q28.7344,127.0781 28.4219,127.0781 Q27.0938,127.0781 26.4063,128.1406 Q25.7188,129.2344 25.7188,131.3125 Q25.7188,133.4063 26.4063,134.4688 Q27.0938,135.5469 28.4219,135.5469 Q29.0625,135.5469 29.6563,135.2656 Q29.9531,135.1406 30.2344,134.9531 Q30.5313,134.75 30.875,134.4219 L30.875,137.1406 Q30.2969,137.4375 29.6563,137.5938 Q29.0313,137.7344 28.2969,137.7344 Z " fill="#000000"/><text fill="#000000" font-family="sans-serif" font-size="14" lengthAdjust="spacing" textLength="68" x="42.5" y="136.432">Dictionary</text><line style="stroke:#181818;stroke-width:0.5;" x1="14.5" x2="112.5" y1="147" y2="147"/><line style="stroke:#181818;stroke-width:0.5;" x1="14.5" x2="112.5" y1="155" y2="155"/></g><!--class DictionaryElement--><g id="elem_DictionaryElement"><rect fill="#F1F1F1" height="48" id="DictionaryElement" rx="2.5" ry="2.5" style="stroke:#181818;stroke-width:0.5;" width="155" x="149" y="115"/><ellipse cx="164" cy="131" fill="#ADD1B2" rx="11" ry="11" style="stroke:#181818;stroke-width:1.0;"/><path d="M163.7969,137.7344 Q161.3125,137.7344 159.9844,136.0938 Q158.6719,134.4219 158.6719,131.3125 Q158.6719,128.1875 159.9844,126.5313 Q161.3125,124.875 163.7969,124.875 Q164.5156,124.875 165.1719,125.0313 Q165.8125,125.1875 166.375,125.4844 L166.375,128.2031 Q166.0156,127.8594 165.7188,127.6719 Q165.4219,127.4688 165.1563,127.3438 Q164.8438,127.2031 164.5313,127.1406 Q164.2344,127.0781 163.9219,127.0781 Q162.5938,127.0781 161.9063,128.1406 Q161.2188,129.2344 161.2188,131.3125 Q161.2188,133.4063 161.9063,134.4688 Q162.5938,135.5469 163.9219,135.5469 Q164.5625,135.5469 165.1563,135.2656 Q165.4531,135.1406 165.7344,134.9531 Q166.0313,134.75 166.375,134.4219 L166.375,137.1406 Q165.7969,137.4375 165.1563,137.5938 Q164.5313,137.7344 163.7969,137.7344 Z " fill="#000000"/><text fill="#000000" font-family="sans-serif" font-size="14" lengthAdjust="spacing" textLength="123" x="178" y="136.432">DictionaryElement</text><line style="stroke:#181818;stroke-width:0.5;" x1="150" x2="303" y1="147" y2="147"/><line style="stroke:#181818;stroke-width:0.5;" x1="150" x2="303" y1="155" y2="155"/></g><!--link Compressor to Dictionary--><g id="link_Compressor_Dictionary"><path codeLine="1" d="M63.5,55 C63.5,72.66 63.5,90.94 63.5,108.68 " fill="none" id="Compressor-to-Dictionary" style="stroke:#181818;stroke-width:1.0;"/><polygon fill="#181818" points="63.5,114.68,67.5,105.68,63.5,109.68,59.5,105.68,63.5,114.68" style="stroke:#181818;stroke-width:1.0;"/></g><!--link Dictionary to DictionaryElement--><g id="link_Dictionary_DictionaryElement"><path codeLine="2" d="M113.8,139 C125.39,139 136.99,139 148.58,139 " fill="none" id="Dictionary-DictionaryElement" style="stroke:#181818;stroke-width:1.0;"/></g><!--SRC=[SyxFBIXABIxEBrBGrRLJSCbCBidCpqiigkH2C1LqYtIHP5npKdDJyqe0]--></g></svg>