<svg xmlns="http://www.w3.org/2000/svg" xmlns:xlink="http://www.w3.org/1999/xlink" contentStyleType="text/css" height="761px" preserveAspectRatio="none" style="width:450px;height:761px;background:#FFFFFF;" version="1.1" viewBox="0 0 450 761" width="450px" zoomAndPan="magnify"><defs/><g><!--class Repositorio--><g id="elem_Repositorio"><rect codeLine="3" fill="#F1F1F1" height="74.8906" id="Repositorio" rx="2.5" ry="2.5" style="stroke:#181818;stroke-width:0.5;" width="131.2803" x="194.5" y="7"/><text fill="#000000" font-family="sans-serif" font-size="14" lengthAdjust="spacing" textLength="79.2422" x="220.519" y="24.9951">Repositorio</text><line style="stroke:#181818;stroke-width:0.5;" x1="195.5" x2="324.7803" y1="33.2969" y2="33.2969"/><ellipse cx="205.5" cy="46.9453" fill="none" rx="3" ry="3" style="stroke:#038048;stroke-width:1;"/><text fill="#000000" font-family="sans-serif" font-size="14" lengthAdjust="spacing" textLength="105.2803" x="214.5" y="50.292">nombre: String</text><line style="stroke:#181818;stroke-width:0.5;" x1="195.5" x2="324.7803" y1="57.5938" y2="57.5938"/><ellipse cx="205.5" cy="71.2422" fill="#84BE84" rx="3" ry="3" style="stroke:#038048;stroke-width:1;"/><text fill="#000000" font-family="sans-serif" font-size="14" lengthAdjust="spacing" textLength="87.8486" x="214.5" y="74.5889">crearRama()</text></g><!--class Rama--><g id="elem_Rama"><rect codeLine="8" fill="#F1F1F1" height="91.1875" id="Rama" rx="2.5" ry="2.5" style="stroke:#181818;stroke-width:0.5;" width="270.1387" x="7" y="159"/><text fill="#000000" font-family="sans-serif" font-size="14" lengthAdjust="spacing" textLength="40.5234" x="121.8076" y="176.9951">Rama</text><line style="stroke:#181818;stroke-width:0.5;" x1="8" x2="276.1387" y1="185.2969" y2="185.2969"/><ellipse cx="18" cy="198.9453" fill="none" rx="3" ry="3" style="stroke:#038048;stroke-width:1;"/><text fill="#000000" font-family="sans-serif" font-size="14" lengthAdjust="spacing" textLength="105.2803" x="27" y="202.292">nombre: String</text><ellipse cx="18" cy="215.2422" fill="none" rx="3" ry="3" style="stroke:#038048;stroke-width:1;"/><text fill="#000000" font-family="sans-serif" font-size="14" lengthAdjust="spacing" textLength="93.8506" x="27" y="218.5889">commits: List</text><line style="stroke:#181818;stroke-width:0.5;" x1="8" x2="276.1387" y1="225.8906" y2="225.8906"/><ellipse cx="18" cy="239.5391" fill="#84BE84" rx="3" ry="3" style="stroke:#038048;stroke-width:1;"/><text fill="#000000" font-family="sans-serif" font-size="14" lengthAdjust="spacing" textLength="244.1387" x="27" y="242.8857">fusionarRama(rama: Rama): Rama</text></g><!--class Commit--><g id="elem_Commit"><rect codeLine="14" fill="#F1F1F1" height="91.1875" id="Commit" rx="2.5" ry="2.5" style="stroke:#181818;stroke-width:0.5;" width="136.4482" x="74" y="327"/><text fill="#000000" font-family="sans-serif" font-size="14" lengthAdjust="spacing" textLength="54.9951" x="114.7266" y="344.9951">Commit</text><line style="stroke:#181818;stroke-width:0.5;" x1="75" x2="209.4482" y1="353.2969" y2="353.2969"/><ellipse cx="85" cy="366.9453" fill="none" rx="3" ry="3" style="stroke:#038048;stroke-width:1;"/><text fill="#000000" font-family="sans-serif" font-size="14" lengthAdjust="spacing" textLength="63.7246" x="94" y="370.292">id: String</text><ellipse cx="85" cy="383.2422" fill="none" rx="3" ry="3" style="stroke:#038048;stroke-width:1;"/><text fill="#000000" font-family="sans-serif" font-size="14" lengthAdjust="spacing" textLength="110.4482" x="94" y="386.5889">mensaje: String</text><ellipse cx="85" cy="399.5391" fill="none" rx="3" ry="3" style="stroke:#038048;stroke-width:1;"/><text fill="#000000" font-family="sans-serif" font-size="14" lengthAdjust="spacing" textLength="81.3203" x="94" y="402.8857">fecha: Date</text><line style="stroke:#181818;stroke-width:0.5;" x1="75" x2="209.4482" y1="410.1875" y2="410.1875"/></g><!--class Archivo--><g id="elem_Archivo"><rect codeLine="20" fill="#F1F1F1" height="74.8906" id="Archivo" rx="2.5" ry="2.5" style="stroke:#181818;stroke-width:0.5;" width="146.4014" x="69" y="495"/><text fill="#000000" font-family="sans-serif" font-size="14" lengthAdjust="spacing" textLength="52.6436" x="115.8789" y="512.9951">Archivo</text><line style="stroke:#181818;stroke-width:0.5;" x1="70" x2="214.4014" y1="521.2969" y2="521.2969"/><ellipse cx="80" cy="534.9453" fill="none" rx="3" ry="3" style="stroke:#038048;stroke-width:1;"/><text fill="#000000" font-family="sans-serif" font-size="14" lengthAdjust="spacing" textLength="105.2803" x="89" y="538.292">nombre: String</text><ellipse cx="80" cy="551.2422" fill="none" rx="3" ry="3" style="stroke:#038048;stroke-width:1;"/><text fill="#000000" font-family="sans-serif" font-size="14" lengthAdjust="spacing" textLength="120.4014" x="89" y="554.5889">contenido: String</text><line style="stroke:#181818;stroke-width:0.5;" x1="70" x2="214.4014" y1="561.8906" y2="561.8906"/></g><!--class Usuario--><g id="elem_Usuario"><rect codeLine="25" fill="#F1F1F1" height="74.8906" id="Usuario" rx="2.5" ry="2.5" style="stroke:#181818;stroke-width:0.5;" width="131.2803" x="312.5" y="167"/><text fill="#000000" font-family="sans-serif" font-size="14" lengthAdjust="spacing" textLength="53.2041" x="351.5381" y="184.9951">Usuario</text><line style="stroke:#181818;stroke-width:0.5;" x1="313.5" x2="442.7803" y1="193.2969" y2="193.2969"/><ellipse cx="323.5" cy="206.9453" fill="none" rx="3" ry="3" style="stroke:#038048;stroke-width:1;"/><text fill="#000000" font-family="sans-serif" font-size="14" lengthAdjust="spacing" textLength="105.2803" x="332.5" y="210.292">nombre: String</text><ellipse cx="323.5" cy="223.2422" fill="none" rx="3" ry="3" style="stroke:#038048;stroke-width:1;"/><text fill="#000000" font-family="sans-serif" font-size="14" lengthAdjust="spacing" textLength="95.9014" x="332.5" y="226.5889">correo: String</text><line style="stroke:#181818;stroke-width:0.5;" x1="313.5" x2="442.7803" y1="233.8906" y2="233.8906"/></g><!--class EstadoArchivo--><g id="elem_EstadoArchivo"><rect codeLine="30" fill="#F1F1F1" height="107.4844" id="EstadoArchivo" rx="2.5" ry="2.5" style="stroke:#181818;stroke-width:0.5;" width="106.3037" x="89" y="647"/><text fill="#000000" font-family="sans-serif" font-size="14" lengthAdjust="spacing" textLength="100.3037" x="92" y="664.9951">EstadoArchivo</text><line style="stroke:#181818;stroke-width:0.5;" x1="90" x2="194.3037" y1="673.2969" y2="673.2969"/><text fill="#000000" font-family="sans-serif" font-size="14" lengthAdjust="spacing" textLength="44.8096" x="95" y="690.292">Nuevo</text><text fill="#000000" font-family="sans-serif" font-size="14" lengthAdjust="spacing" textLength="75.9678" x="95" y="706.5889">Modificado</text><text fill="#000000" font-family="sans-serif" font-size="14" lengthAdjust="spacing" textLength="69.0566" x="95" y="722.8857">Eliminado</text><text fill="#000000" font-family="sans-serif" font-size="14" lengthAdjust="spacing" textLength="82.2773" x="95" y="739.1826">SinCambios</text><line style="stroke:#181818;stroke-width:0.5;" x1="90" x2="194.3037" y1="746.4844" y2="746.4844"/></g><!--link Repositorio to Rama--><g id="link_Repositorio_Rama"><path codeLine="37" d="M232.63,82.15 C215.54,105.03 197.0211,129.8333 178.9111,154.0733 " fill="none" id="Repositorio-to-Rama" style="stroke:#181818;stroke-width:1;"/><polygon fill="#181818" points="175.32,158.88,183.9111,154.0641,178.3126,154.8745,177.5022,149.2759,175.32,158.88" style="stroke:#181818;stroke-width:1;"/><text fill="#000000" font-family="sans-serif" font-size="13" lengthAdjust="spacing" textLength="56.2847" x="210" y="125.0669">contiene</text><text fill="#000000" font-family="sans-serif" font-size="13" lengthAdjust="spacing" textLength="8.271" x="219.2375" y="101.9979">1</text><text fill="#000000" font-family="sans-serif" font-size="13" lengthAdjust="spacing" textLength="6.5" x="173.9904" y="147.8087">*</text></g><!--link Rama to Commit--><g id="link_Rama_Commit"><path codeLine="38" d="M142,250.42 C142,274.14 142,297.15 142,320.83 " fill="none" id="Rama-to-Commit" style="stroke:#181818;stroke-width:1;"/><polygon fill="#181818" points="142,326.83,146,317.83,142,321.83,138,317.83,142,326.83" style="stroke:#181818;stroke-width:1;"/><text fill="#000000" font-family="sans-serif" font-size="13" lengthAdjust="spacing" textLength="32.9443" x="143" y="293.0669">tiene</text><text fill="#000000" font-family="sans-serif" font-size="13" lengthAdjust="spacing" textLength="8.271" x="133.4222" y="270.3289">1</text><text fill="#000000" font-family="sans-serif" font-size="13" lengthAdjust="spacing" textLength="6.5" x="135.5632" y="316.0835">*</text></g><!--link Commit to Archivo--><g id="link_Commit_Archivo"><path codeLine="39" d="M142,418.35 C142,442.53 142,465.99 142,488.79 " fill="none" id="Commit-to-Archivo" style="stroke:#181818;stroke-width:1;"/><polygon fill="#181818" points="142,494.79,146,485.79,142,489.79,138,485.79,142,494.79" style="stroke:#181818;stroke-width:1;"/><text fill="#000000" font-family="sans-serif" font-size="13" lengthAdjust="spacing" textLength="55.7832" x="143" y="461.0669">modifica</text><text fill="#000000" font-family="sans-serif" font-size="13" lengthAdjust="spacing" textLength="8.271" x="133.3995" y="438.2487">1</text><text fill="#000000" font-family="sans-serif" font-size="13" lengthAdjust="spacing" textLength="6.5" x="135.4744" y="483.8254">*</text></g><!--link Archivo to EstadoArchivo--><g id="link_Archivo_EstadoArchivo"><path codeLine="40" d="M142,570.34 C142,592.79 142,615.84 142,640.7 " fill="none" id="Archivo-to-EstadoArchivo" style="stroke:#181818;stroke-width:1;"/><polygon fill="#181818" points="142,646.7,146,637.7,142,641.7,138,637.7,142,646.7" style="stroke:#181818;stroke-width:1;"/><text fill="#000000" font-family="sans-serif" font-size="13" lengthAdjust="spacing" textLength="44.04" x="143" y="613.0669">estado</text></g><!--link Repositorio to Usuario--><g id="link_Repositorio_Usuario"><path codeLine="41" d="M287.37,82.15 C306.36,107.58 327.9794,136.523 346.9894,161.973 " fill="none" id="Repositorio-to-Usuario" style="stroke:#181818;stroke-width:1;"/><polygon fill="#181818" points="350.58,166.78,348.3987,157.1757,347.5878,162.7742,341.9894,161.9632,350.58,166.78" style="stroke:#181818;stroke-width:1;"/><text fill="#000000" font-family="sans-serif" font-size="13" lengthAdjust="spacing" textLength="111.4141" x="320" y="125.0669">administrado por</text><text fill="#000000" font-family="sans-serif" font-size="13" lengthAdjust="spacing" textLength="8.271" x="283.3859" y="101.9979">1</text><text fill="#000000" font-family="sans-serif" font-size="13" lengthAdjust="spacing" textLength="6.5" x="339.181" y="155.8137">*</text></g><!--SRC=[XL4nRiCm3Dpz2i9Jqo93Lmq5YZHRsY517w18TCF24WDApbBqxrLasR435FOW-wYxyv4yaKKm9AR5gZAj3W7sUEP0aOKOVYf8pnDuTaT11OSevBzAqGXgsMkd7rRLxwXEU476pb4C2dOKOgarNI3snKtIeRBHgd_Tt3TPE_gJlVDsw8F-llzZW-QK7Dzqn9lLgvWJNPPQP1_Ha-MnFke_GwUNHyGYE1EZxnniGzIMvma-Ehnm_dfdImsPnCXmsv8ZFw03-OrsH-9mTPlkgdwkORr-WVgnxhUWSdn2ZrN6Kq8Pf8B-li0fOqYdm9KyrL2wKkOjAC2C_mqqJ4k1jgcRj7b9T3Yp_040]--></g></svg>